<?xml version="1.0" encoding="utf-8"?>
<!-- Generator: Adobe Illustrator 19.0.0, SVG Export Plug-In . SVG Version: 6.00 Build 0)  -->
<svg version="1.0" id="图层_1" xmlns="http://www.w3.org/2000/svg" xmlns:xlink="http://www.w3.org/1999/xlink" x="0px" y="0px"
	 viewBox="0 0 100 66" style="enable-background:new 0 0 100 66;" xml:space="preserve">
<style type="text/css">
	.st0{fill:#FFFFFF;}
	.st1{fill:url(#XMLID_3_);}
	.st2{fill:url(#XMLID_4_);}
	.st3{fill:url(#XMLID_5_);}
	.st4{fill:url(#XMLID_6_);}
	.st5{fill:url(#XMLID_7_);}
</style>
<rect id="XMLID_1_" class="st0" width="100" height="66"/>
<linearGradient id="XMLID_3_" gradientUnits="userSpaceOnUse" x1="39.6875" y1="58" x2="39.6875" y2="2">
	<stop  offset="0" style="stop-color:#1E80D3"/>
	<stop  offset="1" style="stop-color:#00A0E9"/>
</linearGradient>
<path id="XMLID_15_" class="st1" d="M70.6,2H8.7c-2.2,0-4,1.8-4,4V46c0,2.2,1.8,4,4,4h26.9c0,0,0,0,0,0V54c0,0,0,0,0,0l-9.5,0
	c-1,0-2,0.7-2.1,1.7c-0.2,1.2,0.8,2.3,2,2.3l27.5,0c1,0,2-0.7,2.1-1.7c0.2-1.2-0.8-2.3-2-2.3h-9.8c0,0,0,0,0,0V50c0,0,0,0,0,0h26.9
	c2.2,0,4-1.8,4-4V6C74.7,3.8,72.9,2,70.6,2z M70.7,44c0,1.1-0.9,2-2,2h-58c-1.1,0-2-0.9-2-2V8c0-1.1,0.9-2,2-2h57.9c1.1,0,2,0.9,2,2
	V44z"/>
<rect id="XMLID_24_" x="66.9" y="27.6" class="st0" width="10.5" height="25"/>
<linearGradient id="XMLID_4_" gradientUnits="userSpaceOnUse" x1="80.3125" y1="64.25" x2="80.3125" y2="25.25">
	<stop  offset="0" style="stop-color:#FF8700"/>
	<stop  offset="1" style="stop-color:#FFA655"/>
</linearGradient>
<path id="XMLID_20_" class="st2" d="M91.3,64.2c2.2,0,4-1.8,4-4V29.3c0-2.2-1.8-4-4-4H69.4c-2.2,0-4,1.8-4,4v30.9c0,2.2,1.8,4,4,4
	H91.3z M91.3,54.3c0,1.1-0.9,2-2,2h-18c-1.1,0-2-0.9-2-2v-23c0-1.1,0.9-2,2-2h17.9c1.1,0,2,0.9,2,2V54.3z"/>
<linearGradient id="XMLID_5_" gradientUnits="userSpaceOnUse" x1="28.8353" y1="24.4125" x2="28.8353" y2="17">
	<stop  offset="0" style="stop-color:#FF8700"/>
	<stop  offset="1" style="stop-color:#FFA655"/>
</linearGradient>
<path id="XMLID_8_" class="st3" d="M30.7,17h-7c-0.8,0-1.5,0.7-1.5,1.5s0.7,1.5,1.5,1.5H30l3.6,4.4l1.9-2.4l-3.6-4.5
	C31.6,17.2,31.1,17,30.7,17z"/>
<linearGradient id="XMLID_6_" gradientUnits="userSpaceOnUse" x1="46.7414" y1="38.5" x2="46.7414" y2="27.5875">
	<stop  offset="0" style="stop-color:#FF8700"/>
	<stop  offset="1" style="stop-color:#FFA655"/>
</linearGradient>
<path id="XMLID_16_" class="st4" d="M55.1,32.7l-2.9-2l-3.6-2.1c-0.5-0.3-1.5,0.1-1.5,0.8V32h-3.5L40,27.6L38.1,30l3.6,4.5
	c0.3,0.4,0.7,0.6,1.2,0.6H47v2.6c0,0.7,1.1,1.1,1.5,0.8l3.4-2.1l3.1-2C55.5,34,55.6,33,55.1,32.7z"/>
<linearGradient id="XMLID_7_" gradientUnits="userSpaceOnUse" x1="38.806" y1="35" x2="38.806" y2="13.625">
	<stop  offset="0" style="stop-color:#FF8700"/>
	<stop  offset="1" style="stop-color:#FFA655"/>
</linearGradient>
<path id="XMLID_10_" class="st5" d="M55.1,17.8l-2.9-2l-3.6-2.1c-0.5-0.3-1.5,0.1-1.5,0.8V17h-4.2c-0.5,0-0.9,0.2-1.2,0.6L30,32
	h-6.3c-0.8,0-1.5,0.7-1.5,1.5s0.7,1.5,1.5,1.5h7c0.5,0,0.9-0.2,1.2-0.6L43.6,20H47v2.7c0,0.7,1.1,1.1,1.5,0.8l3.4-2.1l3.1-2
	C55.5,19.1,55.6,18.2,55.1,17.8z"/>
<circle id="XMLID_19_" class="st0" cx="80.8" cy="60.2" r="2.5"/>
</svg>
