<?xml version="1.0" encoding="utf-8"?>
<!-- Generator: Adobe Illustrator 19.0.0, SVG Export Plug-In . SVG Version: 6.00 Build 0)  -->
<svg version="1.0" id="图层_1" xmlns="http://www.w3.org/2000/svg" xmlns:xlink="http://www.w3.org/1999/xlink" x="0px" y="0px"
	 viewBox="0 0 100 66" style="enable-background:new 0 0 100 66;" xml:space="preserve">
<style type="text/css">
	.st0{fill:#FFFFFF;}
	.st1{fill:url(#XMLID_48_);}
	.st2{fill:url(#XMLID_49_);}
	.st3{fill:url(#XMLID_50_);}
	.st4{fill:url(#XMLID_51_);}
	.st5{fill:#FF8700;}
	.st6{fill:url(#XMLID_52_);}
	.st7{fill:url(#XMLID_53_);}
	.st8{fill:url(#XMLID_54_);}
	.st9{fill:url(#XMLID_55_);}
	.st10{fill:url(#XMLID_56_);}
	.st11{fill:url(#XMLID_57_);}
	.st12{fill:url(#XMLID_58_);}
	.st13{fill:url(#XMLID_59_);}
</style>
<rect id="XMLID_1_" class="st0" width="100" height="66"/>
<linearGradient id="XMLID_48_" gradientUnits="userSpaceOnUse" x1="42" y1="58" x2="42" y2="2">
	<stop  offset="0" style="stop-color:#1E80D3"/>
	<stop  offset="1" style="stop-color:#00A0E9"/>
</linearGradient>
<path id="XMLID_140_" class="st1" d="M73,2H11C8.8,2,7,3.8,7,6V46c0,2.2,1.8,4,4,4H38c0,0,0,0,0,0V54c0,0,0,0,0,0l-9.5,0
	c-1,0-2,0.7-2.1,1.7c-0.2,1.2,0.8,2.3,2,2.3l27.5,0c1,0,2-0.7,2.1-1.7c0.2-1.2-0.8-2.3-2-2.3H46c0,0,0,0,0,0V50c0,0,0,0,0,0H73
	c2.2,0,4-1.8,4-4V6C77,3.8,75.2,2,73,2z M73,44c0,1.1-0.9,2-2,2H13c-1.1,0-2-0.9-2-2V8c0-1.1,0.9-2,2-2H71c1.1,0,2,0.9,2,2V44z"/>
<linearGradient id="XMLID_49_" gradientUnits="userSpaceOnUse" x1="23.2292" y1="36.9094" x2="15.2292" y2="36.9094" gradientTransform="matrix(4.489700e-11 1 -1 4.489700e-11 59.8448 -4.2802)">
	<stop  offset="0" style="stop-color:#FF8700"/>
	<stop  offset="1" style="stop-color:#FFA655"/>
</linearGradient>
<path id="XMLID_135_" class="st2" d="M18.9,16.9v-4c0-1.1,0.9-2,2-2h4c1.1,0,2,0.9,2,2v4c0,1.1-0.9,2-2,2h-4
	C19.8,18.9,18.9,18.1,18.9,16.9z"/>
<linearGradient id="XMLID_50_" gradientUnits="userSpaceOnUse" x1="23.2292" y1="24.2768" x2="15.2292" y2="24.2768" gradientTransform="matrix(4.489700e-11 1 -1 4.489700e-11 59.8448 -4.2802)">
	<stop  offset="0" style="stop-color:#FF8700"/>
	<stop  offset="1" style="stop-color:#FFA655"/>
</linearGradient>
<path id="XMLID_131_" class="st3" d="M31.6,16.9v-4c0-1.1,0.9-2,2-2h4c1.1,0,2,0.9,2,2v4c0,1.1-0.9,2-2,2h-4
	C32.5,18.9,31.6,18.1,31.6,16.9z"/>
<linearGradient id="XMLID_51_" gradientUnits="userSpaceOnUse" x1="23.2292" y1="11.6441" x2="15.2292" y2="11.6441" gradientTransform="matrix(4.489700e-11 1 -1 4.489700e-11 59.8448 -4.2802)">
	<stop  offset="0" style="stop-color:#FF8700"/>
	<stop  offset="1" style="stop-color:#FFA655"/>
</linearGradient>
<path id="XMLID_133_" class="st4" d="M44.2,16.9v-4c0-1.1,0.9-2,2-2h4c1.1,0,2,0.9,2,2v4c0,1.1-0.9,2-2,2h-4
	C45.1,18.9,44.2,18.1,44.2,16.9z"/>
<g id="XMLID_170_">
	<path id="XMLID_32_" class="st5" d="M50.2,30.9c-0.1,0-0.2-0.1-0.2-0.2c0-0.1,0.1-0.3,0.2-0.3c0.3,0,0.6-0.1,0.9-0.2
		c0.1-0.1,0.3,0,0.3,0.1s0,0.3-0.1,0.3C51,30.8,50.6,30.9,50.2,30.9C50.2,30.9,50.2,30.9,50.2,30.9z M49.2,30.9h-1
		c-0.1,0-0.2-0.1-0.2-0.2s0.1-0.2,0.2-0.2h1c0.1,0,0.2,0.1,0.2,0.2S49.3,30.9,49.2,30.9z M47.2,30.9h-1c0,0-0.1,0-0.1,0
		c-0.1,0-0.2-0.1-0.2-0.3c0-0.1,0.1-0.2,0.3-0.2l1,0c0.1,0,0.2,0.1,0.2,0.2S47.3,30.9,47.2,30.9z M45.2,30.6c0,0-0.1,0-0.1,0
		c-0.3-0.2-0.6-0.5-0.8-0.8c-0.1-0.1,0-0.3,0.1-0.3c0.1-0.1,0.3,0,0.3,0.1c0.1,0.3,0.4,0.5,0.6,0.6c0.1,0.1,0.2,0.2,0.1,0.3
		C45.3,30.5,45.3,30.6,45.2,30.6z M51.9,29.9c0,0-0.1,0-0.1,0c-0.1-0.1-0.2-0.2-0.1-0.3c0.2-0.3,0.2-0.5,0.2-0.8
		c0-0.1,0.1-0.2,0.2-0.2c0,0,0,0,0,0c0.1,0,0.2,0.1,0.2,0.3c0,0.4-0.1,0.8-0.3,1.1C52.1,29.9,52,29.9,51.9,29.9z M44.2,28.9
		c-0.1,0-0.2-0.1-0.2-0.2h0.2l-0.2,0l0-1c0-0.1,0.1-0.2,0.2-0.2s0.2,0.1,0.2,0.2v1C44.5,28.8,44.3,28.9,44.2,28.9z M52.2,27.9
		c-0.1,0-0.2-0.1-0.2-0.2v-1c0-0.1,0.1-0.2,0.2-0.2s0.2,0.1,0.2,0.2v1C52.5,27.8,52.3,27.9,52.2,27.9z M44.2,26.8
		c-0.1,0-0.2-0.1-0.2-0.2v-1c0-0.1,0.1-0.2,0.2-0.2s0.2,0.1,0.2,0.2v1C44.5,26.7,44.3,26.8,44.2,26.8z M52.2,25.9
		c-0.1,0-0.2-0.1-0.2-0.2v-1c0-0.1,0.1-0.3,0.3-0.3c0.1,0,0.2,0.1,0.2,0.2c0,0,0,0,0,0.1l0,1C52.5,25.8,52.3,25.9,52.2,25.9z
		 M44.2,24.8C44.2,24.8,44.2,24.8,44.2,24.8c-0.1,0-0.3-0.1-0.2-0.3c0-0.4,0.1-0.8,0.3-1.1c0.1-0.1,0.2-0.2,0.3-0.1
		c0.1,0.1,0.2,0.2,0.1,0.3c-0.2,0.3-0.2,0.5-0.3,0.8C44.4,24.7,44.3,24.8,44.2,24.8z M51.9,23.9c-0.1,0-0.2,0-0.2-0.1
		c-0.1-0.3-0.4-0.5-0.6-0.6C51,23,51,22.9,51,22.8c0.1-0.1,0.2-0.2,0.3-0.1c0.3,0.2,0.6,0.5,0.8,0.8c0.1,0.1,0,0.3-0.1,0.3
		C52,23.9,52,23.9,51.9,23.9z M45.2,23.1c-0.1,0-0.2,0-0.2-0.1c-0.1-0.1,0-0.3,0.1-0.3c0.3-0.2,0.7-0.3,1.1-0.3c0,0,0,0,0,0
		c0.1,0,0.2,0.1,0.2,0.2c0,0.1-0.1,0.2-0.2,0.3c-0.3,0-0.6,0.1-0.9,0.2C45.3,23.1,45.3,23.1,45.2,23.1z M50.3,22.9
		C50.3,22.9,50.3,22.9,50.3,22.9l-1,0c-0.1,0-0.2-0.1-0.2-0.2s0.1-0.2,0.2-0.2l1,0c0.1,0,0.2,0.1,0.2,0.3
		C50.5,22.8,50.4,22.9,50.3,22.9z M48.2,22.9h-1c-0.1,0-0.2-0.1-0.2-0.2s0.1-0.2,0.2-0.2h1c0.1,0,0.2,0.1,0.2,0.2
		S48.4,22.9,48.2,22.9z"/>
</g>
<g id="XMLID_200_">
	<path id="XMLID_17_" class="st5" d="M23.9,42.6h-1c-0.1,0-0.2-0.1-0.2-0.2s0.1-0.2,0.2-0.2h1c0.1,0,0.2,0.1,0.2,0.2
		S24.1,42.6,23.9,42.6z M21.9,42.6h-1c0,0-0.1,0-0.1,0c-0.1,0-0.2-0.1-0.2-0.3c0-0.1,0.1-0.2,0.2-0.2c0,0,0,0,0,0l1,0
		c0.1,0,0.2,0.1,0.2,0.2S22,42.6,21.9,42.6z M25,42.6c-0.1,0-0.2-0.1-0.2-0.2c0-0.1,0.1-0.3,0.2-0.3c0.3,0,0.6-0.1,0.9-0.2
		c0.1-0.1,0.3,0,0.3,0.1s0,0.3-0.1,0.3C25.7,42.5,25.3,42.6,25,42.6C25,42.6,25,42.6,25,42.6z M19.9,42.3c0,0-0.1,0-0.1,0
		c-0.3-0.2-0.6-0.5-0.8-0.8c-0.1-0.1,0-0.3,0.1-0.3c0.1-0.1,0.3,0,0.3,0.1c0.1,0.3,0.4,0.5,0.6,0.6c0.1,0.1,0.2,0.2,0.1,0.3
		C20.1,42.2,20,42.3,19.9,42.3z M26.6,41.6c0,0-0.1,0-0.1,0c-0.1-0.1-0.2-0.2-0.1-0.3c0.2-0.3,0.2-0.5,0.2-0.8
		c0-0.1,0.1-0.2,0.3-0.2c0.1,0,0.2,0.1,0.2,0.3c0,0.4-0.1,0.8-0.3,1.1C26.8,41.6,26.7,41.6,26.6,41.6z M18.9,40.6
		c-0.1,0-0.2-0.1-0.2-0.2v-1c0-0.1,0.1-0.2,0.2-0.2s0.2,0.1,0.2,0.2v1C19.2,40.5,19.1,40.6,18.9,40.6z M26.9,39.6
		c-0.1,0-0.2-0.1-0.2-0.2v-1c0-0.1,0.1-0.2,0.2-0.2s0.2,0.1,0.2,0.2v1C27.2,39.5,27.1,39.6,26.9,39.6z M18.9,38.5
		c-0.1,0-0.2-0.1-0.2-0.2v-1c0-0.1,0.1-0.2,0.2-0.2s0.2,0.1,0.2,0.2v1C19.2,38.4,19.1,38.5,18.9,38.5z M26.9,37.6
		c-0.1,0-0.2-0.1-0.2-0.2v-1c0-0.1,0.1-0.3,0.2-0.3s0.2,0.1,0.2,0.2v1C27.2,37.5,27.1,37.6,26.9,37.6z M18.9,36.5
		C18.9,36.5,18.9,36.5,18.9,36.5c-0.1,0-0.3-0.1-0.2-0.3c0-0.4,0.1-0.8,0.3-1.1c0.1-0.1,0.2-0.2,0.3-0.1c0.1,0.1,0.2,0.2,0.1,0.3
		c-0.2,0.3-0.2,0.5-0.3,0.8C19.2,36.4,19.1,36.5,18.9,36.5z M26.7,35.6c-0.1,0-0.2,0-0.2-0.1c-0.1-0.3-0.4-0.5-0.6-0.6
		c-0.1-0.1-0.2-0.2-0.1-0.3c0.1-0.1,0.2-0.2,0.3-0.1c0.3,0.2,0.6,0.5,0.8,0.8c0.1,0.1,0,0.3-0.1,0.3C26.8,35.6,26.7,35.6,26.7,35.6z
		 M20,34.8c-0.1,0-0.2,0-0.2-0.1c-0.1-0.1,0-0.3,0.1-0.3c0.3-0.2,0.7-0.3,1.1-0.3h0c0.1,0,0.2,0.1,0.2,0.2s-0.1,0.2-0.2,0.3
		c-0.3,0-0.6,0.1-0.9,0.2C20,34.8,20,34.8,20,34.8z M25,34.6C25,34.6,25,34.6,25,34.6l-1,0c-0.1,0-0.2-0.1-0.2-0.2s0.1-0.2,0.2-0.2
		l1,0c0.1,0,0.2,0.1,0.2,0.3C25.3,34.5,25.1,34.6,25,34.6z M23,34.6h-1c-0.1,0-0.2-0.1-0.2-0.2s0.1-0.2,0.2-0.2h1
		c0.1,0,0.2,0.1,0.2,0.2S23.1,34.6,23,34.6z"/>
</g>
<g id="XMLID_171_">
	<path id="XMLID_2_" class="st5" d="M61.8,30.9h-1c-0.1,0-0.2-0.1-0.2-0.2s0.1-0.2,0.2-0.2h1c0.1,0,0.2,0.1,0.2,0.2
		S62,30.9,61.8,30.9z M59.8,30.9h-1c0,0-0.1,0-0.1,0c-0.1,0-0.2-0.1-0.2-0.3c0-0.1,0.1-0.2,0.3-0.2l1,0c0.1,0,0.2,0.1,0.2,0.2
		S59.9,30.9,59.8,30.9z M62.9,30.9c-0.1,0-0.2-0.1-0.2-0.2c0-0.1,0.1-0.3,0.2-0.3c0.3,0,0.6-0.1,0.9-0.2c0.1-0.1,0.3,0,0.3,0.1
		c0.1,0.1,0,0.3-0.1,0.3C63.6,30.8,63.2,30.9,62.9,30.9C62.9,30.9,62.9,30.9,62.9,30.9z M57.8,30.6c0,0-0.1,0-0.1,0
		c-0.3-0.2-0.6-0.5-0.8-0.8c-0.1-0.1,0-0.3,0.1-0.3c0.1-0.1,0.3,0,0.3,0.1c0.1,0.3,0.4,0.5,0.6,0.6c0.1,0.1,0.2,0.2,0.1,0.3
		C58,30.5,57.9,30.6,57.8,30.6z M64.5,29.9c0,0-0.1,0-0.1,0c-0.1-0.1-0.2-0.2-0.1-0.3c0.2-0.3,0.2-0.5,0.2-0.8
		c0-0.1,0.1-0.2,0.2-0.2c0,0,0,0,0,0c0.1,0,0.2,0.1,0.2,0.3c0,0.4-0.1,0.8-0.3,1.1C64.7,29.9,64.6,29.9,64.5,29.9z M56.8,28.9
		c-0.1,0-0.2-0.1-0.2-0.2v-1c0-0.1,0.1-0.2,0.2-0.2s0.2,0.1,0.2,0.2v1C57.1,28.8,57,28.9,56.8,28.9z M64.8,27.9
		c-0.1,0-0.2-0.1-0.2-0.2v-1c0-0.1,0.1-0.2,0.2-0.2s0.2,0.1,0.2,0.2v1C65.1,27.8,65,27.9,64.8,27.9z M56.8,26.8
		c-0.1,0-0.2-0.1-0.2-0.2v-1c0-0.1,0.1-0.2,0.2-0.2s0.2,0.1,0.2,0.2v1C57.1,26.7,57,26.8,56.8,26.8z M64.8,25.9
		c-0.1,0-0.2-0.1-0.2-0.2v-1c0-0.1,0.1-0.3,0.2-0.3s0.2,0.1,0.2,0.2v1C65.1,25.8,65,25.9,64.8,25.9z M56.8,24.8
		C56.8,24.8,56.8,24.8,56.8,24.8c-0.1,0-0.3-0.1-0.2-0.3c0-0.4,0.1-0.8,0.3-1.1c0.1-0.1,0.2-0.2,0.3-0.1c0.1,0.1,0.2,0.2,0.1,0.3
		c-0.2,0.3-0.2,0.5-0.3,0.8C57.1,24.7,57,24.8,56.8,24.8z M64.6,23.9c-0.1,0-0.2,0-0.2-0.1c-0.1-0.3-0.4-0.5-0.6-0.6
		c-0.1-0.1-0.2-0.2-0.1-0.3c0.1-0.1,0.2-0.2,0.3-0.1c0.3,0.2,0.6,0.5,0.8,0.8c0.1,0.1,0,0.3-0.1,0.3C64.7,23.9,64.6,23.9,64.6,23.9z
		 M57.9,23.1c-0.1,0-0.2,0-0.2-0.1c-0.1-0.1,0-0.3,0.1-0.3c0.3-0.2,0.7-0.3,1.1-0.3c0,0,0,0,0,0c0.1,0,0.2,0.1,0.2,0.2
		c0,0.1-0.1,0.2-0.2,0.3c-0.3,0-0.6,0.1-0.9,0.2C57.9,23.1,57.9,23.1,57.9,23.1z M62.9,22.9C62.9,22.9,62.9,22.9,62.9,22.9l-1,0
		c-0.1,0-0.2-0.1-0.2-0.2s0.1-0.2,0.2-0.2l1,0c0.1,0,0.2,0.1,0.2,0.3C63.1,22.8,63,22.9,62.9,22.9z M60.9,22.9h-1
		c-0.1,0-0.2-0.1-0.2-0.2s0.1-0.2,0.2-0.2h1c0.1,0,0.2,0.1,0.2,0.2S61,22.9,60.9,22.9z"/>
</g>
<linearGradient id="XMLID_52_" gradientUnits="userSpaceOnUse" x1="23.2292" y1="-0.9885" x2="15.2292" y2="-0.9885" gradientTransform="matrix(4.489700e-11 1 -1 4.489700e-11 59.8448 -4.2802)">
	<stop  offset="0" style="stop-color:#FF8700"/>
	<stop  offset="1" style="stop-color:#FFA655"/>
</linearGradient>
<path id="XMLID_134_" class="st6" d="M56.8,16.9v-4c0-1.1,0.9-2,2-2h4c1.1,0,2,0.9,2,2v4c0,1.1-0.9,2-2,2h-4
	C57.7,18.9,56.8,18.1,56.8,16.9z"/>
<linearGradient id="XMLID_53_" gradientUnits="userSpaceOnUse" x1="34.8958" y1="36.9094" x2="26.8958" y2="36.9094" gradientTransform="matrix(4.489700e-11 1 -1 4.489700e-11 59.8448 -4.2802)">
	<stop  offset="0" style="stop-color:#FF8700"/>
	<stop  offset="1" style="stop-color:#FFA655"/>
</linearGradient>
<path id="XMLID_138_" class="st7" d="M18.9,28.6v-4c0-1.1,0.9-2,2-2h4c1.1,0,2,0.9,2,2v4c0,1.1-0.9,2-2,2h-4
	C19.8,30.6,18.9,29.7,18.9,28.6z"/>
<linearGradient id="XMLID_54_" gradientUnits="userSpaceOnUse" x1="34.8958" y1="24.2768" x2="26.8958" y2="24.2768" gradientTransform="matrix(4.489700e-11 1 -1 4.489700e-11 59.8448 -4.2802)">
	<stop  offset="0" style="stop-color:#FF8700"/>
	<stop  offset="1" style="stop-color:#FFA655"/>
</linearGradient>
<path id="XMLID_137_" class="st8" d="M31.6,28.6v-4c0-1.1,0.9-2,2-2h4c1.1,0,2,0.9,2,2v4c0,1.1-0.9,2-2,2h-4
	C32.5,30.6,31.6,29.7,31.6,28.6z"/>
<linearGradient id="XMLID_55_" gradientUnits="userSpaceOnUse" x1="53.1042" y1="-29.6552" x2="45.1042" y2="-29.6552" gradientTransform="matrix(4.489700e-11 1 -1 4.489700e-11 59.8448 -4.2802)">
	<stop  offset="0" style="stop-color:#FF8700"/>
	<stop  offset="1" style="stop-color:#FFA655"/>
</linearGradient>
<path id="XMLID_136_" class="st9" d="M85.5,46.8v-4c0-1.1,0.9-2,2-2h4c1.1,0,2,0.9,2,2v4c0,1.1-0.9,2-2,2h-4
	C86.4,48.8,85.5,47.9,85.5,46.8z"/>
<linearGradient id="XMLID_56_" gradientUnits="userSpaceOnUse" x1="41.9375" y1="-29.6552" x2="33.9375" y2="-29.6552" gradientTransform="matrix(4.489700e-11 1 -1 4.489700e-11 59.8448 -4.2802)">
	<stop  offset="0" style="stop-color:#FF8700"/>
	<stop  offset="1" style="stop-color:#FFA655"/>
</linearGradient>
<path id="XMLID_132_" class="st10" d="M85.5,35.7v-4c0-1.1,0.9-2,2-2h4c1.1,0,2,0.9,2,2v4c0,1.1-0.9,2-2,2h-4
	C86.4,37.7,85.5,36.8,85.5,35.7z"/>
<linearGradient id="XMLID_57_" gradientUnits="userSpaceOnUse" x1="31.1875" y1="-29.6552" x2="23.1875" y2="-29.6552" gradientTransform="matrix(4.489700e-11 1 -1 4.489700e-11 59.8448 -4.2802)">
	<stop  offset="0" style="stop-color:#FF8700"/>
	<stop  offset="1" style="stop-color:#FFA655"/>
</linearGradient>
<path id="XMLID_169_" class="st11" d="M85.5,24.9v-4c0-1.1,0.9-2,2-2h4c1.1,0,2,0.9,2,2v4c0,1.1-0.9,2-2,2h-4
	C86.4,26.9,85.5,26,85.5,24.9z"/>
<linearGradient id="XMLID_58_" gradientUnits="userSpaceOnUse" x1="20.0208" y1="-29.6552" x2="12.0208" y2="-29.6552" gradientTransform="matrix(4.489700e-11 1 -1 4.489700e-11 59.8448 -4.2802)">
	<stop  offset="0" style="stop-color:#FF8700"/>
	<stop  offset="1" style="stop-color:#FFA655"/>
</linearGradient>
<path id="XMLID_139_" class="st12" d="M85.5,13.7v-4c0-1.1,0.9-2,2-2h4c1.1,0,2,0.9,2,2v4c0,1.1-0.9,2-2,2h-4
	C86.4,15.7,85.5,14.8,85.5,13.7z"/>
<linearGradient id="XMLID_59_" gradientUnits="userSpaceOnUse" x1="70.6868" y1="57.333" x2="70.6868" y2="35.7826">
	<stop  offset="0" style="stop-color:#FF8700"/>
	<stop  offset="1" style="stop-color:#FFA655"/>
</linearGradient>
<path id="XMLID_69_" class="st13" d="M83,51.4c-0.7-0.8-2-0.9-2.8-0.2c-1.7,1.4-3.8,2.2-6,2.2c-5.1,0-9.3-4.3-9.3-9.3H67
	c0.7,0,1.1-1,0.8-1.4l-2.1-3.3l-2-3c-0.3-0.5-1.3-0.6-1.6-0.1l-2,2.9L58,42.6C57.7,43,58.1,44,58.8,44h2c0,7,6,13.3,13.3,13.3
	c3.2,0,6.2-1.1,8.6-3.2C83.6,53.5,83.7,52.2,83,51.4z"/>
</svg>
