<?xml version="1.0" encoding="utf-8"?>
<!-- Generator: Adobe Illustrator 19.0.0, SVG Export Plug-In . SVG Version: 6.00 Build 0)  -->
<svg version="1.0" id="图层_1" xmlns="http://www.w3.org/2000/svg" xmlns:xlink="http://www.w3.org/1999/xlink" x="0px" y="0px"
	 viewBox="-734 371 450 340" style="enable-background:new -734 371 450 340;" xml:space="preserve">
<style type="text/css">
	.st0{clip-path:url(#XMLID_2_);}
	.st1{fill:#ECF7FD;}
	.st2{fill:#D6EEFA;}
	.st3{fill:#C2E6F7;}
	.st4{fill:#B1DFF4;}
	.st5{fill:#FFFFFF;}
	.st6{fill:#61B9DC;}
	.st7{fill:#CAE9F6;}
</style>
<g id="XMLID_393_">
	<defs>
		<rect id="XMLID_921_" x="-734" y="370.9" width="450" height="255.3"/>
	</defs>
	<clipPath id="XMLID_2_">
		<use xlink:href="#XMLID_921_"  style="overflow:visible;"/>
	</clipPath>
	<g id="XMLID_398_" class="st0">
		<circle id="XMLID_929_" class="st1" cx="-509" cy="588.2" r="189.7"/>
	</g>
	<g id="XMLID_397_" class="st0">
		<circle id="XMLID_927_" class="st2" cx="-509" cy="588.2" r="151.7"/>
	</g>
	<g id="XMLID_396_" class="st0">
		<circle id="XMLID_925_" class="st3" cx="-509" cy="588.2" r="106.2"/>
	</g>
	<g id="XMLID_395_" class="st0">
		<circle id="XMLID_923_" class="st4" cx="-509" cy="588.2" r="63.7"/>
	</g>
</g>
<g id="XMLID_375_">
	<g id="XMLID_392_">
		<circle id="XMLID_699_" class="st5" cx="-619.6" cy="605.6" r="7.7"/>
		<path id="XMLID_700_" class="st6" d="M-619.6,616.3c-5.9,0-10.7-4.8-10.7-10.7c0-5.9,4.8-10.7,10.7-10.7s10.7,4.8,10.7,10.7
			C-608.9,611.5-613.7,616.3-619.6,616.3z M-619.6,600.8c-2.6,0-4.7,2.1-4.7,4.7s2.1,4.7,4.7,4.7s4.7-2.1,4.7-4.7
			S-617,600.8-619.6,600.8z"/>
	</g>
	<g id="XMLID_391_">
		<circle id="XMLID_695_" class="st5" cx="-642.4" cy="572.3" r="9.3"/>
		<path id="XMLID_696_" class="st6" d="M-642.4,584.6c-6.8,0-12.3-5.5-12.3-12.3s5.5-12.3,12.3-12.3s12.3,5.5,12.3,12.3
			S-635.6,584.6-642.4,584.6z M-642.4,566c-3.5,0-6.3,2.8-6.3,6.3s2.8,6.3,6.3,6.3s6.3-2.8,6.3-6.3S-638.9,566-642.4,566z"/>
	</g>
	<g id="衣服_1_">
		<g id="XMLID_390_">
			<polygon id="XMLID_908_" class="st5" points="-604.9,556 -625.4,591.9 -607.4,597.7 -602.6,590 -605.8,617.8 -531.2,617.8 
				-537.6,588.4 -533.5,594.8 -515.2,586.9 -537,558.3 			"/>
		</g>
		<g id="XMLID_389_">
			<polygon id="XMLID_906_" class="st7" points="-598.5,556.7 -618.9,592.5 -601,598.3 -596.2,590.6 -599.4,618.5 -524.8,618.5 
				-531.2,589 -527.1,595.4 -508.8,587.6 -530.6,558.9 			"/>
		</g>
		<g id="XMLID_388_">
			<circle id="XMLID_682_" class="st5" cx="-519.7" cy="603" r="7.7"/>
			<path id="XMLID_692_" class="st6" d="M-519.7,613.7c-5.9,0-10.7-4.8-10.7-10.7c0-5.9,4.8-10.7,10.7-10.7
				c5.9,0,10.7,4.8,10.7,10.7C-509,608.9-513.8,613.7-519.7,613.7z M-519.7,598.3c-2.6,0-4.7,2.1-4.7,4.7s2.1,4.7,4.7,4.7
				s4.7-2.1,4.7-4.7S-517.1,598.3-519.7,598.3z"/>
		</g>
		<g id="XMLID_387_">
			<path id="XMLID_689_" class="st6" d="M-531.2,620.8h-74.6c-0.9,0-1.7-0.4-2.2-1c-0.6-0.6-0.8-1.5-0.7-2.3l1.9-16.9
				c-0.5,0.1-1,0.1-1.5-0.1l-17.9-5.8c-0.9-0.3-1.6-0.9-1.9-1.8c-0.3-0.8-0.3-1.8,0.2-2.6l20.5-35.9c0.6-1,1.6-1.5,2.7-1.5l67.9,2.2
				c0.9,0,1.7,0.5,2.3,1.2l21.8,28.7c0.6,0.7,0.7,1.7,0.5,2.6c-0.2,0.9-0.9,1.6-1.7,2l-18.2,7.8c-0.1,0-0.2,0.1-0.3,0.1l4.3,19.6
				c0.2,0.9,0,1.8-0.6,2.5C-529.5,620.4-530.3,620.8-531.2,620.8z M-602.5,614.8h67.5l-5.6-25.8c-0.3-1.4,0.4-2.8,1.8-3.4
				c1.3-0.6,2.9-0.1,3.7,1.1l2.8,4.3l12.4-5.3l-18.6-24.5l-64.6-2.1l-17.8,31.1l12.2,3.9l3.6-5.7c0.7-1.2,2.2-1.7,3.5-1.2
				c1.3,0.5,2.2,1.8,2,3.2L-602.5,614.8z"/>
		</g>
	</g>
	<g id="XMLID_386_">
		<ellipse id="XMLID_895_" class="st5" cx="-572" cy="506.5" rx="64.8" ry="65.8"/>
	</g>
	<g id="XMLID_385_">
		<path id="XMLID_686_" class="st6" d="M-572,575.3c-37.4,0-67.8-30.8-67.8-68.8s30.4-68.8,67.8-68.8s67.8,30.8,67.8,68.8
			S-534.6,575.3-572,575.3z M-572,443.8c-34.1,0-61.8,28.2-61.8,62.8s27.7,62.8,61.8,62.8s61.8-28.2,61.8-62.8
			S-537.9,443.8-572,443.8z"/>
	</g>
	<g id="头发_1_">
		<g id="XMLID_384_">
			<path id="XMLID_889_" class="st5" d="M-614.8,461.4c0,0-15.6,11.1-21.9,37.5c0,0-4.5-6.9-2.6-25.1c0,0-8.7,0.3-14.3,3.7
				c0,0,2.4-18.8,16.9-29.8c0,0-7.1-5-11.1-5.8c0,0,16.9-35.4,59.9-36.7c0,0-3.2-6.9-11.4-13.5c0,0,28-4.2,51.2,13.5
				c0,0,37,1.3,54.4,46.7c0,0-6.1-2.9-15.6-3.7c0,0,13.2,27.2,1.9,54.4c0,0-3.7-16.4-16.4-30.4c0,0-2.6,14.3-6.3,19.5
				c0,0-6.1-30.1-14.3-37.2c0,0-25.1,5-44.6,20.1c0,0,1.3-10,9.5-20.1c0,0-18.2,4.2-40.1,25.1C-619.6,479.6-620.9,475.7-614.8,461.4
				z"/>
		</g>
		<g id="XMLID_383_">
			<path id="XMLID_887_" class="st7" d="M-609.2,460.8c0,0-15.6,11.1-21.9,37.5c0,0-4.5-6.9-2.6-25.1c0,0-8.7,0.3-14.3,3.7
				c0,0,2.4-18.8,16.9-29.8c0,0-7.1-5-11.1-5.8c0,0,16.9-35.4,59.9-36.7c0,0-3.2-6.9-11.4-13.5c0,0,28-4.2,51.2,13.5
				c0,0,37,1.3,54.4,46.7c0,0-6.1-2.9-15.6-3.7c0,0,13.2,27.2,1.9,54.4c0,0-3.7-16.4-16.4-30.4c0,0-2.6,14.3-6.3,19.5
				c0,0-6.1-30.1-14.3-37.2c0,0-25.1,5-44.6,20.1c0,0,1.3-10,9.5-20.1c0,0-18.2,4.2-40.1,25.1C-613.9,479-615.3,475-609.2,460.8z"/>
		</g>
		<g id="XMLID_382_">
			<path id="XMLID_683_" class="st6" d="M-507.3,505.6c-0.1,0-0.2,0-0.3,0c-1.3-0.1-2.4-1.1-2.7-2.3c0-0.1-2.9-12.4-11.9-24.4
				c-1.2,4.8-3.1,11.1-5.5,14.6c-0.7,1-1.9,1.5-3.1,1.2c-1.2-0.2-2.1-1.2-2.3-2.3c-1.5-7.6-6.6-27.9-12.3-34.5
				c-5.7,1.4-25.8,6.8-41.8,19.2c-1,0.7-2.3,0.8-3.3,0.2c-1.1-0.6-1.6-1.8-1.5-3c0-0.3,0.9-6.3,4.8-13.6
				c-7.2,3.3-18.2,9.6-30.4,21.2c-0.7,0.7-1.8,1-2.8,0.7c-1-0.2-1.8-1-2.1-2c-0.2-0.7-0.6-2.7,0.3-7c-4.2,5.8-8.9,14.4-11.7,26.1
				c-0.3,1.2-1.2,2.1-2.4,2.3c-1.2,0.2-2.4-0.3-3-1.3c-0.5-0.7-4.4-7.3-3.4-23.4c-2.7,0.4-6.6,1.2-9.4,2.9c-1,0.6-2.2,0.6-3.2,0
				c-1-0.6-1.5-1.8-1.4-2.9c0.1-0.8,2.3-17.4,14.9-29.1c-2.4-1.4-5.1-2.9-6.7-3.2c-0.9-0.2-1.7-0.8-2.1-1.6c-0.4-0.8-0.4-1.8,0-2.6
				c0.7-1.5,16.9-34.3,57.5-38.1c-1.7-2.3-4.3-5.4-8.1-8.4c-0.9-0.7-1.3-2-1-3.1c0.3-1.1,1.3-2,2.4-2.2c1.2-0.2,29-4.1,52.8,13.5
				c6.3,0.5,39.6,5.5,56.1,48.6c0.4,1.1,0.1,2.4-0.8,3.3s-2.2,1-3.3,0.5c0,0-3.7-1.7-9.6-2.8c3.4,9.3,8.9,30.5-0.1,51.9
				C-505,504.9-506.1,505.6-507.3,505.6z M-523.7,469.2c0.8,0,1.6,0.3,2.2,1c7.2,7.9,11.6,16.6,14.1,22.8
				c5.4-22.6-4.4-43.3-4.5-43.5c-0.5-1-0.4-2.1,0.2-3c0.6-0.9,1.7-1.4,2.7-1.3c3.9,0.3,7.3,1,10,1.7c-17.2-37-47.8-38.7-49.2-38.8
				c-0.6,0-1.2-0.2-1.7-0.6c-15.1-11.5-32.4-13.3-41.9-13.3c-0.1,0-0.2,0-0.3,0c4.8,5.1,6.8,9.4,6.9,9.6c0.4,0.9,0.4,2-0.2,2.8
				c-0.5,0.9-1.5,1.4-2.5,1.4c-33.9,1-50.7,23.8-55.7,32.1c3.9,1.8,7.9,4.6,8.5,5c0.8,0.5,1.3,1.4,1.3,2.4c0,1-0.4,1.9-1.2,2.4
				c-8.7,6.7-12.8,16.4-14.5,22.4c4.9-1.5,9.7-1.6,10-1.6c0.9,0,1.7,0.3,2.3,1c0.6,0.6,0.9,1.5,0.8,2.3c-0.6,5.8-0.5,10.4-0.1,13.9
				c7.4-19.9,19.4-28.6,20-29c1.1-0.8,2.6-0.7,3.6,0.1c1,0.8,1.4,2.3,0.9,3.5c-1.7,3.9-2.7,7-3.4,9.3c19.4-16.4,34.7-20.1,35.4-20.3
				c1.2-0.3,2.5,0.2,3.2,1.3c0.7,1.1,0.6,2.5-0.2,3.5c-3.1,3.8-5.2,7.6-6.5,10.8c18.2-11.5,37.8-15.5,38.7-15.7
				c0.9-0.2,1.9,0.1,2.6,0.7c6,5.2,10.6,20,13.1,29.9c1.2-4,2.2-8.3,2.5-10.5c0.2-1.1,1-2,2.1-2.3
				C-524.3,469.3-524,469.2-523.7,469.2z"/>
		</g>
	</g>
	<g id="眼睛嘴巴_2_">
		<g id="XMLID_381_">
			<circle id="XMLID_678_" class="st7" cx="-602.2" cy="502.4" r="7.6"/>
			<path id="XMLID_679_" class="st6" d="M-602.2,513c-5.9,0-10.6-4.8-10.6-10.6c0-5.9,4.8-10.6,10.6-10.6c5.9,0,10.6,4.8,10.6,10.6
				C-591.6,508.3-596.3,513-602.2,513z M-602.2,497.8c-2.6,0-4.6,2.1-4.6,4.6c0,2.6,2.1,4.6,4.6,4.6c2.5,0,4.6-2.1,4.6-4.6
				C-597.6,499.8-599.6,497.8-602.2,497.8z"/>
		</g>
		<g id="XMLID_380_">
			<circle id="XMLID_629_" class="st7" cx="-543.6" cy="502.4" r="7.6"/>
			<path id="XMLID_675_" class="st6" d="M-543.6,513c-5.9,0-10.6-4.8-10.6-10.6c0-5.9,4.8-10.6,10.6-10.6c5.9,0,10.6,4.8,10.6,10.6
				C-533,508.3-537.7,513-543.6,513z M-543.6,497.8c-2.6,0-4.6,2.1-4.6,4.6c0,2.6,2.1,4.6,4.6,4.6c2.5,0,4.6-2.1,4.6-4.6
				C-539,499.8-541.1,497.8-543.6,497.8z"/>
		</g>
		<g id="XMLID_379_">
			<path id="XMLID_674_" class="st6" d="M-572.8,548.9c-7.5,0-12-3.2-14.5-5.8c-2.7-2.9-3.5-5.8-3.6-6.1c-0.5-1.6,0.5-3.3,2.1-3.7
				c1.6-0.4,3.2,0.5,3.7,2c0.1,0.4,2.5,7.6,12.4,7.6c9.9,0,12.3-7.2,12.4-7.6c0.5-1.6,2.2-2.5,3.7-2c1.6,0.5,2.5,2.1,2,3.7
				C-555.8,541.2-561.1,548.9-572.8,548.9z"/>
		</g>
	</g>
	<g id="XMLID_378_">
		<path id="XMLID_673_" class="st6" d="M-629.4,611.4c-0.2,0-0.4,0-0.5,0c-13.9-2.5-23.1-15.8-20.6-29.7c0.3-1.6,1.9-2.7,3.5-2.4
			c1.6,0.3,2.7,1.9,2.4,3.5c-1.9,10.6,5.2,20.8,15.8,22.7c1.6,0.3,2.7,1.9,2.4,3.5C-626.8,610.3-628,611.4-629.4,611.4z"/>
	</g>
	<g id="XMLID_377_">
		<path id="XMLID_672_" class="st6" d="M-650.6,614.5c-0.5,0-1-0.1-1.5-0.4c-4.7-2.8-8.1-7.2-9.5-12.5s-0.6-10.8,2.1-15.5
			c0.8-1.4,2.7-1.9,4.1-1.1c1.4,0.8,1.9,2.7,1.1,4.1c-1.9,3.3-2.5,7.2-1.5,11c1,3.7,3.4,6.9,6.7,8.8c1.4,0.8,1.9,2.7,1.1,4.1
			C-648.6,613.9-649.6,614.5-650.6,614.5z"/>
	</g>
	<g id="XMLID_376_">
		<path id="XMLID_671_" class="st6" d="M-658.8,621c-0.8,0-1.5-0.3-2.1-0.9c-15-15-14.9-39.4,0.1-54.4c1.2-1.2,3.1-1.2,4.2,0
			c1.2,1.2,1.2,3.1,0,4.2c-6.1,6.1-9.5,14.3-9.5,22.9c0,8.7,3.3,16.8,9.5,23c1.2,1.2,1.2,3.1,0,4.2C-657.3,620.7-658,621-658.8,621z
			"/>
	</g>
</g>
<g id="名牌_1_">
	<g id="XMLID_374_">
		<rect id="XMLID_862_" x="-474.7" y="394.9" class="st5" width="154.5" height="33"/>
	</g>
	<g id="XMLID_373_">
		<rect id="XMLID_860_" x="-469.3" y="400.4" class="st7" width="154.5" height="33"/>
	</g>
	<g id="XMLID_372_">
		<path id="XMLID_668_" class="st6" d="M-320.3,430.8h-154.5c-1.7,0-3-1.3-3-3v-33c0-1.7,1.3-3,3-3h154.5c1.7,0,3,1.3,3,3v33
			C-317.3,429.5-318.6,430.8-320.3,430.8z M-471.7,424.8h148.5v-27h-148.5V424.8z"/>
	</g>
	<g id="XMLID_371_">
		<path id="XMLID_636_" class="st6" d="M-456.4,408.6c-0.3,0-0.6-0.1-0.7-0.2c-0.1-0.2-0.2-0.4-0.2-0.8s0.1-0.6,0.2-0.8
			c0.1-0.2,0.4-0.2,0.7-0.2h1.2v-2.2c0-0.4,0.1-0.6,0.2-0.8c0.2-0.1,0.4-0.2,0.7-0.2c0.6,0,0.9,0.3,0.9,1v2.2h0.6
			c0.3,0,0.6,0.1,0.7,0.2c0.1,0.2,0.2,0.4,0.2,0.8s-0.1,0.6-0.2,0.8c-0.1,0.2-0.4,0.2-0.7,0.2h-0.6v2l0,0c0.5-0.4,1-0.5,1.4-0.1
			c0.2,0.3,0.3,0.5,0.3,0.8c0,0.3-0.2,0.5-0.5,0.8c-0.2,0.2-0.4,0.4-0.6,0.5c-0.2,0.2-0.4,0.3-0.6,0.5v4.7c0,0.7-0.1,1.2-0.4,1.5
			c-0.2,0.4-0.7,0.5-1.2,0.5c-0.2,0-0.4,0-0.7-0.1c-0.3,0-0.5-0.1-0.8-0.2c-0.3-0.2-0.5-0.3-0.6-0.6s-0.1-0.5,0-0.8
			c0.1-0.3,0.3-0.5,0.5-0.6s0.5-0.1,0.9,0.1c0.1,0,0.2,0,0.3,0s0.1-0.1,0.1-0.3v-3c-0.1,0-0.2,0.1-0.2,0.1c-0.1,0-0.2,0.1-0.2,0.1
			c-0.4,0.2-0.7,0.2-0.9,0.2c-0.3-0.1-0.5-0.3-0.6-0.6c-0.2-0.6,0.1-1.1,0.7-1.4c0.2-0.1,0.4-0.2,0.6-0.3c0.2-0.1,0.4-0.2,0.6-0.3
			v-3.3H-456.4z M-450.9,419.7c-0.4,0.1-0.7,0.2-1,0.2c-0.3,0-0.5-0.2-0.7-0.5c-0.2-0.4-0.2-0.7-0.1-1c0.2-0.3,0.5-0.5,0.9-0.7
			c0.7-0.2,1.3-0.5,1.9-0.7c0.6-0.3,1.2-0.6,1.7-0.9c-0.6-0.6-1.1-1.3-1.5-2c-0.4-0.7-0.9-1.6-1.3-2.5h0l0,0c0,0,0,0,0,0
			c-0.2,0-0.4-0.1-0.5-0.3s-0.1-0.4-0.1-0.7c0-0.3,0.1-0.6,0.2-0.8c0.1-0.2,0.4-0.2,0.8-0.2h3.1v-1.9h-3.4c-0.4,0-0.6-0.1-0.8-0.3
			s-0.2-0.4-0.2-0.7c0-0.3,0.1-0.6,0.2-0.7s0.4-0.3,0.8-0.3h3.4v-1.3c0-0.4,0.1-0.7,0.3-0.8c0.2-0.1,0.4-0.2,0.7-0.2
			c0.3,0,0.5,0.1,0.8,0.2c0.2,0.1,0.3,0.4,0.3,0.8v1.3h3.6c0.4,0,0.6,0.1,0.8,0.3s0.2,0.4,0.2,0.7c0,0.3-0.1,0.5-0.2,0.7
			s-0.4,0.3-0.8,0.3h-3.6v1.9h2.3c0.5,0,0.9,0.1,1.2,0.3c0.3,0.2,0.4,0.6,0.4,1.1c0,0.2,0,0.4-0.1,0.6s-0.2,0.5-0.3,0.8
			c-0.4,0.7-0.8,1.4-1.3,2.1s-1,1.2-1.6,1.8c0.4,0.3,0.9,0.6,1.5,0.8s1.1,0.5,1.7,0.7c0.4,0.1,0.7,0.3,0.8,0.6
			c0.1,0.2,0.1,0.5,0,0.9c-0.1,0.3-0.3,0.5-0.6,0.6c-0.2,0.1-0.6,0-1.1-0.1c-0.8-0.3-1.6-0.6-2.2-1c-0.7-0.3-1.3-0.7-1.9-1.1
			c-0.7,0.4-1.3,0.8-2,1.1C-449.3,419-450.1,419.4-450.9,419.7L-450.9,419.7z M-448.7,411.6c0.6,1.3,1.3,2.4,2.2,3.3
			c0.6-0.5,1.1-1,1.5-1.5c0.4-0.5,0.7-1,1-1.6c0.1-0.1,0.1-0.2-0.1-0.2H-448.7z"/>
		<path id="XMLID_640_" class="st6" d="M-432.9,404.4c0-0.2,0-0.4,0.1-0.5c0.1-0.1,0.1-0.2,0.2-0.3c0.1-0.1,0.2-0.1,0.3-0.2
			c0.1,0,0.3,0,0.4,0c0.3,0,0.5,0.1,0.7,0.2c0.2,0.1,0.3,0.4,0.3,0.8v3.2h5.9c0.4,0,0.7,0.1,0.8,0.3c0.1,0.2,0.2,0.4,0.2,0.7
			c0,0.3-0.1,0.5-0.2,0.7s-0.4,0.3-0.8,0.3h-5.8c0.9,1.2,1.8,2.3,2.8,3.3c1,1,2.1,2,3.3,2.9c0.5,0.3,0.7,0.7,0.8,1s0,0.6-0.2,0.9
			c-0.3,0.3-0.5,0.5-0.8,0.4c-0.3,0-0.6-0.2-1-0.5h0c-1.2-1-2.1-1.9-2.9-2.7c-0.8-0.8-1.5-1.7-2.1-2.5v6.6c0,0.4-0.1,0.6-0.3,0.8
			c-0.2,0.1-0.5,0.2-0.7,0.2c-0.2,0-0.5-0.1-0.7-0.2s-0.4-0.4-0.4-0.8v-6.5c-0.7,1-1.4,1.9-2.2,2.8c-0.8,0.9-1.8,1.8-2.9,2.7
			c-0.3,0.3-0.7,0.4-1,0.3c-0.3,0-0.6-0.2-0.8-0.5c-0.2-0.3-0.2-0.5-0.2-0.8s0.3-0.6,0.7-0.9c1-0.7,2-1.6,3.1-2.7
			c1.1-1.1,2.1-2.4,3-3.8h-5.5c-0.4,0-0.7-0.1-0.8-0.3c-0.1-0.2-0.2-0.4-0.2-0.7c0-0.3,0.1-0.5,0.2-0.7c0.1-0.2,0.4-0.3,0.8-0.3h5.8
			V404.4z M-427.7,406.8c-0.2-0.2-0.5-0.4-0.7-0.6c-0.2-0.2-0.5-0.4-0.9-0.7c-0.3-0.3-0.5-0.5-0.5-0.7c0-0.2,0-0.4,0.2-0.7
			c0.2-0.3,0.5-0.4,0.7-0.4c0.2,0,0.5,0.1,0.7,0.2c0.2,0.1,0.4,0.3,0.6,0.4c0.2,0.1,0.3,0.2,0.5,0.4c0.1,0.1,0.3,0.2,0.5,0.4
			c0.2,0.1,0.3,0.3,0.5,0.4c0.3,0.2,0.4,0.5,0.5,0.7c0,0.3-0.1,0.5-0.3,0.8c-0.2,0.2-0.4,0.4-0.7,0.3
			C-427,407.3-427.4,407.1-427.7,406.8z"/>
		<path id="XMLID_643_" class="st6" d="M-414.1,409.9c0.3,0,0.6,0.1,0.7,0.2c0.2,0.2,0.3,0.4,0.3,0.7c0,0.3-0.1,0.6-0.3,0.7
			c-0.2,0.2-0.4,0.2-0.7,0.2h-7.9c-0.6,0-0.9-0.3-0.9-0.9c0-0.3,0.1-0.5,0.2-0.7s0.4-0.2,0.7-0.2h1.6c-0.1-0.1-0.1-0.2-0.2-0.4
			c-0.1-0.3-0.2-0.5-0.3-0.7c-0.1-0.2-0.2-0.5-0.4-0.8c-0.1-0.3-0.2-0.5-0.2-0.6c0-0.2,0.1-0.3,0.2-0.5h-0.2c-0.6,0-1-0.3-1-0.9
			c0-0.3,0.1-0.6,0.2-0.7s0.4-0.2,0.7-0.2h2.5c-0.2-0.4-0.3-0.6-0.2-0.8s0.2-0.4,0.5-0.6c0.3-0.2,0.5-0.3,0.8-0.2
			c0.2,0,0.5,0.3,0.7,0.7c0.1,0.1,0.1,0.3,0.2,0.4c0.1,0.2,0.2,0.3,0.3,0.6h2.5c0.7,0,1,0.3,1,0.9c0,0.3-0.1,0.6-0.3,0.7
			c-0.2,0.1-0.4,0.2-0.7,0.2h-0.5c0.1,0.1,0.1,0.3,0.1,0.5c0,0.2,0,0.4-0.1,0.7c-0.1,0.3-0.2,0.5-0.3,0.8c-0.1,0.3-0.2,0.6-0.4,0.9
			c0,0,0,0.1-0.1,0.1c0,0,0,0.1-0.1,0.1H-414.1z M-413.9,417.7c0,0.4,0,0.7-0.1,1c0,0.3-0.1,0.5-0.3,0.6c-0.1,0.1-0.3,0.3-0.6,0.3
			c-0.2,0.1-0.5,0.1-0.9,0.1h-4.3c-0.4,0-0.7,0-0.9-0.1c-0.2-0.1-0.4-0.2-0.6-0.3s-0.2-0.4-0.3-0.6c-0.1-0.3-0.1-0.6-0.1-1v-3
			c0-0.4,0-0.7,0.1-1c0.1-0.3,0.1-0.5,0.3-0.6c0.1-0.1,0.3-0.2,0.6-0.3c0.2-0.1,0.5-0.1,0.9-0.1h4.3c0.4,0,0.7,0,0.9,0.1
			c0.2,0.1,0.4,0.2,0.5,0.3c0.1,0.1,0.2,0.3,0.2,0.6c0,0.3,0.1,0.6,0.1,0.9V417.7z M-415.9,414.8c0-0.1,0-0.2-0.1-0.2
			s-0.1-0.1-0.2-0.1h-3.5c-0.1,0-0.1,0-0.2,0.1s-0.1,0.1-0.1,0.2v2.8c0,0,0,0.1,0.1,0.1s0.1,0.1,0.1,0.1h3.7c0,0,0.1,0,0.1-0.1
			s0.1-0.1,0.1-0.1V414.8z M-418.8,408.9c0.1,0.2,0.1,0.4,0.2,0.6c0,0.2,0,0.3-0.1,0.5h1.3c0-0.2,0.1-0.5,0.3-0.9
			c0.1-0.1,0.1-0.2,0.2-0.4s0.1-0.3,0.2-0.4s0.1-0.3,0.2-0.5c0.1-0.2,0.1-0.3,0.2-0.4c0-0.1,0.1-0.2,0.1-0.2c0-0.1,0.1-0.1,0.1-0.2
			h-3.6c0.1,0.1,0.2,0.2,0.3,0.4c0.2,0.3,0.3,0.6,0.4,0.9S-418.9,408.7-418.8,408.9z M-406.4,415.3c0,1-0.3,1.8-0.8,2.3
			s-1.2,0.8-2.2,0.8c-0.4,0-0.7-0.1-0.9-0.2c-0.2-0.1-0.4-0.3-0.5-0.5v1.3c0,0.7-0.3,1.1-1,1.1c-0.3,0-0.6-0.1-0.8-0.2
			c-0.2-0.2-0.2-0.4-0.2-0.8v-12.8c0-0.8,0.1-1.3,0.4-1.6c0.3-0.3,0.6-0.5,1.2-0.5h2.8c0.6,0,1,0.2,1.2,0.6c0.3,0.4,0.3,0.8,0.2,1.4
			l-1.3,4c-0.1,0.2-0.1,0.3-0.1,0.4s0,0.2,0.2,0.4c0.6,0.7,1.1,1.5,1.4,2.2S-406.4,414.4-406.4,415.3z M-410.8,416.7
			c0.1-0.2,0.3-0.3,0.5-0.4s0.6-0.1,1,0c0.3,0,0.6-0.1,0.7-0.3c0.1-0.3,0.2-0.6,0.2-0.9c0-0.2,0-0.5-0.1-0.7c0-0.2-0.1-0.5-0.2-0.8
			c-0.1-0.3-0.2-0.5-0.4-0.8c-0.2-0.3-0.4-0.6-0.6-0.9c-0.3-0.4-0.5-0.8-0.5-1.2c0-0.4,0-0.9,0.2-1.4c0.1-0.3,0.2-0.5,0.2-0.8
			c0.1-0.2,0.1-0.5,0.2-0.7c0.1-0.2,0.1-0.4,0.2-0.7c0.1-0.2,0.1-0.5,0.2-0.8c0-0.1,0.1-0.2,0-0.3c0,0-0.1-0.1-0.2-0.1h-1.1
			c-0.1,0-0.2,0-0.3,0.1s-0.1,0.1-0.1,0.3L-410.8,416.7z"/>
		<path id="XMLID_650_" class="st6" d="M-404,406.4c-0.4,0-0.6-0.1-0.8-0.2s-0.2-0.4-0.2-0.8c0-0.3,0.1-0.6,0.2-0.7
			c0.1-0.1,0.4-0.2,0.8-0.2h13.1c0.4,0,0.7,0.1,0.8,0.2c0.1,0.1,0.2,0.4,0.2,0.7c0,0.4-0.1,0.6-0.2,0.8c-0.1,0.1-0.4,0.2-0.8,0.2h-2
			v4.7h2.9c0.4,0,0.6,0.1,0.8,0.2c0.1,0.1,0.2,0.3,0.2,0.6c0,0.3-0.1,0.6-0.2,0.8c-0.1,0.2-0.4,0.2-0.8,0.2h-2.9v6.1
			c0,0.4-0.1,0.7-0.3,0.8c-0.2,0.1-0.5,0.2-0.8,0.2c-0.3,0-0.6-0.1-0.8-0.2c-0.2-0.1-0.3-0.4-0.3-0.8v-6.1h-4.7
			c-0.1,0.9-0.2,1.6-0.4,2.3c-0.2,0.7-0.4,1.3-0.7,1.8c-0.3,0.5-0.7,1-1.1,1.5c-0.4,0.4-1,0.9-1.5,1.3c-0.3,0.3-0.6,0.4-0.9,0.3
			c-0.3,0-0.5-0.2-0.7-0.5c-0.2-0.3-0.3-0.6-0.2-0.8c0.1-0.3,0.3-0.5,0.6-0.7c0.5-0.3,0.9-0.7,1.2-1s0.6-0.7,0.9-1.1
			c0.2-0.4,0.4-0.8,0.6-1.3c0.1-0.5,0.2-1.1,0.3-1.8h-2.8c-0.4,0-0.6-0.1-0.8-0.2c-0.1-0.2-0.2-0.4-0.2-0.8c0-0.3,0.1-0.5,0.2-0.6
			c0.1-0.1,0.4-0.2,0.8-0.2h2.9v-4.7H-404z M-399.7,411h4.7v-4.7h-4.7V411z"/>
		<path id="XMLID_653_" class="st6" d="M-386.6,418.6c-0.3,0.3-0.5,0.4-0.8,0.5c-0.2,0.1-0.5,0-0.7-0.2c-0.5-0.5-0.5-1,0.1-1.7
			c1.1-1.1,2.1-2.3,3-3.7c0.9-1.3,1.6-2.7,2.2-4.2h-2.8c-0.4,0-0.7,0-0.9-0.1s-0.4-0.3-0.5-0.5c-0.1-0.2-0.2-0.4-0.2-0.7
			c0-0.3,0.1-0.5,0.2-0.8c0.1-0.4,0.2-0.7,0.4-1.1c0.1-0.4,0.2-0.8,0.3-1.2c0.1-0.4,0.2-0.7,0.4-0.9c0.2-0.1,0.4-0.2,0.8-0.2
			c0.4,0,0.7,0.2,0.8,0.4c0.1,0.2,0.1,0.5,0.1,0.9c-0.1,0.4-0.1,0.7-0.2,1c-0.1,0.3-0.2,0.6-0.3,0.9c0,0.1,0,0.2,0,0.2
			c0,0,0.1,0.1,0.2,0.1h2.6c0.1-0.5,0.3-1,0.4-1.4s0.2-1,0.3-1.5c0.1-0.4,0.2-0.7,0.3-0.9s0.4-0.3,0.8-0.3c0.4,0,0.7,0.1,0.8,0.3
			c0.1,0.2,0.2,0.6,0.1,1.1c-0.1,0.5-0.2,0.9-0.3,1.4s-0.2,0.9-0.4,1.3h6.8c0.3,0,0.6,0.1,0.8,0.2c0.2,0.1,0.3,0.4,0.3,0.7
			c0,0.3-0.1,0.6-0.3,0.7c-0.2,0.2-0.5,0.2-0.8,0.2h-7.4c-0.1,0.2-0.2,0.5-0.3,0.7c-0.1,0.2-0.2,0.4-0.3,0.7h6.2
			c0.4,0,0.8,0.1,1,0.2c0.3,0.1,0.5,0.3,0.6,0.6c0.1,0.2,0.1,0.5,0.1,0.8c-0.1,0.3-0.2,0.6-0.4,0.9c-0.4,0.6-0.8,1.1-1.2,1.6
			c-0.5,0.5-1,1-1.5,1.4c1.2,0.7,2.3,1.2,3.5,1.5c0.5,0.1,0.8,0.3,1,0.5c0.2,0.2,0.2,0.5,0.1,0.9c-0.1,0.4-0.3,0.6-0.6,0.7
			c-0.3,0.1-0.6,0-1.1-0.1c-0.9-0.3-1.7-0.6-2.5-0.9c-0.8-0.4-1.5-0.8-2.2-1.2c-1,0.6-2,1.1-3,1.5s-2.1,0.7-3.1,0.9
			c-0.4,0.1-0.8,0-1-0.1c-0.2-0.1-0.3-0.4-0.4-0.8c0-0.3,0.1-0.6,0.2-0.7c0.2-0.1,0.4-0.2,0.8-0.3c0.8-0.2,1.6-0.4,2.4-0.7
			c0.8-0.3,1.6-0.6,2.3-1.1c-1-0.8-1.9-1.7-2.8-2.8C-383.8,415.5-385.1,417.1-386.6,418.6z M-381,412.5c0.4,0.5,0.9,1,1.4,1.4
			c0.5,0.4,1,0.9,1.5,1.3c0.9-0.7,1.7-1.4,2.3-2.2c0.1-0.1,0.1-0.3,0.1-0.4s-0.2-0.1-0.3-0.1H-381z M-374.1,407.1
			c-0.2,0.2-0.5,0.3-0.8,0.3s-0.5-0.2-0.8-0.5c-0.2-0.3-0.5-0.5-0.7-0.8c-0.2-0.2-0.5-0.5-0.9-0.8c-0.3-0.2-0.4-0.5-0.4-0.7
			c0-0.2,0.1-0.5,0.3-0.7c0.2-0.3,0.4-0.4,0.7-0.4c0.3,0,0.5,0.1,0.8,0.4c0.2,0.2,0.4,0.3,0.5,0.5s0.3,0.3,0.5,0.4
			c0.1,0.1,0.3,0.3,0.4,0.4c0.1,0.1,0.3,0.3,0.4,0.4c0.3,0.3,0.4,0.6,0.4,0.8C-373.7,406.7-373.8,406.9-374.1,407.1z"/>
		<path id="XMLID_657_" class="st6" d="M-365.7,407.8c-0.1,0.6-0.2,1.2-0.4,2c-0.2,0.7-0.4,1.5-0.6,2.2c-0.2,0.7-0.5,1.4-0.8,2.1
			c-0.3,0.7-0.6,1.3-0.8,1.8c-0.2,0.4-0.5,0.7-0.7,0.8c-0.3,0.1-0.6,0.1-0.9-0.1c-0.3-0.2-0.4-0.4-0.5-0.7c0-0.3,0.1-0.6,0.3-1.1
			c0.2-0.3,0.4-0.8,0.7-1.3c0.2-0.5,0.4-1.1,0.6-1.8c0.2-0.6,0.4-1.3,0.6-2.1c0.2-0.7,0.3-1.4,0.4-2.1c0.1-0.6,0.2-0.9,0.4-1.1
			c0.2-0.1,0.5-0.2,0.8-0.1c0.3,0,0.6,0.2,0.7,0.4C-365.7,406.8-365.7,407.2-365.7,407.8z M-361.4,417.3c0,0.3,0,0.7-0.1,1
			c-0.1,0.3-0.2,0.5-0.4,0.8c-0.2,0.2-0.5,0.4-0.8,0.5c-0.3,0.1-0.7,0.2-1.2,0.2c-0.7,0-1.7-0.2-2.8-0.5c-0.4-0.1-0.7-0.3-0.8-0.6
			c-0.1-0.2-0.1-0.5,0-0.8c0.1-0.2,0.2-0.4,0.5-0.5s0.6-0.1,1,0c0.5,0.2,0.9,0.3,1.3,0.3c0.4,0.1,0.6,0.1,0.9,0.1
			c0.2,0,0.3-0.1,0.3-0.2s0.1-0.3,0.1-0.5v-12.1c0-0.4,0.1-0.6,0.3-0.8s0.5-0.3,0.8-0.3c0.3,0,0.5,0.1,0.7,0.3s0.3,0.5,0.3,0.8
			V417.3z M-355.2,415.4c0.1,0.3,0.1,0.5,0.1,0.7c0,0.2,0,0.3-0.1,0.5c-0.1,0.1-0.1,0.2-0.3,0.3c-0.1,0.1-0.3,0.1-0.4,0.2
			c-0.2,0.1-0.3,0.1-0.5,0.1c-0.1,0-0.3,0-0.4-0.1c-0.1-0.1-0.2-0.2-0.3-0.4c-0.1-0.2-0.2-0.4-0.2-0.7c-0.1-0.5-0.2-1.1-0.4-1.8
			c-0.2-0.7-0.4-1.4-0.6-2.1c-0.2-0.7-0.4-1.5-0.6-2.2c-0.2-0.7-0.4-1.3-0.6-1.9c-0.1-0.4-0.2-0.7-0.1-0.9s0.3-0.4,0.5-0.5
			c0.3-0.1,0.6-0.1,0.9,0c0.3,0.1,0.5,0.3,0.6,0.7c0.2,0.5,0.4,1.1,0.6,1.8c0.2,0.7,0.4,1.5,0.7,2.3c0.2,0.8,0.4,1.5,0.6,2.3
			C-355.5,414.3-355.4,414.9-355.2,415.4L-355.2,415.4z"/>
		<path id="XMLID_661_" class="st6" d="M-338.9,412.8v4.6c0,0.8-0.2,1.4-0.6,1.8c-0.4,0.4-1.1,0.6-2,0.6c-0.3,0-0.7,0-1,0
			c-0.3,0-0.8-0.1-1.3-0.2c-0.5-0.1-0.8-0.3-0.9-0.5c-0.1-0.2-0.1-0.5,0-0.8c0-0.1,0.1-0.3,0.2-0.3s0.2-0.2,0.3-0.2
			c0.1,0,0.2,0,0.4,0c0.2,0,0.4,0,0.6,0.1c0.5,0.1,0.8,0.2,1.1,0.2s0.5,0,0.7,0c0.2,0,0.3-0.1,0.3-0.2c0.1-0.1,0.1-0.2,0.1-0.4v-4.7
			h-11.9c-0.4,0-0.7-0.1-0.8-0.3c-0.1-0.2-0.2-0.4-0.2-0.7c0-0.3,0.1-0.6,0.2-0.7s0.4-0.2,0.8-0.2h14.7c0.4,0,0.6,0.1,0.8,0.2
			s0.2,0.4,0.2,0.7c0,0.3-0.1,0.5-0.2,0.7c-0.1,0.2-0.4,0.2-0.8,0.2H-338.9z M-339.2,405.9v3.7c0,0.3-0.1,0.6-0.3,0.8
			c-0.2,0.2-0.4,0.3-0.7,0.3c-0.3,0-0.6-0.1-0.8-0.2c-0.2-0.2-0.3-0.4-0.3-0.8v-3.7h-11.1c-0.4,0-0.7-0.1-0.8-0.2
			c-0.1-0.1-0.2-0.4-0.2-0.7c0-0.3,0.1-0.6,0.2-0.7s0.4-0.2,0.8-0.2h14.2c0.4,0,0.6,0.1,0.8,0.2s0.2,0.4,0.2,0.7
			c0,0.3-0.1,0.6-0.2,0.7s-0.4,0.2-0.8,0.2H-339.2z M-342.1,415.6c0,0.7-0.1,1.1-0.4,1.3c-0.3,0.2-0.7,0.3-1.4,0.3h-6.1
			c-0.7,0-1.1-0.1-1.4-0.3s-0.4-0.6-0.4-1.3v-0.6c0-0.7,0.2-1.1,0.5-1.3s0.8-0.3,1.4-0.3h6.1c0.6,0,1.1,0.1,1.4,0.3
			c0.3,0.2,0.4,0.7,0.4,1.3V415.6z M-342.3,408.7c0,0.3,0,0.6-0.1,0.8c-0.1,0.2-0.2,0.4-0.3,0.5c-0.1,0.1-0.3,0.2-0.6,0.2
			s-0.5,0.1-0.8,0.1h-5.5c-0.3,0-0.6,0-0.8,0s-0.4-0.1-0.6-0.2s-0.3-0.2-0.4-0.4c-0.1-0.2-0.1-0.5-0.1-0.8V408c0-0.3,0-0.6,0.1-0.8
			c0.1-0.2,0.2-0.3,0.3-0.4c0.1-0.1,0.3-0.2,0.6-0.2c0.2,0,0.5,0,0.8,0h5.6c0.3,0,0.6,0,0.8,0c0.2,0,0.4,0.1,0.6,0.2
			s0.3,0.3,0.3,0.4c0.1,0.2,0.1,0.5,0.1,0.8V408.7z M-344.2,415.8c0.1,0,0.2,0,0.2-0.1c0-0.1,0.1-0.2,0.1-0.3c0-0.3-0.1-0.4-0.3-0.4
			h-5.7c-0.1,0-0.2,0-0.2,0.1c0,0.1-0.1,0.2-0.1,0.2c0,0.1,0,0.2,0,0.3c0,0.1,0.1,0.1,0.2,0.1H-344.2z M-344.3,408.8
			c0.1,0,0.2,0,0.2-0.1c0-0.1,0.1-0.2,0.1-0.3c0-0.1,0-0.2-0.1-0.3c0-0.1-0.1-0.1-0.2-0.1h-5.2c-0.1,0-0.1,0-0.2,0.1
			c0,0.1-0.1,0.2-0.1,0.3c0,0.3,0.1,0.4,0.2,0.4H-344.3z"/>
	</g>
</g>
<g id="键盘_1_">
	<g id="XMLID_370_">
		<rect id="XMLID_821_" x="-617.1" y="612.7" class="st5" width="165.3" height="13.5"/>
	</g>
	<g id="XMLID_369_">
		<rect id="XMLID_819_" x="-610.1" y="617.8" class="st7" width="165.3" height="13.5"/>
	</g>
	<g id="XMLID_368_">
		<path id="XMLID_633_" class="st6" d="M-451.8,629.2h-165.3c-1.7,0-3-1.3-3-3v-13.5c0-1.7,1.3-3,3-3h165.3c1.7,0,3,1.3,3,3v13.5
			C-448.8,627.8-450.2,629.2-451.8,629.2z M-614.1,623.2h159.3v-7.5h-159.3V623.2z"/>
	</g>
</g>
<g id="电脑_1_">
	<g id="XMLID_364_">
		<g id="XMLID_367_">
			<path id="XMLID_813_" class="st5" d="M-353,626.2h-165.3v-94.7c0-11,9-20,20-20H-373c11,0,20,9,20,20V626.2z"/>
		</g>
		<g id="XMLID_366_">
			<path id="XMLID_811_" class="st7" d="M-345.9,630.7h-165.3V536c0-11,9-20,20-20h125.3c11,0,20,9,20,20V630.7z"/>
		</g>
		<g id="XMLID_365_">
			<path id="XMLID_630_" class="st6" d="M-353,629.2h-165.3c-1.7,0-3-1.3-3-3v-94.7c0-12.7,10.3-23,23-23H-373c12.7,0,23,10.3,23,23
				v94.7C-350,627.8-351.3,629.2-353,629.2z M-515.3,623.2H-356v-91.7c0-9.4-7.6-17-17-17h-125.3c-9.4,0-17,7.6-17,17V623.2z"/>
		</g>
	</g>
	<g id="XMLID_357_">
		<g id="XMLID_361_">
			<g id="XMLID_363_">
				<path id="XMLID_628_" class="st5" d="M-438,552.7c-2.3,2.3-1.9,7.7,0.7,9.2C-434.8,559.6-435.3,554.9-438,552.7z"/>
			</g>
			<g id="XMLID_362_">
				<path id="XMLID_627_" class="st5" d="M-427,556.1c-2.5-0.7-5.6,0.8-7,3.1c-0.5,0.8-0.9,1.7-1.5,2.8c-0.3,0.8-0.8,1.3-1.7,1.7
					c-0.1,0.1-0.4,0.1-0.7,0.4c-0.7,0.1-1.3,0.5-2,0.9c-1.5,1.2-2.3,2.8-2.5,4.6c-0.4,2.8,0.8,5,2.5,7c2.3,2.5,5.3,4.2,8.5,5
					c1.6,0.5,3.2,0.8,4.9,0.7c1.5-0.1,2.7-0.8,3.2-2.1c0.1-0.4,0.3-0.8,0.5-1.3c0.4-0.9,1.1-1.9,1.9-2.4c0.7-0.4,1.3-0.8,2.1-1.1
					c2-0.9,2.9-2.1,2.7-4.2c-0.1-2-0.5-3.7-1.1-5.6c-0.3-0.5-0.5-1.1-0.7-1.7C-423.1,565.7-428.2,561.5-427,556.1z"/>
			</g>
		</g>
		<g id="XMLID_358_">
			<g id="XMLID_360_">
				<path id="XMLID_626_" class="st6" d="M-439.9,551.5c-2.3,2.3-1.9,7.7,0.7,9.2C-436.7,558.4-437.3,553.6-439.9,551.5z"/>
			</g>
			<g id="XMLID_359_">
				<path id="XMLID_573_" class="st6" d="M-428.9,554.8c-2.5-0.7-5.6,0.8-7,3.1c-0.5,0.8-0.9,1.7-1.5,2.8c-0.3,0.8-0.8,1.3-1.7,1.7
					c-0.1,0.1-0.4,0.1-0.7,0.4c-0.7,0.1-1.3,0.5-2,0.9c-1.5,1.2-2.3,2.8-2.5,4.6c-0.4,2.8,0.8,5,2.5,7c2.3,2.5,5.3,4.2,8.5,5
					c1.6,0.5,3.2,0.8,4.9,0.7c1.5-0.1,2.7-0.8,3.2-2.1c0.1-0.4,0.3-0.8,0.5-1.3c0.4-0.9,1.1-1.9,1.9-2.4c0.7-0.4,1.3-0.8,2.1-1.1
					c2-0.9,2.9-2.1,2.7-4.2c-0.1-2-0.5-3.7-1.1-5.6c-0.3-0.5-0.5-1.1-0.7-1.7C-425,564.5-430.1,560.2-428.9,554.8z"/>
			</g>
		</g>
	</g>
</g>
<g id="XMLID_351_">
	<g id="XMLID_356_">
		<path id="XMLID_625_" class="st6" d="M-684.6,629.2h-21.6c-1.7,0-3-1.3-3-3s1.3-3,3-3h21.6c1.7,0,3,1.3,3,3
			S-683,629.2-684.6,629.2z"/>
	</g>
	<g id="XMLID_355_">
		<path id="XMLID_624_" class="st6" d="M-515.2,629.2h-160.5c-1.7,0-3-1.3-3-3s1.3-3,3-3h160.5c1.7,0,3,1.3,3,3
			S-513.5,629.2-515.2,629.2z"/>
	</g>
	<g id="XMLID_354_">
		<path id="XMLID_623_" class="st6" d="M-452.5,629.2h-45.3c-1.7,0-3-1.3-3-3s1.3-3,3-3h45.3c1.7,0,3,1.3,3,3
			S-450.8,629.2-452.5,629.2z"/>
	</g>
	<g id="XMLID_353_">
		<path id="XMLID_622_" class="st6" d="M-327.3,629.2H-443c-1.7,0-3-1.3-3-3s1.3-3,3-3h115.7c1.7,0,3,1.3,3,3
			S-325.6,629.2-327.3,629.2z"/>
	</g>
	<g id="XMLID_352_">
		<path id="XMLID_621_" class="st6" d="M-311.8,629.2h-5.4c-1.7,0-3-1.3-3-3s1.3-3,3-3h5.4c1.7,0,3,1.3,3,3
			S-310.2,629.2-311.8,629.2z"/>
	</g>
</g>
<g id="XMLID_350_">
	<path id="XMLID_574_" class="st6" d="M-640.3,675.9c0.5-0.8,1-1.8,1.4-2.9s0.8-2.4,1.1-3.8c0.3-1.4,0.6-3.1,0.8-4.9
		c0.2-1.8,0.4-3.9,0.5-6.2h-2.5c-0.4,0-0.7,0-0.9-0.1c-0.2,0-0.4-0.1-0.5-0.3c-0.1-0.1-0.2-0.3-0.3-0.6s-0.1-0.5-0.1-0.9
		c0-0.7,0.1-1.2,0.4-1.4c0.2-0.2,0.7-0.3,1.4-0.3h2.7c0-0.3,0-0.6,0-0.9c0-0.3,0-0.6,0-0.9c0-0.6,0.1-1,0.4-1.4
		c0.3-0.3,0.7-0.5,1.4-0.5c1.2,0,1.8,0.6,1.7,1.8c0,0.3,0,0.6,0,0.9s0,0.6,0,0.9h1.6c1,0,1.9,0,2.4,0.1s1,0.3,1.3,0.6
		c0.3,0.3,0.5,0.8,0.6,1.5c0.1,0.6,0.1,1.5,0.2,2.6c0,1,0,2.1,0,3.4c0,1.3,0,2.6,0,3.9c0,1.3,0,2.5-0.1,3.7s-0.1,2.1-0.2,2.8
		c-0.1,1.2-0.3,2.2-0.6,3.1c-0.3,0.8-0.6,1.5-1.1,2c-0.4,0.5-1,0.9-1.6,1.1c-0.6,0.2-1.3,0.3-2.1,0.2c-0.5,0-1,0-1.2-0.1
		c-0.3-0.1-0.6-0.2-1-0.3c-0.8-0.3-1.4-0.7-1.5-1c-0.2-0.4-0.2-0.8,0.1-1.4c0.2-0.6,0.5-1,0.9-1.2c0.4-0.2,1-0.1,1.9,0.2
		c0.4,0.2,0.8,0.2,1.1,0.3s0.6-0.1,0.9-0.3s0.4-0.5,0.6-1s0.3-1.1,0.3-1.8c0.1-0.6,0.1-1.5,0.2-2.7c0-1.1,0.1-2.4,0.1-3.7
		c0-1.3,0-2.6,0-3.8c0-1.3,0-2.3,0-3.2c0-0.5-0.1-0.9-0.2-1c-0.1-0.2-0.3-0.2-0.7-0.2h-1.9c-0.1,2.3-0.3,4.4-0.5,6.3
		s-0.5,3.7-0.8,5.3c-0.3,1.6-0.7,3.1-1.2,4.4c-0.5,1.3-1,2.6-1.6,3.7c-0.5,0.9-0.9,1.4-1.4,1.6c-0.4,0.2-0.9,0.1-1.5-0.3
		c-0.6-0.4-0.9-0.8-0.9-1.2C-641.1,677.3-640.8,676.7-640.3,675.9z M-614.1,675.4c0,0.7,0,1.3-0.1,1.7c-0.1,0.4-0.2,0.8-0.5,1
		s-0.6,0.4-1,0.5c-0.4,0.1-1,0.1-1.6,0.1h-4.2c-0.7,0-1.2-0.1-1.6-0.2c-0.4-0.1-0.7-0.3-1-0.6c-0.2-0.3-0.4-0.6-0.5-1
		c-0.1-0.4-0.1-1-0.1-1.7v-18.9c0-0.7,0-1.3,0.1-1.7c0.1-0.5,0.2-0.8,0.5-1c0.2-0.2,0.6-0.4,1-0.5c0.4-0.1,0.9-0.1,1.6-0.1h4.2
		c0.7,0,1.2,0.1,1.7,0.2c0.4,0.1,0.7,0.3,1,0.6s0.4,0.6,0.5,1s0.1,1,0.1,1.6V675.4z M-621.2,674.8c0,0.2,0,0.3,0.1,0.4
		c0.1,0.1,0.2,0.1,0.4,0.1h2.6c0.2,0,0.4,0,0.4-0.1c0.1-0.1,0.1-0.2,0.1-0.4V657c0-0.2,0-0.3-0.1-0.4c-0.1-0.1-0.2-0.1-0.4-0.1h-2.7
		c-0.2,0-0.4,0-0.4,0.1c-0.1,0.1-0.1,0.2-0.1,0.4V674.8z"/>
	<path id="XMLID_578_" class="st6" d="M-599.2,672c0.2,0.5,0.3,0.9,0.1,1.4c-0.2,0.5-0.4,0.8-0.8,1.1c-0.5,0.4-1.1,0.8-1.8,1.2
		c-0.7,0.4-1.3,0.8-2,1.1s-1.3,0.6-2,0.9c-0.6,0.3-1.2,0.5-1.6,0.6c-0.7,0.3-1.2,0.3-1.5,0.1c-0.3-0.2-0.5-0.6-0.6-1.2
		c-0.2-0.5-0.1-1,0.1-1.4c0.3-0.4,0.6-0.7,1.2-0.9c0.3-0.1,0.7-0.2,1-0.3c0.3-0.1,0.7-0.3,1.3-0.5v-7.7h-1.6c-0.6,0-0.9-0.2-1.1-0.5
		c-0.2-0.3-0.3-0.8-0.3-1.3c0-0.6,0.1-1,0.3-1.3c0.2-0.3,0.6-0.4,1.2-0.4h1.6v-6.5h-1.8c-0.6,0-1-0.2-1.2-0.5
		c-0.2-0.3-0.3-0.8-0.3-1.3c0-0.6,0.1-1,0.3-1.3c0.2-0.3,0.6-0.5,1.2-0.5h6.9c0.6,0,1,0.1,1.2,0.5c0.2,0.3,0.3,0.7,0.3,1.3
		c0,0.5-0.1,0.9-0.3,1.3c-0.2,0.3-0.6,0.5-1.1,0.5h-2v6.5h1.6c0.6,0,1,0.1,1.2,0.4c0.2,0.3,0.3,0.7,0.3,1.3c0,0.5-0.1,1-0.3,1.3
		s-0.6,0.5-1.2,0.5h-1.6v6c0.2-0.1,0.3-0.2,0.6-0.4c0.2-0.1,0.4-0.3,0.5-0.4C-600.5,670.8-599.7,670.9-599.2,672z M-591.9,663.9
		c0,1.8-0.1,3.5-0.3,4.9c-0.2,1.4-0.5,2.7-0.8,3.9c-0.4,1.2-0.9,2.3-1.6,3.3c-0.7,1-1.5,2-2.4,2.9c-0.6,0.6-1.1,0.8-1.7,0.8
		c-0.5,0-1-0.2-1.3-0.7c-0.3-0.4-0.5-0.9-0.4-1.4c0.1-0.5,0.5-1,1.2-1.7c0.9-0.8,1.6-1.6,2.1-2.3c0.5-0.8,0.9-1.6,1.2-2.5
		c0.3-0.9,0.5-2,0.6-3.1s0.1-2.6,0.1-4.2v-11.3c0-0.6,0.1-1.1,0.4-1.4c0.2-0.3,0.7-0.5,1.2-0.5c0.7,0,1.1,0.2,1.3,0.5
		c0.2,0.3,0.3,0.8,0.3,1.5V663.9z M-596.2,657.2c0,0.7,0,1.5,0,2.4s0,1.9,0,2.9s0,2-0.1,2.9c0,0.9-0.1,1.8-0.2,2.5
		c-0.1,0.5-0.2,1-0.3,1.3c-0.1,0.3-0.2,0.6-0.4,0.7c-0.2,0.2-0.3,0.2-0.5,0.2c-0.2,0-0.4,0-0.7-0.1c-0.5-0.1-0.8-0.4-0.9-0.9
		c-0.1-0.5-0.1-1.1,0-1.8c0.1-1.6,0.2-3.2,0.3-4.9s0.1-3.4,0-5.2c0-0.8,0.1-1.4,0.3-1.7c0.2-0.3,0.6-0.5,1.2-0.5
		c0.5,0.1,0.9,0.3,1,0.6S-596.2,656.4-596.2,657.2z M-580.4,676.7c0,0.5-0.1,1-0.4,1.3c-0.2,0.3-0.7,0.5-1.3,0.5h-8.9
		c-0.6,0-1.1-0.2-1.3-0.5s-0.4-0.8-0.4-1.3c0-0.6,0.1-1,0.3-1.3s0.7-0.5,1.4-0.5h3.2v-8.7h-1.7c-0.6,0-1.1-0.2-1.3-0.5
		c-0.2-0.3-0.4-0.8-0.4-1.3c0-0.6,0.1-1,0.3-1.3s0.7-0.4,1.4-0.4h1.7v-6.4h-1.8c-0.6,0-1.1-0.2-1.3-0.5s-0.4-0.8-0.4-1.3
		c0-0.6,0.1-1,0.3-1.3s0.7-0.5,1.4-0.5h7.3c0.7,0,1.1,0.2,1.4,0.5c0.2,0.3,0.4,0.8,0.4,1.3c0,0.5-0.1,0.9-0.4,1.3
		c-0.3,0.3-0.7,0.5-1.3,0.5h-2.2v6.4h2c0.7,0,1.1,0.1,1.3,0.4c0.2,0.3,0.3,0.7,0.3,1.3c0,0.5-0.1,1-0.4,1.3
		c-0.2,0.3-0.7,0.5-1.3,0.5h-2v8.7h2.3c0.7,0,1.1,0.2,1.3,0.5C-580.5,675.7-580.4,676.1-580.4,676.7z"/>
	<path id="XMLID_583_" class="st6" d="M-571.2,652.8c-0.4-0.8-0.3-1.5,0.5-2c1.2-0.7,2.1-0.5,2.6,0.4c0.2,0.3,0.3,0.6,0.4,0.9
		s0.2,0.5,0.3,0.7h5c0.6,0,1,0.2,1.3,0.5c0.2,0.3,0.3,0.7,0.3,1.2c0,0.4-0.1,0.8-0.3,1.1c-0.2,0.3-0.6,0.5-1.3,0.5h-13.8
		c-0.6,0-1-0.2-1.2-0.5c-0.2-0.3-0.3-0.7-0.3-1.1c0-0.5,0.1-0.8,0.3-1.2c0.2-0.3,0.6-0.5,1.2-0.5H-571.2z M-561.3,675.4
		c0,0.2,0,0.3,0,0.4s0,0.3,0,0.4c0.2-0.2,0.3-0.3,0.6-0.5c1.2-1,2.3-2.1,3.2-3.4c-0.7-1-1.3-2.1-1.7-3.1c-0.5-1-0.9-2.2-1.4-3.4
		c-0.1-0.4-0.2-0.7-0.3-1s0-0.5,0-0.8c-1.1,0-1.7-0.6-1.7-1.8c0-1.2,0.6-1.8,1.8-1.8h2.5v-8.1c0-0.6,0.2-1,0.5-1.3
		c0.3-0.3,0.7-0.4,1.3-0.4c0.5,0,0.9,0.2,1.3,0.5c0.3,0.3,0.5,0.7,0.5,1.3v1.9h4.1c0.6,0,1.1,0.2,1.4,0.5c0.3,0.3,0.5,0.8,0.5,1.3
		c0,0.6-0.1,1-0.4,1.3c-0.3,0.3-0.7,0.5-1.4,0.5h-4.3v2.5h2.5c1.2,0,2,0.3,2.4,1c0.4,0.6,0.4,1.6,0,2.9c-0.4,1.5-0.9,2.9-1.5,4.2
		s-1.2,2.5-1.9,3.7c1,1.3,2.1,2.5,3.3,3.5c0.6,0.5,0.9,1,1,1.5c0,0.5-0.1,0.9-0.4,1.4c-0.5,0.5-1,0.8-1.4,0.7s-1.1-0.4-1.8-1.1
		c-0.5-0.5-1-1-1.5-1.5c-0.5-0.5-0.9-0.9-1.3-1.4c-0.5,0.6-1.1,1.2-1.6,1.8c-0.6,0.6-1.1,1.1-1.7,1.6c-0.8,0.7-1.4,1-1.9,0.9
		c-0.5,0-0.9-0.3-1.3-0.8c0,0-0.1-0.1-0.1-0.1c0-0.1-0.1-0.1-0.1-0.2c-0.3,0.4-0.6,0.7-1,0.8c-0.4,0.2-0.8,0.2-1.3,0.2
		c-0.4,0-0.7-0.1-0.9-0.1c-0.3,0-0.6-0.1-1-0.2c-0.6-0.2-1-0.4-1.1-0.7s-0.2-0.8,0-1.4c0.3-0.9,0.8-1.2,1.6-1
		c0.4,0.2,0.7,0.2,0.9,0.1c0.1-0.1,0.2-0.3,0.2-0.7v-7.2c0-0.3,0-0.5-0.1-0.6c-0.1-0.1-0.2-0.1-0.3-0.1h-8.4c-0.2,0-0.3,0-0.3,0.1
		c0,0.1-0.1,0.2-0.1,0.5v9.7c0,1.2-0.5,1.8-1.6,1.8c-0.5,0-0.9-0.2-1.2-0.5c-0.3-0.3-0.5-0.8-0.5-1.3v-10.6c0-1,0.2-1.8,0.6-2.2
		c0.4-0.4,1.2-0.7,2.4-0.7h9.8c0.6,0,1.1,0.1,1.5,0.2c0.4,0.1,0.7,0.3,0.9,0.5c0.2,0.2,0.4,0.5,0.5,0.9c0.1,0.4,0.1,0.8,0.1,1.3
		V675.4z M-563.4,660.9c0,1-0.2,1.7-0.6,2.1s-1,0.6-2,0.6h-6.6c-1,0-1.7-0.2-2-0.6c-0.4-0.4-0.5-1.1-0.5-2.1v-1.2c0-0.5,0-1,0.1-1.3
		c0.1-0.4,0.2-0.6,0.4-0.9c0.2-0.2,0.5-0.4,0.8-0.4s0.8-0.1,1.3-0.1h6.6c0.9,0,1.5,0.2,1.9,0.6c0.4,0.4,0.6,1.1,0.6,2.2V660.9z
		 M-565.4,672.9c0,1-0.2,1.8-0.5,2.1c-0.3,0.4-1,0.6-1.8,0.6h-3c-0.8,0-1.4-0.2-1.8-0.6c-0.4-0.4-0.5-1.1-0.5-2.1V671
		c0-1.1,0.2-1.8,0.5-2.2s1-0.6,1.8-0.6h3c0.8,0,1.4,0.2,1.8,0.6s0.5,1.1,0.5,2.2V672.9z M-572,660.5c0,0.2,0,0.3,0,0.3
		c0,0,0.1,0,0.2,0h5.1c0.1,0,0.2,0,0.2,0c0,0,0-0.1,0-0.3v-0.7c0-0.2,0-0.3,0-0.3c0,0-0.1,0-0.2,0h-5.1c-0.1,0-0.1,0-0.2,0.1
		s0,0.1,0,0.3V660.5z M-570.2,672.4c0,0.2,0,0.3,0.1,0.3c0.1,0.1,0.2,0.1,0.3,0.1h1.2c0.3,0,0.4-0.1,0.4-0.4v-0.9
		c0-0.2,0-0.3-0.1-0.4s-0.2-0.1-0.3-0.1h-1.2c-0.1,0-0.2,0-0.3,0.1s-0.1,0.2-0.1,0.4V672.4z M-557.3,664.8c0.2,0.7,0.5,1.3,0.8,2
		c0.3,0.7,0.6,1.4,1,2.1c0.3-0.6,0.6-1.2,0.8-1.9c0.3-0.6,0.5-1.3,0.8-2c0.1-0.4,0.1-0.6,0-0.8c-0.1-0.1-0.4-0.2-1-0.2h-2.9
		c0,0.1,0.1,0.2,0.2,0.3S-557.3,664.7-557.3,664.8z"/>
	<path id="XMLID_591_" class="st6" d="M-543.7,655.9c-0.5,0-0.9-0.1-1.1-0.4s-0.3-0.7-0.3-1.2c0-0.6,0.1-1,0.3-1.3
		c0.2-0.3,0.6-0.4,1.1-0.4h8c1,0,1.4,0.6,1.4,1.7c0,1.1-0.5,1.6-1.4,1.6h-2.4c-0.2,0.8-0.4,1.5-0.6,2.1s-0.4,1.3-0.6,1.9h1.7
		c1,0,1.6,0.2,2,0.7c0.3,0.5,0.5,1.3,0.5,2.3v12.2c0,1.1-0.2,1.9-0.5,2.3c-0.3,0.5-1,0.7-2,0.7h-3.2c-1,0-1.7-0.2-2-0.7
		s-0.5-1.2-0.5-2.4v-6.3c-0.6,0.6-1.2,0.6-1.9,0c-0.5-0.4-0.7-0.8-0.7-1.2c0-0.5,0.2-1,0.5-1.6c0.4-0.8,0.8-1.6,1.2-2.3
		c0.4-0.8,0.7-1.6,1.1-2.4s0.7-1.7,1-2.6c0.3-0.9,0.6-1.8,0.9-2.8H-543.7z M-538.1,664.1c0-0.3,0-0.5-0.1-0.6
		c-0.1-0.1-0.3-0.1-0.6-0.1h-0.8c-0.2,0-0.4,0-0.5,0.1c-0.1,0.1-0.1,0.3-0.1,0.6v10.1c0,0.3,0,0.5,0.1,0.6c0.1,0.1,0.2,0.1,0.5,0.1
		h0.8c0.3,0,0.5,0,0.6-0.1c0.1-0.1,0.1-0.3,0.1-0.6V664.1z M-521.5,670.7c0,0.7-0.1,1.1-0.4,1.4c-0.3,0.2-0.7,0.4-1.4,0.4h-8.5
		c-0.6,0-1.1-0.1-1.4-0.4s-0.4-0.7-0.4-1.4c0-0.7,0.1-1.2,0.4-1.4c0.3-0.2,0.7-0.4,1.4-0.4h8.6c0.6,0,1,0.1,1.3,0.4
		C-521.7,669.6-521.5,670-521.5,670.7z M-528.7,661.7c0,0.4,0,0.7,0.1,0.9c0.1,0.2,0.4,0.3,0.9,0.3h3.8l0.5-6.5c0-0.4,0-0.7-0.1-0.8
		c-0.1-0.1-0.3-0.2-0.5-0.2h-7.8c-0.6,0-1-0.1-1.3-0.4c-0.3-0.3-0.4-0.7-0.4-1.4c0-0.6,0.2-1,0.5-1.3s0.7-0.4,1.2-0.4h9.1
		c0.6,0,1,0.1,1.4,0.2c0.4,0.1,0.6,0.3,0.9,0.6c0.2,0.3,0.3,0.7,0.4,1.1c0.1,0.5,0.1,1.1,0.1,1.8c-0.1,1.1-0.2,2.2-0.3,3.5
		c-0.1,1.2-0.2,2.5-0.3,3.8c0.6,0,1.1,0.1,1.5,0.2s0.7,0.3,0.9,0.6c0.2,0.3,0.4,0.7,0.5,1.2c0.1,0.5,0.1,1.1,0.1,1.9
		c0,2.7-0.1,4.8-0.3,6.4c-0.2,1.6-0.6,2.8-1.2,3.7h0c-0.4,0.7-1,1.3-1.9,1.7c-0.8,0.4-1.8,0.6-2.9,0.6c-0.7,0-1.5-0.1-2.2-0.3
		s-1.6-0.5-2.5-0.9c-0.7-0.3-1.1-0.7-1.3-1.2c-0.2-0.4-0.1-1,0.1-1.6c0.3-0.5,0.6-0.8,1-0.9c0.4-0.1,0.9,0,1.5,0.3
		c0.7,0.4,1.4,0.6,2,0.8s1.1,0.2,1.6,0.2c0.5,0,0.9-0.1,1.3-0.3s0.6-0.4,0.8-0.8c0.1-0.2,0.3-0.5,0.4-0.9c0.1-0.4,0.2-0.9,0.3-1.5
		c0.1-0.6,0.1-1.4,0.2-2.2c0-0.9,0.1-1.9,0.1-3.1c0-0.1,0-0.2-0.1-0.3c-0.1-0.1-0.2-0.1-0.3-0.2c-0.1,0-0.2-0.1-0.3-0.1
		c-0.1,0-0.1,0-0.1,0h-7.3c-0.7,0-1.3-0.1-1.7-0.2s-0.8-0.3-1-0.6s-0.4-0.7-0.5-1.1c-0.1-0.5-0.1-1,0-1.7l0.4-4.7
		c0-0.6,0.2-1.1,0.5-1.4c0.3-0.3,0.7-0.4,1.2-0.4c0.7,0,1.2,0.2,1.4,0.5s0.3,0.9,0.3,1.6L-528.7,661.7z"/>
	<path id="XMLID_596_" class="st6" d="M-501.8,653.4c0.7,0,1.1,0.2,1.4,0.5c0.2,0.3,0.4,0.8,0.4,1.3c0,0.5-0.1,0.9-0.4,1.2
		c-0.3,0.3-0.7,0.5-1.4,0.5h-2.3v2.7h2.6c0.7,0,1.1,0.2,1.4,0.5c0.2,0.3,0.4,0.8,0.4,1.3c0,0.5-0.1,0.9-0.4,1.2
		c-0.3,0.3-0.7,0.5-1.4,0.5h-1.8v3.8h2.2c0.7,0,1.1,0.2,1.4,0.5c0.2,0.3,0.4,0.7,0.4,1.3c0,0.6-0.1,1-0.4,1.3
		c-0.2,0.3-0.7,0.5-1.4,0.5h-2.2v4.2c0.1,0,0.2,0.1,0.3,0.1c0.1,0,0.2,0.1,0.3,0.1c0.4,0.1,0.8,0.2,1.2,0.3c0.4,0.1,0.9,0.2,1.4,0.3
		c0.5,0.1,1.1,0.1,1.7,0.2c0.7,0,1.5,0.1,2.4,0.1s2.1,0,3.5,0.1c1.3,0,2.9,0,4.8,0c0.5,0,0.9,0,1.2,0.1c0.3,0,0.6,0.1,0.8,0.2
		c0.2,0.1,0.3,0.3,0.4,0.5c0.1,0.2,0.1,0.5,0.1,0.9c0,0.7-0.2,1.2-0.5,1.5c-0.3,0.3-1,0.4-1.9,0.4c-1.8,0-3.4,0-4.8,0
		c-1.4,0-2.5,0-3.5-0.1s-1.8-0.1-2.5-0.1c-0.7,0-1.3-0.1-1.8-0.2c-0.5-0.1-0.9-0.1-1.3-0.2s-0.7-0.2-1.1-0.3c-1.6-0.4-2.9-0.9-4-1.6
		c-1.1-0.7-2-1.6-2.7-2.7c-0.1,0.6-0.3,1.1-0.4,1.6c-0.1,0.5-0.3,1-0.5,1.5c-0.3,0.7-0.7,1.2-1.1,1.6s-1,0.3-1.6,0
		c-0.6-0.3-0.9-0.7-1-1.2c-0.1-0.5,0-1.1,0.4-1.8c0.7-1.5,1.1-3.1,1.4-4.7c0.3-1.6,0.4-3.4,0.4-5.2c0-0.8,0.1-1.3,0.4-1.6
		c0.3-0.3,0.7-0.5,1.2-0.6l-0.1,0c0.6-0.1,1,0,1.3,0.3c0.3,0.3,0.5,0.9,0.5,1.7c0,0.1,0,0.3,0,0.5c0,0.2,0,0.4,0,0.7
		c0,0.2,0,0.5,0,0.7c0,0.2,0,0.4,0,0.5c0.2,0.9,0.4,1.7,0.7,2.2c0.3,0.6,0.6,1.1,0.9,1.6v-9h-4.9c-0.7,0-1.1-0.2-1.3-0.5
		c-0.2-0.3-0.4-0.8-0.4-1.2c0-0.5,0.1-0.9,0.3-1.3s0.7-0.5,1.4-0.5h4.1V657h-3.3c-0.6,0-1.1-0.2-1.3-0.5c-0.3-0.3-0.4-0.8-0.4-1.2
		c0-0.5,0.1-0.9,0.4-1.3c0.2-0.3,0.7-0.5,1.4-0.5h3.3v-1.1c0-0.6,0.2-1,0.5-1.3c0.3-0.3,0.7-0.5,1.3-0.5c0.5,0,1,0.2,1.3,0.5
		c0.3,0.3,0.5,0.7,0.5,1.3v1.1H-501.8z M-497.6,655.8c-0.6,0-1.1-0.2-1.4-0.5s-0.4-0.8-0.4-1.3c0-0.6,0.1-1,0.4-1.3
		c0.3-0.3,0.7-0.5,1.4-0.5h9.7c0.6,0,1,0.2,1.3,0.5c0.3,0.3,0.4,0.8,0.4,1.3c0,0.5-0.1,0.9-0.4,1.3s-0.7,0.5-1.3,0.5h-3v6.5h3.7
		c0.6,0,1.1,0.1,1.4,0.5c0.3,0.3,0.4,0.7,0.4,1.3c0,0.5-0.1,0.9-0.4,1.3c-0.3,0.3-0.7,0.5-1.4,0.5h-3.7v7.4c0,0.6-0.2,1.1-0.5,1.4
		c-0.3,0.3-0.7,0.5-1.3,0.5c-0.5,0-1-0.2-1.3-0.5c-0.4-0.3-0.5-0.8-0.5-1.4v-7.4h-3.9c-0.6,0-1.1-0.2-1.4-0.5s-0.4-0.8-0.4-1.3
		c0-0.6,0.1-1,0.4-1.3c0.3-0.3,0.7-0.5,1.4-0.5h3.9v-6.5H-497.6z"/>
	<path id="XMLID_599_" class="st6" d="M-464.2,674.1c0,1.1-0.3,2-0.8,2.6s-1.5,0.9-2.9,0.9c-0.4,0-0.7,0-1-0.1
		c-0.3-0.1-0.6-0.1-0.8-0.2c-0.6-0.1-1-0.3-1.2-0.5v0.8c0,0.6-0.1,1.1-0.4,1.3c-0.3,0.2-0.7,0.3-1.3,0.3c-0.5,0-0.9-0.1-1.2-0.3
		s-0.4-0.6-0.4-1.3v-9.5h-2.9c-0.2,0-0.2,0.1-0.2,0.2v7.8c0,0.6-0.1,1-0.4,1.3c-0.3,0.3-0.7,0.4-1.2,0.4c-0.6,0-1-0.1-1.3-0.3
		c-0.3-0.2-0.4-0.7-0.4-1.3v-8.2c0-1.1,0.2-1.8,0.6-2.2c0.4-0.4,1.1-0.6,2.2-0.6h3.6v-2.1h-5.8c-0.6,0-1.1-0.1-1.3-0.3
		c-0.2-0.2-0.3-0.6-0.3-1.1c0-0.2,0-0.4,0.1-0.6s0.1-0.4,0.3-0.5c-0.1,0-0.2-0.1-0.2-0.1c-0.1,0-0.1-0.1-0.2-0.2
		c-0.2-0.2-0.3-0.4-0.4-0.5c-0.1-0.2-0.1-0.4-0.1-0.6c0-0.2,0.1-0.5,0.3-0.8c0.1-0.3,0.3-0.6,0.6-1c0.4-0.6,0.8-1.2,1.2-1.9
		c0.4-0.7,0.7-1.6,1-2.6c0.2-0.7,0.5-1.1,0.8-1.3s0.7-0.3,1.1-0.3c0.7,0.1,1.1,0.4,1.3,0.9c0.2,0.5,0.2,1,0,1.6
		c-0.1,0.2-0.1,0.4-0.2,0.6s-0.1,0.4-0.2,0.5h2.1v-2.5c0-0.6,0.2-1.1,0.5-1.3s0.7-0.3,1.2-0.3c0.6,0,1,0.1,1.3,0.3
		c0.3,0.2,0.4,0.6,0.4,1.3v2.4h4.8c0.6,0,1,0.1,1.2,0.4c0.2,0.3,0.4,0.7,0.4,1.2c0,0.5-0.1,0.8-0.4,1s-0.7,0.4-1.2,0.4h-4.8v2.4h5.3
		c0.6,0,1,0.1,1.2,0.3c0.2,0.2,0.4,0.6,0.4,1.1c0,0.5-0.1,0.9-0.3,1.1c-0.2,0.2-0.7,0.3-1.3,0.3h-5.3v2.1h3.8c1.1,0,1.8,0.2,2.2,0.6
		s0.6,1.2,0.6,2.2V674.1z M-478.7,659.5c-0.1,0.1-0.2,0.2-0.2,0.3s-0.1,0.2-0.2,0.2h5v-2.4h-3.5c-0.2,0.2-0.3,0.5-0.5,0.9
		C-478.4,659-478.5,659.3-478.7,659.5z M-470.8,668.1v6.3c0.2-0.2,0.4-0.4,0.8-0.4c0.3,0,0.8,0,1.5,0.1c0.4,0.1,0.7,0.1,0.8,0
		c0.1,0,0.2-0.2,0.2-0.3v-5.4c0-0.2-0.1-0.2-0.3-0.2H-470.8z M-454.8,674.6c0,1.1-0.1,2.1-0.4,2.8c-0.2,0.7-0.6,1.2-1.2,1.6
		c-0.5,0.3-1.2,0.5-2.1,0.4s-1.9-0.2-3.2-0.6c-0.9-0.3-1.5-0.6-1.6-1.1c-0.2-0.5-0.1-1.1,0.2-1.8c0.2-0.6,0.5-1,0.9-1.1
		c0.4-0.1,0.9-0.1,1.5,0.2c1,0.3,1.7,0.4,2,0.2s0.5-0.7,0.5-1.3v-21.5c0-1.2,0.5-1.8,1.6-1.8c0.6,0,1,0.1,1.3,0.4
		c0.3,0.3,0.4,0.7,0.4,1.4V674.6z M-459.4,670.1c0,0.7-0.2,1.1-0.5,1.4c-0.3,0.2-0.7,0.4-1.2,0.4c-0.5,0-0.9-0.1-1.2-0.4
		c-0.3-0.2-0.4-0.7-0.4-1.4v-15.2c0-0.7,0.1-1.2,0.4-1.4c0.3-0.2,0.7-0.3,1.2-0.3c0.5,0,0.9,0.1,1.2,0.3c0.3,0.2,0.5,0.7,0.5,1.4
		V670.1z"/>
	<path id="XMLID_605_" class="st6" d="M-437.8,652.2c0-0.7,0.1-1.1,0.4-1.3c0.3-0.2,0.8-0.4,1.4-0.4c0.6,0,1.1,0.1,1.4,0.4
		c0.3,0.2,0.5,0.7,0.5,1.3v3.8h7.4c0.7,0,1.3,0,1.8,0.1c0.4,0.1,0.8,0.2,1,0.5c0.2,0.2,0.4,0.6,0.5,1c0.1,0.4,0.1,1,0.1,1.7v9.1
		c0,0.7,0,1.2-0.1,1.6c-0.1,0.4-0.2,0.8-0.5,1c-0.3,0.2-0.6,0.4-1.1,0.5c-0.4,0.1-1,0.1-1.8,0.1h-7.4v6.2c0,0.5-0.1,0.9-0.4,1.2
		c-0.3,0.3-0.7,0.5-1.4,0.5c-0.8,0-1.3-0.1-1.5-0.4c-0.2-0.3-0.3-0.7-0.3-1.3v-6.2h-7.2c-0.7,0-1.3,0-1.8-0.1
		c-0.5-0.1-0.8-0.3-1-0.5s-0.4-0.6-0.5-1c-0.1-0.4-0.1-1-0.1-1.6v-9.1c0-0.7,0-1.2,0.1-1.7c0.1-0.4,0.2-0.8,0.5-1s0.6-0.4,1-0.5
		s1-0.1,1.8-0.1h7.2V652.2z M-444.1,659.6c-0.3,0-0.5,0-0.6,0.1c-0.1,0.1-0.1,0.4-0.1,0.8v6.6c0,0.5,0,0.8,0.1,0.9
		c0.1,0.1,0.3,0.2,0.6,0.2h6.2v-8.6H-444.1z M-434.1,659.6v8.6h6.4c0.4,0,0.6-0.1,0.7-0.2s0.1-0.4,0.1-0.9v-6.6
		c0-0.4-0.1-0.6-0.2-0.7c-0.1-0.1-0.4-0.2-0.9-0.2H-434.1z"/>
	<path id="XMLID_609_" class="st6" d="M-417.4,672.8c0-0.6,0.2-1.1,0.6-1.5s0.9-0.6,1.5-0.6s1.1,0.2,1.5,0.6s0.6,0.9,0.6,1.5
		s-0.2,1.1-0.6,1.5s-0.9,0.6-1.5,0.6s-1.1-0.2-1.5-0.6S-417.4,673.4-417.4,672.8z"/>
	<path id="XMLID_611_" class="st6" d="M-408,672.8c0-0.6,0.2-1.1,0.6-1.5s0.9-0.6,1.5-0.6s1.1,0.2,1.5,0.6s0.6,0.9,0.6,1.5
		s-0.2,1.1-0.6,1.5s-0.9,0.6-1.5,0.6s-1.1-0.2-1.5-0.6S-408,673.4-408,672.8z"/>
	<path id="XMLID_613_" class="st6" d="M-398.7,672.8c0-0.6,0.2-1.1,0.6-1.5s0.9-0.6,1.5-0.6s1.1,0.2,1.5,0.6s0.6,0.9,0.6,1.5
		s-0.2,1.1-0.6,1.5s-0.9,0.6-1.5,0.6s-1.1-0.2-1.5-0.6S-398.7,673.4-398.7,672.8z"/>
	<path id="XMLID_615_" class="st6" d="M-389.3,672.8c0-0.6,0.2-1.1,0.6-1.5s0.9-0.6,1.5-0.6s1.1,0.2,1.5,0.6s0.6,0.9,0.6,1.5
		s-0.2,1.1-0.6,1.5s-0.9,0.6-1.5,0.6s-1.1-0.2-1.5-0.6S-389.3,673.4-389.3,672.8z"/>
	<path id="XMLID_617_" class="st6" d="M-379.9,672.8c0-0.6,0.2-1.1,0.6-1.5s0.9-0.6,1.5-0.6s1.1,0.2,1.5,0.6s0.6,0.9,0.6,1.5
		s-0.2,1.1-0.6,1.5s-0.9,0.6-1.5,0.6s-1.1-0.2-1.5-0.6S-379.9,673.4-379.9,672.8z"/>
	<path id="XMLID_619_" class="st6" d="M-370.5,672.8c0-0.6,0.2-1.1,0.6-1.5c0.4-0.4,0.9-0.6,1.5-0.6s1.1,0.2,1.5,0.6
		c0.4,0.4,0.6,0.9,0.6,1.5s-0.2,1.1-0.6,1.5c-0.4,0.4-0.9,0.6-1.5,0.6s-1.1-0.2-1.5-0.6C-370.3,673.9-370.5,673.4-370.5,672.8z"/>
</g>
</svg>
