<?xml version="1.0" encoding="utf-8"?>
<!-- Generator: Adobe Illustrator 19.0.0, SVG Export Plug-In . SVG Version: 6.00 Build 0)  -->
<svg version="1.0" id="图层_1" xmlns="http://www.w3.org/2000/svg" xmlns:xlink="http://www.w3.org/1999/xlink" x="0px" y="0px"
	 viewBox="0 0 186 50" style="enable-background:new 0 0 186 50;" xml:space="preserve">
<style type="text/css">
	.st0{fill:#00A0E9;}
	.st1{clip-path:url(#SVGID_2_);}
	.st2{clip-path:url(#SVGID_4_);fill:#00A0E9;}
	.st3{clip-path:url(#SVGID_6_);}
	.st4{clip-path:url(#SVGID_8_);fill:#00A0E9;}
	.st5{clip-path:url(#SVGID_10_);}
	.st6{clip-path:url(#SVGID_12_);fill:#00A0E9;}
	.st7{clip-path:url(#SVGID_14_);}
	.st8{clip-path:url(#SVGID_16_);fill:#00A0E9;}
	.st9{clip-path:url(#SVGID_18_);}
	.st10{clip-path:url(#SVGID_20_);fill:#00A0E9;}
	.st11{clip-path:url(#SVGID_22_);}
	.st12{clip-path:url(#SVGID_24_);fill:#00A0E9;}
	.st13{clip-path:url(#SVGID_26_);}
	.st14{clip-path:url(#SVGID_28_);fill:#00A0E9;}
	.st15{clip-path:url(#SVGID_30_);}
	.st16{clip-path:url(#SVGID_32_);fill:#00A0E9;}
	.st17{clip-path:url(#SVGID_34_);}
	.st18{clip-path:url(#SVGID_36_);fill:#00A0E9;}
	.st19{clip-path:url(#SVGID_38_);}
	.st20{clip-path:url(#SVGID_40_);fill:#00A0E9;}
	.st21{clip-path:url(#SVGID_42_);}
	.st22{clip-path:url(#SVGID_44_);fill:#00A0E9;}
	.st23{clip-path:url(#SVGID_46_);}
	.st24{clip-path:url(#SVGID_48_);fill:#00A0E9;}
	.st25{clip-path:url(#SVGID_50_);}
	.st26{clip-path:url(#SVGID_52_);fill:#00A0E9;}
	.st27{clip-path:url(#SVGID_54_);}
	.st28{clip-path:url(#SVGID_56_);fill:#00A0E9;}
	.st29{clip-path:url(#SVGID_58_);}
	.st30{clip-path:url(#SVGID_60_);fill:#00A0E9;}
	.st31{clip-path:url(#SVGID_62_);}
	.st32{clip-path:url(#SVGID_64_);fill:#00A0E9;}
	.st33{clip-path:url(#SVGID_66_);}
	.st34{clip-path:url(#SVGID_68_);fill:#00A0E9;}
	.st35{clip-path:url(#SVGID_70_);}
	.st36{clip-path:url(#SVGID_72_);fill:#00A0E9;}
	.st37{clip-path:url(#SVGID_74_);}
	.st38{clip-path:url(#SVGID_76_);fill:#00A0E9;}
	.st39{clip-path:url(#SVGID_78_);}
	.st40{clip-path:url(#SVGID_80_);fill:#00A0E9;}
	.st41{clip-path:url(#SVGID_82_);}
	.st42{clip-path:url(#SVGID_84_);fill:#00A0E9;}
	.st43{clip-path:url(#SVGID_86_);}
	.st44{clip-path:url(#SVGID_88_);fill:#00A0E9;}
	.st45{clip-path:url(#SVGID_90_);}
	.st46{clip-path:url(#SVGID_92_);fill:#00A0E9;}
	.st47{clip-path:url(#SVGID_94_);}
	.st48{clip-path:url(#SVGID_96_);fill:#00A0E9;}
	.st49{clip-path:url(#SVGID_98_);}
	.st50{clip-path:url(#SVGID_100_);fill:#00A0E9;}
	.st51{clip-path:url(#SVGID_102_);}
	.st52{clip-path:url(#SVGID_104_);fill:#00A0E9;}
	.st53{clip-path:url(#SVGID_106_);}
	.st54{clip-path:url(#SVGID_108_);fill:#00A0E9;}
	.st55{clip-path:url(#SVGID_110_);}
	.st56{clip-path:url(#SVGID_112_);fill:#00A0E9;}
	.st57{clip-path:url(#SVGID_114_);}
	.st58{clip-path:url(#SVGID_116_);fill:#00A0E9;}
	.st59{clip-path:url(#SVGID_118_);}
	.st60{clip-path:url(#SVGID_120_);fill:#00A0E9;}
	.st61{clip-path:url(#SVGID_122_);}
	.st62{clip-path:url(#SVGID_124_);fill:#00A0E9;}
	.st63{clip-path:url(#SVGID_126_);}
	.st64{clip-path:url(#SVGID_128_);fill:#00A0E9;}
	.st65{clip-path:url(#SVGID_130_);}
	.st66{clip-path:url(#SVGID_132_);fill:#00A0E9;}
	.st67{clip-path:url(#SVGID_134_);}
	.st68{clip-path:url(#SVGID_136_);fill:#00A0E9;}
	.st69{clip-path:url(#SVGID_138_);}
	.st70{clip-path:url(#SVGID_140_);fill:#00A0E9;}
	.st71{clip-path:url(#SVGID_142_);}
	.st72{clip-path:url(#SVGID_144_);fill:#00A0E9;}
	.st73{clip-path:url(#SVGID_146_);}
	.st74{clip-path:url(#SVGID_148_);fill:#00A0E9;}
	.st75{clip-path:url(#SVGID_150_);}
	.st76{clip-path:url(#SVGID_152_);fill:#00A0E9;}
</style>
<path id="XMLID_74_" class="st0" d="M70.8,34.8h2v6.6c0,0.9,0.2,1.6,0.7,2c0.5,0.5,1.2,0.6,2.4,0.6c1.1,0,1.9-0.2,2.4-0.6
	c0.5-0.5,0.7-1.1,0.7-2v-6.6h2v6.6c0,1.4-0.5,2.5-1.4,3.2c-0.9,0.7-2.1,1.1-3.9,1.1c-1.6,0-2.9-0.4-3.9-1.1
	c-0.9-0.7-1.4-1.9-1.4-3.2v-6.6H70.8z"/>
<path id="XMLID_71_" class="st0" d="M99.9,35.3c0.9,0.5,1.4,1.4,1.5,2.6h-2c-0.1-0.6-0.5-1.1-1-1.4c-0.5-0.2-1.1-0.4-2.1-0.4
	c-0.7,0-1.4,0.1-1.7,0.2c-0.5,0.2-0.7,0.6-0.7,1.1s0.2,0.9,0.9,1.1c0.2,0.1,1,0.4,2.1,0.6c1.6,0.4,2.7,0.7,3.2,1
	c1.1,0.5,1.6,1.4,1.6,2.2c0,1-0.4,1.7-1.2,2.2c-0.9,0.5-2.1,0.9-3.7,0.9c-1.5,0-2.7-0.2-3.6-0.7c-1-0.6-1.6-1.6-1.7-3h2
	c0.1,0.9,0.5,1.4,1,1.7c0.5,0.2,1.2,0.5,2.2,0.5c0.9,0,1.6-0.1,2.1-0.4c0.5-0.2,0.7-0.6,0.7-1.1c0-0.6-0.4-1-1.1-1.4
	c-0.2-0.1-1.1-0.4-2.4-0.7c-1.5-0.4-2.5-0.7-2.9-0.9c-1-0.5-1.4-1.2-1.4-2.1c0-1,0.5-1.7,1.4-2.2c0.9-0.5,2-0.7,3.4-0.7
	C97.9,34.5,99.2,34.8,99.9,35.3"/>
<path id="XMLID_66_" class="st0" d="M112.6,38.8c0.7,0.7,1.1,1.9,1.1,3.2H107c0.1,0.7,0.2,1.2,0.6,1.6c0.4,0.4,1,0.6,1.6,0.6
	s1.1-0.1,1.5-0.4c0.2-0.2,0.5-0.5,0.7-1h2c-0.2,0.7-0.6,1.4-1.2,1.9c-0.9,0.6-1.9,0.9-3,0.9c-1.4,0-2.4-0.4-3.2-1.1s-1.2-1.7-1.2-3
	c0-1.1,0.4-2.1,1.2-2.9c0.7-0.7,1.9-1.1,3.1-1.1C110.8,37.5,111.9,37.9,112.6,38.8 M107.8,39.4c-0.4,0.2-0.6,0.7-0.7,1.4h4.6
	c-0.1-1.2-1-1.9-2.4-1.9C108.6,38.9,108.1,39,107.8,39.4"/>
<path id="XMLID_61_" class="st0" d="M133.3,36.1c1,1,1.6,2.4,1.6,4c0,1.6-0.5,3-1.6,4s-2.6,1.6-4.5,1.6s-3.4-0.5-4.5-1.6
	c-1-1-1.5-2.4-1.5-4c0-1.6,0.5-3,1.5-4c1.1-1.1,2.6-1.6,4.5-1.6S132.2,35,133.3,36.1 M125.7,37.3c-0.6,0.7-1,1.6-1,2.9
	s0.4,2.1,1,2.9c0.7,0.7,1.7,1.1,3,1.1c1.2,0,2.2-0.4,3-1.1c0.7-0.7,1-1.7,1-3c0-1.2-0.4-2.2-1-3c-0.7-0.7-1.6-1.1-3-1.1
	C127.4,36.1,126.4,36.5,125.7,37.3"/>
<path id="XMLID_58_" class="st0" d="M145.6,40.6v4.7h-2v-4.6c0-1.2-0.6-1.9-2-1.9c-0.5,0-0.9,0.1-1.2,0.5c-0.4,0.4-0.6,0.7-0.7,1.4
	v4.6h-2v-7.7h2v0.9c0.4-0.4,0.7-0.6,1.2-0.9c0.5-0.2,1-0.2,1.5-0.2C144.5,37.5,145.6,38.5,145.6,40.6"/>
<polygon id="XMLID_55_" class="st0" points="152.1,34.8 154.1,34.8 154.1,44 160.8,44 160.8,45.5 152.1,45.5 "/>
<path id="XMLID_50_" class="st0" d="M164.6,34.9c0.2,0.2,0.4,0.5,0.4,0.7c0,0.4-0.1,0.6-0.4,0.9c-0.2,0.2-0.6,0.4-1,0.4
	c-0.4,0-0.7-0.1-1-0.4c-0.2-0.2-0.4-0.5-0.4-0.9c0-0.4,0.1-0.6,0.4-0.7c0.2-0.2,0.6-0.4,1-0.4C163.9,34.5,164.3,34.7,164.6,34.9z
	 M162.6,45.5h2v-7.7h-2V45.5z"/>
<path id="XMLID_47_" class="st0" d="M175,40.6v4.7h-2v-4.6c0-1.2-0.6-1.9-2-1.9c-0.5,0-0.9,0.1-1.2,0.5c-0.4,0.4-0.6,0.7-0.7,1.4
	v4.6h-2v-7.7h2v0.9c0.4-0.4,0.7-0.6,1.2-0.9c0.5-0.2,1-0.2,1.5-0.2C173.9,37.5,175,38.5,175,40.6"/>
<path id="XMLID_42_" class="st0" d="M184.4,38.8c0.7,0.7,1.1,1.9,1.1,3.2h-6.7c0.1,0.7,0.2,1.2,0.6,1.6c0.4,0.4,1,0.6,1.6,0.6
	s1.1-0.1,1.5-0.4c0.2-0.2,0.5-0.5,0.7-1h2c-0.2,0.7-0.6,1.4-1.2,1.9c-0.9,0.6-1.9,0.9-3,0.9c-1.4,0-2.4-0.4-3.2-1.1
	c-0.9-0.7-1.2-1.7-1.2-3c0-1.1,0.4-2.1,1.2-2.9c0.7-0.7,1.9-1.1,3.1-1.1C182.5,37.5,183.6,37.9,184.4,38.8 M179.5,39.4
	c-0.4,0.2-0.6,0.7-0.7,1.4h4.6c-0.1-1.2-1-1.9-2.4-1.9C180.4,38.9,179.9,39,179.5,39.4"/>
<path id="XMLID_37_" class="st0" d="M113.5,10.9l1.6-2.5c0-0.1,0.1-0.2,0.1-0.4V6.4c0-0.5-0.4-0.9-0.9-1H98.7c0.1-0.5,0.2-1,0.2-1.5
	l0,0h-5.7c-0.5,2.5-2,4.4-3.7,5v1.7c0.1,0,0.1,0,0.1,0c2.7,0,5.2-0.9,7-2.4h12.1l-1.9,2.6H92.2c-1.1,0-2,0.9-2,2v0.9v4.1v2.9v3v0.9
	c0,1,1,2,2,2h3.6h19.6l1-2.9H96.8c-0.5,0-1-0.5-1-1v-2.1h12.6l0.9-2.9h-3.6v-4.1h3.1c0.5,0,1,0.5,1,0.9v3.2v2.9h5.7v-7v-1.4v-0.5
	c0-0.5-0.5-1-1-1L113.5,10.9z M95.9,14.7c0-0.5,0.5-1,1-1h3.2v4.1h-4.2V14.7z"/>
<polygon id="XMLID_34_" class="st0" points="142.3,23.6 142.3,17.7 146.9,17.7 148,14.7 142.3,14.7 142.3,10.4 136.7,10.4 
	136.7,14.7 130.8,14.7 130.8,17.7 136.7,17.7 136.7,23.6 130.8,23.6 130.8,26.6 148.7,26.6 148.7,23.6 "/>
<path id="XMLID_31_" class="st0" d="M133.7,8.7h15.1v-3h-13.5c0.2-0.6,0.5-1.4,0.5-2.1h-6.7c-0.1,0.7-0.4,1.4-0.7,2.1h-6.7v3h4.7
	c-1.4,1.6-3.2,2.9-5.4,3.9v3.2c1-0.1,2-0.4,2.9-0.6v11.5h5.7V12.6C131.2,11.5,132.6,10.2,133.7,8.7"/>
<path id="XMLID_26_" class="st0" d="M84.2,8.2V5.5H71.1c0.2-0.6,0.4-1.1,0.5-1.7h-6.7c-0.1,0.6-0.4,1.1-0.6,1.7h-7.7v2.7h6
	c-1.5,1.9-3.5,3.4-5.7,4.4v3.2c1-0.1,2-0.4,3-0.6v11.6h5.9v-3.9h9.8l1-2.7H65.7V18h11.5v2.2v3.7c0,0.5-0.4,1-1,1h-0.9v2h1.9h3H81
	c1,0,2-1,2-2v-6.9v-2.7v-2.2v-0.7c0-1.1-0.9-2-2-2H68.3c0.5-0.6,1-1.2,1.5-1.9h14.5V8.2z M77.1,15.1H65.7v-1.2c0-0.5,0.5-1,1-1h9.6
	c0.5,0,0.9,0.5,0.9,1V15.1z"/>
<polygon id="XMLID_23_" class="st0" points="154,26.2 163.3,25.2 163.9,22.1 154,23.1 "/>
<path id="XMLID_20_" class="st0" d="M180.5,24.1c-0.5,0-0.9-0.2-1-0.7l0,0v0.1l-0.9-2.4c0.9-0.4,1.7-0.7,3-1.1l-0.1-3.7
	c0,0-1.7,0.6-4.2,1.5l-0.7-2.1l5-0.2v-3.1l-6.1,0.4l-0.9-2.4l6.6-0.4V7l-1.4,0.1V5h-4.1v2.2l-2.2,0.1L172,3.6h-5l1.5,4.1L165.2,8
	v2.9l4.5-0.2l0.9,2.4l-5.5,0.4v3.1l6.7-0.4l1.2,3.4c-2.9,0.9-5.7,1.7-8,2v2.9c4.7-0.7,7.2-1.2,9.1-1.6l1.2,3.2
	c0.1,0.4,0.5,0.6,1,0.6h4.2h0.4l0.9-2.2h-1.4V24.1z"/>
<path id="XMLID_17_" class="st0" d="M164.6,11.2h-4.2c-0.1,0.4-0.4,0.6-0.5,1h-1.4c3-3.2,4.2-8.5,4.2-8.5h-5.2c-0.4,3-2.4,6.6-3.1,8
	l0,0c-0.2,0.4-0.4,0.6-0.4,0.7v2.6h4c-1.5,2-3,3.2-3.6,3.7c-0.2,0.1-0.4,0.4-0.4,0.6v2.4l9.3-1l0.7-2.7l-4.2,0.4
	C163.4,15.2,164.6,11.2,164.6,11.2"/>
<path id="XMLID_12_" class="st0" d="M22.7,28.7c-1.5,0-3-0.6-4.4-1.9c-1.4-1.2-1.6-3.1-2.1-5.2l-2.7,0.1l0.6,6.7
	c1.9,1,5.1,1.9,8.1,1.9c1,0,1.9-0.1,2.6-0.2c0-0.4-0.4-1.1-0.7-1.5C23.5,28.7,23.2,28.7,22.7,28.7 M24.7,15.2
	c-2-0.6-4.1-1.1-5.1-1.9c-1-0.7-1.5-1.6-1.5-2.7c0-2.6,1.5-3.9,4.4-3.9c0.5,0,1.1,0.1,1.7,0.5c0.6,0.4,1.2,0.6,1.7,1.2
	c1.1,1.4,1.5,3,1.6,3.6l2.6,0.1L29.8,7c-1.6-1-4.5-1.6-7-1.6c-1.1,0-2.2,0.1-3.2,0.5c-1,0.2-1.9,0.7-2.6,1.2s-1.4,1.2-1.7,2
	c-0.5,0.7-0.9,2-0.9,3.2c0,1.4,0.1,2.7,1.5,4.2c1.1,1.1,3.4,2.5,6,3.5c3.7,1.4,5.9,2.2,5.9,4.5c0,1.2-0.2,2.1-1.1,2.9
	c0.6,0.5,1.2,1.5,1.2,1.6c0.2-0.1,0.4-0.2,0.5-0.4c0.7-0.6,1.5-1.2,2.4-2.7c0.5-0.9,0.7-2.4,0.7-3.5C31.4,19.5,29.2,16.8,24.7,15.2"
	/>
<path id="XMLID_9_" class="st0" d="M17.7,32.4h10.5c0-0.9-0.2-1.9-0.5-2.6s-0.6-1.5-1.1-2c-0.5-0.5-1.6-1.6-4.4-1.6
	c-1.4,0-2.4,0.2-3.2,0.6c0.4,0.2,0.9,0.7,1.4,1c0.5-0.2,1.1-0.4,1.7-0.4c1,0,1.6,0.1,2.1,0.7c0.5,0.5,0.7,1.1,0.9,1.7
	c0.1,0.4,0.1,0.6,0,0.7c0,0.1-0.1,0.2-0.4,0.4c-0.1,0.1-0.4,0.1-0.6,0.1s-0.6,0-1,0h-5.4c0.1-0.4,0.1-0.7,0.4-1
	c-0.7-0.1-2-0.4-2.5-0.5c-0.5,0.9-1.2,2.1-1.2,4.2c0,1.7,0.5,3.2,1.9,4.7c0.7,0.9,1.7,1.4,2.5,1.7c1.7,0.6,4.5,0.7,6.4-0.2
	c0.7-0.4,1.4-1,2.1-1.6c0.6-0.5,0.9-1,0.9-1l-0.1-1.4c-1.2,1.6-3.2,2.6-5.5,2.4c-2.4-0.4-4.2-2.1-4.7-4.5
	C17.7,33.5,17.7,33,17.7,32.4C17.7,32.5,17.7,32.4,17.7,32.4L17.7,32.4L17.7,32.4"/>
<path id="XMLID_6_" class="st0" d="M46.1,1.3c-2.1-0.7-4.4,0.1-5.4,2.2l0,0c-0.1,0.2-0.7,1.6-0.7,5c0,2.6-0.1,15.3-0.1,22.3
	c0,6-4.2,8.7-4.2,8.7s3.5-3.1,3.5-8.7V3.5l0,0c0-0.2-0.2-0.5-0.5-0.5c-0.2,0-0.5,0.2-0.5,0.5l0,0v27.7c0,5.5-3.2,7.8-3.2,7.8
	s2.6-2.6,2.6-7.7c0-6.2-0.2-19.1-0.2-22.8s-0.7-5-0.7-5c-0.4-0.9-0.9-1.4-1.7-1.7c-1.9-0.9-4.2,1.2-2.9,3.1c0.6-0.6,1.5-0.5,1.9-0.2
	C34,4.8,36,5.4,36,10v20.8c0,7.7-6.2,14-14,14s-14-6.2-14-14V9.7V9.6c0-3.9,2.4-5.1,2.4-5.1v-1h-10v1c0,0,2.1,1.5,2.1,5.1v0.1v20.2
	c0,10.7,8.7,19.4,19.4,19.4s19.4-8.7,19.4-19.4V10.2c0-2.6,1-5.5,2.4-5.6c-0.5-2,0.6-3.1,2.1-2.9c1.1,0.2,2.5,1.4,2.1,2.6
	c-0.5-0.6-1.4,0.1-0.9,0.6C48.5,6.4,49.3,2.5,46.1,1.3"/>
<g>
	<defs>
		<path id="SVGID_1_" d="M-384.9-436.6h2v6.7c0,0.9,0.3,1.6,0.8,2.1c0.5,0.4,1.3,0.7,2.4,0.7c1.1,0,1.9-0.2,2.4-0.7
			c0.5-0.5,0.8-1.1,0.8-2.1v-6.7h2v6.6c0,1.4-0.5,2.5-1.4,3.2c-0.9,0.7-2.2,1.1-3.8,1.1c-1.7,0-2.9-0.4-3.8-1.1
			c-0.9-0.8-1.4-1.8-1.4-3.2V-436.6z"/>
	</defs>
	<clipPath id="SVGID_2_">
		<use xlink:href="#SVGID_1_"  style="overflow:visible;"/>
	</clipPath>
	<g class="st1">
		<defs>
			<rect id="SVGID_3_" x="-815.5" y="-495" width="1920" height="1080"/>
		</defs>
		<clipPath id="SVGID_4_">
			<use xlink:href="#SVGID_3_"  style="overflow:visible;"/>
		</clipPath>
		<rect x="-389.9" y="-441.6" class="st2" width="20.4" height="20.9"/>
	</g>
</g>
<g>
	<defs>
		<path id="SVGID_5_" d="M-355.6-436c0.9,0.6,1.4,1.4,1.5,2.6h-2c-0.2-0.7-0.5-1.1-1-1.4c-0.4-0.3-1.1-0.4-2.1-0.4
			c-0.8,0-1.4,0.1-1.8,0.3c-0.5,0.2-0.8,0.6-0.8,1.1c0,0.5,0.3,0.8,0.9,1.1c0.3,0.1,1,0.4,2.1,0.7c1.6,0.4,2.7,0.8,3.3,1.1
			c1.1,0.6,1.6,1.3,1.6,2.3c0,1-0.4,1.7-1.3,2.3c-0.9,0.6-2.1,0.8-3.7,0.8c-1.5,0-2.7-0.3-3.6-0.8c-1.1-0.6-1.6-1.6-1.7-3h2
			c0.1,0.8,0.5,1.4,1,1.7c0.5,0.3,1.3,0.5,2.3,0.5c0.9,0,1.6-0.1,2.2-0.4c0.5-0.3,0.8-0.6,0.8-1.1c0-0.6-0.4-1-1.2-1.4
			c-0.3-0.1-1.1-0.4-2.4-0.7c-1.5-0.4-2.5-0.7-2.9-0.9c-1-0.5-1.4-1.2-1.4-2.2c0-1,0.5-1.7,1.4-2.2c0.9-0.5,2-0.8,3.3-0.8
			C-357.5-436.8-356.4-436.6-355.6-436"/>
	</defs>
	<clipPath id="SVGID_6_">
		<use xlink:href="#SVGID_5_"  style="overflow:visible;"/>
	</clipPath>
	<g class="st3">
		<defs>
			<rect id="SVGID_7_" x="-815.5" y="-495" width="1920" height="1080"/>
		</defs>
		<clipPath id="SVGID_8_">
			<use xlink:href="#SVGID_7_"  style="overflow:visible;"/>
		</clipPath>
		<rect x="-369.1" y="-441.8" class="st4" width="20.3" height="21.1"/>
	</g>
</g>
<g>
	<defs>
		<path id="SVGID_9_" d="M-342.9-432.6c0.7,0.8,1.1,1.9,1.1,3.3h-6.8c0.1,0.7,0.3,1.3,0.7,1.7c0.4,0.4,0.9,0.6,1.7,0.6
			c0.6,0,1.1-0.1,1.5-0.4c0.3-0.2,0.6-0.5,0.8-0.9h2c-0.2,0.7-0.6,1.3-1.3,1.8c-0.8,0.6-1.8,0.9-3,0.9c-1.3,0-2.4-0.4-3.2-1.1
			c-0.8-0.7-1.3-1.8-1.3-3c0-1.2,0.4-2.1,1.2-2.9c0.8-0.8,1.8-1.2,3.2-1.2C-344.8-433.9-343.7-433.4-342.9-432.6 M-347.8-432
			c-0.4,0.3-0.6,0.8-0.7,1.4h4.6c-0.2-1.3-1-1.9-2.4-1.9C-346.9-432.5-347.4-432.3-347.8-432"/>
	</defs>
	<clipPath id="SVGID_10_">
		<use xlink:href="#SVGID_9_"  style="overflow:visible;"/>
	</clipPath>
	<g class="st5">
		<defs>
			<rect id="SVGID_11_" x="-815.5" y="-495" width="1920" height="1080"/>
		</defs>
		<clipPath id="SVGID_12_">
			<use xlink:href="#SVGID_11_"  style="overflow:visible;"/>
		</clipPath>
		<rect x="-355.7" y="-438.9" class="st6" width="18.9" height="18.2"/>
	</g>
</g>
<g>
	<defs>
		<path id="SVGID_13_" d="M-322.2-435.2c1,1,1.6,2.3,1.6,4c0,1.6-0.5,3-1.6,4c-1.1,1.1-2.6,1.6-4.5,1.6c-1.9,0-3.4-0.5-4.5-1.6
			c-1-1-1.6-2.3-1.6-4c0-1.6,0.5-3,1.6-4c1.1-1.1,2.6-1.6,4.5-1.6C-324.8-436.8-323.3-436.3-322.2-435.2 M-329.7-434.1
			c-0.7,0.7-1,1.7-1,2.9c0,1.2,0.3,2.2,1,2.9c0.7,0.7,1.7,1.1,3,1.1c1.3,0,2.3-0.4,3-1.1c0.7-0.7,1-1.7,1-2.9c0-1.3-0.3-2.2-1-3
			c-0.7-0.7-1.7-1.1-3-1.1C-328-435.3-329-434.9-329.7-434.1"/>
	</defs>
	<clipPath id="SVGID_14_">
		<use xlink:href="#SVGID_13_"  style="overflow:visible;"/>
	</clipPath>
	<g class="st7">
		<defs>
			<rect id="SVGID_15_" x="-815.5" y="-495" width="1920" height="1080"/>
		</defs>
		<clipPath id="SVGID_16_">
			<use xlink:href="#SVGID_15_"  style="overflow:visible;"/>
		</clipPath>
		<rect x="-337.8" y="-441.8" class="st8" width="22.1" height="21.1"/>
	</g>
</g>
<g>
	<defs>
		<path id="SVGID_17_" d="M-309.8-430.7v4.8h-2v-4.6c0-1.3-0.7-1.9-2-1.9c-0.5,0-0.9,0.1-1.3,0.5c-0.4,0.3-0.7,0.8-0.7,1.4v4.7h-2
			v-7.8h2v0.9c0.4-0.4,0.8-0.6,1.2-0.8c0.4-0.2,0.9-0.3,1.5-0.3C-310.9-433.9-309.8-432.8-309.8-430.7"/>
	</defs>
	<clipPath id="SVGID_18_">
		<use xlink:href="#SVGID_17_"  style="overflow:visible;"/>
	</clipPath>
	<g class="st9">
		<defs>
			<rect id="SVGID_19_" x="-815.5" y="-495" width="1920" height="1080"/>
		</defs>
		<clipPath id="SVGID_20_">
			<use xlink:href="#SVGID_19_"  style="overflow:visible;"/>
		</clipPath>
		<rect x="-322.8" y="-438.9" class="st10" width="18.1" height="18"/>
	</g>
</g>
<g>
	<defs>
		<polygon id="SVGID_21_" points="-303.3,-436.6 -301.3,-436.6 -301.3,-427.4 -294.5,-427.4 -294.5,-425.9 -303.3,-425.9 		"/>
	</defs>
	<clipPath id="SVGID_22_">
		<use xlink:href="#SVGID_21_"  style="overflow:visible;"/>
	</clipPath>
	<g class="st11">
		<defs>
			<rect id="SVGID_23_" x="-815.5" y="-495" width="1920" height="1080"/>
		</defs>
		<clipPath id="SVGID_24_">
			<use xlink:href="#SVGID_23_"  style="overflow:visible;"/>
		</clipPath>
		<rect x="-308.3" y="-441.6" class="st12" width="18.8" height="20.7"/>
	</g>
</g>
<g>
	<defs>
		<path id="SVGID_25_" d="M-290.8-436.5c0.3,0.2,0.4,0.5,0.4,0.8c0,0.3-0.1,0.6-0.4,0.8c-0.3,0.2-0.6,0.3-1,0.3
			c-0.4,0-0.7-0.1-1-0.3c-0.3-0.2-0.4-0.5-0.4-0.8c0-0.3,0.1-0.6,0.4-0.8c0.3-0.2,0.6-0.3,1-0.3
			C-291.4-436.8-291.1-436.7-290.8-436.5z M-292.8-425.9h2v-7.8h-2V-425.9z"/>
	</defs>
	<clipPath id="SVGID_26_">
		<use xlink:href="#SVGID_25_"  style="overflow:visible;"/>
	</clipPath>
	<g class="st13">
		<defs>
			<rect id="SVGID_27_" x="-815.5" y="-495" width="1920" height="1080"/>
		</defs>
		<clipPath id="SVGID_28_">
			<use xlink:href="#SVGID_27_"  style="overflow:visible;"/>
		</clipPath>
		<rect x="-298.1" y="-441.8" class="st14" width="12.7" height="20.9"/>
	</g>
</g>
<g>
	<defs>
		<path id="SVGID_29_" d="M-280.3-430.7v4.8h-2v-4.6c0-1.3-0.7-1.9-2-1.9c-0.5,0-0.9,0.1-1.3,0.5c-0.4,0.3-0.7,0.8-0.7,1.4v4.7h-2
			v-7.8h2v0.9c0.4-0.4,0.8-0.6,1.2-0.8c0.4-0.2,0.9-0.3,1.5-0.3C-281.4-433.9-280.3-432.8-280.3-430.7"/>
	</defs>
	<clipPath id="SVGID_30_">
		<use xlink:href="#SVGID_29_"  style="overflow:visible;"/>
	</clipPath>
	<g class="st15">
		<defs>
			<rect id="SVGID_31_" x="-815.5" y="-495" width="1920" height="1080"/>
		</defs>
		<clipPath id="SVGID_32_">
			<use xlink:href="#SVGID_31_"  style="overflow:visible;"/>
		</clipPath>
		<rect x="-293.3" y="-438.9" class="st16" width="18.1" height="18"/>
	</g>
</g>
<g>
	<defs>
		<path id="SVGID_33_" d="M-270.9-432.6c0.7,0.8,1.1,1.9,1.1,3.3h-6.8c0.1,0.7,0.3,1.3,0.7,1.7c0.4,0.4,0.9,0.6,1.7,0.6
			c0.6,0,1.1-0.1,1.5-0.4c0.3-0.2,0.6-0.5,0.8-0.9h2c-0.2,0.7-0.6,1.3-1.3,1.8c-0.8,0.6-1.8,0.9-3,0.9c-1.3,0-2.4-0.4-3.2-1.1
			c-0.8-0.7-1.3-1.8-1.3-3c0-1.2,0.4-2.1,1.2-2.9c0.8-0.8,1.8-1.2,3.2-1.2C-272.8-433.9-271.7-433.4-270.9-432.6 M-275.8-432
			c-0.4,0.3-0.6,0.8-0.7,1.4h4.6c-0.2-1.3-1-1.9-2.4-1.9C-274.9-432.5-275.5-432.3-275.8-432"/>
	</defs>
	<clipPath id="SVGID_34_">
		<use xlink:href="#SVGID_33_"  style="overflow:visible;"/>
	</clipPath>
	<g class="st17">
		<defs>
			<rect id="SVGID_35_" x="-815.5" y="-495" width="1920" height="1080"/>
		</defs>
		<clipPath id="SVGID_36_">
			<use xlink:href="#SVGID_35_"  style="overflow:visible;"/>
		</clipPath>
		<rect x="-283.7" y="-438.9" class="st18" width="18.9" height="18.2"/>
	</g>
</g>
<g>
	<defs>
		<path id="SVGID_37_" d="M-342-460.6l1.7-2.5c0.1-0.1,0.1-0.3,0.1-0.4v-1.7c0-0.5-0.4-0.9-0.8-1h-15.8c0.2-0.5,0.3-1,0.3-1.5
			c0,0,0,0,0,0h-5.7c-0.5,2.5-1.9,4.4-3.7,5v1.7c0.1,0,0.1,0,0.2,0c2.8,0,5.3-0.9,7-2.3h12.1l-1.9,2.6l-14.6,0c-1.1,0-2,0.9-2,2v0.8
			v4.1v2.9v3.1v0.8c0,1,1,2,2,2l3.7,0h19.5l1-2.9h-19.6c-0.5,0-1-0.5-1-1v-2.1h12.6l0.9-2.9h-3.6v-4.1l3.2,0c0.5,0,0.9,0.4,1,0.9
			v3.2v2.9h5.7v-7v-1.4v-0.5c0-0.5-0.4-1-1-1L-342-460.6z M-359.6-456.7c0-0.5,0.5-1,1-1h3.2v4.1h-4.2V-456.7z"/>
	</defs>
	<clipPath id="SVGID_38_">
		<use xlink:href="#SVGID_37_"  style="overflow:visible;"/>
	</clipPath>
	<g class="st19">
		<defs>
			<rect id="SVGID_39_" x="-815.5" y="-495" width="1920" height="1080"/>
		</defs>
		<clipPath id="SVGID_40_">
			<use xlink:href="#SVGID_39_"  style="overflow:visible;"/>
		</clipPath>
		<rect x="-371" y="-472.7" class="st20" width="37" height="32.9"/>
	</g>
</g>
<g>
	<defs>
		<polygon id="SVGID_41_" points="-313.1,-447.8 -313.1,-453.8 -308.5,-453.8 -307.4,-456.7 -313.1,-456.7 -313.1,-461.1 
			-318.8,-461.1 -318.8,-456.7 -324.7,-456.7 -324.7,-453.8 -318.8,-453.8 -318.8,-447.8 -324.7,-447.8 -324.7,-444.8 
			-306.7,-444.8 -306.7,-447.8 		"/>
	</defs>
	<clipPath id="SVGID_42_">
		<use xlink:href="#SVGID_41_"  style="overflow:visible;"/>
	</clipPath>
	<g class="st21">
		<defs>
			<rect id="SVGID_43_" x="-815.5" y="-495" width="1920" height="1080"/>
		</defs>
		<clipPath id="SVGID_44_">
			<use xlink:href="#SVGID_43_"  style="overflow:visible;"/>
		</clipPath>
		<rect x="-329.7" y="-466.1" class="st22" width="28" height="26.3"/>
	</g>
</g>
<g>
	<defs>
		<path id="SVGID_45_" d="M-321.8-462.7h15.1v-3h-13.5c0.2-0.7,0.4-1.4,0.6-2.1h-6.8c-0.2,0.7-0.4,1.4-0.7,2.1h-6.7v3h4.8
			c-1.4,1.6-3.2,2.9-5.4,3.9v3.2c1-0.1,2-0.4,2.9-0.6v11.5h5.7v-14.1C-324.3-459.9-322.9-461.3-321.8-462.7"/>
	</defs>
	<clipPath id="SVGID_46_">
		<use xlink:href="#SVGID_45_"  style="overflow:visible;"/>
	</clipPath>
	<g class="st23">
		<defs>
			<rect id="SVGID_47_" x="-815.5" y="-495" width="1920" height="1080"/>
		</defs>
		<clipPath id="SVGID_48_">
			<use xlink:href="#SVGID_47_"  style="overflow:visible;"/>
		</clipPath>
		<rect x="-339.5" y="-472.7" class="st24" width="37.8" height="33"/>
	</g>
</g>
<g>
	<defs>
		<path id="SVGID_49_" d="M-371.3-463.2v-2.8h-13.2c0.2-0.6,0.3-1.1,0.4-1.7h-6.8c-0.1,0.6-0.4,1.2-0.6,1.7h-7.7v2.8h6.1
			c-1.4,1.8-3.4,3.3-5.8,4.4v3.2c1-0.1,2-0.4,2.9-0.6v11.6h5.9v-3.9h9.9l1-2.8H-390v-2.3h11.5v2.3v3.7c0,0.5-0.4,1-0.9,1h-0.9v2h1.9
			h2.9h0.9c1,0,2-1,2-2v-6.9v-2.8v-2.3v-0.7c0-1.1-0.9-2-2-2h-12.6c0.5-0.6,1-1.2,1.4-1.9H-371.3z M-378.5-456.3H-390v-1.3
			c0-0.5,0.4-1,1-1h9.7c0.5,0.1,0.9,0.5,0.9,1V-456.3z"/>
	</defs>
	<clipPath id="SVGID_50_">
		<use xlink:href="#SVGID_49_"  style="overflow:visible;"/>
	</clipPath>
	<g class="st25">
		<defs>
			<rect id="SVGID_51_" x="-815.5" y="-495" width="1920" height="1080"/>
		</defs>
		<clipPath id="SVGID_52_">
			<use xlink:href="#SVGID_51_"  style="overflow:visible;"/>
		</clipPath>
		<rect x="-404.1" y="-472.7" class="st26" width="37.8" height="33.1"/>
	</g>
</g>
<g>
	<defs>
		<polygon id="SVGID_53_" points="-301.5,-445.2 -292.1,-446.2 -291.4,-449.3 -301.5,-448.3 		"/>
	</defs>
	<clipPath id="SVGID_54_">
		<use xlink:href="#SVGID_53_"  style="overflow:visible;"/>
	</clipPath>
	<g class="st27">
		<defs>
			<rect id="SVGID_55_" x="-815.5" y="-495" width="1920" height="1080"/>
		</defs>
		<clipPath id="SVGID_56_">
			<use xlink:href="#SVGID_55_"  style="overflow:visible;"/>
		</clipPath>
		<rect x="-306.5" y="-454.3" class="st28" width="20.1" height="14.1"/>
	</g>
</g>
<g>
	<defs>
		<path id="SVGID_57_" d="M-274.8-447.3c-0.5,0-0.9-0.3-1-0.7l0,0l0,0.1l-0.9-2.4c0.8-0.3,1.8-0.7,3-1.2l-0.1-3.8
			c0,0-1.7,0.7-4.2,1.6l-0.8-2.1l5-0.3v-3.2l-6.1,0.4l-0.9-2.4l6.6-0.4v-2.9l-1.3,0.1v-2.1h-4.1v2.4l-2.2,0.1l-1.4-3.8h-4.9l1.5,4.1
			l-3.4,0.2v2.9l4.5-0.3l0.9,2.4l-5.6,0.3v3.2l6.7-0.4l1.2,3.3c-2.8,0.9-5.8,1.7-7.9,2v2.9c4.7-0.8,7.3-1.2,9.1-1.6l1.2,3.3
			c0.1,0.4,0.5,0.7,1,0.7h4.2h0.4l0.9-2.3H-274.8z"/>
	</defs>
	<clipPath id="SVGID_58_">
		<use xlink:href="#SVGID_57_"  style="overflow:visible;"/>
	</clipPath>
	<g class="st29">
		<defs>
			<rect id="SVGID_59_" x="-815.5" y="-495" width="1920" height="1080"/>
		</defs>
		<clipPath id="SVGID_60_">
			<use xlink:href="#SVGID_59_"  style="overflow:visible;"/>
		</clipPath>
		<rect x="-295.3" y="-472.9" class="st30" width="26.9" height="32.9"/>
	</g>
</g>
<g>
	<defs>
		<path id="SVGID_61_" d="M-290.8-460.2h-4.3c-0.2,0.3-0.3,0.6-0.5,1h-1.4c3-3.2,4.3-8.5,4.3-8.5h-5.2c-0.4,3-2.3,6.6-3.1,8l0,0
			c-0.2,0.4-0.4,0.6-0.4,0.8v2.6h4c-1.5,2-3,3.3-3.6,3.8c-0.2,0.2-0.3,0.4-0.3,0.6v2.4l9.4-1l0.7-2.8l-4.2,0.4
			C-291.9-456.2-290.8-460.2-290.8-460.2"/>
	</defs>
	<clipPath id="SVGID_62_">
		<use xlink:href="#SVGID_61_"  style="overflow:visible;"/>
	</clipPath>
	<g class="st31">
		<defs>
			<rect id="SVGID_63_" x="-815.5" y="-495" width="1920" height="1080"/>
		</defs>
		<clipPath id="SVGID_64_">
			<use xlink:href="#SVGID_63_"  style="overflow:visible;"/>
		</clipPath>
		<rect x="-306.5" y="-472.7" class="st32" width="20.6" height="28.1"/>
	</g>
</g>
<g>
	<defs>
		<path id="SVGID_65_" d="M-433-442.7c-1.5,0-3-0.6-4.3-1.9c-1.4-1.3-1.6-3.1-2.1-5.2l-2.8,0.1l0.6,6.8c1.9,1,5.2,1.9,8.1,1.9
			c1,0,1.9-0.1,2.7-0.3c0-0.3-0.3-1.1-0.7-1.5C-432.1-442.7-432.5-442.7-433-442.7 M-431-456.3c-2-0.7-4.1-1.1-5.1-1.8
			c-1-0.7-1.5-1.6-1.5-2.8c0-2.6,1.4-3.8,4.3-3.8c0.6,0,1.1,0.2,1.7,0.5c0.6,0.3,1.2,0.7,1.7,1.2c1.2,1.4,1.5,3,1.6,3.6l2.6,0.1
			l-0.4-5.3c-1.6-1-4.5-1.6-7-1.6c-1.2,0-2.3,0.2-3.3,0.5c-1,0.3-1.9,0.7-2.7,1.3c-0.8,0.6-1.4,1.2-1.8,2c-0.4,0.8-0.9,2-0.9,3.3
			c0,1.4,0.2,2.7,1.5,4.2c1.1,1.2,3.3,2.5,6,3.5c3.8,1.3,5.9,2.3,5.9,4.5c0,1.2-0.3,2.1-1.1,2.8c0.6,0.4,1.2,1.6,1.3,1.7
			c0.2-0.1,0.3-0.2,0.5-0.3c0.8-0.6,1.5-1.2,2.4-2.7c0.5-0.9,0.8-2.4,0.8-3.6C-424.3-451.9-426.5-454.6-431-456.3"/>
	</defs>
	<clipPath id="SVGID_66_">
		<use xlink:href="#SVGID_65_"  style="overflow:visible;"/>
	</clipPath>
	<g class="st33">
		<defs>
			<rect id="SVGID_67_" x="-815.5" y="-495" width="1920" height="1080"/>
		</defs>
		<clipPath id="SVGID_68_">
			<use xlink:href="#SVGID_67_"  style="overflow:visible;"/>
		</clipPath>
		<rect x="-447.2" y="-471.2" class="st34" width="27.9" height="35.2"/>
	</g>
</g>
<g>
	<defs>
		<path id="SVGID_69_" d="M-438-438.9h10.5c-0.1-0.8-0.2-1.9-0.5-2.6c-0.3-0.7-0.7-1.5-1.2-2c-0.5-0.5-1.6-1.6-4.3-1.6
			c-1.4,0-2.3,0.2-3.2,0.7c0.3,0.3,0.8,0.8,1.3,1c0.6-0.3,1.1-0.4,1.8-0.4c0.9,0,1.6,0.2,2.1,0.7c0.5,0.5,0.8,1.1,0.9,1.8
			c0.1,0.3,0.1,0.6,0.1,0.7c0,0.2-0.1,0.3-0.3,0.4c-0.2,0.1-0.4,0.1-0.7,0.1c-0.3,0-0.6,0-1,0h-5.4c0.1-0.4,0.2-0.7,0.3-1
			c-0.8-0.1-2-0.4-2.5-0.6c-0.5,0.8-1.2,2.1-1.2,4.2c0,1.8,0.5,3.3,1.8,4.8c0.8,0.9,1.7,1.4,2.6,1.7c1.7,0.7,4.5,0.8,6.4-0.3
			c0.7-0.4,1.4-1,2.1-1.6c0.6-0.5,0.9-1,0.9-1l-0.2-1.4c-1.2,1.7-3.3,2.6-5.5,2.3c-2.4-0.4-4.3-2.2-4.8-4.4
			c-0.1-0.5-0.1-0.9-0.1-1.4C-438-438.9-438-438.9-438-438.9L-438-438.9L-438-438.9"/>
	</defs>
	<clipPath id="SVGID_70_">
		<use xlink:href="#SVGID_69_"  style="overflow:visible;"/>
	</clipPath>
	<g class="st35">
		<defs>
			<rect id="SVGID_71_" x="-815.5" y="-495" width="1920" height="1080"/>
		</defs>
		<clipPath id="SVGID_72_">
			<use xlink:href="#SVGID_71_"  style="overflow:visible;"/>
		</clipPath>
		<rect x="-446.2" y="-450.1" class="st36" width="23.8" height="24.7"/>
	</g>
</g>
<g>
	<defs>
		<path id="SVGID_73_" d="M-409.5-470.2c-2.1-0.8-4.3,0.2-5.4,2.3h0c-0.1,0.3-0.7,1.7-0.7,5c0,2.6-0.2,15.4-0.2,22.3
			c0,5.9-4.2,8.8-4.2,8.8s3.4-3.1,3.4-8.7V-468h0c0-0.3-0.2-0.5-0.5-0.5c-0.3,0-0.5,0.2-0.5,0.5h0v27.8c0,5.5-3.3,7.9-3.3,7.9
			s2.6-2.7,2.6-7.8c0-6.2-0.2-19.1-0.2-22.9c0-3.8-0.7-5.1-0.7-5.1c-0.4-0.8-0.8-1.4-1.8-1.8c-1.9-0.8-4.2,1.3-2.9,3.1
			c0.7-0.6,1.5-0.5,1.9-0.3c0.2,0.1,2.2,0.7,2.2,5.3v20.9c0,7.7-6.3,14-14,14c-7.8,0-14-6.3-14-14v-21c0,0,0-0.1,0-0.1
			c0-3.9,2.3-5.2,2.3-5.2v-1h-10v1c0,0,2.2,1.5,2.2,5.2c0,0,0,0.1,0,0.1v20.2c0,10.7,8.7,19.5,19.5,19.5c10.7,0,19.5-8.7,19.5-19.5
			v-19.7c0-2.6,1-5.6,2.4-5.6c-0.5-2,0.6-3.2,2.1-2.8c1.1,0.3,2.6,1.4,2.2,2.7c-0.5-0.6-1.4,0.1-0.9,0.6
			C-407.2-465.1-406.3-468.9-409.5-470.2"/>
	</defs>
	<clipPath id="SVGID_74_">
		<use xlink:href="#SVGID_73_"  style="overflow:visible;"/>
	</clipPath>
	<g class="st37">
		<defs>
			<rect id="SVGID_75_" x="-815.5" y="-495" width="1920" height="1080"/>
		</defs>
		<clipPath id="SVGID_76_">
			<use xlink:href="#SVGID_75_"  style="overflow:visible;"/>
		</clipPath>
		<rect x="-460.5" y="-475.5" class="st38" width="58.2" height="58.5"/>
	</g>
</g>
<g>
	<defs>
		<path id="SVGID_77_" d="M-384.9-436.6h2v6.7c0,0.9,0.3,1.6,0.8,2.1c0.5,0.4,1.3,0.7,2.4,0.7c1.1,0,1.9-0.2,2.4-0.7
			c0.5-0.5,0.8-1.1,0.8-2.1v-6.7h2v6.6c0,1.4-0.5,2.5-1.4,3.2c-0.9,0.7-2.2,1.1-3.8,1.1c-1.7,0-2.9-0.4-3.8-1.1
			c-0.9-0.8-1.4-1.8-1.4-3.2V-436.6z"/>
	</defs>
	<clipPath id="SVGID_78_">
		<use xlink:href="#SVGID_77_"  style="overflow:visible;"/>
	</clipPath>
	<g class="st39">
		<defs>
			<rect id="SVGID_79_" x="-815.5" y="-495" width="1920" height="1080"/>
		</defs>
		<clipPath id="SVGID_80_">
			<use xlink:href="#SVGID_79_"  style="overflow:visible;"/>
		</clipPath>
		<rect x="-389.9" y="-441.6" class="st40" width="20.4" height="20.9"/>
	</g>
</g>
<g>
	<defs>
		<path id="SVGID_81_" d="M-355.6-436c0.9,0.6,1.4,1.4,1.5,2.6h-2c-0.2-0.7-0.5-1.1-1-1.4c-0.4-0.3-1.1-0.4-2.1-0.4
			c-0.8,0-1.4,0.1-1.8,0.3c-0.5,0.2-0.8,0.6-0.8,1.1c0,0.5,0.3,0.8,0.9,1.1c0.3,0.1,1,0.4,2.1,0.7c1.6,0.4,2.7,0.8,3.3,1.1
			c1.1,0.6,1.6,1.3,1.6,2.3c0,1-0.4,1.7-1.3,2.3c-0.9,0.6-2.1,0.8-3.7,0.8c-1.5,0-2.7-0.3-3.6-0.8c-1.1-0.6-1.6-1.6-1.7-3h2
			c0.1,0.8,0.5,1.4,1,1.7c0.5,0.3,1.3,0.5,2.3,0.5c0.9,0,1.6-0.1,2.2-0.4c0.5-0.3,0.8-0.6,0.8-1.1c0-0.6-0.4-1-1.2-1.4
			c-0.3-0.1-1.1-0.4-2.4-0.7c-1.5-0.4-2.5-0.7-2.9-0.9c-1-0.5-1.4-1.2-1.4-2.2c0-1,0.5-1.7,1.4-2.2c0.9-0.5,2-0.8,3.3-0.8
			C-357.5-436.8-356.4-436.6-355.6-436"/>
	</defs>
	<clipPath id="SVGID_82_">
		<use xlink:href="#SVGID_81_"  style="overflow:visible;"/>
	</clipPath>
	<g class="st41">
		<defs>
			<rect id="SVGID_83_" x="-815.5" y="-495" width="1920" height="1080"/>
		</defs>
		<clipPath id="SVGID_84_">
			<use xlink:href="#SVGID_83_"  style="overflow:visible;"/>
		</clipPath>
		<rect x="-369.1" y="-441.8" class="st42" width="20.3" height="21.1"/>
	</g>
</g>
<g>
	<defs>
		<path id="SVGID_85_" d="M-342.9-432.6c0.7,0.8,1.1,1.9,1.1,3.3h-6.8c0.1,0.7,0.3,1.3,0.7,1.7c0.4,0.4,0.9,0.6,1.7,0.6
			c0.6,0,1.1-0.1,1.5-0.4c0.3-0.2,0.6-0.5,0.8-0.9h2c-0.2,0.7-0.6,1.3-1.3,1.8c-0.8,0.6-1.8,0.9-3,0.9c-1.3,0-2.4-0.4-3.2-1.1
			c-0.8-0.7-1.3-1.8-1.3-3c0-1.2,0.4-2.1,1.2-2.9c0.8-0.8,1.8-1.2,3.2-1.2C-344.8-433.9-343.7-433.4-342.9-432.6 M-347.8-432
			c-0.4,0.3-0.6,0.8-0.7,1.4h4.6c-0.2-1.3-1-1.9-2.4-1.9C-346.9-432.5-347.4-432.3-347.8-432"/>
	</defs>
	<clipPath id="SVGID_86_">
		<use xlink:href="#SVGID_85_"  style="overflow:visible;"/>
	</clipPath>
	<g class="st43">
		<defs>
			<rect id="SVGID_87_" x="-815.5" y="-495" width="1920" height="1080"/>
		</defs>
		<clipPath id="SVGID_88_">
			<use xlink:href="#SVGID_87_"  style="overflow:visible;"/>
		</clipPath>
		<rect x="-355.7" y="-438.9" class="st44" width="18.9" height="18.2"/>
	</g>
</g>
<g>
	<defs>
		<path id="SVGID_89_" d="M-322.2-435.2c1,1,1.6,2.3,1.6,4c0,1.6-0.5,3-1.6,4c-1.1,1.1-2.6,1.6-4.5,1.6c-1.9,0-3.4-0.5-4.5-1.6
			c-1-1-1.6-2.3-1.6-4c0-1.6,0.5-3,1.6-4c1.1-1.1,2.6-1.6,4.5-1.6C-324.8-436.8-323.3-436.3-322.2-435.2 M-329.7-434.1
			c-0.7,0.7-1,1.7-1,2.9c0,1.2,0.3,2.2,1,2.9c0.7,0.7,1.7,1.1,3,1.1c1.3,0,2.3-0.4,3-1.1c0.7-0.7,1-1.7,1-2.9c0-1.3-0.3-2.2-1-3
			c-0.7-0.7-1.7-1.1-3-1.1C-328-435.3-329-434.9-329.7-434.1"/>
	</defs>
	<clipPath id="SVGID_90_">
		<use xlink:href="#SVGID_89_"  style="overflow:visible;"/>
	</clipPath>
	<g class="st45">
		<defs>
			<rect id="SVGID_91_" x="-815.5" y="-495" width="1920" height="1080"/>
		</defs>
		<clipPath id="SVGID_92_">
			<use xlink:href="#SVGID_91_"  style="overflow:visible;"/>
		</clipPath>
		<rect x="-337.8" y="-441.8" class="st46" width="22.1" height="21.1"/>
	</g>
</g>
<g>
	<defs>
		<path id="SVGID_93_" d="M-309.8-430.7v4.8h-2v-4.6c0-1.3-0.7-1.9-2-1.9c-0.5,0-0.9,0.1-1.3,0.5c-0.4,0.3-0.7,0.8-0.7,1.4v4.7h-2
			v-7.8h2v0.9c0.4-0.4,0.8-0.6,1.2-0.8c0.4-0.2,0.9-0.3,1.5-0.3C-310.9-433.9-309.8-432.8-309.8-430.7"/>
	</defs>
	<clipPath id="SVGID_94_">
		<use xlink:href="#SVGID_93_"  style="overflow:visible;"/>
	</clipPath>
	<g class="st47">
		<defs>
			<rect id="SVGID_95_" x="-815.5" y="-495" width="1920" height="1080"/>
		</defs>
		<clipPath id="SVGID_96_">
			<use xlink:href="#SVGID_95_"  style="overflow:visible;"/>
		</clipPath>
		<rect x="-322.8" y="-438.9" class="st48" width="18.1" height="18"/>
	</g>
</g>
<g>
	<defs>
		<polygon id="SVGID_97_" points="-303.3,-436.6 -301.3,-436.6 -301.3,-427.4 -294.5,-427.4 -294.5,-425.9 -303.3,-425.9 		"/>
	</defs>
	<clipPath id="SVGID_98_">
		<use xlink:href="#SVGID_97_"  style="overflow:visible;"/>
	</clipPath>
	<g class="st49">
		<defs>
			<rect id="SVGID_99_" x="-815.5" y="-495" width="1920" height="1080"/>
		</defs>
		<clipPath id="SVGID_100_">
			<use xlink:href="#SVGID_99_"  style="overflow:visible;"/>
		</clipPath>
		<rect x="-308.3" y="-441.6" class="st50" width="18.8" height="20.7"/>
	</g>
</g>
<g>
	<defs>
		<path id="SVGID_101_" d="M-290.8-436.5c0.3,0.2,0.4,0.5,0.4,0.8c0,0.3-0.1,0.6-0.4,0.8c-0.3,0.2-0.6,0.3-1,0.3
			c-0.4,0-0.7-0.1-1-0.3c-0.3-0.2-0.4-0.5-0.4-0.8c0-0.3,0.1-0.6,0.4-0.8c0.3-0.2,0.6-0.3,1-0.3
			C-291.4-436.8-291.1-436.7-290.8-436.5z M-292.8-425.9h2v-7.8h-2V-425.9z"/>
	</defs>
	<clipPath id="SVGID_102_">
		<use xlink:href="#SVGID_101_"  style="overflow:visible;"/>
	</clipPath>
	<g class="st51">
		<defs>
			<rect id="SVGID_103_" x="-815.5" y="-495" width="1920" height="1080"/>
		</defs>
		<clipPath id="SVGID_104_">
			<use xlink:href="#SVGID_103_"  style="overflow:visible;"/>
		</clipPath>
		<rect x="-298.1" y="-441.8" class="st52" width="12.7" height="20.9"/>
	</g>
</g>
<g>
	<defs>
		<path id="SVGID_105_" d="M-280.3-430.7v4.8h-2v-4.6c0-1.3-0.7-1.9-2-1.9c-0.5,0-0.9,0.1-1.3,0.5c-0.4,0.3-0.7,0.8-0.7,1.4v4.7h-2
			v-7.8h2v0.9c0.4-0.4,0.8-0.6,1.2-0.8c0.4-0.2,0.9-0.3,1.5-0.3C-281.4-433.9-280.3-432.8-280.3-430.7"/>
	</defs>
	<clipPath id="SVGID_106_">
		<use xlink:href="#SVGID_105_"  style="overflow:visible;"/>
	</clipPath>
	<g class="st53">
		<defs>
			<rect id="SVGID_107_" x="-815.5" y="-495" width="1920" height="1080"/>
		</defs>
		<clipPath id="SVGID_108_">
			<use xlink:href="#SVGID_107_"  style="overflow:visible;"/>
		</clipPath>
		<rect x="-293.3" y="-438.9" class="st54" width="18.1" height="18"/>
	</g>
</g>
<g>
	<defs>
		<path id="SVGID_109_" d="M-270.9-432.6c0.7,0.8,1.1,1.9,1.1,3.3h-6.8c0.1,0.7,0.3,1.3,0.7,1.7c0.4,0.4,0.9,0.6,1.7,0.6
			c0.6,0,1.1-0.1,1.5-0.4c0.3-0.2,0.6-0.5,0.8-0.9h2c-0.2,0.7-0.6,1.3-1.3,1.8c-0.8,0.6-1.8,0.9-3,0.9c-1.3,0-2.4-0.4-3.2-1.1
			c-0.8-0.7-1.3-1.8-1.3-3c0-1.2,0.4-2.1,1.2-2.9c0.8-0.8,1.8-1.2,3.2-1.2C-272.8-433.9-271.7-433.4-270.9-432.6 M-275.8-432
			c-0.4,0.3-0.6,0.8-0.7,1.4h4.6c-0.2-1.3-1-1.9-2.4-1.9C-274.9-432.5-275.5-432.3-275.8-432"/>
	</defs>
	<clipPath id="SVGID_110_">
		<use xlink:href="#SVGID_109_"  style="overflow:visible;"/>
	</clipPath>
	<g class="st55">
		<defs>
			<rect id="SVGID_111_" x="-815.5" y="-495" width="1920" height="1080"/>
		</defs>
		<clipPath id="SVGID_112_">
			<use xlink:href="#SVGID_111_"  style="overflow:visible;"/>
		</clipPath>
		<rect x="-283.7" y="-438.9" class="st56" width="18.9" height="18.2"/>
	</g>
</g>
<g>
	<defs>
		<path id="SVGID_113_" d="M-342-460.6l1.7-2.5c0.1-0.1,0.1-0.3,0.1-0.4v-1.7c0-0.5-0.4-0.9-0.8-1h-15.8c0.2-0.5,0.3-1,0.3-1.5
			c0,0,0,0,0,0h-5.7c-0.5,2.5-1.9,4.4-3.7,5v1.7c0.1,0,0.1,0,0.2,0c2.8,0,5.3-0.9,7-2.3h12.1l-1.9,2.6l-14.6,0c-1.1,0-2,0.9-2,2v0.8
			v4.1v2.9v3.1v0.8c0,1,1,2,2,2l3.7,0h19.5l1-2.9h-19.6c-0.5,0-1-0.5-1-1v-2.1h12.6l0.9-2.9h-3.6v-4.1l3.2,0c0.5,0,0.9,0.4,1,0.9
			v3.2v2.9h5.7v-7v-1.4v-0.5c0-0.5-0.4-1-1-1L-342-460.6z M-359.6-456.7c0-0.5,0.5-1,1-1h3.2v4.1h-4.2V-456.7z"/>
	</defs>
	<clipPath id="SVGID_114_">
		<use xlink:href="#SVGID_113_"  style="overflow:visible;"/>
	</clipPath>
	<g class="st57">
		<defs>
			<rect id="SVGID_115_" x="-815.5" y="-495" width="1920" height="1080"/>
		</defs>
		<clipPath id="SVGID_116_">
			<use xlink:href="#SVGID_115_"  style="overflow:visible;"/>
		</clipPath>
		<rect x="-371" y="-472.7" class="st58" width="37" height="32.9"/>
	</g>
</g>
<g>
	<defs>
		<polygon id="SVGID_117_" points="-313.1,-447.8 -313.1,-453.8 -308.5,-453.8 -307.4,-456.7 -313.1,-456.7 -313.1,-461.1 
			-318.8,-461.1 -318.8,-456.7 -324.7,-456.7 -324.7,-453.8 -318.8,-453.8 -318.8,-447.8 -324.7,-447.8 -324.7,-444.8 
			-306.7,-444.8 -306.7,-447.8 		"/>
	</defs>
	<clipPath id="SVGID_118_">
		<use xlink:href="#SVGID_117_"  style="overflow:visible;"/>
	</clipPath>
	<g class="st59">
		<defs>
			<rect id="SVGID_119_" x="-815.5" y="-495" width="1920" height="1080"/>
		</defs>
		<clipPath id="SVGID_120_">
			<use xlink:href="#SVGID_119_"  style="overflow:visible;"/>
		</clipPath>
		<rect x="-329.7" y="-466.1" class="st60" width="28" height="26.3"/>
	</g>
</g>
<g>
	<defs>
		<path id="SVGID_121_" d="M-321.8-462.7h15.1v-3h-13.5c0.2-0.7,0.4-1.4,0.6-2.1h-6.8c-0.2,0.7-0.4,1.4-0.7,2.1h-6.7v3h4.8
			c-1.4,1.6-3.2,2.9-5.4,3.9v3.2c1-0.1,2-0.4,2.9-0.6v11.5h5.7v-14.1C-324.3-459.9-322.9-461.3-321.8-462.7"/>
	</defs>
	<clipPath id="SVGID_122_">
		<use xlink:href="#SVGID_121_"  style="overflow:visible;"/>
	</clipPath>
	<g class="st61">
		<defs>
			<rect id="SVGID_123_" x="-815.5" y="-495" width="1920" height="1080"/>
		</defs>
		<clipPath id="SVGID_124_">
			<use xlink:href="#SVGID_123_"  style="overflow:visible;"/>
		</clipPath>
		<rect x="-339.5" y="-472.7" class="st62" width="37.8" height="33"/>
	</g>
</g>
<g>
	<defs>
		<path id="SVGID_125_" d="M-371.3-463.2v-2.8h-13.2c0.2-0.6,0.3-1.1,0.4-1.7h-6.8c-0.1,0.6-0.4,1.2-0.6,1.7h-7.7v2.8h6.1
			c-1.4,1.8-3.4,3.3-5.8,4.4v3.2c1-0.1,2-0.4,2.9-0.6v11.6h5.9v-3.9h9.9l1-2.8H-390v-2.3h11.5v2.3v3.7c0,0.5-0.4,1-0.9,1h-0.9v2h1.9
			h2.9h0.9c1,0,2-1,2-2v-6.9v-2.8v-2.3v-0.7c0-1.1-0.9-2-2-2h-12.6c0.5-0.6,1-1.2,1.4-1.9H-371.3z M-378.5-456.3H-390v-1.3
			c0-0.5,0.4-1,1-1h9.7c0.5,0.1,0.9,0.5,0.9,1V-456.3z"/>
	</defs>
	<clipPath id="SVGID_126_">
		<use xlink:href="#SVGID_125_"  style="overflow:visible;"/>
	</clipPath>
	<g class="st63">
		<defs>
			<rect id="SVGID_127_" x="-815.5" y="-495" width="1920" height="1080"/>
		</defs>
		<clipPath id="SVGID_128_">
			<use xlink:href="#SVGID_127_"  style="overflow:visible;"/>
		</clipPath>
		<rect x="-404.1" y="-472.7" class="st64" width="37.8" height="33.1"/>
	</g>
</g>
<g>
	<defs>
		<polygon id="SVGID_129_" points="-301.5,-445.2 -292.1,-446.2 -291.4,-449.3 -301.5,-448.3 		"/>
	</defs>
	<clipPath id="SVGID_130_">
		<use xlink:href="#SVGID_129_"  style="overflow:visible;"/>
	</clipPath>
	<g class="st65">
		<defs>
			<rect id="SVGID_131_" x="-815.5" y="-495" width="1920" height="1080"/>
		</defs>
		<clipPath id="SVGID_132_">
			<use xlink:href="#SVGID_131_"  style="overflow:visible;"/>
		</clipPath>
		<rect x="-306.5" y="-454.3" class="st66" width="20.1" height="14.1"/>
	</g>
</g>
<g>
	<defs>
		<path id="SVGID_133_" d="M-274.8-447.3c-0.5,0-0.9-0.3-1-0.7l0,0l0,0.1l-0.9-2.4c0.8-0.3,1.8-0.7,3-1.2l-0.1-3.8
			c0,0-1.7,0.7-4.2,1.6l-0.8-2.1l5-0.3v-3.2l-6.1,0.4l-0.9-2.4l6.6-0.4v-2.9l-1.3,0.1v-2.1h-4.1v2.4l-2.2,0.1l-1.4-3.8h-4.9l1.5,4.1
			l-3.4,0.2v2.9l4.5-0.3l0.9,2.4l-5.6,0.3v3.2l6.7-0.4l1.2,3.3c-2.8,0.9-5.8,1.7-7.9,2v2.9c4.7-0.8,7.3-1.2,9.1-1.6l1.2,3.3
			c0.1,0.4,0.5,0.7,1,0.7h4.2h0.4l0.9-2.3H-274.8z"/>
	</defs>
	<clipPath id="SVGID_134_">
		<use xlink:href="#SVGID_133_"  style="overflow:visible;"/>
	</clipPath>
	<g class="st67">
		<defs>
			<rect id="SVGID_135_" x="-815.5" y="-495" width="1920" height="1080"/>
		</defs>
		<clipPath id="SVGID_136_">
			<use xlink:href="#SVGID_135_"  style="overflow:visible;"/>
		</clipPath>
		<rect x="-295.3" y="-472.9" class="st68" width="26.9" height="32.9"/>
	</g>
</g>
<g>
	<defs>
		<path id="SVGID_137_" d="M-290.8-460.2h-4.3c-0.2,0.3-0.3,0.6-0.5,1h-1.4c3-3.2,4.3-8.5,4.3-8.5h-5.2c-0.4,3-2.3,6.6-3.1,8l0,0
			c-0.2,0.4-0.4,0.6-0.4,0.8v2.6h4c-1.5,2-3,3.3-3.6,3.8c-0.2,0.2-0.3,0.4-0.3,0.6v2.4l9.4-1l0.7-2.8l-4.2,0.4
			C-291.9-456.2-290.8-460.2-290.8-460.2"/>
	</defs>
	<clipPath id="SVGID_138_">
		<use xlink:href="#SVGID_137_"  style="overflow:visible;"/>
	</clipPath>
	<g class="st69">
		<defs>
			<rect id="SVGID_139_" x="-815.5" y="-495" width="1920" height="1080"/>
		</defs>
		<clipPath id="SVGID_140_">
			<use xlink:href="#SVGID_139_"  style="overflow:visible;"/>
		</clipPath>
		<rect x="-306.5" y="-472.7" class="st70" width="20.6" height="28.1"/>
	</g>
</g>
<g>
	<defs>
		<path id="SVGID_141_" d="M-433-442.7c-1.5,0-3-0.6-4.3-1.9c-1.4-1.3-1.6-3.1-2.1-5.2l-2.8,0.1l0.6,6.8c1.9,1,5.2,1.9,8.1,1.9
			c1,0,1.9-0.1,2.7-0.3c0-0.3-0.3-1.1-0.7-1.5C-432.1-442.7-432.5-442.7-433-442.7 M-431-456.3c-2-0.7-4.1-1.1-5.1-1.8
			c-1-0.7-1.5-1.6-1.5-2.8c0-2.6,1.4-3.8,4.3-3.8c0.6,0,1.1,0.2,1.7,0.5c0.6,0.3,1.2,0.7,1.7,1.2c1.2,1.4,1.5,3,1.6,3.6l2.6,0.1
			l-0.4-5.3c-1.6-1-4.5-1.6-7-1.6c-1.2,0-2.3,0.2-3.3,0.5c-1,0.3-1.9,0.7-2.7,1.3c-0.8,0.6-1.4,1.2-1.8,2c-0.4,0.8-0.9,2-0.9,3.3
			c0,1.4,0.2,2.7,1.5,4.2c1.1,1.2,3.3,2.5,6,3.5c3.8,1.3,5.9,2.3,5.9,4.5c0,1.2-0.3,2.1-1.1,2.8c0.6,0.4,1.2,1.6,1.3,1.7
			c0.2-0.1,0.3-0.2,0.5-0.3c0.8-0.6,1.5-1.2,2.4-2.7c0.5-0.9,0.8-2.4,0.8-3.6C-424.3-451.9-426.5-454.6-431-456.3"/>
	</defs>
	<clipPath id="SVGID_142_">
		<use xlink:href="#SVGID_141_"  style="overflow:visible;"/>
	</clipPath>
	<g class="st71">
		<defs>
			<rect id="SVGID_143_" x="-815.5" y="-495" width="1920" height="1080"/>
		</defs>
		<clipPath id="SVGID_144_">
			<use xlink:href="#SVGID_143_"  style="overflow:visible;"/>
		</clipPath>
		<rect x="-447.2" y="-471.2" class="st72" width="27.9" height="35.2"/>
	</g>
</g>
<g>
	<defs>
		<path id="SVGID_145_" d="M-438-438.9h10.5c-0.1-0.8-0.2-1.9-0.5-2.6c-0.3-0.7-0.7-1.5-1.2-2c-0.5-0.5-1.6-1.6-4.3-1.6
			c-1.4,0-2.3,0.2-3.2,0.7c0.3,0.3,0.8,0.8,1.3,1c0.6-0.3,1.1-0.4,1.8-0.4c0.9,0,1.6,0.2,2.1,0.7c0.5,0.5,0.8,1.1,0.9,1.8
			c0.1,0.3,0.1,0.6,0.1,0.7c0,0.2-0.1,0.3-0.3,0.4c-0.2,0.1-0.4,0.1-0.7,0.1c-0.3,0-0.6,0-1,0h-5.4c0.1-0.4,0.2-0.7,0.3-1
			c-0.8-0.1-2-0.4-2.5-0.6c-0.5,0.8-1.2,2.1-1.2,4.2c0,1.8,0.5,3.3,1.8,4.8c0.8,0.9,1.7,1.4,2.6,1.7c1.7,0.7,4.5,0.8,6.4-0.3
			c0.7-0.4,1.4-1,2.1-1.6c0.6-0.5,0.9-1,0.9-1l-0.2-1.4c-1.2,1.7-3.3,2.6-5.5,2.3c-2.4-0.4-4.3-2.2-4.8-4.4
			c-0.1-0.5-0.1-0.9-0.1-1.4C-438-438.9-438-438.9-438-438.9L-438-438.9L-438-438.9"/>
	</defs>
	<clipPath id="SVGID_146_">
		<use xlink:href="#SVGID_145_"  style="overflow:visible;"/>
	</clipPath>
	<g class="st73">
		<defs>
			<rect id="SVGID_147_" x="-815.5" y="-495" width="1920" height="1080"/>
		</defs>
		<clipPath id="SVGID_148_">
			<use xlink:href="#SVGID_147_"  style="overflow:visible;"/>
		</clipPath>
		<rect x="-446.2" y="-450.1" class="st74" width="23.8" height="24.7"/>
	</g>
</g>
<g>
	<defs>
		<path id="SVGID_149_" d="M-409.5-470.2c-2.1-0.8-4.3,0.2-5.4,2.3h0c-0.1,0.3-0.7,1.7-0.7,5c0,2.6-0.2,15.4-0.2,22.3
			c0,5.9-4.2,8.8-4.2,8.8s3.4-3.1,3.4-8.7V-468h0c0-0.3-0.2-0.5-0.5-0.5c-0.3,0-0.5,0.2-0.5,0.5h0v27.8c0,5.5-3.3,7.9-3.3,7.9
			s2.6-2.7,2.6-7.8c0-6.2-0.2-19.1-0.2-22.9c0-3.8-0.7-5.1-0.7-5.1c-0.4-0.8-0.8-1.4-1.8-1.8c-1.9-0.8-4.2,1.3-2.9,3.1
			c0.7-0.6,1.5-0.5,1.9-0.3c0.2,0.1,2.2,0.7,2.2,5.3v20.9c0,7.7-6.3,14-14,14c-7.8,0-14-6.3-14-14v-21c0,0,0-0.1,0-0.1
			c0-3.9,2.3-5.2,2.3-5.2v-1h-10v1c0,0,2.2,1.5,2.2,5.2c0,0,0,0.1,0,0.1v20.2c0,10.7,8.7,19.5,19.5,19.5c10.7,0,19.5-8.7,19.5-19.5
			v-19.7c0-2.6,1-5.6,2.4-5.6c-0.5-2,0.6-3.2,2.1-2.8c1.1,0.3,2.6,1.4,2.2,2.7c-0.5-0.6-1.4,0.1-0.9,0.6
			C-407.2-465.1-406.3-468.9-409.5-470.2"/>
	</defs>
	<clipPath id="SVGID_150_">
		<use xlink:href="#SVGID_149_"  style="overflow:visible;"/>
	</clipPath>
	<g class="st75">
		<defs>
			<rect id="SVGID_151_" x="-815.5" y="-495" width="1920" height="1080"/>
		</defs>
		<clipPath id="SVGID_152_">
			<use xlink:href="#SVGID_151_"  style="overflow:visible;"/>
		</clipPath>
		<rect x="-460.5" y="-475.5" class="st76" width="58.2" height="58.5"/>
	</g>
</g>
</svg>
