<?xml version="1.0" encoding="utf-8"?>
<!-- Generator: Adobe Illustrator 19.0.0, SVG Export Plug-In . SVG Version: 6.00 Build 0)  -->
<svg version="1.0" id="图层_1" xmlns="http://www.w3.org/2000/svg" xmlns:xlink="http://www.w3.org/1999/xlink" x="0px" y="0px"
	 viewBox="0 0 200 100" style="enable-background:new 0 0 200 100;" xml:space="preserve">
<style type="text/css">
	.st0{fill-rule:evenodd;clip-rule:evenodd;fill:#00A0E9;}
	.st1{fill-rule:evenodd;clip-rule:evenodd;fill:#FFFFFF;}
</style>
<rect id="XMLID_3_" class="st0" width="200" height="100"/>
<path id="XMLID_74_" class="st1" d="M81.4,47.1H83v5.3c0,0.7,0.2,1.3,0.6,1.6c0.4,0.4,1,0.5,1.9,0.5c0.9,0,1.5-0.2,1.9-0.5
	c0.4-0.4,0.6-0.9,0.6-1.6v-5.3h1.6v5.3c0,1.1-0.4,2-1.1,2.6c-0.7,0.6-1.7,0.9-3.1,0.9c-1.3,0-2.3-0.3-3.1-0.9
	c-0.7-0.6-1.1-1.5-1.1-2.6V47.1z"/>
<path id="XMLID_71_" class="st1" d="M104.8,47.5c0.7,0.4,1.1,1.1,1.2,2.1h-1.6c-0.1-0.5-0.4-0.9-0.8-1.1c-0.4-0.2-0.9-0.3-1.7-0.3
	c-0.6,0-1.1,0.1-1.4,0.2c-0.4,0.2-0.6,0.5-0.6,0.9c0,0.4,0.2,0.7,0.7,0.9c0.2,0.1,0.8,0.3,1.7,0.5c1.3,0.3,2.2,0.6,2.6,0.8
	c0.9,0.4,1.3,1.1,1.3,1.8c0,0.8-0.3,1.4-1,1.8c-0.7,0.4-1.7,0.7-3,0.7c-1.2,0-2.2-0.2-2.9-0.6c-0.8-0.5-1.3-1.3-1.4-2.4h1.6
	c0.1,0.7,0.4,1.1,0.8,1.4c0.4,0.2,1,0.4,1.8,0.4c0.7,0,1.3-0.1,1.7-0.3c0.4-0.2,0.6-0.5,0.6-0.9c0-0.5-0.3-0.8-0.9-1.1
	c-0.2-0.1-0.9-0.3-1.9-0.6c-1.2-0.3-2-0.6-2.3-0.7c-0.8-0.4-1.1-1-1.1-1.7c0-0.8,0.4-1.4,1.1-1.8c0.7-0.4,1.6-0.6,2.7-0.6
	C103.2,46.9,104.2,47.1,104.8,47.5"/>
<path id="XMLID_66_" class="st1" d="M115,50.3c0.6,0.6,0.9,1.5,0.9,2.6h-5.4c0.1,0.6,0.2,1,0.5,1.3c0.3,0.3,0.8,0.5,1.3,0.5
	c0.5,0,0.9-0.1,1.2-0.3c0.2-0.2,0.4-0.4,0.6-0.8h1.6c-0.2,0.6-0.5,1.1-1,1.5c-0.7,0.5-1.5,0.7-2.4,0.7c-1.1,0-1.9-0.3-2.6-0.9
	c-0.7-0.6-1-1.4-1-2.4c0-0.9,0.3-1.7,1-2.3c0.6-0.6,1.5-0.9,2.5-0.9C113.5,49.3,114.4,49.6,115,50.3 M111.1,50.8
	c-0.3,0.2-0.5,0.6-0.6,1.1h3.7c-0.1-1-0.8-1.5-1.9-1.5C111.8,50.4,111.4,50.5,111.1,50.8"/>
<path id="XMLID_61_" class="st1" d="M131.6,48.2c0.8,0.8,1.3,1.9,1.3,3.2c0,1.3-0.4,2.4-1.3,3.2c-0.9,0.8-2.1,1.3-3.6,1.3
	c-1.5,0-2.7-0.4-3.6-1.3c-0.8-0.8-1.2-1.9-1.2-3.2c0-1.3,0.4-2.4,1.2-3.2c0.9-0.9,2.1-1.3,3.6-1.3C129.5,46.9,130.7,47.3,131.6,48.2
	 M125.5,49.1c-0.5,0.6-0.8,1.3-0.8,2.3c0,1,0.3,1.7,0.8,2.3c0.6,0.6,1.4,0.9,2.4,0.9c1,0,1.8-0.3,2.4-0.9c0.6-0.6,0.8-1.4,0.8-2.4
	c0-1-0.3-1.8-0.8-2.4c-0.6-0.6-1.3-0.9-2.4-0.9C126.9,48.2,126.1,48.5,125.5,49.1"/>
<path id="XMLID_58_" class="st1" d="M141.5,51.8v3.8h-1.6v-3.7c0-1-0.5-1.5-1.6-1.5c-0.4,0-0.7,0.1-1,0.4c-0.3,0.3-0.5,0.6-0.6,1.1
	v3.7h-1.6v-6.2h1.6v0.7c0.3-0.3,0.6-0.5,1-0.7c0.4-0.2,0.8-0.2,1.2-0.2C140.6,49.3,141.5,50.1,141.5,51.8"/>
<polygon id="XMLID_55_" class="st1" points="146.7,47.1 148.3,47.1 148.3,54.5 153.7,54.5 153.7,55.7 146.7,55.7 "/>
<path id="XMLID_50_" class="st1" d="M156.7,47.2c0.2,0.2,0.3,0.4,0.3,0.6c0,0.3-0.1,0.5-0.3,0.7c-0.2,0.2-0.5,0.3-0.8,0.3
	c-0.3,0-0.6-0.1-0.8-0.3c-0.2-0.2-0.3-0.4-0.3-0.7c0-0.3,0.1-0.5,0.3-0.6c0.2-0.2,0.5-0.3,0.8-0.3C156.2,46.9,156.5,47,156.7,47.2z
	 M155.1,55.7h1.6v-6.2h-1.6V55.7z"/>
<path id="XMLID_47_" class="st1" d="M165.1,51.8v3.8h-1.6v-3.7c0-1-0.5-1.5-1.6-1.5c-0.4,0-0.7,0.1-1,0.4c-0.3,0.3-0.5,0.6-0.6,1.1
	v3.7h-1.6v-6.2h1.6v0.7c0.3-0.3,0.6-0.5,1-0.7c0.4-0.2,0.8-0.2,1.2-0.2C164.2,49.3,165.1,50.1,165.1,51.8"/>
<path id="XMLID_42_" class="st1" d="M172.6,50.3c0.6,0.6,0.9,1.5,0.9,2.6h-5.4c0.1,0.6,0.2,1,0.5,1.3c0.3,0.3,0.8,0.5,1.3,0.5
	c0.5,0,0.9-0.1,1.2-0.3c0.2-0.2,0.4-0.4,0.6-0.8h1.6c-0.2,0.6-0.5,1.1-1,1.5c-0.7,0.5-1.5,0.7-2.4,0.7c-1.1,0-1.9-0.3-2.6-0.9
	c-0.7-0.6-1-1.4-1-2.4c0-0.9,0.3-1.7,1-2.3c0.6-0.6,1.5-0.9,2.5-0.9C171.1,49.3,172,49.6,172.6,50.3 M168.7,50.8
	c-0.3,0.2-0.5,0.6-0.6,1.1h3.7c-0.1-1-0.8-1.5-1.9-1.5C169.4,50.4,169,50.5,168.7,50.8"/>
<path id="XMLID_37_" class="st1" d="M115.7,27.9l1.3-2c0-0.1,0.1-0.2,0.1-0.3v-1.3c0-0.4-0.3-0.7-0.7-0.8h-12.6
	c0.1-0.4,0.2-0.8,0.2-1.2c0,0,0,0,0,0h-4.6c-0.4,2-1.6,3.5-3,4v1.4c0.1,0,0.1,0,0.1,0c2.2,0,4.2-0.7,5.6-1.9h9.7l-1.5,2.1l-11.7,0
	c-0.9,0-1.6,0.7-1.6,1.6v0.7v3.3v2.3v2.4v0.7c0,0.8,0.8,1.6,1.6,1.6l2.9,0h15.7l0.8-2.3h-15.7c-0.4,0-0.8-0.4-0.8-0.8v-1.7h10.1
	l0.7-2.3h-2.9v-3.3l2.5,0c0.4,0,0.8,0.4,0.8,0.7v2.6v2.3h4.6v-5.6V29v-0.4c0-0.4-0.4-0.8-0.8-0.8L115.7,27.9z M101.6,31
	c0-0.4,0.4-0.8,0.8-0.8h2.6v3.3h-3.4V31z"/>
<polygon id="XMLID_34_" class="st1" points="138.8,38.1 138.8,33.4 142.5,33.4 143.4,31 138.8,31 138.8,27.5 134.3,27.5 134.3,31 
	129.6,31 129.6,33.4 134.3,33.4 134.3,38.1 129.6,38.1 129.6,40.5 144,40.5 144,38.1 "/>
<path id="XMLID_31_" class="st1" d="M131.9,26.2H144v-2.4h-10.8c0.2-0.5,0.4-1.1,0.4-1.7h-5.4c-0.1,0.6-0.3,1.1-0.6,1.7h-5.4v2.4
	h3.8c-1.1,1.3-2.6,2.3-4.3,3.1v2.6c0.8-0.1,1.6-0.3,2.3-0.5v9.2h4.6V29.3C129.9,28.4,131,27.4,131.9,26.2"/>
<path id="XMLID_26_" class="st1" d="M92.2,25.8v-2.2H81.7c0.2-0.5,0.3-0.9,0.4-1.4h-5.4c-0.1,0.5-0.3,0.9-0.5,1.4h-6.2v2.2h4.8
	c-1.2,1.5-2.8,2.7-4.6,3.5v2.6c0.8-0.1,1.6-0.3,2.4-0.5v9.3h4.7v-3.1h7.9l0.8-2.2h-8.7v-1.8h9.2v1.8v3c0,0.4-0.3,0.8-0.8,0.8H85v1.6
	h1.5h2.4h0.7c0.8,0,1.6-0.8,1.6-1.6v-5.5v-2.2v-1.8v-0.6c0-0.9-0.7-1.6-1.6-1.6H79.4c0.4-0.5,0.8-1,1.2-1.5H92.2z M86.5,31.3h-9.2
	v-1c0-0.4,0.4-0.8,0.8-0.8h7.7c0.4,0,0.7,0.4,0.7,0.8V31.3z"/>
<polygon id="XMLID_23_" class="st1" points="148.2,40.2 155.7,39.4 156.2,36.9 148.2,37.7 "/>
<path id="XMLID_20_" class="st1" d="M169.5,38.5c-0.4,0-0.7-0.2-0.8-0.6l0,0l0,0.1l-0.7-1.9c0.7-0.3,1.4-0.6,2.4-0.9l-0.1-3
	c0,0-1.4,0.5-3.4,1.2l-0.6-1.7l4-0.2V29l-4.9,0.3l-0.7-1.9l5.3-0.3v-2.3l-1.1,0.1v-1.7h-3.3V25l-1.8,0.1l-1.1-3h-4l1.2,3.3l-2.7,0.2
	v2.3l3.6-0.2l0.7,1.9l-4.4,0.3v2.5l5.4-0.3l1,2.7c-2.3,0.7-4.6,1.4-6.4,1.6v2.3c3.8-0.6,5.8-1,7.3-1.3l1,2.6
	c0.1,0.3,0.4,0.5,0.8,0.5h3.4h0.3l0.7-1.8H169.5z"/>
<path id="XMLID_17_" class="st1" d="M156.7,28.2h-3.4c-0.1,0.3-0.3,0.5-0.4,0.8h-1.1c2.4-2.6,3.4-6.8,3.4-6.8h-4.2
	c-0.3,2.4-1.9,5.3-2.5,6.4l0,0c-0.2,0.3-0.3,0.5-0.3,0.6v2.1h3.2c-1.2,1.6-2.4,2.6-2.9,3c-0.2,0.1-0.3,0.3-0.3,0.5v1.9l7.5-0.8
	l0.6-2.2l-3.4,0.3C155.8,31.4,156.7,28.2,156.7,28.2"/>
<path id="XMLID_12_" class="st1" d="M42.8,42.2c-1.2,0-2.4-0.5-3.5-1.5c-1.1-1-1.3-2.5-1.7-4.2l-2.2,0.1l0.5,5.4
	c1.5,0.8,4.1,1.5,6.5,1.5c0.8,0,1.5-0.1,2.1-0.2c0-0.3-0.3-0.9-0.6-1.2C43.5,42.2,43.2,42.2,42.8,42.2 M44.4,31.4
	c-1.6-0.5-3.3-0.9-4.1-1.5c-0.8-0.6-1.2-1.3-1.2-2.2c0-2.1,1.2-3.1,3.5-3.1c0.4,0,0.9,0.1,1.4,0.4c0.5,0.3,1,0.5,1.4,1
	c0.9,1.1,1.2,2.4,1.3,2.9l2.1,0.1l-0.3-4.2c-1.3-0.8-3.6-1.3-5.6-1.3c-0.9,0-1.8,0.1-2.6,0.4c-0.8,0.2-1.5,0.6-2.1,1
	c-0.6,0.4-1.1,1-1.4,1.6c-0.4,0.6-0.7,1.6-0.7,2.6c0,1.1,0.1,2.2,1.2,3.4c0.9,0.9,2.7,2,4.8,2.8c3,1.1,4.7,1.8,4.7,3.6
	c0,1-0.2,1.7-0.9,2.3c0.5,0.4,1,1.2,1,1.3c0.2-0.1,0.3-0.2,0.4-0.3c0.6-0.5,1.2-1,1.9-2.2c0.4-0.7,0.6-1.9,0.6-2.8
	C49.8,34.8,48,32.7,44.4,31.4"/>
<path id="XMLID_9_" class="st1" d="M38.8,45.2h8.4c0-0.7-0.2-1.5-0.4-2.1c-0.2-0.6-0.5-1.2-0.9-1.6c-0.4-0.4-1.3-1.3-3.5-1.3
	c-1.1,0-1.9,0.2-2.6,0.5c0.3,0.2,0.7,0.6,1.1,0.8c0.4-0.2,0.9-0.3,1.4-0.3c0.8,0,1.3,0.1,1.7,0.6c0.4,0.4,0.6,0.9,0.7,1.4
	c0.1,0.3,0.1,0.5,0,0.6c0,0.1-0.1,0.2-0.3,0.3c-0.1,0.1-0.3,0.1-0.5,0.1c-0.2,0-0.5,0-0.8,0h-4.3c0.1-0.3,0.1-0.6,0.3-0.8
	c-0.6-0.1-1.6-0.3-2-0.4c-0.4,0.7-1,1.7-1,3.4c0,1.4,0.4,2.6,1.5,3.8c0.6,0.7,1.4,1.1,2,1.4c1.4,0.5,3.6,0.6,5.1-0.2
	c0.6-0.3,1.1-0.8,1.7-1.3c0.5-0.4,0.7-0.8,0.7-0.8l-0.1-1.1c-1,1.3-2.6,2.1-4.4,1.9c-1.9-0.3-3.4-1.7-3.8-3.6
	C38.8,46.1,38.8,45.7,38.8,45.2C38.8,45.3,38.8,45.2,38.8,45.2L38.8,45.2L38.8,45.2"/>
<path id="XMLID_6_" class="st1" d="M61.6,20.2c-1.7-0.6-3.5,0.1-4.3,1.8h0c-0.1,0.2-0.6,1.3-0.6,4c0,2.1-0.1,12.3-0.1,17.9
	c0,4.8-3.4,7-3.4,7s2.8-2.5,2.8-7V22h0c0-0.2-0.2-0.4-0.4-0.4c-0.2,0-0.4,0.2-0.4,0.4h0v22.2c0,4.4-2.6,6.3-2.6,6.3s2.1-2.1,2.1-6.2
	c0-5-0.2-15.3-0.2-18.3c0-3-0.6-4-0.6-4c-0.3-0.7-0.7-1.1-1.4-1.4c-1.5-0.7-3.4,1-2.3,2.5c0.5-0.5,1.2-0.4,1.5-0.2
	c0.2,0.1,1.8,0.6,1.8,4.3v16.7c0,6.2-5,11.2-11.2,11.2c-6.2,0-11.2-5-11.2-11.2V27c0,0,0-0.1,0-0.1c0-3.1,1.9-4.1,1.9-4.1V22h-8v0.8
	c0,0,1.7,1.2,1.7,4.1c0,0,0,0.1,0,0.1v16.2c0,8.6,7,15.6,15.6,15.6c8.6,0,15.6-7,15.6-15.6V27.4c0-2.1,0.8-4.4,1.9-4.5
	c-0.4-1.6,0.5-2.5,1.7-2.3c0.9,0.2,2,1.1,1.7,2.1c-0.4-0.5-1.1,0.1-0.7,0.5C63.5,24.3,64.2,21.2,61.6,20.2"/>
<path id="XMLID_77_" class="st1" d="M167.3,76.2l0.6-1.2h2.1c-0.3,0.6-0.8,1.1-1.3,1.6L167.3,76.2z M165.5,73.7
	c0.2-0.4,0.3-1,0.4-1.5h5.9l-0.2,1.5c0.7-0.6,1.4-1.6,1.8-2.6l-1.3-0.6l-0.1,0.7h-2.4v-0.9l0.4-0.2l-1.6-0.4v1.4H166
	c0-0.3,0-0.5,0-0.8l-1.7,2.3L165.5,73.7z M164.5,80.7h2.9c-0.9,1.4-2.2,3-3.3,3.6c1.3-0.1,3.1-1.5,4.2-3v3l1.2-0.3v-3
	c0.8,1.3,2.3,2.6,3.5,3.2c0-0.6,0.1-1.1,0.5-1.3c-1.3-0.4-2.7-1.3-3.7-2.3h3.5c0.1,0,0.1,0,0.2-0.1c0-0.1,0-0.1,0-0.2l-0.5-1.1
	c0,0-0.1-0.1-0.1-0.1c0,0-0.1,0-0.1,0l-0.4,0.4h-2.9v-0.7l0.4-0.2l-1.6-0.3v1.3h-4.2L164.5,80.7z M164.8,75h1.9l-0.7,1.5
	c0.7,0.2,1.5,0.4,2.2,0.7c-1.1,0.9-2.4,1.5-3.9,1.9c2.1-0.1,3.7-0.7,4.9-1.5c1,0.4,1.9,0.8,2.5,1.2c1,0.6,1.7-0.4,0.7-1
	c-0.6-0.3-1.5-0.6-2.4-0.9c0.6-0.6,1.1-1.2,1.5-1.9h1.6c0.1,0,0.1,0,0.2-0.1c0-0.1,0-0.1,0-0.2l-0.5-1.1c0,0-0.1-0.1-0.1-0.1
	c0,0-0.1,0-0.1,0l-0.4,0.4h-3.6l0.4-0.8l0.5-0.1l-1.4-0.7l-0.7,1.5h-2.6L164.8,75z M153.9,72.7h2.2v2c0,3.5-0.9,7.3-2.2,9.6
	c1.8-1.3,3-4,3.3-8h2.8v6.3l-1.7-0.5c0.6,0.4,1.6,1,1.6,1.6c0.1,0.9,1.3,0.6,1.3-0.3v-7.4l0.2-0.2c0,0,0.1-0.1,0.1-0.2
	c0-0.1,0-0.1-0.1-0.2l-0.5-0.5c-0.1-0.1-0.3-0.1-0.4,0l-0.4,0.3h-2.9c0-0.4,0-0.7,0-1.1v-1.4h5.2c0.1,0,0.1,0,0.2-0.1
	c0-0.1,0-0.1,0-0.2l-0.5-1.1c0,0-0.1-0.1-0.1-0.1s-0.1,0-0.1,0l-0.4,0.4h-2.7v-1.4l0.4-0.2l-1.6-0.4v1.9h-4L153.9,72.7z M143,70.8
	c0,0,0.4,1.4,0.6,2.6c0.1,1.2,1.7,1,1.2-0.4C144.5,72.2,143.8,71.3,143,70.8z M149.8,73.4V77h-1.5c0-0.4,0.1-0.9,0.1-1.4v-2.3H149.8
	z M143.7,82.6c0.7-2.4,1.1-5.1,1.2-7.9c-0.7,2.6-1.5,5-2.3,6.6L143.7,82.6z M148.4,70.1l0.5-0.2l-1.7-0.3v2.7h-1.9l0.3,1h1.6v1.8
	c0,0.7,0,1.3-0.1,1.8h-2l0.3,1h1.6c-0.4,2.5-1.3,4.2-3,6.3c2-0.9,3.7-2.9,4.2-6.3h0.4c0.5,2.7,1.5,5.2,2.7,6.4
	c0.1-0.7,0.3-1.1,0.9-1.4c-1.5-1.3-2.4-3-3.1-5h3c0.1,0,0.1,0,0.2-0.1c0-0.1,0-0.1,0-0.2l-0.5-1.1c0,0-0.1-0.1-0.1-0.1
	c0,0-0.1,0-0.1,0l-0.4,0.4H151v-3.8l0.2-0.2c0-0.1,0.1-0.1,0.1-0.2c0-0.1,0-0.1-0.1-0.2l-0.5-0.5c-0.1-0.1-0.3-0.1-0.4,0l-0.3,0.2
	h-1.6V70.1z M133.5,78.5v-1h0.4v1.7h-0.4C133.5,79,133.5,78.8,133.5,78.5z M133.5,74.8h0.4v1.7h-0.4V74.8z M135,77.5h0.4v1.7H135
	V77.5z M135.4,74.8v1.7H135v-1.7H135.4z M133.5,73.6l0.4-0.3l-1-0.1c0.1-0.3,0.3-0.7,0.5-1h1.1l-0.4,1.5h-0.7V73.6z M137,71.7h0.7
	c-0.1,1.2-0.4,2.9-1,4c1.2-0.7,2-2.2,2.2-4h0.9v2.5l-1-0.2c0.3,0.2,0.9,0.6,0.9,1.2c0,0.8,1.3,0.5,1.3-0.2v-3.4l0.2-0.2
	c0.1,0,0.1-0.2,0.1-0.2c0-0.1,0-0.1-0.1-0.2l-0.5-0.4c-0.1-0.1-0.3-0.1-0.4,0l-0.3,0.3h-3.3L137,71.7z M136.9,81.7h1.6v2.7l1.1-0.3
	v-2.4h1.6c0.1,0,0.1,0,0.2-0.1s0-0.1,0-0.2l-0.5-1c0,0-0.1-0.1-0.1-0.1c0,0-0.1,0-0.1,0l-0.4,0.4h-0.5v-2.2h1.4c0.1,0,0.1,0,0.2-0.1
	c0,0,0-0.1,0-0.2l-0.5-1c0,0,0-0.1-0.1-0.1s-0.1,0-0.1,0l-0.4,0.4h-0.4v-1.3l0.4-0.2l-1.6-0.3v1.9h-0.6c0.1-0.4,0.2-0.8,0.2-1.1
	l0.3-0.2l-1.4-0.3c0,1.4-0.2,2.9-0.4,4.3c0.4-0.5,0.7-1.1,0.9-1.7h0.9v2.2h-1.9L136.9,81.7z M132.8,69.6c-0.1,1.2-0.5,3.8-0.9,5.3
	c0.1-0.2,0.3-0.4,0.5-0.6v4.1c0,3.1-0.1,4.7-0.5,5.9c1.1-1,1.4-2.5,1.5-4.1h0.4v2.2l1.1-0.2v-2h0.4v2.7l-1-0.3
	c0.6,0.4,0.8,0.9,0.9,1.1c0,0.9,1.2,0.5,1.2-0.3v-8.8l0.2-0.2c0.1,0,0.1-0.1,0.1-0.2c0-0.1-0.1-0.1-0.1-0.2l-0.5-0.4
	c-0.1-0.1-0.3-0.1-0.3,0l-0.3,0.2h-0.8l1.5-2.5l-1.3-0.5l-0.1,0.4h-1c0.1-0.3,0.2-0.6,0.3-0.9l0.4-0.1L132.8,69.6z M121.7,84.4
	l1.2-0.3v-2.1c0.6-0.8,1.1-1.9,1.5-3.2c0.1,0.3,0.1,0.6,0.2,0.9c0.3,1.6,1.4,0.9,1.2-0.2c-0.1-0.6-0.4-1.6-0.8-2.6
	c0.3-1.3,0.6-2.6,0.8-3.6l0.4-0.1l-1.6-0.8c-0.1,1-0.3,1.9-0.4,2.7c-0.4-1-0.8-1.8-1.2-2.3c0.3,1.1,0.6,2.5,0.9,3.9
	c-0.3,1.7-0.7,3.2-1.1,4.7v-9.9h5.8v1.7l-1.5-0.8c-0.1,1.1-0.3,2.1-0.4,3c-0.3-0.8-0.7-1.5-1-1.8c0.2,0.9,0.5,2,0.7,3.2
	c-0.4,2-0.8,3.8-1.3,5.5c0.7-0.8,1.2-2.1,1.7-3.5l0.3,1.6c0.3,1.6,1.4,0.9,1.2-0.2c-0.1-0.7-0.5-1.9-1-3.1c0.4-1.3,0.7-2.7,0.9-3.8
	l0.3,0v9.5l-1-0.3c0.4,0.3,0.9,0.8,0.9,1.4c0.1,0.9,1.3,0.6,1.3-0.2V71.3l0.2-0.2c0.1-0.1,0.1-0.1,0.1-0.2c0-0.1,0-0.1-0.1-0.2
	l-0.5-0.5c-0.1-0.1-0.3-0.1-0.4,0l-0.3,0.2h-6v-0.2l0.4-0.2l-1.6-0.4V84.4z M112.3,71.5h0.8v2.1h-0.8V71.5z M112.3,74.7h0.8v2.1
	h-0.8V74.7z M112.3,77.9h0.8v2.4l-0.8,0.3V77.9z M115,69.6c0,0,0.5,1.2,0.7,2.2c0.2,1.1,1.6,0.6,1.1-0.6
	C116.5,70.8,115.8,70,115,69.6z M115,73.9h1.5v1c0,0.6,0,1.2,0,1.8h-1.9l0.3,1h1.5c-0.2,2.5-0.8,4.9-1.9,6.6c1.7-1.1,2.6-2.9,3-5.6
	c0.2,2.2,0.8,4.3,1.7,5.6c0-0.8,0.5-1.2,0.8-1.4c-1-1.3-1.8-3.2-2.2-5.1h2c0.1,0,0.1,0,0.2-0.1c0-0.1,0-0.1,0-0.2l-0.5-1.1
	c0,0,0-0.1-0.1-0.1c0,0-0.1,0-0.1,0l-0.4,0.4h-1.1c0-0.7,0.1-1.5,0.1-2.3v-0.5h1.7c0.1,0,0.1,0,0.2-0.1c0.1-0.1,0.1-0.1,0-0.2
	l-0.5-1.1c0,0-0.1-0.1-0.1-0.1c0,0-0.1,0-0.1,0l-0.4,0.4h-1c0.6-0.7,1.3-1.7,1.6-2.4l0.4-0.1l-1.6-0.7c-0.2,1-0.5,2.1-0.8,3.3h-2.4
	L115,73.9z M110.8,71.5h0.3v9.4l-0.6,0.2l0.8,1.7l0-0.4l1.7-1.3v3.3l1.2-0.3v-3.9l0.8-0.6l-0.8,0.3v-8.3h0.6c0.1,0,0.1,0,0.2-0.1
	c0-0.1,0-0.1,0-0.2l-0.5-1.1c0,0-0.1-0.1-0.1-0.1c0,0-0.1,0-0.1,0l-0.4,0.4h-3.3L110.8,71.5z M101.1,71.2l0.2-0.1v2.1h-0.4
	C101,72.6,101,71.9,101.1,71.2z M101.3,69.7V71l-1.2-0.3c-0.1,2.3-0.1,4.3-0.3,6.4c0.4-0.8,0.7-1.8,0.9-2.9h0.6v4l-1.5,0.7l0.8,1.6
	l0-0.6l0.6-0.6v5l1.2-0.2v-5.8l1.1-1.1l-1.1,0.5v-3.4h1c0.1,0,0.1,0,0.2-0.1c0-0.1,0-0.1,0-0.2l-0.5-1.1c0,0-0.1-0.1-0.1-0.1
	c-0.1,0-0.1,0-0.1,0.1l-0.4,0.3v-3.1l0.4-0.2L101.3,69.7z M104.2,69.6c-0.2,2.5-0.4,5.2-0.8,7c0.5-0.9,0.9-2.2,1.3-3.5h0.3
	c-0.3,3.4-0.8,6.1-1.6,8.9c1.6-2.3,2.3-5.1,2.8-8.9h0.3c-0.3,4.7-1.1,8.2-2,11c2-2.4,2.7-5.8,3.1-11h0.2v9.6l-1.2-0.4
	c0.4,0.3,1,0.8,1.1,1.5c0.1,0.9,1.3,0.6,1.3-0.3V72.9l0.2-0.2c0.1-0.1,0.1-0.1,0.1-0.2c0-0.1,0-0.1-0.1-0.2l-0.5-0.5
	c-0.1-0.1-0.3-0.1-0.4,0l-0.2,0.2H105c0.1-0.7,0.3-1.3,0.4-1.8l0.4-0.1L104.2,69.6z M95.2,78.8h1.4v3.8h-1.4V78.8z M90.7,78.8h1.4
	v3.8h-1.4V78.8z M92.1,71.7h3.1v3.1h-3.1V71.7z M97.5,77.4c-0.1-0.1-0.3-0.1-0.4,0l-0.3,0.3h-1.6v-0.2l0.5-0.2L94,77.1v7.3l1.2-0.3
	v-0.4h1.4v0.7l1.2-0.4v-5.5l0.2-0.3c0.1-0.1,0.1-0.1,0.1-0.2c0-0.1,0-0.1-0.1-0.2L97.5,77.4z M93,77.4c-0.1-0.1-0.3-0.1-0.4,0
	l-0.3,0.3h-1.6v-0.2l0.5-0.2l-1.7-0.2v7.3l1.2-0.3v-0.4h1.4v0.7l1.2-0.4v-5.5l0.2-0.3c0.1-0.1,0.1-0.1,0.1-0.2c0-0.1,0-0.1-0.1-0.2
	L93,77.4z M96.1,70.4c-0.1-0.1-0.3-0.1-0.4,0l-0.3,0.3h-3.3v-0.2l0.5-0.2L90.9,70v6.5l1.2-0.3v-0.4h3.1v0.7l1.2-0.4v-4.7l0.2-0.3
	c0.1,0,0.1-0.1,0.1-0.2c0-0.1,0-0.1-0.1-0.2L96.1,70.4z M83.7,79.6v1.3h-1.2v-1.3H83.7z M83.2,76c0,0,0.7,0.9,1.1,1.8
	c0.4,1,1.7,0.5,0.9-0.6C84.9,76.8,84.1,76.2,83.2,76z M82.4,82.2v-0.4h1.2v0.6l1.1-0.2v-2.8l0.2-0.2c0-0.1,0.1-0.1,0.1-0.2
	c0-0.1,0-0.1-0.1-0.2l-0.4-0.4c-0.1-0.1-0.2-0.1-0.3,0l-0.2,0.2h-1.4v-0.2l0.4-0.2l-1.5-0.2v4.3L82.4,82.2z M78.8,72h1.8
	c0.2,0.4,0.5,1,0.6,1.6c0.3,1.1,1.7,0.7,1-0.5c-0.2-0.3-0.6-0.7-1.1-1.1h3.2c-0.3,0.8-0.6,1.6-0.9,2.4h-3.1v-0.1l0.4-0.2l-1.6-0.3
	v10.6l1.2-0.3v-5.4c0.9-0.6,1.9-1.8,2.2-2.2H83l-1.3-0.9c-0.3,0.9-0.8,2-1.3,2.8v-3h5.1v7.3l-1-0.3c0.4,0.3,0.9,0.8,0.9,1.4
	c0.1,0.9,1.3,0.6,1.3-0.2v-8.4L87,75c0,0,0.1-0.1,0.1-0.2c0-0.1,0-0.1-0.1-0.2l-0.5-0.5c-0.1-0.1-0.3-0.1-0.4,0l-0.3,0.3h-1.7
	c0.5-0.5,1-1.1,1.5-1.7l0.4,0L85,72h2.4c0.1,0,0.1,0,0.2-0.1c0-0.1,0-0.1,0-0.2L87,70.6c0,0-0.1-0.1-0.1-0.1c0,0-0.1,0-0.1,0
	L86.4,71h-2.7v-0.8l0.4-0.2l-1.6-0.3V71h-3.9L78.8,72z M73.8,79.3c0.5,1,1.1,2.4,1.6,3.6c0.2,0.7,0.8,0.8,1.2,0.5
	c0.3-0.2,0.3-0.8-0.1-1.3C76,81.3,74.9,80.1,73.8,79.3z M69.7,79.3c-0.6,1.6-1.2,3.1-1.9,4.6c1.4-0.9,2.5-2.6,3-3.5l0.4-0.1
	L69.7,79.3z M69.6,75.6H75c0.1,0,0.1,0,0.2-0.1c0,0,0-0.1,0-0.2l-0.5-1.1c0,0-0.1-0.1-0.1-0.1c0,0-0.1,0-0.1,0L74,74.6h-4.6
	L69.6,75.6z M69,74.6c0.1-0.6,0.2-1.3,0.3-1.9h6.2l-0.2,2.2c0.7-1,1.3-2.1,1.7-3.3l-1.5-0.6l0,0.6H73v-1.4l0.4-0.2l-1.6-0.3v1.9
	h-2.4c0-0.3,0-0.6,0-0.9L67.6,74L69,74.6z M68.2,78.1h3.5v4.5l-1.4-0.5c0.4,0.3,1.2,1,1.2,1.6c0,0.9,1.3,0.5,1.3-0.3v-5.3h3.8
	c0.1,0,0.1,0,0.2-0.1c0-0.1,0-0.1,0-0.2l-0.5-1.1c0,0,0-0.1-0.1-0.1c0,0-0.1,0-0.1,0l-0.4,0.4H68L68.2,78.1z M60.9,71.5
	c0,0.8,0,1.6-0.1,2.3h-3.5l0.3,1h3.2c-0.4,4.1-1.7,6.9-3.9,9.5c2.5-1.3,4.4-4.2,5-8.7c0.4,3.2,1.6,6.6,3.2,8.7
	c0.3-0.7,0.5-1,1.1-1.2c-1.6-1.9-3.1-4.9-3.9-8.2h3.3c0.1,0,0.1,0,0.2-0.1c0-0.1,0-0.1,0-0.2l-0.5-1.1c0,0-0.1-0.1-0.1-0.1
	c0,0-0.1,0-0.1,0l-0.4,0.4h-2.6c0-0.5,0-1,0-1.5v-2.2l0.5-0.2l-1.7-0.3V71.5z M53.3,70c0,0,0.4,0.9,0.5,1.8c0.1,0.5,0.7,0.7,1,0.4
	c0.1-0.2,0.3-0.4,0-0.8C54.7,71,54.3,70.5,53.3,70z M46.7,76.9h1.6v4.9l-1.9,0.5l0.6,1.7l0.1-0.5l5.2-2.7l-2.7,0.7v-4.6h1.6
	c0.1,0,0.1,0,0.2-0.1c0-0.1,0-0.1,0-0.2l-0.6-1.1c0,0,0,0-0.1-0.1c0,0-0.1,0-0.1,0l-0.4,0.4h-3.6L46.7,76.9z M51.5,69.6
	c0,1.1,0.1,2.3,0.2,3.5h-5.5l0.3,1h5.3c0.3,3.7,0.8,7.3,1.3,8.7c0.7,1.9,2.2,2,2.5,0c-0.4-0.5-0.7-1.1-0.3-2.1l-0.1,0l-0.7,1.9
	c0,0.1-0.1,0.1-0.2,0c-0.6-1.8-1.1-5.1-1.3-8.4h2.3c0.1,0,0.1,0,0.2-0.1c0-0.1,0-0.1,0-0.2L55,72.8c0,0-0.1-0.1-0.1-0.1
	c0,0-0.1,0-0.1,0l-0.4,0.4h-1.4c-0.1-1-0.1-2-0.1-3l0.3-0.2L51.5,69.6z M35.4,82.2l0.8,1.7l0.1-0.6l3.3-2.7L35.4,82.2z M35.9,74.6
	c0.1,1.3,0.2,3.2,0.2,4.8c0,1.5,1.3,1.2,1.2-0.1C37.1,77.6,36.5,75.8,35.9,74.6z M38.1,74.2c-0.2,2.4-0.2,4.9-0.4,7
	c0.8-1.7,1.4-4.3,1.7-6.3l0.4-0.2L38.1,74.2z M35.8,73.4h3.7c0.1,0,0.1,0,0.2-0.1c0,0,0-0.1,0-0.2L39.2,72c0-0.1-0.2-0.1-0.2,0
	l-0.4,0.4h-0.3v-2.2l0.5-0.2L37,69.8v2.6h-1.5L35.8,73.4z M41,78.1h2.3v4.3H41V78.1z M44.3,76.7c-0.1-0.1-0.3-0.1-0.4,0L43.6,77
	h-0.7v-3.6h1.8c0.1,0,0.1,0,0.2-0.1c0,0,0-0.1,0-0.2l-0.5-1.1c0-0.1,0-0.1-0.1-0.1c-0.1,0-0.1,0-0.1,0l-0.4,0.4h-0.8v-2.2l0.5-0.2
	l-1.7-0.4V77H41v-0.2l0.4-0.3l-1.7-0.3v8l1.2-0.4v-0.5h2.3v0.8l1.2-0.4v-6l0.2-0.3c0.1-0.1,0.1-0.1,0.1-0.2c0-0.1,0-0.1-0.1-0.2
	L44.3,76.7z M25,76.7h9c0.1,0,0.1,0,0.2-0.1c0-0.1,0-0.1,0-0.2l-0.5-1.1c0,0-0.1-0.1-0.1-0.1c0,0-0.1,0-0.1,0L33,75.7h-8.3L25,76.7z
	"/>
</svg>
