<?xml version="1.0" encoding="utf-8"?>
<!-- Generator: Adobe Illustrator 19.0.0, SVG Export Plug-In . SVG Version: 6.00 Build 0)  -->
<svg version="1.1" baseProfile="basic" id="图层_1"
	 xmlns="http://www.w3.org/2000/svg" xmlns:xlink="http://www.w3.org/1999/xlink" x="0px" y="0px" viewBox="-949 530 20 21"
	 xml:space="preserve">
<style type="text/css">
	.st0{fill:#317999;}
	.st1{fill:none;}
	.st2{fill:#85D335;}
	.st3{fill:#FFFFFF;}
</style>
<title>Group 3</title>
<desc>Created with Sketch.</desc>
<g id="page">
	<g id="IOT云端-02管理控制台-01悬浮工单-" transform="translate(-826.000000, -261.000000)">
		<g id="Group-3" transform="translate(824.000000, 261.000000)">
			<g id="icon">
				<path class="st0" d="M-928.9,533.5h-16.2c-1,0-1.9,0.9-1.9,1.9v11.2c0,1,0.9,1.9,1.9,1.9h16.2c1,0,1.9-0.9,1.9-1.9v-11.2
					C-927,534.5-927.9,533.5-928.9,533.5z M-928.9,534.9l-4.4,4.1c-2,1.9-5.4,1.9-7.4,0l-4.4-4L-928.9,534.9z M-928.3,546.6
					c0,0.4-0.2,0.6-0.6,0.6h-16.2c-0.4,0-0.6-0.2-0.6-0.6v-10.9l4.2,4c2.5,2.4,6.6,2.4,9.1,0l4.1-3.9V546.6z"/>
				<rect id="Rectangle-6" x="-947" y="531" class="st1" width="20" height="20"/>
			</g>
			<g id="Group-7" transform="translate(12.000000, 0.000000)">
				<circle class="st2" cx="-943.2" cy="534" r="4"/>
				<g id="Group_1_">
					<polygon class="st3" points="-940.6,531.5 -943.7,534.5 -945.3,533 -946.2,534 -944.3,535.9 -943.7,536.5 -939.7,532.5 					
						"/>
					<rect id="Rectangle-4" x="-947.2" y="530" class="st1" width="8" height="8"/>
				</g>
			</g>
		</g>
	</g>
</g>
</svg>
