<?xml version="1.0" encoding="utf-8"?>
<!-- Generator: Adobe Illustrator 19.0.0, SVG Export Plug-In . SVG Version: 6.00 Build 0)  -->
<svg version="1.1" id="图层_1" xmlns="http://www.w3.org/2000/svg" xmlns:xlink="http://www.w3.org/1999/xlink" x="0px" y="0px"
	 viewBox="-1975 982.2 18 21" style="enable-background:new -1975 982.2 18 21;" xml:space="preserve">
<style type="text/css">
	.st0{fill:#317999;}
	.st1{fill:none;}
	.st2{fill:#85D335;}
	.st3{fill:#FFFFFF;}
</style>
<title>Group 3</title>
<desc>Created with Sketch.</desc>
<g id="page">
	<g id="IOT云端-02管理控制台-01悬浮工单-" transform="translate(-826.000000, -261.000000)">
		<g id="Group-3" transform="translate(824.000000, 261.000000)">
			<g id="Group" transform="translate(0.000000, 1.000000)">
				<g>
					<path class="st0" d="M-1959.4,982.2h-11.3c-1,0-1.9,0.8-1.9,1.9v16.3c0,1,0.8,1.9,1.9,1.9h11.3c1,0,1.9-0.8,1.9-1.9v-16.3
						C-1957.5,983.1-1958.3,982.2-1959.4,982.2z M-1958.8,1000.4c0,0.3-0.3,0.6-0.6,0.6h-11.3c-0.3,0-0.6-0.3-0.6-0.6v-16.3
						c0-0.3,0.3-0.6,0.6-0.6h11.3c0.3,0,0.6,0.3,0.6,0.6V1000.4z"/>
					<path class="st0" d="M-1961.9,984.8h-6.3c-1,0-1.9,0.8-1.9,1.9v8.8c0,1,0.8,1.9,1.9,1.9h6.3c1,0,1.9-0.8,1.9-1.9v-8.8
						C-1960,985.6-1960.8,984.8-1961.9,984.8z M-1961.2,995.4c0,0.3-0.3,0.6-0.6,0.6h-6.3c-0.3,0-0.6-0.3-0.6-0.6v-8.8
						c0-0.3,0.3-0.6,0.6-0.6h6.3c0.3,0,0.6,0.3,0.6,0.6V995.4z"/>
					<path class="st0" d="M-1964.4,998.5h-1.2c-0.4,0-0.6,0.3-0.6,0.6c0,0.3,0.3,0.6,0.6,0.6h1.2c0.4,0,0.6-0.3,0.6-0.6
						C-1963.8,998.8-1964,998.5-1964.4,998.5z"/>
				</g>
				<rect id="Rectangle" x="-1975" y="982.2" class="st1" width="20" height="20"/>
			</g>
			<g id="Group-7" transform="translate(12.000000, 0.000000)">
				<circle class="st2" cx="-1971" cy="986.2" r="4"/>
				<g id="Group_1_">
					<polygon class="st3" points="-1968.4,983.8 -1971.5,986.8 -1973.1,985.3 -1974,986.2 -1972.1,988.1 -1971.5,988.7 
						-1967.5,984.7 					"/>
					<rect id="Rectangle-4" x="-1975" y="982.2" class="st1" width="8" height="8"/>
				</g>
			</g>
		</g>
	</g>
</g>
</svg>
