<?xml version="1.0" encoding="utf-8"?>
<!-- Generator: Adobe Illustrator 19.0.0, SVG Export Plug-In . SVG Version: 6.00 Build 0)  -->
<svg version="1.0" id="图层_1" xmlns="http://www.w3.org/2000/svg" xmlns:xlink="http://www.w3.org/1999/xlink" x="0px" y="0px"
	 viewBox="240 54.4 1920 760" style="enable-background:new 240 54.4 1920 760;" xml:space="preserve">
<style type="text/css">
	.st0{clip-path:url(#SVGID_2_);}
	.st1{fill:#C4E4FC;}
	.st2{fill:#E9F5FF;}
	.st3{fill:#C69481;}
	.st4{fill:#CFF9F7;}
	.st5{fill:#9EDBD7;}
	.st6{opacity:0.4;}
	.st7{fill:#008797;}
	.st8{fill:#39C9BB;}
	.st9{fill:#22B3AA;}
	.st10{fill:#FFFFF8;}
	.st11{fill:#E8BDA7;}
	.st12{fill:#D3A590;}
	.st13{fill:#EDE0DF;}
	.st14{fill:#E0CFCE;}
	.st15{fill:#435771;}
	.st16{fill:#5D7991;}
	.st17{opacity:0.4;fill:none;stroke:#FFFFF8;stroke-width:4;stroke-linecap:round;stroke-miterlimit:10;enable-background:new    ;}
	.st18{opacity:0.2;fill:#F6F0E8;enable-background:new    ;}
	.st19{fill:#143842;}
	.st20{fill:#204C56;}
	.st21{fill:#5B5757;}
	.st22{fill:#474343;}
	.st23{fill:#BFE2D5;}
	.st24{fill:#424242;}
	.st25{fill:#A8DDD9;}
	.st26{fill:#565656;}
	.st27{fill:#F28E70;}
	.st28{fill:#E2774D;}
	.st29{opacity:0.5;fill:none;stroke:#A57C65;stroke-linecap:round;stroke-miterlimit:10;enable-background:new    ;}
	.st30{fill:none;}
</style>
<g>
	<defs>
		<rect id="SVGID_1_" x="240" y="54.4" width="1920" height="760"/>
	</defs>
	<clipPath id="SVGID_2_">
		<use xlink:href="#SVGID_1_"  style="overflow:visible;"/>
	</clipPath>
	<g class="st0">
		<g id="XMLID_150_">
			<path id="XMLID_1136_" class="st1" d="M1761.3,369.6l-1.2-1.6c0,0,1.2-0.9,3.1-2.5l1.3,1.5
				C1762.5,368.7,1761.3,369.6,1761.3,369.6z M1766.7,365l-1.3-1.5c0.9-0.8,1.9-1.7,2.9-2.7l1.4,1.4
				C1768.6,363.3,1767.6,364.2,1766.7,365z M1771.8,360.2l-1.4-1.4c0.9-0.9,1.8-1.8,2.8-2.9l1.5,1.4
				C1773.7,358.3,1772.8,359.3,1771.8,360.2z M1776.7,355.1l-1.5-1.3c0.9-1,1.7-1.9,2.6-3l1.5,1.3
				C1778.5,353.1,1777.6,354.1,1776.7,355.1z M1781.3,349.7l-1.5-1.3c0.8-1,1.6-2,2.5-3.1l1.6,1.2
				C1783,347.6,1782.1,348.7,1781.3,349.7z M1785.6,344.1l-1.6-1.2c0.8-1,1.5-2.1,2.3-3.2l1.6,1.1
				C1787.2,342,1786.4,343.1,1785.6,344.1z M1789.7,338.3l-1.7-1.1c0.7-1.1,1.4-2.2,2.1-3.3l1.7,1
				C1791.1,336.1,1790.4,337.2,1789.7,338.3z M1793.4,332.3l-1.7-1c0.7-1.2,1.3-2.3,1.9-3.5l1.8,0.9
				C1794.7,330,1794.1,331.2,1793.4,332.3z M1796.8,326.1l-1.8-0.9c0.6-1.2,1.2-2.4,1.7-3.6l1.8,0.8
				C1798,323.7,1797.4,325,1796.8,326.1z M1799.8,319.8l-1.8-0.8c0.5-1.2,1-2.5,1.5-3.7l1.9,0.7
				C1800.8,317.3,1800.3,318.5,1799.8,319.8z M1802.4,313.2l-1.9-0.7c0.4-1.3,0.9-2.5,1.3-3.8l1.9,0.6
				C1803.2,310.6,1802.8,311.9,1802.4,313.2z M1804.5,306.4l-1.9-0.5c0.4-1.3,0.7-2.6,1-3.8l1.9,0.5
				C1805.2,303.8,1804.9,305.2,1804.5,306.4z M1806.2,299.6l-2-0.4c0.3-1.3,0.5-2.6,0.7-3.9l2,0.3
				C1806.7,296.9,1806.5,298.3,1806.2,299.6z M1807.4,292.6l-2-0.3c0.2-1.3,0.3-2.6,0.4-3.9l2,0.2
				C1807.7,289.9,1807.5,291.3,1807.4,292.6z M1808,285.6l-2-0.1c0.1-1.3,0.1-2.6,0.1-4h2C1808.2,282.9,1808.1,284.2,1808,285.6z
				 M1806.2,278.5c0-1.3-0.1-2.6-0.2-4l2-0.1c0.1,1.3,0.1,2.7,0.2,4L1806.2,278.5z M1805.8,271.6c-0.1-1.3-0.3-2.6-0.4-3.9l2-0.3
				c0.2,1.3,0.3,2.7,0.5,4L1805.8,271.6z M1804.9,264.8c-0.2-1.3-0.5-2.6-0.7-3.9l2-0.4c0.3,1.3,0.5,2.7,0.7,4L1804.9,264.8z
				 M1803.5,258c-0.3-1.3-0.6-2.6-1-3.8l1.9-0.5c0.4,1.3,0.7,2.6,1,3.9L1803.5,258z M1801.7,251.3c-0.4-1.3-0.8-2.5-1.2-3.8l1.9-0.7
				c0.4,1.3,0.9,2.6,1.3,3.8L1801.7,251.3z M1799.5,244.7c-0.5-1.2-1-2.4-1.5-3.6l1.8-0.8c0.6,1.2,1.1,2.5,1.6,3.7L1799.5,244.7z
				 M1796.7,238.4c-0.6-1.2-1.2-2.3-1.9-3.5l1.7-1c0.7,1.2,1.3,2.4,1.9,3.6L1796.7,238.4z M1793.3,232.4c-0.7-1.1-1.4-2.2-2.2-3.3
				l1.6-1.2c0.8,1.1,1.6,2.2,2.3,3.3L1793.3,232.4z M1789.3,226.8c-0.8-1-1.6-2-2.5-3l1.5-1.3c0.9,1,1.8,2.1,2.6,3.1L1789.3,226.8z
				 M1784.8,221.6c-0.9-0.9-1.8-1.9-2.8-2.8l1.4-1.4c1,0.9,1.9,1.9,2.8,2.9L1784.8,221.6z M1779.9,216.7c-1-0.9-2-1.7-3-2.6l1.3-1.5
				c1,0.9,2.1,1.8,3.1,2.6L1779.9,216.7z M1774.6,212.3c-1-0.8-2.1-1.6-3.2-2.4l1.2-1.6c1.1,0.8,2.2,1.6,3.2,2.4L1774.6,212.3z
				 M1769,208.2c-1.1-0.7-2.2-1.5-3.3-2.2l1.1-1.7c1.1,0.7,2.3,1.5,3.4,2.2L1769,208.2z M1763.1,204.5c-1.1-0.7-2.3-1.3-3.4-2l1-1.7
				c1.2,0.7,2.3,1.3,3.5,2L1763.1,204.5z M1757.1,201c-1.2-0.6-2.3-1.2-3.5-1.8l0.9-1.8c1.2,0.6,2.4,1.2,3.6,1.8L1757.1,201z
				 M1750.8,197.9c-1.2-0.6-2.4-1.1-3.6-1.7l0.8-1.8c1.2,0.5,2.5,1.1,3.7,1.7L1750.8,197.9z M1744.5,195.1c-1.2-0.5-2.4-1-3.7-1.5
				l0.7-1.9c1.2,0.5,2.5,1,3.7,1.5L1744.5,195.1z M1738,192.5c-1.2-0.5-2.5-0.9-3.7-1.4l0.7-1.9c1.3,0.4,2.5,0.9,3.8,1.4L1738,192.5
				z M1731.5,190.2c-1.3-0.4-2.5-0.8-3.8-1.2l0.6-1.9c1.3,0.4,2.6,0.8,3.8,1.3L1731.5,190.2z M1724.8,188.1
				c-1.3-0.4-2.5-0.8-3.8-1.1l0.5-1.9c1.3,0.4,2.6,0.7,3.9,1.1L1724.8,188.1z M1718.1,186.1c-1.3-0.4-2.6-0.7-3.9-1l0.5-1.9
				c1.3,0.3,2.6,0.7,3.9,1L1718.1,186.1z M1711.3,184.4c-1.3-0.3-2.6-0.6-3.9-0.9l0.4-1.9c1.3,0.3,2.6,0.6,3.9,0.9L1711.3,184.4z
				 M1704.5,182.8c-1.3-0.3-2.6-0.6-3.9-0.8l0.4-2c1.3,0.3,2.6,0.5,3.9,0.8L1704.5,182.8z M1697.7,181.4c-1.3-0.3-2.6-0.5-3.9-0.7
				l0.4-2c1.3,0.2,2.6,0.5,3.9,0.7L1697.7,181.4z M1690.8,180.1c-1.3-0.2-2.6-0.4-3.9-0.7l0.3-2c1.3,0.2,2.6,0.4,4,0.7L1690.8,180.1
				z M1683.9,179c-1.3-0.2-2.6-0.4-4-0.6l0.3-2c1.3,0.2,2.6,0.4,4,0.6L1683.9,179z M1677,178c-1.3-0.2-2.7-0.3-4-0.5l0.2-2
				c1.3,0.2,2.6,0.3,4,0.5L1677,178z M1670.1,177.2c-1.3-0.2-2.7-0.3-4-0.4l0.2-2c1.3,0.1,2.6,0.3,4,0.4L1670.1,177.2z
				 M1663.1,176.4c-1.4-0.1-2.7-0.3-4-0.4l0.2-2c1.3,0.1,2.6,0.2,4,0.4L1663.1,176.4z M1656.2,175.8c-1.4-0.1-2.7-0.2-4-0.3l0.1-2
				c1.3,0.1,2.6,0.2,4,0.3L1656.2,175.8z M1649.2,175.3c-1.4-0.1-2.7-0.2-4-0.2l0.1-2c1.3,0.1,2.6,0.1,4,0.2L1649.2,175.3z
				 M1642.2,175c-1.4-0.1-2.8-0.1-4-0.1l0.1-2c1.3,0,2.6,0.1,4,0.2L1642.2,175z M1635.2,174.7c-1.5,0-2.9-0.1-4-0.1v-2
				c1.1,0,2.5,0,4,0.1V174.7z M1627.3,174.7v-2c0,0,0.3,0,0.9,0v2C1627.6,174.7,1627.3,174.7,1627.3,174.7z"/>
		</g>
		<g id="XMLID_149_">
			<path id="XMLID_1086_" class="st1" d="M1558.6,501l-1.9-0.7c0,0,0.5-1.3,1.4-3.7l1.9,0.7C1559.1,499.6,1558.6,501,1558.6,501z
				 M1561,494.3l-1.9-0.7c0.4-1.1,0.8-2.4,1.3-3.8l1.9,0.6C1561.9,491.9,1561.4,493.2,1561,494.3z M1563.3,487.7l-1.9-0.6
				c0.4-1.2,0.8-2.5,1.3-3.8l1.9,0.6C1564.2,485.2,1563.7,486.5,1563.3,487.7z M1565.5,481l-1.9-0.6c0.4-1.2,0.8-2.5,1.2-3.8
				l1.9,0.6C1566.3,478.5,1565.9,479.8,1565.5,481z M1567.6,474.3l-1.9-0.6c0.4-1.2,0.8-2.5,1.1-3.8l1.9,0.6
				C1568.3,471.8,1568,473,1567.6,474.3z M1569.6,467.5l-1.9-0.5c0.4-1.3,0.7-2.5,1.1-3.8l1.9,0.5
				C1570.3,465,1569.9,466.3,1569.6,467.5z M1571.4,460.8l-1.9-0.5c0.3-1.3,0.7-2.6,1-3.9l1.9,0.5
				C1572.1,458.2,1571.8,459.5,1571.4,460.8z M1573.2,454l-1.9-0.5c0.3-1.3,0.6-2.6,1-3.9l1.9,0.5
				C1573.9,451.4,1573.5,452.7,1573.2,454z M1574.9,447.2l-1.9-0.5c0.3-1.3,0.6-2.6,0.9-3.9l2,0.4
				C1575.5,444.6,1575.2,445.9,1574.9,447.2z M1576.4,440.3l-2-0.4c0.3-1.3,0.6-2.6,0.8-3.9l2,0.4
				C1577,437.7,1576.7,439,1576.4,440.3z M1577.9,433.4l-2-0.4c0.3-1.3,0.5-2.6,0.8-3.9l2,0.4
				C1578.4,430.8,1578.1,432.1,1577.9,433.4z M1579.2,426.5l-2-0.4c0.2-1.3,0.5-2.6,0.7-3.9l2,0.3
				C1579.6,423.9,1579.4,425.2,1579.2,426.5z M1580.4,419.6l-2-0.3c0.2-1.3,0.4-2.6,0.6-3.9l2,0.3
				C1580.8,417,1580.6,418.3,1580.4,419.6z M1581.4,412.7l-2-0.3c0.2-1.3,0.4-2.6,0.5-3.9l2,0.2
				C1581.8,410,1581.6,411.4,1581.4,412.7z M1582.3,405.7l-2-0.2c0.2-1.3,0.3-2.6,0.4-4l2,0.2
				C1582.6,403.1,1582.4,404.4,1582.3,405.7z M1583,398.7l-2-0.2c0.1-1.3,0.2-2.6,0.3-4l2,0.1C1583.2,396.1,1583.1,397.4,1583,398.7
				z M1583.5,391.7l-2-0.1c0.1-1.3,0.2-2.7,0.2-4l2,0.1C1583.7,389,1583.6,390.4,1583.5,391.7z M1583.9,384.7l-2-0.1
				c0-1.3,0.1-2.7,0.1-4h2C1584,382,1583.9,383.3,1583.9,384.7z M1584,377.6h-2v-0.3c0-1.2,0-2.4,0-3.6h2c0,1.2,0,2.5,0,3.7V377.6z
				 M1581.9,370.7c0-1.3-0.1-2.7-0.2-4l2-0.1c0.1,1.3,0.1,2.7,0.2,4L1581.9,370.7z M1581.5,363.7c-0.1-1.3-0.2-2.6-0.3-4l2-0.2
				c0.1,1.3,0.2,2.7,0.3,4L1581.5,363.7z M1580.9,356.8c-0.2-1.3-0.3-2.6-0.5-3.9l2-0.3c0.2,1.3,0.4,2.7,0.5,4L1580.9,356.8z
				 M1579.9,349.9c-0.2-1.3-0.5-2.6-0.7-3.9l2-0.4c0.3,1.3,0.5,2.6,0.7,4L1579.9,349.9z M1578.5,343.1c-0.3-1.3-0.6-2.6-1-3.8
				l1.9-0.5c0.3,1.3,0.7,2.6,1,3.9L1578.5,343.1z M1576.7,336.4c-0.4-1.3-0.8-2.5-1.2-3.8l1.9-0.7c0.4,1.2,0.8,2.5,1.2,3.8
				L1576.7,336.4z M1574.5,329.8c-0.5-1.2-1-2.5-1.5-3.7l1.8-0.8c0.5,1.2,1,2.5,1.5,3.7L1574.5,329.8z M1571.8,323.5
				c-0.6-1.2-1.2-2.4-1.8-3.5l1.8-1c0.6,1.2,1.3,2.4,1.8,3.6L1571.8,323.5z M1568.5,317.4c-0.7-1.1-1.4-2.3-2.1-3.3l1.7-1.1
				c0.7,1.1,1.5,2.3,2.2,3.4L1568.5,317.4z M1564.7,311.6c-0.8-1.1-1.5-2.2-2.2-3.3l1.7-1.1c0.7,1.1,1.5,2.2,2.2,3.3L1564.7,311.6z
				 M1560.8,305.7c-0.7-1.1-1.5-2.3-2.2-3.4l1.7-1.1c0.7,1.1,1.4,2.3,2.2,3.4L1560.8,305.7z M1557.1,299.8c-0.7-1.1-1.4-2.3-2.1-3.4
				l1.7-1c0.7,1.1,1.4,2.3,2.1,3.4L1557.1,299.8z M1553.4,293.8c-0.7-1.1-1.4-2.3-2.1-3.4l1.7-1c0.7,1.1,1.4,2.3,2,3.4L1553.4,293.8
				z M1549.8,287.7c-0.7-1.2-1.3-2.3-2-3.5l1.7-1c0.7,1.2,1.3,2.3,2,3.5L1549.8,287.7z M1546.3,281.6c-0.7-1.2-1.3-2.3-2-3.5l1.8-1
				c0.6,1.2,1.3,2.3,1.9,3.5L1546.3,281.6z M1542.9,275.5c-0.6-1.2-1.3-2.4-1.9-3.5l1.8-0.9c0.6,1.2,1.3,2.3,1.9,3.5L1542.9,275.5z
				 M1539.6,269.3c-0.6-1.2-1.2-2.4-1.9-3.6l1.8-0.9c0.6,1.2,1.2,2.4,1.9,3.5L1539.6,269.3z M1536.4,263.1c-0.6-1.2-1.2-2.4-1.8-3.6
				l1.8-0.9c0.6,1.2,1.2,2.4,1.8,3.6L1536.4,263.1z M1533.2,256.8c-0.6-1.2-1.2-2.4-1.8-3.6l1.8-0.9c0.6,1.2,1.2,2.4,1.8,3.6
				L1533.2,256.8z M1530.1,250.5c-0.6-1.2-1.2-2.4-1.7-3.6l1.8-0.9c0.6,1.2,1.1,2.4,1.7,3.6L1530.1,250.5z M1527.1,244.2
				c-0.6-1.2-1.1-2.4-1.7-3.6l1.8-0.8c0.6,1.2,1.1,2.4,1.7,3.6L1527.1,244.2z M1524.2,237.8c-0.6-1.2-1.1-2.4-1.6-3.7l1.8-0.8
				c0.5,1.2,1.1,2.4,1.6,3.6L1524.2,237.8z M1521.3,231.4c-0.5-1.2-1.1-2.5-1.6-3.7l1.8-0.8c0.5,1.2,1.1,2.4,1.6,3.7L1521.3,231.4z
				 M1518.5,225c-0.5-1.2-1.1-2.5-1.6-3.7l1.8-0.8c0.5,1.2,1,2.4,1.6,3.7L1518.5,225z M1515.8,218.5c-0.5-1.3-1-2.5-1.5-3.7l1.9-0.8
				c0.5,1.2,1,2.4,1.5,3.7L1515.8,218.5z M1513.1,212c-0.5-1.3-1-2.5-1.5-3.7l1.9-0.7c0.5,1.2,1,2.4,1.5,3.7L1513.1,212z
				 M1510.5,205.5c-0.5-1.3-1-2.5-1.4-3.7l1.9-0.7c0.5,1.2,0.9,2.4,1.4,3.7L1510.5,205.5z M1508,199c-0.5-1.3-1-2.6-1.4-3.8l1.9-0.7
				c0.4,1.2,0.9,2.4,1.4,3.7L1508,199z M1505.6,192.4c-0.5-1.4-1-2.7-1.4-3.8l1.9-0.7c0.4,1.1,0.8,2.4,1.3,3.8L1505.6,192.4z
				 M1503.2,185.7c-0.6-1.8-0.9-2.8-0.9-2.8l1.9-0.6c0,0,0.3,1,0.9,2.7L1503.2,185.7z"/>
		</g>
		<g id="XMLID_148_">
			<path id="XMLID_1029_" class="st1" d="M547.7,390.9c0-0.1-0.5-1.5-0.9-4.1l2-0.3c0.4,2.4,0.8,3.7,0.8,3.7L547.7,390.9z
				 M546.5,383.8c-0.1-1.3-0.2-2.7-0.2-4.1h2c0,1.3,0.1,2.7,0.2,3.9L546.5,383.8z M548.3,376.7l-2-0.1c0-1.3,0.1-2.7,0.3-4l2,0.2
				C548.5,374.1,548.4,375.5,548.3,376.7z M548.9,369.9l-2-0.3c0.2-1.3,0.4-2.7,0.6-4l2,0.4C549.3,367.3,549.1,368.6,548.9,369.9z
				 M550.1,363l-2-0.4c0.3-1.3,0.6-2.6,0.9-3.9l1.9,0.5C550.7,360.5,550.3,361.8,550.1,363z M551.8,356.3l-1.9-0.6
				c0.4-1.3,0.8-2.6,1.2-3.9l1.9,0.6C552.5,353.8,552.1,355.1,551.8,356.3z M553.9,349.7L552,349c0.5-1.2,0.9-2.5,1.4-3.8l1.9,0.7
				C554.8,347.3,554.4,348.5,553.9,349.7z M556.5,343.3l-1.8-0.8c0.5-1.2,1.1-2.4,1.6-3.7l1.8,0.8
				C557.5,340.9,557,342.1,556.5,343.3z M559.4,337l-1.8-0.9c0.6-1.2,1.2-2.4,1.8-3.6l1.8,0.9C560.5,334.6,559.9,335.8,559.4,337z
				 M562.6,330.8l-1.8-1c0.6-1.2,1.3-2.3,2-3.5l1.7,1C563.9,328.5,563.2,329.7,562.6,330.8z M566.1,324.8l-1.7-1
				c0.7-1.1,1.4-2.3,2.1-3.4l1.7,1.1C567.4,322.6,566.7,323.7,566.1,324.8z M569.8,318.9l-1.7-1.1c0.7-1.1,1.5-2.2,2.3-3.3l1.6,1.1
				C571.2,316.7,570.5,317.8,569.8,318.9z M573.7,313.2l-1.6-1.2c0.8-1.1,1.6-2.2,2.4-3.2l1.6,1.2
				C575.3,311,574.5,312.1,573.7,313.2z M577.9,307.6l-1.6-1.2c0.8-1,1.6-2.1,2.5-3.2l1.6,1.2C579.5,305.5,578.7,306.5,577.9,307.6z
				 M582.2,302.1l-1.5-1.3c0.8-1,1.7-2.1,2.6-3.1l1.5,1.3C583.9,300.1,583,301.1,582.2,302.1z M586.7,296.8l-1.5-1.3
				c0.9-1,1.7-2,2.6-3l1.5,1.3C588.4,294.8,587.5,295.8,586.7,296.8z M591.3,291.6l-1.5-1.3c0.9-1,1.8-2,2.7-2.9l1.5,1.4
				C593.1,289.6,592.2,290.6,591.3,291.6z M596.1,286.5l-1.4-1.4c0.9-1,1.9-1.9,2.9-2.8l1.4,1.5C597.9,284.6,597,285.5,596.1,286.5z
				 M601.1,281.7l-1.3-1.5c1-0.9,2-1.8,3.1-2.6l1.3,1.6C603.1,280,602,280.8,601.1,281.7z M606.4,277.3l-1.2-1.6
				c1.1-0.8,2.1-1.6,3.2-2.4l1.2,1.6C608.5,275.7,607.5,276.5,606.4,277.3z M838.8,274.1c-0.1-1.3-0.3-2.5-0.6-3.7l1.9-0.5
				c0.3,1.3,0.5,2.7,0.6,4.1L838.8,274.1z M612.1,273.2l-1.1-1.7c1.1-0.7,2.2-1.5,3.4-2.2l1.1,1.7
				C614.3,271.8,613.1,272.5,612.1,273.2z M617.9,269.5l-1-1.7c1.1-0.7,2.3-1.4,3.5-2l1,1.7C620.2,268.2,619,268.8,617.9,269.5z
				 M837.4,267.6c-0.5-1.2-1.1-2.3-1.7-3.4l1.7-1.1c0.8,1.2,1.4,2.4,1.9,3.7L837.4,267.6z M624,266.1l-0.9-1.8
				c1.2-0.6,2.4-1.3,3.6-1.9l0.9,1.8C626.3,264.8,625.1,265.4,624,266.1z M630.2,262.9l-0.9-1.8c1.2-0.6,2.4-1.2,3.6-1.7l0.8,1.8
				C632.5,261.8,631.3,262.3,630.2,262.9z M834,261.9c-0.8-1-1.7-1.9-2.6-2.8l1.4-1.4c1,1,2,2,2.8,3L834,261.9z M636.5,260l-0.8-1.8
				c1.2-0.5,2.5-1.1,3.7-1.6l0.8,1.8C638.9,258.9,637.7,259.5,636.5,260z M642.9,257.3l-0.7-1.9c1.2-0.5,2.5-1,3.8-1.4l0.7,1.9
				C645.4,256.3,644.1,256.8,642.9,257.3z M829.2,257.1c-1-0.8-2-1.6-3.1-2.3l1.1-1.7c1.2,0.8,2.3,1.6,3.3,2.4L829.2,257.1z
				 M649.4,254.8l-0.7-1.9c1.3-0.5,2.5-0.9,3.8-1.3l0.6,1.9C651.9,254,650.7,254.4,649.4,254.8z M823.6,253.2
				c-1.1-0.6-2.2-1.3-3.4-1.9l0.9-1.8c1.2,0.6,2.4,1.3,3.6,2L823.6,253.2z M656,252.6l-0.6-1.9c1.3-0.4,2.5-0.8,3.8-1.2l0.6,1.9
				C658.5,251.8,657.3,252.2,656,252.6z M662.7,250.5l-0.6-1.9c1.3-0.4,2.6-0.7,3.9-1.1l0.5,1.9C665.2,249.8,664,250.2,662.7,250.5z
				 M817.5,250c-1.2-0.5-2.4-1.1-3.6-1.5l0.7-1.9c1.3,0.5,2.5,1,3.7,1.6L817.5,250z M669.4,248.6l-0.5-1.9c1.3-0.3,2.6-0.7,3.9-1
				l0.5,1.9C672,248,670.7,248.3,669.4,248.6z M811,247.4c-1.2-0.4-2.5-0.9-3.8-1.3l0.6-1.9c1.3,0.4,2.6,0.9,3.8,1.3L811,247.4z
				 M676.2,246.9l-0.5-1.9c1.3-0.3,2.6-0.6,3.9-0.9l0.4,2C678.7,246.3,677.4,246.6,676.2,246.9z M682.9,245.4l-0.4-2
				c1.3-0.3,2.6-0.5,3.9-0.8l0.4,2C685.5,244.9,684.2,245.1,682.9,245.4z M804.4,245.3c-1.3-0.4-2.5-0.7-3.8-1l0.5-1.9
				c1.3,0.3,2.6,0.7,3.9,1.1L804.4,245.3z M689.8,244l-0.4-2c1.3-0.2,2.6-0.5,3.9-0.7l0.3,2C692.4,243.5,691.1,243.8,689.8,244z
				 M797.7,243.5c-1.3-0.3-2.6-0.6-3.9-0.9l0.4-2c1.3,0.3,2.6,0.6,3.9,0.9L797.7,243.5z M696.6,242.8l-0.3-2c1.3-0.2,2.6-0.4,4-0.6
				l0.3,2C699.3,242.4,698,242.6,696.6,242.8z M790.9,242.1c-1.3-0.2-2.6-0.5-3.9-0.7l0.3-2c1.3,0.2,2.7,0.5,4,0.7L790.9,242.1z
				 M703.6,241.7l-0.3-2c1.3-0.2,2.7-0.4,4-0.5l0.3,2C706.2,241.4,704.9,241.6,703.6,241.7z M784,241c-1.3-0.2-2.6-0.4-3.9-0.5
				l0.3-2c1.3,0.2,2.7,0.4,4,0.5L784,241z M710.5,240.8l-0.2-2c1.3-0.2,2.7-0.3,4-0.5l0.2,2C713.1,240.5,711.8,240.7,710.5,240.8z
				 M777.1,240.1c-1.3-0.1-2.6-0.3-4-0.4l0.2-2c1.3,0.1,2.7,0.3,4,0.4L777.1,240.1z M717.4,240.1l-0.2-2c1.3-0.1,2.7-0.3,4-0.4
				l0.2,2C720.1,239.8,718.8,239.9,717.4,240.1z M724.4,239.4l-0.2-2c1.3-0.1,2.7-0.2,4-0.3l0.1,2
				C727.1,239.2,725.7,239.3,724.4,239.4z M770.2,239.4c-1.3-0.1-2.6-0.2-4-0.3l0.1-2c1.3,0.1,2.7,0.2,4,0.3L770.2,239.4z
				 M731.4,239l-0.1-2c1.3-0.1,2.7-0.1,4-0.2l0.1,2C734,238.8,732.7,238.9,731.4,239z M763.2,238.9c-1.3-0.1-2.6-0.1-4-0.2l0.1-2
				c1.3,0.1,2.7,0.1,4,0.2L763.2,238.9z M738.3,238.7l-0.1-2c1.3,0,2.7-0.1,4-0.1v2C741,238.6,739.7,238.6,738.3,238.7z
				 M756.3,238.6c-1.3,0-2.7-0.1-4-0.1v-2c1.3,0,2.7,0,4,0.1V238.6z M745.3,238.5v-2c1,0,2,0,3,0h1.1v2h-1.1
				C747.3,238.5,746.3,238.5,745.3,238.5z"/>
		</g>
		<g id="XMLID_147_">
			<path id="XMLID_947_" class="st1" d="M832.2,422.8l-1.8-0.9l0.4-0.7l1.8,0.9L832.2,422.8z M833.9,419.3l-1.8-0.8
				c0.6-1.2,1.1-2.4,1.6-3.6l1.8,0.8C835,416.9,834.4,418.1,833.9,419.3z M836.6,412.8l-1.9-0.7c0.5-1.3,0.9-2.5,1.3-3.7l1.9,0.6
				C837.5,410.2,837.1,411.5,836.6,412.8z M838.8,406.1l-1.9-0.5c0.3-1.3,0.6-2.6,0.9-3.8l2,0.4
				C839.5,403.4,839.1,404.7,838.8,406.1z M840.2,399.1l-2-0.3c0.2-1.3,0.3-2.6,0.4-3.9l2,0.1C840.5,396.3,840.4,397.7,840.2,399.1z
				 M838.6,392c0-1.3-0.1-2.6-0.3-3.9l2-0.3c0.2,1.3,0.3,2.7,0.3,4.1L838.6,392z M837.7,385.3c-0.3-1.3-0.7-2.5-1.1-3.7l1.9-0.7
				c0.5,1.3,0.9,2.6,1.2,3.9L837.7,385.3z M835.5,379c-0.5-1.1-1.2-2.3-1.9-3.4l1.7-1.1c0.7,1.2,1.4,2.4,2,3.6L835.5,379z
				 M832,373.2c-0.8-1-1.6-2-2.5-2.9l1.4-1.4c1,1,1.8,2,2.7,3.1L832,373.2z M827.3,368.3c-0.9-0.8-1.9-1.7-3-2.5l1.2-1.6
				c1.1,0.8,2.2,1.7,3.1,2.6L827.3,368.3z M822,364.1c-1.1-0.7-2.2-1.4-3.3-2.1l1-1.7c1.2,0.7,2.3,1.4,3.4,2.2L822,364.1z
				 M816.1,360.5c-1.1-0.6-2.3-1.2-3.5-1.8l0.8-1.8c1.3,0.6,2.5,1.2,3.6,1.8L816.1,360.5z M809.8,357.6c-1.2-0.5-2.4-1-3.7-1.5
				l0.7-1.9c1.3,0.5,2.5,1,3.7,1.5L809.8,357.6z M803.4,355c-1.2-0.4-2.5-0.9-3.8-1.3l0.6-1.9c1.3,0.4,2.6,0.8,3.8,1.3L803.4,355z
				 M796.7,352.9c-1.3-0.4-2.5-0.7-3.8-1.1l0.5-1.9c1.3,0.4,2.6,0.7,3.9,1.1L796.7,352.9z M790,351.1c-1.3-0.3-2.6-0.6-3.9-0.9
				l0.5-1.9c1.3,0.3,2.6,0.6,3.9,1L790,351.1z M783.2,349.5c-1.3-0.3-2.6-0.6-3.9-0.8l0.4-2c1.3,0.3,2.6,0.5,3.9,0.8L783.2,349.5z
				 M776.4,348.1c-1.3-0.2-2.6-0.5-3.9-0.7l0.3-2c1.3,0.2,2.6,0.5,4,0.7L776.4,348.1z M769.5,346.8c-1.3-0.2-2.6-0.4-3.9-0.6l0.3-2
				c1.3,0.2,2.6,0.4,4,0.6L769.5,346.8z M762.6,345.7c-1.3-0.2-2.6-0.4-4-0.6l0.3-2c1.3,0.2,2.7,0.4,4,0.6L762.6,345.7z
				 M755.7,344.7c-1.3-0.2-2.6-0.4-4-0.5l0.3-2c1.3,0.2,2.7,0.3,4,0.5L755.7,344.7z M748.7,343.8c-1.3-0.2-2.7-0.3-4-0.5l0.2-2
				c1.3,0.2,2.7,0.3,4,0.5L748.7,343.8z M741.8,343c-1.3-0.2-2.7-0.3-4-0.5l0.2-2c1.3,0.1,2.7,0.3,4,0.5L741.8,343z M734.8,342.2
				l-4-0.4l0.2-2l4,0.4L734.8,342.2z M727.9,341.5l-4-0.4l0.2-2l4,0.4L727.9,341.5z M720.9,340.7l-4-0.4l0.2-2l4,0.4L720.9,340.7z
				 M713.9,340c-1.3-0.2-2.7-0.3-4-0.5l0.2-2c1.3,0.2,2.6,0.3,4,0.5L713.9,340z M707,339.2c-1.3-0.2-2.7-0.3-4-0.5l0.3-2
				c1.3,0.2,2.6,0.3,4,0.5L707,339.2z M700,338.3c-1.4-0.2-2.7-0.4-4-0.6l0.3-2c1.3,0.2,2.6,0.4,4,0.6L700,338.3z M693,337.3
				c-1.4-0.2-2.7-0.4-4-0.7l0.4-2c1.3,0.2,2.6,0.4,3.9,0.7L693,337.3z M686.1,336c-1.4-0.3-2.7-0.5-4-0.8l0.4-2
				c1.3,0.3,2.6,0.6,3.9,0.8L686.1,336z M679.2,334.5c-1.4-0.4-2.7-0.7-3.9-1.1l0.6-1.9c1.2,0.4,2.5,0.7,3.8,1.1L679.2,334.5z
				 M672.4,332.4c-1.4-0.5-2.6-1.1-3.8-1.6l0.9-1.8c1.1,0.5,2.3,1,3.6,1.5L672.4,332.4z M665.9,329.2c-1.3-0.8-2.4-1.8-3.2-2.7
				l1.5-1.3c0.7,0.8,1.7,1.6,2.8,2.4L665.9,329.2z M661,323.8c-0.5-1.1-0.8-2.4-0.8-3.7c0-0.2,0-0.4,0-0.5l2,0.1c0,0.1,0,0.3,0,0.4
				c0,1,0.2,2,0.6,2.9L661,323.8z M662.7,316.9l-2-0.4c0.3-1.3,0.5-2.6,0.8-3.9l2,0.4C663.2,314.3,663,315.6,662.7,316.9z
				 M664.1,310l-2-0.4l0.8-3.9l2,0.4L664.1,310z M665.5,303.2l-2-0.4c0.3-1.3,0.5-2.6,0.8-3.9l2,0.4
				C666,300.6,665.8,301.9,665.5,303.2z M667,296.3l-2-0.4c0.3-1.3,0.6-2.6,0.9-3.9l1.9,0.5C667.5,293.7,667.2,295,667,296.3z
				 M668.5,289.5l-1.9-0.5c0.3-1.3,0.6-2.6,1-3.9l1.9,0.5C669.2,287,668.8,288.2,668.5,289.5z M670.2,282.8l-1.9-0.5
				c0.3-1.3,0.7-2.6,1.1-3.9l1.9,0.5C670.9,280.2,670.6,281.5,670.2,282.8z M672.1,276l-1.9-0.6c0.4-1.3,0.8-2.6,1.2-3.8l1.9,0.6
				C672.9,273.5,672.5,274.8,672.1,276z M674.2,269.4l-1.9-0.6c0.4-1.3,0.9-2.5,1.3-3.8l1.9,0.7C675,266.9,674.6,268.1,674.2,269.4z
				 M676.5,262.8l-1.9-0.7c0.5-1.3,0.9-2.5,1.4-3.8l1.9,0.7C677.4,260.3,676.9,261.6,676.5,262.8z M679,256.3l-1.8-0.8
				c0.5-1.2,1-2.5,1.6-3.7l1.8,0.8C680.1,253.9,679.5,255.1,679,256.3z M681.8,250l-1.8-0.8c0.6-1.2,1.1-2.4,1.7-3.6l1.8,0.9
				C683,247.6,682.4,248.8,681.8,250z M868.5,248.3c0,0-0.7-1.3-2.1-3.4l1.7-1.1c1.4,2.2,2.1,3.4,2.2,3.5L868.5,248.3z M684.9,243.7
				l-1.8-0.9c0.6-1.2,1.3-2.4,1.9-3.5l1.7,1C686.2,241.4,685.5,242.6,684.9,243.7z M864.8,242.4c-0.7-1-1.4-2.1-2.2-3.3l1.6-1.1
				c0.8,1.2,1.6,2.3,2.3,3.3L864.8,242.4z M688.3,237.7l-1.7-1c0.7-1.2,1.4-2.3,2.1-3.4l1.7,1.1
				C689.6,235.4,688.9,236.5,688.3,237.7z M860.8,236.6c-0.7-1-1.5-2.1-2.3-3.2l1.6-1.2c0.8,1.1,1.6,2.2,2.4,3.3L860.8,236.6z
				 M691.9,231.7l-1.7-1.1c0.7-1.1,1.5-2.2,2.2-3.3l1.6,1.1C693.4,229.5,692.7,230.6,691.9,231.7z M856.6,231
				c-0.8-1-1.6-2.1-2.4-3.2l1.6-1.2c0.9,1.1,1.7,2.1,2.5,3.2L856.6,231z M695.9,226l-1.6-1.2c0.8-1.1,1.6-2.2,2.4-3.2l1.6,1.2
				C697.4,223.9,696.6,225,695.9,226z M852.3,225.5c-0.8-1-1.7-2-2.5-3.1l1.5-1.3c0.9,1,1.7,2.1,2.6,3.1L852.3,225.5z M700.1,220.5
				l-1.6-1.3c0.8-1,1.7-2.1,2.6-3.1l1.5,1.3C701.8,218.5,700.9,219.5,700.1,220.5z M847.9,220.1c-0.9-1-1.7-2-2.6-3l1.5-1.3
				c0.9,1,1.8,2,2.7,3L847.9,220.1z M704.6,215.2l-1.5-1.3c0.9-1,1.8-2,2.7-3l1.5,1.4C706.4,213.3,705.5,214.2,704.6,215.2z
				 M843.2,214.9c-0.9-1-1.8-1.9-2.7-2.9l1.4-1.4c0.9,1,1.9,2,2.8,2.9L843.2,214.9z M709.4,210.2l-1.4-1.4c0.9-0.9,1.9-1.9,2.9-2.8
				l1.4,1.4C711.2,208.3,710.3,209.2,709.4,210.2z M838.4,209.9c-0.9-0.9-1.9-1.9-2.8-2.8l1.4-1.4c1,0.9,1.9,1.9,2.9,2.8
				L838.4,209.9z M714.4,205.3l-1.3-1.5c1-0.9,2-1.8,3-2.7l1.3,1.5C716.3,203.6,715.3,204.5,714.4,205.3z M833.4,205
				c-1-0.9-1.9-1.8-2.9-2.7l1.3-1.5c1,0.9,2,1.8,3,2.7L833.4,205z M719.6,200.8l-1.3-1.5c1-0.8,2.1-1.7,3.1-2.5l1.2,1.6
				C721.6,199.1,720.6,199.9,719.6,200.8z M828.3,200.4c-1-0.9-2-1.7-3-2.6l1.3-1.6c1,0.9,2.1,1.7,3.1,2.6L828.3,200.4z M725,196.5
				l-1.2-1.6c1.1-0.8,2.1-1.6,3.2-2.4l1.2,1.6C727.2,194.9,726.1,195.7,725,196.5z M822.9,196c-1-0.8-2.1-1.6-3.2-2.4l1.2-1.6
				c1.1,0.8,2.2,1.6,3.2,2.4L822.9,196z M730.7,192.4l-1.1-1.6c1.1-0.8,2.2-1.5,3.3-2.2l1.1,1.7
				C732.9,190.9,731.8,191.7,730.7,192.4z M817.3,191.8c-1.1-0.8-2.2-1.5-3.3-2.2l1.1-1.7c1.1,0.7,2.2,1.5,3.4,2.3L817.3,191.8z
				 M736.5,188.6l-1.1-1.7c1.1-0.7,2.3-1.4,3.4-2.1l1,1.7C738.7,187.2,737.6,187.9,736.5,188.6z M811.5,188c-1.1-0.7-2.3-1.4-3.4-2
				l1-1.7c1.2,0.6,2.3,1.3,3.5,2L811.5,188z M742.5,185l-1-1.7c0.6-0.3,1.2-0.7,1.8-1c0.6-0.3,1.2-0.6,1.8-0.9l0.9,1.8
				c-0.6,0.3-1.1,0.6-1.7,0.9C743.6,184.4,743.1,184.7,742.5,185z M805.4,184.6c-1.2-0.6-2.4-1.2-3.6-1.7l0.8-1.8
				c1.2,0.6,2.4,1.2,3.6,1.8L805.4,184.6z M748.6,181.8l-0.8-1.8c1.2-0.6,2.5-1.1,3.7-1.6l0.7,1.9
				C751,180.7,749.8,181.2,748.6,181.8z M799.1,181.7c-1.2-0.5-2.5-1-3.7-1.4l0.7-1.9c1.3,0.5,2.5,1,3.8,1.5L799.1,181.7z
				 M792.6,179.3c-1.3-0.4-2.5-0.8-3.8-1.1l0.5-1.9c1.3,0.3,2.6,0.7,3.9,1.1L792.6,179.3z M755,179.2l-0.6-1.9
				c1.3-0.4,2.6-0.8,3.9-1.2l0.5,1.9C757.5,178.4,756.2,178.8,755,179.2z M786,177.5c-1.3-0.3-2.6-0.5-3.9-0.7l0.3-2
				c1.3,0.2,2.7,0.4,4,0.7L786,177.5z M761.6,177.4l-0.4-2c1.3-0.3,2.7-0.5,4-0.7l0.3,2C764.2,176.9,762.9,177.1,761.6,177.4z
				 M779.2,176.4c-1.3-0.1-2.6-0.2-3.9-0.3l0.1-2c1.3,0,2.7,0.1,4.1,0.3L779.2,176.4z M768.4,176.4l-0.2-2c1.3-0.1,2.7-0.2,4.1-0.2
				v2C771,176.2,769.7,176.3,768.4,176.4z"/>
		</g>
		<path id="XMLID_142_" class="st2" d="M1625.2,134.5c-4.3,0-8.3,0.9-12.1,2.5c-6.4-21-24.8-36.3-46.6-36.3
			c-22.8,0-41.9,16.6-47.4,39c-6.2-5.4-14.1-8.7-22.7-8.7c-17.9,0-32.8,14-35.4,32.4c-3.3-2.3-7.3-3.7-11.6-3.7
			c-11.7,0-21.1,10.1-21.1,22.5c0,11.9,8.2,21.7,19.2,22.4l180.1,1.1c17.9-2,30.7-17.2,30.7-35.7
			C1658.3,150.4,1643.6,134.5,1625.2,134.5z"/>
		<path id="XMLID_139_" class="st2" d="M943.2,239.5c-4.3,0-8.3,0.9-12.1,2.5c-6.4-21-24.8-36.3-46.6-36.3
			c-22.8,0-41.9,16.6-47.4,39c-6.2-5.4-14.1-8.7-22.7-8.7c-17.9,0-32.8,14-35.4,32.4c-3.3-2.3-7.3-3.7-11.6-3.7
			c-11.7,0-21.1,10.1-21.1,22.5c0,11.9,8.2,21.7,19.2,22.4l180.1,1.1c17.9-2,30.7-17.2,30.7-35.7
			C976.3,255.4,961.6,239.5,943.2,239.5z"/>
		<g id="XMLID_83_">
			<path id="XMLID_81_" class="st1" d="M2102.5,869.2l-2-2.3l1.4-1.2l-1.4-0.9c0.7-1.1,1.3-2.1,2-3.2l3.4,2.2c-0.7,1-1.3,2-2,3.1
				L2102.5,869.2z M1125.2,867.4l-0.8-3.6c-0.2-1.1-0.5-2.2-0.8-3.3l3.8-1.1c0.3,1.1,0.6,2.3,0.9,3.5l-1.3,0.3l1.2,1.2L1125.2,867.4
				z M2098.6,864.7c-0.9-1-1.8-1.9-2.7-2.8l2.8-2.9c1,0.9,1.9,1.9,2.9,2.9L2098.6,864.7z M1130.2,862.3l-2.7-2.9
				c1-0.9,2-1.9,3.1-2.7l2.5,3.1C1132.2,860.6,1131.2,861.4,1130.2,862.3z M2107.5,861.3l-3.3-2.2c0.8-1.1,1.5-2.2,2.3-3.3l3.3,2.3
				C2109,859.1,2108.2,860.2,2107.5,861.3z M2093.7,859.9c-1-0.9-2-1.7-3-2.5l2.5-3.1c1.1,0.9,2.1,1.8,3.1,2.7L2093.7,859.9z
				 M1135.4,858l-2.4-3.2c1.1-0.8,2.2-1.6,3.4-2.4l2.2,3.4C1137.5,856.4,1136.5,857.2,1135.4,858z M1122.7,857.7
				c-0.4-1.2-0.9-2.4-1.3-3.6l3.7-1.5c0.5,1.3,1,2.6,1.4,3.9L1122.7,857.7z M2111.5,855.6l-3.2-2.3c0.8-1.1,1.6-2.2,2.4-3.3l3.2,2.4
				C2113,853.5,2112.2,854.5,2111.5,855.6z M2088.5,855.6c-1-0.8-2.1-1.5-3.2-2.2l2.2-3.3c1.1,0.8,2.3,1.6,3.4,2.4L2088.5,855.6z
				 M1141.1,854.2l-2-3.5c1.2-0.7,2.4-1.3,3.6-2l1.8,3.6C1143.3,853,1142.2,853.6,1141.1,854.2z M1473.5,853.6l-2-2.4
				c-0.5-0.6-0.9-1.1-1.4-1.7l1.6-1.4c0.1-0.2,0.3-0.5,0.4-0.7l0.3,0.2l0.8-0.6c0.5,0.6,1,1.1,1.4,1.7h-0.1l1.1,0.6
				c-0.3,0.5-0.5,1-0.8,1.6L1473.5,853.6z M2082.8,851.8c-1.1-0.7-2.2-1.3-3.4-1.9l1.9-3.5c1.2,0.6,2.4,1.3,3.6,2L2082.8,851.8z
				 M1120.2,851.4c-0.5-1.2-1.1-2.3-1.7-3.5l3.5-1.9c0.6,1.2,1.3,2.5,1.8,3.7L1120.2,851.4z M1147.1,851.1l-1.6-3.7
				c1.2-0.5,2.5-1.1,3.8-1.5l1.4,3.8C1149.5,850.1,1148.3,850.6,1147.1,851.1z M2115.6,850.1l-3.2-2.5c0.8-1.1,1.7-2.1,2.5-3.2
				l3.1,2.5C2117.3,848,2116.4,849,2115.6,850.1z M1153.5,848.7l-1.2-3.8c1.3-0.4,2.6-0.8,4-1.1l1,3.9
				C1155.9,848,1154.7,848.4,1153.5,848.7z M2076.9,848.5c-1.2-0.6-2.3-1.1-3.5-1.6l1.6-3.7c1.3,0.5,2.5,1.1,3.7,1.7L2076.9,848.5z
				 M831.5,848.2l-2-2.4l1.4-1.2l-1.3-0.8c0.6-1,1.3-2.1,2-3.1l3.3,2.2c-0.6,1-1.3,2-1.9,3L831.5,848.2z M1468.2,847.3
				c-0.9-1-1.8-1.9-2.7-2.9l2.9-2.8c0.9,1,1.8,2,2.8,3L1468.2,847.3z M1160,847l-0.8-3.9c1.3-0.3,2.7-0.5,4-0.8l0.6,3.9
				C1162.6,846.5,1161.3,846.7,1160,847z M1477,846.7l-3.5-2c0.7-1.2,1.4-2.4,2.1-3.5l3.4,2.1C1478.4,844.5,1477.7,845.6,1477,846.7
				z M1166.8,845.8l-0.5-4c1.3-0.2,2.7-0.3,4.1-0.4l0.3,4C1169.3,845.6,1168,845.7,1166.8,845.8z M2070.6,845.8
				c-1.2-0.5-2.4-0.9-3.7-1.3l1.2-3.8c1.3,0.4,2.6,0.9,3.9,1.4L2070.6,845.8z M1117.1,845.4c-0.7-1.1-1.4-2.2-2.1-3.3l3.3-2.2
				c0.8,1.1,1.5,2.3,2.2,3.5L1117.1,845.4z M1173.6,845.3l-0.2-4c1.3-0.1,2.7-0.1,4.1-0.1v4C1176.2,845.2,1174.8,845.2,1173.6,845.3
				z M2020.1,845.2l-1.3-3.8c1.3-0.4,2.6-0.9,3.9-1.3l1.1,3.8C2022.5,844.3,2021.3,844.7,2020.1,845.2z M2120,844.7l-3.1-2.6
				c0.9-1,1.8-2.1,2.6-3.1l3,2.6C2121.7,842.7,2120.8,843.7,2120,844.7z M2064.1,843.7c-1.2-0.3-2.5-0.7-3.8-0.9l0.9-3.9
				c1.3,0.3,2.7,0.6,4,1L2064.1,843.7z M827.5,843.6c-0.9-0.9-1.8-1.9-2.7-2.8l2.8-2.9c1,1,1.9,1.9,2.9,2.9L827.5,843.6z
				 M2026.6,843.2l-1-3.9c1.3-0.3,2.7-0.6,4-0.9l0.8,3.9C2029.1,842.6,2027.8,842.9,2026.6,843.2z M2015.8,842.6
				c-0.7-1.1-1.4-2.2-2.2-3.3l3.3-2.3c0.8,1.1,1.5,2.2,2.3,3.4L2015.8,842.6z M1181.3,842.5l-3.7-1.6c0.5-1.3,1.1-2.5,1.8-3.7
				l3.6,1.8C1182.4,840.1,1181.8,841.3,1181.3,842.5z M1463.4,842.3c-0.9-0.9-1.9-1.9-2.8-2.8l2.8-2.9c1,0.9,2,1.9,2.9,2.8
				L1463.4,842.3z M2057.5,842.1c-1.3-0.2-2.6-0.4-3.8-0.6l0.5-4c1.4,0.2,2.7,0.4,4.1,0.6L2057.5,842.1z M2033.3,841.9l-0.6-4
				c1.3-0.2,2.7-0.4,4.1-0.5l0.4,4C2035.8,841.5,2034.5,841.7,2033.3,841.9z M2050.7,841.3c-1.3-0.1-2.6-0.2-3.9-0.2l0.1-4
				c1.4,0,2.7,0.1,4.1,0.2L2050.7,841.3z M2040,841.1l-0.2-4c1.4-0.1,2.7-0.1,4.1-0.1v4C2042.6,841,2041.3,841.1,2040,841.1z
				 M1480.7,840.9l-3.3-2.3c0.8-1.1,1.6-2.2,2.4-3.3l3.2,2.4C1482.2,838.8,1481.4,839.9,1480.7,840.9z M836.5,840.5l-3.3-2.3
				c0.8-1.1,1.6-2.2,2.4-3.3l3.2,2.4C838,838.3,837.2,839.4,836.5,840.5z M1113.3,839.7c-0.8-1-1.6-2-2.4-3l3.1-2.6
				c0.9,1.1,1.7,2.1,2.6,3.2L1113.3,839.7z M2124.5,839.5l-3-2.7c0.9-1,1.9-2,2.8-3l2.9,2.8C2126.4,837.6,2125.5,838.5,2124.5,839.5
				z M822.6,838.8c-1-0.9-1.9-1.7-3-2.5l2.5-3.1c1.1,0.9,2.1,1.8,3.1,2.7L822.6,838.8z M1458.5,837.5c-1-0.9-2-1.7-3-2.6l2.6-3
				c1,0.9,2,1.8,3,2.7L1458.5,837.5z M2012,836.9c-0.8-1.1-1.6-2.1-2.4-3.1l3.1-2.5c0.8,1.1,1.7,2.1,2.5,3.2L2012,836.9z
				 M1184.3,836.4l-3.5-2c0.7-1.2,1.4-2.4,2.1-3.5l3.4,2.2C1185.6,834.2,1185,835.3,1184.3,836.4z M1484.7,835.4l-3.1-2.5
				c0.9-1.1,1.7-2.1,2.6-3.1l3,2.7C1486.4,833.4,1485.5,834.4,1484.7,835.4z M840.6,834.9l-3.1-2.5c0.8-1,1.7-2.1,2.6-3.2l3.1,2.6
				C842.2,832.9,841.4,833.9,840.6,834.9z M1109,834.5c-0.9-0.9-1.8-1.9-2.7-2.8l2.8-2.9c1,0.9,2,1.9,2.9,2.9L1109,834.5z
				 M817.4,834.5c-1-0.8-2.1-1.5-3.2-2.2l2.2-3.3c1.1,0.8,2.3,1.5,3.4,2.4L817.4,834.5z M2129.3,834.5l-2.8-2.8c1-1,1.9-1.9,2.9-2.8
				l2.8,2.9C2131.2,832.6,2130.3,833.6,2129.3,834.5z M1453.2,833c-1-0.8-2-1.6-3.1-2.4l2.4-3.2c1.1,0.8,2.1,1.7,3.2,2.5L1453.2,833
				z M2007.7,831.5c-0.8-1-1.7-2-2.6-3l3-2.7c0.9,1,1.8,2,2.7,3.1L2007.7,831.5z M811.7,830.7c-1.1-0.7-2.2-1.3-3.4-1.9l1.9-3.5
				c1.2,0.7,2.4,1.3,3.6,2L811.7,830.7z M1188,830.7l-3.2-2.3c0.8-1.1,1.6-2.2,2.5-3.3l3.1,2.5
				C1189.5,828.6,1188.7,829.6,1188,830.7z M1489.2,830.3l-2.9-2.8c0.9-1,1.9-2,2.9-2.9l2.8,2.9
				C1491.1,828.4,1490.1,829.4,1489.2,830.3z M1104.1,829.8c-1-0.8-2-1.7-3-2.5l2.4-3.2c1.1,0.8,2.2,1.7,3.2,2.6L1104.1,829.8z
				 M2134.3,829.7l-2.7-3c1-0.9,2-1.8,3-2.7l2.6,3C2136.3,828,2135.3,828.8,2134.3,829.7z M845,829.6l-3-2.6c0.9-1,1.8-2,2.7-3
				l2.9,2.7C846.7,827.7,845.8,828.7,845,829.6z M1290.7,829c-0.8-1-1.6-2-2.5-3l3-2.6c0.9,1,1.8,2.1,2.6,3.2L1290.7,829z
				 M1447.8,828.8c-1.1-0.8-2.1-1.5-3.2-2.3l2.3-3.3c1.1,0.8,2.2,1.5,3.3,2.3L1447.8,828.8z M1295.8,828.4l-2.3-3.2
				c1.1-0.8,2.2-1.6,3.3-2.3l2.2,3.3C1297.9,826.9,1296.8,827.7,1295.8,828.4z M805.8,827.4c-1.2-0.6-2.3-1.1-3.5-1.6l1.6-3.7
				c1.3,0.5,2.5,1.1,3.7,1.7L805.8,827.4z M2003.2,826.3c-0.9-1-1.8-1.9-2.7-2.8l2.8-2.8c0.9,0.9,1.9,1.9,2.8,2.9L2003.2,826.3z
				 M1025.1,825.7l-2.3-3.3c1.1-0.8,2.3-1.6,3.4-2.3l2.1,3.4C1027.2,824.2,1026.1,825,1025.1,825.7z M1098.8,825.6
				c-1.1-0.7-2.1-1.5-3.2-2.1l2.1-3.4c1.2,0.7,2.3,1.5,3.4,2.3L1098.8,825.6z M1494.1,825.5l-2.7-3c1-0.9,2.1-1.8,3.1-2.7l2.5,3.1
				C1496.1,823.8,1495.1,824.7,1494.1,825.5z M1192.2,825.4l-3-2.7c0.9-1,1.9-2,2.8-3l2.8,2.8C1194,823.5,1193.1,824.4,1192.2,825.4
				z M2139.5,825.2l-2.5-3.1c1.1-0.9,2.2-1.7,3.2-2.5l2.4,3.2C2141.6,823.6,2140.6,824.4,2139.5,825.2z M1442.1,824.9
				c-1.1-0.7-2.2-1.4-3.3-2.1l2.1-3.4c1.2,0.7,2.3,1.4,3.4,2.2L1442.1,824.9z M799.5,824.7c-1.2-0.5-2.4-0.9-3.7-1.3l1.2-3.8
				c1.3,0.4,2.6,0.9,3.9,1.4L799.5,824.7z M849.7,824.6l-2.8-2.8c1-1,1.9-1.9,2.9-2.8l2.8,2.9C851.5,822.8,850.6,823.7,849.7,824.6z
				 M1020.3,824.6c-0.9-0.9-1.9-1.8-2.8-2.8l2.8-2.9c1,0.9,2,1.9,2.9,2.8L1020.3,824.6z M1301.5,824.5l-2.2-3.4
				c1.1-0.7,2.3-1.4,3.4-2.1l2.1,3.4C1303.7,823.1,1302.6,823.8,1301.5,824.5z M749,824.2l-1.3-3.8c1.3-0.5,2.6-0.9,3.9-1.3l1.1,3.8
				C751.4,823.4,750.2,823.8,749,824.2z M1286.3,823.8c-0.9-0.9-1.8-1.9-2.8-2.7l2.7-2.9c1,0.9,2,1.9,2.9,2.9L1286.3,823.8z
				 M793,822.6c-1.2-0.3-2.5-0.7-3.8-0.9l0.9-3.9c1.3,0.3,2.7,0.6,4,1L793,822.6z M755.5,822.2l-1-3.9c1.3-0.3,2.7-0.6,4-0.9
				l0.8,3.9C758,821.6,756.7,821.9,755.5,822.2z M1030.8,822.1l-2-3.5c1.2-0.7,2.4-1.3,3.7-1.9l1.7,3.6
				C1033.1,820.9,1032,821.5,1030.8,822.1z M1093,822c-1.1-0.6-2.3-1.2-3.4-1.8l1.7-3.6c1.2,0.6,2.5,1.2,3.7,1.9L1093,822z
				 M744.8,821.5c-0.7-1.1-1.4-2.2-2.2-3.3l3.3-2.3c0.8,1.1,1.5,2.2,2.3,3.4L744.8,821.5z M1998.3,821.5c-1-0.9-1.9-1.8-2.9-2.7
				l2.7-3c1,0.9,2,1.8,3,2.8L1998.3,821.5z M1436.2,821.3c-1.1-0.7-2.3-1.3-3.4-1.9l1.9-3.5c1.2,0.6,2.4,1.3,3.5,2L1436.2,821.3z
				 M1499.4,821.2l-2.4-3.2c1.1-0.8,2.2-1.6,3.3-2.4l2.3,3.3C1501.5,819.6,1500.4,820.4,1499.4,821.2z M786.4,821.1
				c-1.3-0.2-2.6-0.4-3.9-0.6l0.5-4c1.4,0.2,2.7,0.4,4.1,0.6L786.4,821.1z M2145,821.1l-2.3-3.3c1.2-0.8,2.3-1.6,3.4-2.3l2.1,3.4
				C2147.2,819.6,2146.1,820.3,2145,821.1z M1307.4,821l-2-3.5c1.2-0.7,2.4-1.3,3.6-2l1.9,3.5C1309.7,819.7,1308.5,820.3,1307.4,821
				z M762.2,820.9l-0.6-4c1.3-0.2,2.7-0.4,4.1-0.5l0.4,4C764.7,820.5,763.4,820.7,762.2,820.9z M1197,820.6l-2.7-3
				c1-0.9,2.1-1.8,3.1-2.7l2.5,3.1C1199,818.9,1198,819.7,1197,820.6z M779.6,820.3c-1.3-0.1-2.6-0.2-3.9-0.2l0.1-4
				c1.4,0,2.7,0.1,4.1,0.2L779.6,820.3z M768.9,820.1l-0.2-4c1.4-0.1,2.7-0.1,4.1-0.1v4C771.5,820,770.2,820.1,768.9,820.1z
				 M854.7,819.9l-2.7-3c1-0.9,2-1.8,3.1-2.7l2.6,3.1C856.6,818.1,855.6,819,854.7,819.9z M1015.3,819.9c-1-0.9-2-1.7-3-2.6l2.6-3.1
				c1,0.9,2.1,1.8,3.1,2.7L1015.3,819.9z M1281.4,819.2c-1-0.8-2-1.6-3-2.4l2.4-3.2c1.1,0.8,2.2,1.7,3.2,2.6L1281.4,819.2z
				 M1036.9,819.1l-1.6-3.7c1.3-0.5,2.5-1,3.8-1.5l1.3,3.8C1039.3,818.1,1038.1,818.6,1036.9,819.1z M1086.9,819
				c-1.2-0.5-2.4-1-3.6-1.4l1.3-3.8c1.3,0.5,2.6,1,3.8,1.5L1086.9,819z M1430.2,818c-1.2-0.6-2.3-1.2-3.5-1.7l1.7-3.6
				c1.2,0.6,2.4,1.2,3.6,1.8L1430.2,818z M1313.4,817.7l-1.8-3.6c1.2-0.6,2.4-1.2,3.7-1.8l1.7,3.6
				C1315.8,816.6,1314.6,817.1,1313.4,817.7z M2150.7,817.4l-2-3.5c1.3-0.7,2.5-1.4,3.7-1.9l1.7,3.6
				C2153.1,816.2,2151.9,816.7,2150.7,817.4z M1505,817.3l-2.2-3.4c1.2-0.7,2.3-1.5,3.5-2.1l2,3.5
				C1507.2,815.9,1506.1,816.6,1505,817.3z M1993.2,816.9c-1-0.8-2-1.7-3.1-2.5l2.5-3.1c1.1,0.8,2.1,1.7,3.2,2.6L1993.2,816.9z
				 M1043.3,816.8l-1.2-3.8c1.3-0.4,2.6-0.8,4-1.1l0.9,3.9C1045.8,816.1,1044.5,816.4,1043.3,816.8z M1080.6,816.7
				c-1.2-0.4-2.5-0.7-3.7-1l0.9-3.9c1.3,0.3,2.7,0.7,4,1.1L1080.6,816.7z M1202.3,816.3l-2.4-3.2c1.1-0.8,2.2-1.6,3.4-2.3l2.2,3.4
				C1204.4,814.8,1203.3,815.5,1202.3,816.3z M740.9,815.9c-0.8-1-1.6-2.1-2.4-3.1l3.1-2.5c0.8,1.1,1.7,2.2,2.5,3.2L740.9,815.9z
				 M859.9,815.4l-2.5-3.1c1.1-0.8,2.1-1.7,3.2-2.5l2.4,3.2C862,813.8,860.9,814.6,859.9,815.4z M1010.1,815.4
				c-1-0.8-2.1-1.6-3.1-2.4l2.4-3.2c1.1,0.8,2.2,1.6,3.2,2.5L1010.1,815.4z M1049.9,815.1l-0.8-3.9c1.3-0.3,2.7-0.5,4.1-0.7l0.5,4
				C1052.4,814.7,1051.1,814.9,1049.9,815.1z M1074,815.1c-1.3-0.2-2.6-0.4-3.8-0.6l0.5-4c1.4,0.2,2.7,0.4,4.1,0.6L1074,815.1z
				 M1424,815.1c-1.2-0.5-2.4-1-3.6-1.5l1.5-3.7c1.3,0.5,2.5,1,3.7,1.6L1424,815.1z M1276,815.1c-1.1-0.7-2.2-1.4-3.3-2.1l2-3.4
				c1.2,0.7,2.3,1.4,3.5,2.2L1276,815.1z M1319.7,814.8l-1.6-3.7c1.2-0.5,2.5-1.1,3.7-1.6l1.5,3.7
				C1322.1,813.8,1320.9,814.3,1319.7,814.8z M2156.7,814.6l-1.3-3.8c1.7-0.6,3.2-0.9,4.5-0.9v4C2159.1,814,2158,814.2,2156.7,814.6
				z M1056.6,814.2l-0.3-4c1.4-0.1,2.7-0.2,4.1-0.2l0.1,4C1059.2,814,1057.9,814.1,1056.6,814.2z M1067.3,814.2
				c-1.3-0.1-2.6-0.2-3.9-0.2l0.1-4c1.4,0,2.8,0.1,4.1,0.2L1067.3,814.2z M1510.9,813.8l-1.9-3.5c1.2-0.6,2.4-1.3,3.7-1.8l1.7,3.6
				C1513.3,812.6,1512.1,813.2,1510.9,813.8z M1987.8,812.6c-1-0.8-2.1-1.5-3.2-2.3l2.3-3.3c1.1,0.8,2.2,1.6,3.3,2.4L1987.8,812.6z
				 M1208,812.6l-2-3.5c1.2-0.7,2.4-1.3,3.6-2l1.8,3.6C1210.2,811.3,1209.1,811.9,1208,812.6z M1417.6,812.4
				c-1.2-0.5-2.5-0.9-3.7-1.3l1.3-3.8c1.3,0.4,2.6,0.9,3.8,1.4L1417.6,812.4z M1587.2,812.4c-1.2-0.6-2.4-1.1-3.6-1.6l1.6-3.7
				c0.8,0.4,1.6,0.7,2.5,1.1c0.3-1.2,0.7-2.4,1-3.5l3.8,1.2c-0.4,1.3-0.8,2.5-1.1,3.8l-2.5-0.7L1587.2,812.4z M1326.1,812.2
				l-1.4-3.7c1.3-0.5,2.5-0.9,3.8-1.4l1.3,3.8C1328.5,811.3,1327.3,811.7,1326.1,812.2z M1270.2,811.5c-1.1-0.6-2.3-1.2-3.5-1.7
				l1.7-3.6c1.2,0.6,2.5,1.2,3.7,1.8L1270.2,811.5z M865.4,811.2l-2.3-3.3c1.1-0.8,2.2-1.6,3.3-2.3l2.2,3.3
				C867.5,809.7,866.5,810.5,865.4,811.2z M1004.6,811.2c-1.1-0.8-2.1-1.5-3.2-2.2l2.2-3.3c1.1,0.8,2.2,1.5,3.3,2.3L1004.6,811.2z
				 M1517.1,810.9l-1.6-3.7c1.3-0.5,2.5-1.1,3.8-1.5l1.4,3.7C1519.5,809.8,1518.3,810.3,1517.1,810.9z M736.7,810.4
				c-0.8-1-1.7-2-2.6-3l3-2.7c0.9,1,1.8,2,2.7,3.1L736.7,810.4z M1411.1,810.2c-1.2-0.4-2.5-0.8-3.8-1.1l1.1-3.8
				c1.3,0.4,2.6,0.8,3.9,1.2L1411.1,810.2z M1332.6,809.9l-1.2-3.8c1.3-0.4,2.6-0.8,3.9-1.2l1.1,3.9
				C1335.1,809.2,1333.8,809.6,1332.6,809.9z M1580.9,809.6c-1.2-0.5-2.4-0.9-3.7-1.3l1.3-3.8c1.3,0.4,2.6,0.9,3.8,1.4L1580.9,809.6
				z M1214,809.5l-1.6-3.7c1.2-0.6,2.5-1.1,3.8-1.6l1.4,3.7C1216.4,808.5,1215.2,809,1214,809.5z M1982.2,808.7
				c-1.1-0.7-2.2-1.4-3.3-2.1l2.1-3.4c1.1,0.7,2.3,1.4,3.4,2.2L1982.2,808.7z M1264,808.7c-1.2-0.5-2.4-0.9-3.6-1.3l1.3-3.8
				c1.3,0.4,2.6,0.9,3.9,1.4L1264,808.7z M1523.5,808.4l-1.3-3.8c1.3-0.4,2.6-0.8,3.9-1.2l1.1,3.8
				C1526,807.6,1524.7,808,1523.5,808.4z M1404.5,808.2c-1.3-0.3-2.5-0.6-3.8-0.9l0.9-3.9c1.3,0.3,2.6,0.6,3.9,1L1404.5,808.2z
				 M1339.2,808.1l-1-3.9c1.3-0.3,2.6-0.7,4-1l0.9,3.9C1341.8,807.4,1340.5,807.7,1339.2,808.1z M1574.5,807.4
				c-1.2-0.4-2.5-0.7-3.8-1l1-3.9c1.3,0.3,2.6,0.7,3.9,1.1L1574.5,807.4z M871.1,807.4L869,804c1.1-0.7,2.3-1.4,3.5-2.1l2,3.5
				C873.3,806,872.2,806.7,871.1,807.4z M998.9,807.4c-1.1-0.7-2.2-1.4-3.4-2l2-3.5c1.2,0.7,2.3,1.4,3.5,2.1L998.9,807.4z
				 M1220.4,807.1l-1.2-3.8c1.3-0.4,2.6-0.8,4-1.1l1,3.9C1222.8,806.3,1221.6,806.7,1220.4,807.1z M1397.8,806.7
				c-1.3-0.3-2.6-0.5-3.9-0.7l0.7-3.9c1.3,0.2,2.7,0.5,4,0.8L1397.8,806.7z M1345.9,806.5l-0.8-3.9c1.3-0.3,2.7-0.5,4-0.7l0.7,3.9
				C1348.5,806,1347.2,806.3,1345.9,806.5z M1530.1,806.5l-1-3.9c1.3-0.3,2.7-0.6,4-0.9l0.8,3.9
				C1532.6,805.9,1531.3,806.2,1530.1,806.5z M1257.6,806.5c-1.2-0.4-2.5-0.7-3.8-1l0.9-3.9c1.3,0.3,2.7,0.6,4,1L1257.6,806.5z
				 M1567.8,805.8c-1.3-0.3-2.6-0.5-3.8-0.7l0.6-3.9c1.3,0.2,2.7,0.5,4,0.7L1567.8,805.8z M1391,805.5c-1.3-0.2-2.6-0.4-3.9-0.5
				l0.5-4c1.3,0.2,2.7,0.3,4,0.5L1391,805.5z M1352.7,805.3l-0.6-4c1.3-0.2,2.7-0.4,4-0.5l0.5,4C1355.3,805,1354,805.2,1352.7,805.3
				z M1226.9,805.3l-0.8-3.9c1.3-0.3,2.7-0.5,4.1-0.7l0.6,4C1229.4,804.9,1228.2,805.1,1226.9,805.3z M732.1,805.3
				c-0.9-1-1.8-1.9-2.7-2.8l2.8-2.8c1,1,1.9,1.9,2.8,2.9L732.1,805.3z M1536.8,805.1l-0.6-3.9c1.3-0.2,2.7-0.4,4.1-0.6l0.5,4
				C1539.3,804.7,1538,804.9,1536.8,805.1z M1976.3,805.1c-1.1-0.6-2.3-1.3-3.4-1.9l1.9-3.5c1.2,0.6,2.4,1.3,3.6,2L1976.3,805.1z
				 M1251,804.9c-1.3-0.2-2.6-0.4-3.8-0.5l0.4-4c1.4,0.2,2.7,0.3,4.1,0.6L1251,804.9z M1561.1,804.7c-1.3-0.2-2.6-0.3-3.9-0.4l0.3-4
				c1.4,0.1,2.7,0.2,4.1,0.4L1561.1,804.7z M1384.2,804.6c-1.3-0.1-2.6-0.2-3.9-0.3l0.3-4c1.4,0.1,2.7,0.2,4,0.3L1384.2,804.6z
				 M1359.6,804.5l-0.4-4c1.3-0.1,2.7-0.2,4.1-0.3l0.2,4C1362.2,804.3,1360.9,804.4,1359.6,804.5z M1233.6,804.3l-0.4-4
				c1.4-0.1,2.7-0.2,4.1-0.3l0.2,4C1236.2,804.1,1234.9,804.2,1233.6,804.3z M1543.5,804.3l-0.3-4c1.4-0.1,2.7-0.2,4.1-0.2l0.1,4
				C1546.2,804.1,1544.8,804.2,1543.5,804.3z M1244.3,804.1c-1.3-0.1-2.6-0.1-3.9-0.1v-4c1.4,0,2.8,0.1,4.1,0.1L1244.3,804.1z
				 M1377.3,804.1c-1.3-0.1-2.6-0.1-3.9-0.1l0.1-4c1.4,0,2.7,0.1,4.1,0.1L1377.3,804.1z M1366.5,804.1l-0.2-4
				c1.3-0.1,2.7-0.1,4.1-0.1v4C1369.1,804,1367.8,804,1366.5,804.1z M1554.3,804.1c-1.2-0.1-2.5-0.1-3.8-0.1h-0.1v-4h0.1
				c1.3,0,2.7,0,4,0.1L1554.3,804.1z M993,803.9c-1.1-0.6-2.3-1.2-3.5-1.8l1.8-3.6c1.2,0.6,2.4,1.3,3.6,1.9L993,803.9z M877,803.9
				l-1.9-3.5c1.2-0.7,2.4-1.3,3.6-1.9l1.8,3.6C879.3,802.6,878.2,803.3,877,803.9z M1593.4,803l-3.8-1.3c0.4-1.3,0.9-2.6,1.3-3.8
				l3.8,1.4C1594.3,800.5,1593.9,801.8,1593.4,803z M1970.3,801.8c-1.2-0.6-2.4-1.1-3.5-1.7l1.7-3.6c1.2,0.6,2.5,1.1,3.7,1.7
				L1970.3,801.8z M986.8,800.7c-1.2-0.6-2.4-1.1-3.6-1.6l1.6-3.7c1.2,0.5,2.5,1.1,3.7,1.7L986.8,800.7z M883.2,800.7l-1.7-3.6
				c1.2-0.6,2.5-1.2,3.7-1.7l1.6,3.7C885.5,799.6,884.3,800.2,883.2,800.7z M727.3,800.4c-0.9-0.9-1.9-1.8-2.9-2.7l2.7-3
				c1,0.9,2,1.8,3,2.7L727.3,800.4z M1964,799c-1.2-0.5-2.4-1-3.6-1.5l1.4-3.7c1.3,0.5,2.5,1,3.8,1.5L1964,799z M980.6,798
				c-1.2-0.5-2.4-1-3.7-1.4l1.4-3.7c1.3,0.5,2.5,1,3.8,1.5L980.6,798z M889.5,797.9l-1.5-3.7c1.3-0.5,2.5-1,3.8-1.5l1.4,3.7
				C891.9,797,890.7,797.4,889.5,797.9z M1595.8,796.5l-3.7-1.4c0.5-1.3,1-2.5,1.5-3.7l3.7,1.5
				C1596.7,794.1,1596.3,795.3,1595.8,796.5z M1957.6,796.5c-1.2-0.4-2.5-0.9-3.7-1.2l1.2-3.8c1.3,0.4,2.6,0.8,3.9,1.3L1957.6,796.5
				z M722.1,795.8c-1-0.8-2-1.7-3.1-2.5l2.5-3.1c1.1,0.8,2.1,1.7,3.2,2.6L722.1,795.8z M974.1,795.5c-1.2-0.4-2.5-0.8-3.7-1.2
				l1.2-3.8c1.3,0.4,2.6,0.8,3.9,1.3L974.1,795.5z M895.9,795.5l-1.3-3.8c1.3-0.4,2.6-0.9,3.9-1.3l1.2,3.8
				C898.4,794.7,897.1,795.1,895.9,795.5z M1951.1,794.4c-1.2-0.4-2.5-0.7-3.8-1l1-3.9c1.3,0.3,2.6,0.7,3.9,1.1L1951.1,794.4z
				 M967.6,793.5c-1.3-0.4-2.5-0.7-3.8-1l1-3.9c1.3,0.3,2.6,0.7,3.9,1L967.6,793.5z M902.5,793.5l-1.1-3.9c1.3-0.4,2.6-0.7,3.9-1
				l1,3.9C905,792.8,903.8,793.1,902.5,793.5z M1944.4,792.7c-0.6-0.1-1.2-0.3-1.8-0.4l-1.6-0.3v-1.7c0-0.6,0-1.2,0-1.8v-0.2h4v0.2
				c0,0.1,0,0.2,0,0.3c0.1,0,0.2,0,0.3,0.1l-0.3,1.3c0,0.1,0,0.2,0,0.3h-0.1L1944.4,792.7z M960.9,791.8c-1.3-0.3-2.6-0.5-3.9-0.8
				l0.7-3.9c1.3,0.2,2.7,0.5,4,0.8L960.9,791.8z M909.2,791.8l-0.9-3.9c1.3-0.3,2.7-0.6,4-0.8l0.7,3.9
				C911.8,791.2,910.5,791.5,909.2,791.8z M716.7,791.5c-1-0.8-2.1-1.5-3.2-2.3l2.3-3.3c1.1,0.8,2.2,1.6,3.3,2.4L716.7,791.5z
				 M954.2,790.5c-1.3-0.2-2.6-0.4-3.9-0.6l0.5-4c1.3,0.2,2.7,0.4,4,0.6L954.2,790.5z M916,790.5l-0.6-4c1.3-0.2,2.7-0.4,4-0.6
				l0.5,4C918.6,790.1,917.3,790.3,916,790.5z M1598.4,790.2l-3.7-1.6c0.5-1.2,1.1-2.5,1.7-3.7l3.6,1.7
				C1599.5,787.8,1599,789,1598.4,790.2z M947.3,789.6c-1.3-0.1-2.6-0.2-3.9-0.3l0.3-4c1.4,0.1,2.7,0.2,4,0.3L947.3,789.6z
				 M922.8,789.6l-0.4-4c1.3-0.1,2.7-0.2,4.1-0.3l0.3,4C925.4,789.4,924.1,789.5,922.8,789.6z M940.5,789.1
				c-1.3-0.1-2.6-0.1-3.9-0.1l0.1-4c1.4,0,2.7,0.1,4.1,0.1L940.5,789.1z M929.7,789.1l-0.2-4c1.3-0.1,2.7-0.1,4.1-0.1v4
				C932.3,789,931,789.1,929.7,789.1z M711.1,787.6c-1.1-0.7-2.2-1.4-3.3-2.1l2.1-3.4c1.2,0.7,2.3,1.4,3.4,2.2L711.1,787.6z
				 M1940.9,785.4c-0.1-1.3-0.2-2.6-0.3-3.9l4-0.4c0.1,1.4,0.3,2.7,0.3,4.1L1940.9,785.4z M705.2,784c-1.1-0.6-2.3-1.3-3.4-1.9
				l1.9-3.5c1.2,0.6,2.4,1.3,3.6,2L705.2,784z M1601.4,784l-3.6-1.8c0.6-1.2,1.2-2.4,1.9-3.6l3.5,1.9
				C1602.6,781.6,1602,782.8,1601.4,784z M699.2,780.8c-1.2-0.6-2.4-1.1-3.6-1.7l1.6-3.6c1.2,0.6,2.5,1.1,3.7,1.7L699.2,780.8z
				 M1940.2,778.6c-0.2-1.3-0.4-2.6-0.7-3.8l3.9-0.9c0.3,1.3,0.5,2.7,0.8,4L1940.2,778.6z M692.9,777.9c-1.2-0.5-2.4-1-3.6-1.5
				l1.4-3.7c1.3,0.5,2.5,1,3.8,1.5L692.9,777.9z M1604.6,777.9l-3.5-2c0.7-1.2,1.3-2.3,2-3.5l3.4,2.1
				C1605.9,775.6,1605.3,776.7,1604.6,777.9z M686.5,775.5c-1.2-0.4-2.5-0.8-3.7-1.2l1.2-3.8c1.3,0.4,2.6,0.8,3.9,1.3L686.5,775.5z
				 M680,773.4c-1.2-0.4-2.5-0.7-3.8-1l1-3.9c1.3,0.3,2.6,0.7,3.9,1L680,773.4z M1938.8,772c-0.3-1.2-0.7-2.5-1.1-3.7l3.8-1.3
				c0.4,1.3,0.8,2.6,1.2,3.9L1938.8,772z M1608.1,772l-3.4-2.1c0.7-1.1,1.5-2.3,2.2-3.4l3.3,2.2
				C1609.5,769.7,1608.8,770.9,1608.1,772z M673.3,771.7c-0.6-0.1-1.1-0.2-1.7-0.4L670,771v-1.7c0-0.6,0-1.2,0-1.8v-0.3h4v0.3
				c0,0.1,0,0.2,0,0.2c0.1,0,0.1,0,0.2,0l-0.2,0.8c0,0.3,0,0.6,0,0.9h-0.2L673.3,771.7z M1611.9,766.2l-3.3-2.3
				c0.8-1.1,1.6-2.2,2.4-3.3l3.2,2.4C1613.5,764.1,1612.7,765.1,1611.9,766.2z M1936.7,765.5c-0.5-1.2-1-2.4-1.5-3.6l3.6-1.7
				c0.6,1.2,1.1,2.5,1.6,3.8L1936.7,765.5z M669.9,764.3c-0.1-1.3-0.2-2.6-0.3-3.9l4-0.4c0.2,1.4,0.3,2.7,0.3,4.1L669.9,764.3z
				 M1616,760.7l-3.2-2.4c0.8-1.1,1.7-2.1,2.5-3.2l3.1,2.5C1617.6,758.6,1616.8,759.6,1616,760.7z M1933.9,759.3
				c-0.6-1.1-1.2-2.3-1.9-3.4l3.4-2.1c0.7,1.2,1.4,2.4,2,3.6L1933.9,759.3z M328.9,758.4c-1.1-0.4-2.3-0.9-3.6-1.4l1.4-3.8
				c1.4,0.5,2.6,1,3.7,1.4c0.6-1,1.2-2.1,1.8-3.1l3.4,2.1c-0.7,1.1-1.3,2.3-2,3.4l-3.3-1.9L328.9,758.4z M669.2,757.5
				c-0.2-1.3-0.4-2.5-0.7-3.8l3.9-0.9c0.3,1.3,0.6,2.7,0.8,4L669.2,757.5z M322.4,756c-1.2-0.4-2.5-0.8-3.8-1.2l1.2-3.8
				c1.4,0.4,2.6,0.8,3.9,1.2L322.4,756z M1620.4,755.3l-3.1-2.6c0.9-1,1.8-2,2.7-3.1l3,2.7C1622.1,753.3,1621.2,754.3,1620.4,755.3z
				 M315.8,753.9c-1.2-0.4-2.5-0.7-3.8-1.1l1.1-3.8c1.3,0.4,2.6,0.8,3.9,1.1L315.8,753.9z M1930.5,753.5c-0.7-1.1-1.5-2.1-2.2-3.2
				l3.2-2.4c0.8,1.1,1.6,2.2,2.4,3.4L1930.5,753.5z M309.1,752c-1.3-0.3-2.5-0.7-3.8-1l1-3.9c1.3,0.3,2.6,0.7,3.9,1L309.1,752z
				 M337.1,751.1l-3.4-2.1c0.7-1.1,1.5-2.3,2.2-3.4l3.3,2.2C338.5,748.8,337.8,749.9,337.1,751.1z M667.8,750.9
				c-0.3-1.2-0.7-2.5-1.1-3.7l3.8-1.3c0.4,1.3,0.8,2.6,1.2,3.9L667.8,750.9z M302.3,750.2c-1.3-0.3-2.6-0.7-3.9-1l1-3.9
				c1.3,0.3,2.6,0.7,3.9,1L302.3,750.2z M1624.9,750.1l-2.9-2.7c0.9-1,1.9-2,2.8-2.9l2.8,2.8
				C1626.7,748.2,1625.8,749.2,1624.9,750.1z M295.6,748.5c-1.3-0.3-2.6-0.6-3.9-0.9l0.9-3.9c1.3,0.3,2.6,0.6,3.9,0.9L295.6,748.5z
				 M1926.4,748c-0.8-1-1.7-2-2.6-2.9l2.9-2.7c0.9,1,1.8,2,2.7,3.1L1926.4,748z M288.8,746.9c-1.3-0.3-2.6-0.6-3.9-0.9l0.9-3.9
				c1.3,0.3,2.6,0.6,3.9,0.9L288.8,746.9z M282,745.4c-1.3-0.3-2.6-0.6-3.9-0.8l0.8-3.9c1.3,0.3,2.6,0.6,3.9,0.8L282,745.4z
				 M340.9,745.3l-3.3-2.3c0.8-1.1,1.6-2.2,2.4-3.3l3.2,2.4C342.4,743.2,341.6,744.2,340.9,745.3z M1629.8,745.2l-2.8-2.9
				c1-0.9,1.9-1.9,2.9-2.8l2.7,2.9C1631.7,743.4,1630.7,744.3,1629.8,745.2z M1831.6,744.6l-1.7-1.6l1.4-1.5l-1.1-1.1
				c0.9-0.9,1.8-1.7,2.7-2.5l2.6,3c-0.9,0.8-1.7,1.6-2.5,2.4L1831.6,744.6z M665.7,744.4c-0.5-1.2-1-2.4-1.5-3.6l3.6-1.7
				c0.6,1.2,1.1,2.5,1.6,3.8L665.7,744.4z M275.1,744c-1.3-0.3-2.6-0.5-3.9-0.8l0.8-3.9c1.3,0.3,2.6,0.5,3.9,0.8L275.1,744z
				 M1921.9,743.1c-0.9-0.9-1.9-1.8-2.9-2.6l2.6-3c1,0.9,2,1.8,3,2.8L1921.9,743.1z M268.3,742.6c-1.3-0.2-2.6-0.5-3.9-0.7l0.7-3.9
				c1.3,0.2,2.6,0.5,4,0.7L268.3,742.6z M261.4,741.4c-1.3-0.2-2.7-0.4-3.9-0.6l0.6-4c1.3,0.2,2.6,0.4,4,0.7L261.4,741.4z
				 M1827.7,741c-1-0.9-2-1.7-3-2.6l2.6-3.1c1,0.9,2,1.8,3.1,2.7L1827.7,741z M1634.8,740.5l-2.7-3c1-0.9,2-1.8,3.1-2.7l2.6,3.1
				C1636.8,738.8,1635.8,739.6,1634.8,740.5z M254.5,740.3c-1.4-0.2-2.7-0.4-3.9-0.5l0.5-4c1.3,0.2,2.6,0.3,4,0.5L254.5,740.3z
				 M344.9,739.7l-3.2-2.4c0.8-1.1,1.7-2.1,2.5-3.2l3.1,2.5C346.6,737.7,345.7,738.7,344.9,739.7z M247.6,739.4
				c-1.4-0.1-2.7-0.3-3.9-0.3l0.3-4c1.2,0.1,2.6,0.2,4.1,0.4L247.6,739.4z M1837.7,739l-2.5-3.1c1.1-0.9,2.2-1.7,3.3-2.5l2.3,3.3
				C1839.8,737.4,1838.7,738.2,1837.7,739z M1916.8,738.6c-1-0.8-2.1-1.6-3.1-2.3l2.3-3.3c1.1,0.8,2.2,1.6,3.3,2.4L1916.8,738.6z
				 M662.9,738.3c-0.6-1.1-1.2-2.3-1.9-3.4l3.4-2.1c0.7,1.2,1.4,2.4,2,3.6L662.9,738.3z M1822.5,736.5c-1-0.8-2-1.6-3.1-2.4l2.4-3.2
				c1.1,0.8,2.1,1.7,3.2,2.5L1822.5,736.5z M1640.1,736l-2.5-3.1c1.1-0.8,2.1-1.7,3.2-2.5l2.4,3.2
				C1642.2,734.4,1641.1,735.2,1640.1,736z M1843.2,735l-2.2-3.4c1.2-0.7,2.3-1.5,3.5-2.1l2,3.5
				C1845.5,733.7,1844.3,734.3,1843.2,735z M1911.2,734.7c-1.1-0.7-2.2-1.3-3.3-2l1.9-3.5c1.2,0.7,2.4,1.4,3.6,2.1L1911.2,734.7z
				 M349.3,734.4l-3.1-2.6c0.9-1,1.8-2.1,2.7-3.1l3,2.7C351,732.4,350.1,733.4,349.3,734.4z M659.4,732.4c-0.7-1.1-1.5-2.1-2.2-3.2
				l3.2-2.4c0.8,1.1,1.6,2.2,2.4,3.4L659.4,732.4z M1817,732.3c-1.1-0.8-2.1-1.5-3.2-2.3l2.3-3.3c1.1,0.8,2.2,1.6,3.3,2.4
				L1817,732.3z M1645.6,731.8l-2.4-3.2c1.1-0.8,2.2-1.6,3.3-2.3l2.3,3.3C1647.7,730.3,1646.6,731,1645.6,731.8z M1849.1,731.7
				l-1.8-3.6c1.2-0.6,2.5-1.2,3.7-1.7l1.6,3.7C1851.5,730.5,1850.3,731.1,1849.1,731.7z M1905.3,731.4c-1.2-0.6-2.3-1.1-3.5-1.6
				l1.5-3.7c1.3,0.5,2.5,1.1,3.8,1.7L1905.3,731.4z M353.9,729.2l-2.9-2.7c0.9-1,1.9-2,2.8-2.9l2.9,2.8
				C355.7,727.3,354.8,728.2,353.9,729.2z M1855.4,729l-1.4-3.8c1.3-0.5,2.6-0.9,3.9-1.3l1.2,3.8
				C1857.8,728.1,1856.6,728.5,1855.4,729z M1899.1,728.8c-1.2-0.4-2.4-0.8-3.7-1.2l1.1-3.8c1.3,0.4,2.6,0.8,3.9,1.3L1899.1,728.8z
				 M1811.4,728.3c-1.1-0.7-2.2-1.4-3.3-2.1l2.1-3.4c1.1,0.7,2.3,1.5,3.4,2.2L1811.4,728.3z M1651.2,727.9l-2.2-3.3
				c1.1-0.7,2.3-1.5,3.4-2.2l2.1,3.4C1653.5,726.5,1652.3,727.2,1651.2,727.9z M655.4,727c-0.8-1-1.7-2-2.6-2.9l2.9-2.7
				c0.9,1,1.9,2,2.7,3.1L655.4,727z M1861.8,726.9l-1-3.9c1.3-0.3,2.7-0.6,4-0.9l0.7,3.9C1864.4,726.3,1863.1,726.6,1861.8,726.9z
				 M1892.6,726.8c-1.2-0.3-2.5-0.6-3.8-0.8l0.7-3.9c1.4,0.2,2.7,0.5,4,0.9L1892.6,726.8z M1868.5,725.6l-0.6-4
				c1.4-0.2,2.7-0.3,4.1-0.5l0.3,4C1871.1,725.3,1869.8,725.5,1868.5,725.6z M1885.9,725.5c-1.3-0.2-2.6-0.3-3.9-0.4l0.3-4
				c1.4,0.1,2.7,0.2,4.1,0.4L1885.9,725.5z M1875.3,725l-0.1-4c1.4,0,2.8-0.1,4.1,0l-0.1,4C1877.8,725,1876.5,725,1875.3,725z
				 M1805.5,724.6c-1.1-0.7-2.3-1.3-3.4-2l2-3.5c1.2,0.7,2.3,1.3,3.5,2L1805.5,724.6z M358.7,724.3l-2.8-2.9c1-0.9,1.9-1.9,2.9-2.8
				l2.7,2.9C360.6,722.4,359.6,723.3,358.7,724.3z M1657.1,724.2l-2-3.4c1.2-0.7,2.3-1.4,3.5-2l1.9,3.5
				C1659.4,722.9,1658.2,723.5,1657.1,724.2z M560.6,723.6l-1.8-1.7l1.4-1.5l-1-1.1c0.9-0.8,1.7-1.7,2.6-2.4l2.6,3
				c-0.8,0.7-1.7,1.5-2.5,2.3L560.6,723.6z M650.8,722c-0.9-0.9-1.9-1.8-2.9-2.6l2.6-3c1,0.9,2.1,1.8,3,2.8L650.8,722z
				 M1799.5,721.2c-1.2-0.6-2.3-1.2-3.5-1.8l1.8-3.6c1.2,0.6,2.4,1.2,3.6,1.9L1799.5,721.2z M1663.1,720.8l-1.9-3.5
				c1.2-0.6,2.4-1.3,3.6-1.9l1.8,3.6C1665.5,719.6,1664.3,720.2,1663.1,720.8z M556.6,719.9c-1-0.9-2-1.7-3-2.6l2.6-3.1
				c1,0.9,2.1,1.8,3.1,2.7L556.6,719.9z M363.7,719.6l-2.7-3c1-0.9,2-1.8,3.1-2.7l2.6,3.1C365.7,717.8,364.7,718.7,363.7,719.6z
				 M1793.4,718.1c-1.2-0.6-2.4-1.1-3.6-1.6l1.6-3.7c1.2,0.5,2.5,1.1,3.7,1.7L1793.4,718.1z M566.7,718l-2.5-3.1
				c1.1-0.9,2.2-1.7,3.3-2.5l2.3,3.3C568.7,716.4,567.7,717.2,566.7,718z M1669.3,717.7l-1.7-3.6c1.2-0.6,2.5-1.1,3.7-1.7l1.6,3.7
				C1671.7,716.6,1670.5,717.2,1669.3,717.7z M645.7,717.5c-1-0.8-2.1-1.6-3.1-2.3l2.3-3.3c1.1,0.8,2.2,1.6,3.3,2.4L645.7,717.5z
				 M551.4,715.4c-1-0.8-2.1-1.6-3.1-2.4l2.4-3.2c1.1,0.8,2.1,1.7,3.2,2.5L551.4,715.4z M1787.1,715.3c-1.2-0.5-2.4-1-3.7-1.5
				l1.4-3.7c1.3,0.5,2.5,1,3.8,1.5L1787.1,715.3z M369,715.1l-2.5-3.1c1.1-0.8,2.1-1.7,3.2-2.5l2.4,3.2
				C371.1,713.5,370,714.3,369,715.1z M1675.6,714.9l-1.5-3.7c1.2-0.5,2.5-1,3.8-1.5l1.4,3.7C1678.1,714,1676.9,714.4,1675.6,714.9z
				 M572.2,714.1l-2.2-3.4c1.1-0.7,2.3-1.5,3.5-2.1l2,3.5C574.4,712.7,573.2,713.4,572.2,714.1z M640.1,713.6
				c-1.1-0.7-2.2-1.3-3.3-2l1.9-3.5c1.2,0.7,2.4,1.4,3.6,2.1L640.1,713.6z M1780.7,712.7c-1.2-0.5-2.5-0.9-3.7-1.3l1.3-3.8
				c1.3,0.4,2.6,0.9,3.8,1.3L1780.7,712.7z M1682.1,712.5l-1.3-3.8c1.3-0.5,2.6-0.9,3.8-1.3l1.2,3.8
				C1684.6,711.6,1683.3,712,1682.1,712.5z M545.9,711.2c-1.1-0.8-2.1-1.5-3.2-2.3l2.3-3.3c1.1,0.8,2.2,1.6,3.3,2.4L545.9,711.2z
				 M374.5,710.9l-2.4-3.2c1.1-0.8,2.2-1.6,3.3-2.4l2.3,3.3C376.6,709.3,375.5,710.1,374.5,710.9z M578.1,710.7l-1.8-3.6
				c1.2-0.6,2.5-1.2,3.7-1.7l1.6,3.7C580.4,709.6,579.2,710.1,578.1,710.7z M1774.1,710.5c-1.3-0.4-2.5-0.8-3.8-1.1l1.1-3.8
				c1.3,0.4,2.6,0.8,3.9,1.2L1774.1,710.5z M634.2,710.3c-1.2-0.6-2.3-1.1-3.5-1.6l1.5-3.7c1.3,0.5,2.5,1.1,3.8,1.7L634.2,710.3z
				 M1688.7,710.3l-1.2-3.8c1.3-0.4,2.6-0.8,3.9-1.1l1.1,3.9C1691.2,709.5,1689.9,709.9,1688.7,710.3z M1767.5,708.6
				c-1.3-0.3-2.5-0.6-3.8-0.9l0.9-3.9c1.3,0.3,2.6,0.6,3.9,1L1767.5,708.6z M1695.3,708.4l-1-3.9c1.3-0.3,2.6-0.6,3.9-0.9l0.9,3.9
				C1697.9,707.8,1696.6,708.1,1695.3,708.4z M584.3,708l-1.4-3.7c1.3-0.5,2.6-0.9,3.9-1.3l1.2,3.8
				C586.7,707.1,585.5,707.5,584.3,708z M628,707.7c-1.2-0.4-2.5-0.8-3.7-1.2l1.1-3.8c1.3,0.4,2.6,0.8,3.9,1.3L628,707.7z
				 M540.3,707.2c-1.1-0.7-2.2-1.4-3.3-2.1l2.1-3.4c1.1,0.7,2.3,1.5,3.4,2.2L540.3,707.2z M1760.8,707.1c-1.3-0.3-2.6-0.5-3.9-0.8
				l0.7-3.9c1.3,0.2,2.7,0.5,4,0.8L1760.8,707.1z M380.2,706.9l-2.2-3.3c1.1-0.7,2.3-1.5,3.4-2.2l2.1,3.4
				C382.4,705.5,381.3,706.2,380.2,706.9z M1702.1,706.9l-0.8-3.9c1.3-0.3,2.6-0.5,4-0.8l0.7,3.9
				C1704.7,706.4,1703.4,706.6,1702.1,706.9z M590.7,706l-1-3.9c1.3-0.3,2.7-0.6,4-0.9l0.7,3.9C593.3,705.4,592,705.7,590.7,706z
				 M1754,705.8c-1.3-0.2-2.6-0.4-3.9-0.6l0.5-4c1.3,0.2,2.7,0.4,4,0.6L1754,705.8z M621.5,705.8c-1.2-0.3-2.5-0.6-3.8-0.8l0.7-3.9
				c1.3,0.2,2.7,0.5,4,0.8L621.5,705.8z M1708.9,705.7l-0.6-4c1.3-0.2,2.7-0.4,4-0.6l0.5,4C1711.5,705.3,1710.2,705.5,1708.9,705.7z
				 M1747.2,704.9c-1.3-0.1-2.6-0.3-3.9-0.4l0.3-4c1.3,0.1,2.7,0.2,4,0.4L1747.2,704.9z M1715.7,704.8l-0.4-4c1.3-0.1,2.7-0.3,4-0.4
				l0.3,4C1718.3,704.5,1717,704.7,1715.7,704.8z M597.4,704.6l-0.6-4c1.4-0.2,2.7-0.3,4.1-0.5l0.3,4
				C600,704.3,598.7,704.5,597.4,704.6z M614.8,704.5c-1.3-0.2-2.6-0.3-3.9-0.4l0.3-4c1.4,0.1,2.7,0.2,4.1,0.4L614.8,704.5z
				 M1740.3,704.3c-1.3-0.1-2.6-0.1-3.9-0.2l0.1-4c1.4,0.1,2.7,0.1,4,0.2L1740.3,704.3z M1722.6,704.2l-0.2-4c1.3-0.1,2.7-0.1,4-0.2
				l0.1,4C1725.2,704.1,1723.9,704.2,1722.6,704.2z M604.2,704l-0.1-4c1.4,0,2.8-0.1,4.1,0l-0.1,4C606.7,704,605.4,704,604.2,704z
				 M1733.4,704c-0.8,0-1.6,0-2.4,0c-0.5,0-1,0-1.5,0v-4c0.6,0,1.1,0,1.7,0c0.8,0,1.6,0,2.4,0L1733.4,704z M534.5,703.5
				c-1.1-0.7-2.3-1.3-3.4-2l2-3.5c1.2,0.7,2.3,1.3,3.5,2L534.5,703.5z M386,703.3l-2-3.4c1.2-0.7,2.3-1.4,3.5-2l2,3.5
				C388.3,701.9,387.1,702.6,386,703.3z M528.5,700.1c-1.2-0.6-2.3-1.2-3.5-1.8l1.8-3.6c1.2,0.6,2.4,1.2,3.6,1.9L528.5,700.1z
				 M392,699.9l-1.9-3.5c1.2-0.6,2.4-1.3,3.6-1.9l1.8,3.6C394.4,698.7,393.2,699.3,392,699.9z M522.3,697c-1.2-0.6-2.4-1.1-3.6-1.6
				l1.6-3.7c1.2,0.5,2.5,1.1,3.7,1.7L522.3,697z M398.2,696.8l-1.7-3.6c1.2-0.6,2.5-1.1,3.7-1.7l1.6,3.7
				C400.6,695.7,399.4,696.2,398.2,696.8z M516,694.2c-1.2-0.5-2.4-1-3.7-1.5l1.4-3.7c1.3,0.5,2.5,1,3.8,1.5L516,694.2z M404.5,694
				l-1.5-3.7c1.2-0.5,2.5-1,3.8-1.5l1.4,3.7C407,693,405.7,693.5,404.5,694z M509.6,691.7c-1.2-0.4-2.5-0.9-3.7-1.3l1.3-3.8
				c1.3,0.4,2.6,0.9,3.8,1.3L509.6,691.7z M411,691.5l-1.4-3.8c1.3-0.5,2.6-0.9,3.8-1.3l1.2,3.8C413.5,690.6,412.2,691,411,691.5z
				 M503,689.5c-1.3-0.4-2.5-0.8-3.8-1.1l1.1-3.9c1.3,0.4,2.6,0.7,3.9,1.1L503,689.5z M417.5,689.3l-1.2-3.8
				c1.3-0.4,2.6-0.8,3.9-1.1l1.1,3.9C420.1,688.6,418.8,688.9,417.5,689.3z M496.4,687.6c-1.3-0.3-2.5-0.6-3.8-0.9l0.9-3.9
				c1.3,0.3,2.6,0.6,3.9,1L496.4,687.6z M424.2,687.5l-1-3.9c1.3-0.3,2.6-0.6,4-0.9l0.9,3.9C426.8,686.8,425.5,687.1,424.2,687.5z
				 M489.7,686c-1.3-0.3-2.6-0.5-3.9-0.8l0.7-3.9c1.3,0.2,2.7,0.5,4,0.8L489.7,686z M431,685.9l-0.8-3.9c1.3-0.3,2.7-0.5,4-0.8
				l0.7,3.9C433.5,685.4,432.3,685.6,431,685.9z M482.9,684.8c-1.3-0.2-2.6-0.4-3.9-0.6l0.5-4c1.3,0.2,2.7,0.4,4,0.6L482.9,684.8z
				 M437.8,684.7l-0.6-4c1.3-0.2,2.7-0.4,4-0.6l0.5,4C440.4,684.3,439.1,684.5,437.8,684.7z M476.1,683.9c-1.3-0.1-2.6-0.3-3.9-0.4
				l0.3-4c1.3,0.1,2.7,0.2,4,0.4L476.1,683.9z M444.6,683.8l-0.4-4c1.3-0.1,2.7-0.3,4-0.4l0.3,4
				C447.2,683.5,445.9,683.7,444.6,683.8z M469.2,683.3c-1.3-0.1-2.6-0.1-3.9-0.2l0.1-4c1.4,0,2.7,0.1,4,0.2L469.2,683.3z
				 M451.5,683.2l-0.2-4c1.3-0.1,2.7-0.1,4-0.2l0.1,4C454.1,683.1,452.8,683.2,451.5,683.2z M462.3,683c-1.3,0-2.6,0-3.9,0v-4
				c1.4,0,2.7,0,4.1,0L462.3,683z"/>
		</g>
		<g id="XMLID_112_">
			<path id="XMLID_145_" class="st3" d="M1771.1,426.7l-58.5-11.6c0,0-22.6-16-28-4.3c-2.9,6.2,2,8.5,7.3,13
				c7.2,6.1,12.7,4.2,16,5.7c14.8,6.7,25.9,11.6,25.9,11.6l-20.9,11.6c0,0-8-1.4-11.1,0.2c-3.1,1.6-7.7,5.7-12.8,6.6
				c-11.4,2.1-14.1,22.1,12.4,13.9c26.5-8.2,44.2-15.6,44.2-15.6l-28.4,26.5c0,0-8.5,5.7-12.4,5.9c-11,0.8-14.2,14.7,5.1,13.6
				c19.3-1.1,18.1-5.3,18.1-5.3l17.3-3l37.8,0.9l9.8-68.2L1771.1,426.7z"/>
			<path id="XMLID_120_" class="st4" d="M1751.7,320.5l-54.2,9.3c-6,1-10,6.3-9,12.3l22.9,134.1c0.3,1.5,0.8,2.9,1.6,4.1l47.9-157.2
				C1758.5,320.7,1755.2,319.9,1751.7,320.5z"/>
			<path id="XMLID_143_" class="st5" d="M1713,480.4c2.3,3.6,6.6,5.8,11.1,5.1l54.2-9.3c6-1,10.1-7.1,9-13.1L1764.4,329
				c-0.4-2.5-1.7-4.6-3.5-6.2L1713,480.4z"/>
			<g id="XMLID_124_" class="st6">
				<circle id="XMLID_128_" class="st7" cx="1714.7" cy="332.5" r="1.3"/>
				<circle id="XMLID_127_" class="st7" cx="1721.2" cy="331.4" r="1.3"/>
				<circle id="XMLID_126_" class="st7" cx="1727.7" cy="330.3" r="1.3"/>
				<circle id="XMLID_125_" class="st7" cx="1734.2" cy="329.2" r="1.3"/>
			</g>
			<path id="XMLID_121_" class="st8" d="M1756.9,330.7l-61.8,10.6c-2.3,0.4-3.8,2.6-3.4,5l20,117.1c0.4,2.4,2.6,4,4.9,3.6l0.4-0.1
				l41.5-136.2C1757.9,330.7,1757.4,330.6,1756.9,330.7z"/>
			<path id="XMLID_118_" class="st9" d="M1758.4,330.8L1716.9,467l61.4-10.5c2.3-0.4,3.8-2.6,3.4-5l-20-117.1
				C1761.4,332.5,1760.1,331.1,1758.4,330.8z"/>
			<g id="XMLID_119_">
				<path id="XMLID_122_" class="st10" d="M1691.5,344.6c-0.5,0.1-1.1-0.3-1.2-0.8c-1.1-6.7,3.4-13.1,10.1-14.2
					c0.5-0.1,1.1,0.3,1.2,0.8s-0.3,1.1-0.8,1.2c-5.6,1-9.4,6.3-8.4,11.9C1692.4,344,1692,344.5,1691.5,344.6z"/>
			</g>
			<path id="XMLID_123_" class="st11" d="M1803.9,509.4c3-19.4,10-54.1,8.4-58.6s-9.5-39-9.5-39l0.1-0.1c-2.5-7.1-4.6-13-5-14.3
				c-1.1-3.2-25.4-14.6-25.4-14.6s2.3,4.7,2.5,11c0.3,8.3,0.6,18.7,1,22.5c0.6,6.6,7.4,16.4,7.4,16.4s-3.1,8.5-4.7,18.9
				c-1.6,10.3,2.6,38.1-1.1,39.3c-1.1,0.3-2.2-1.7-3.4-5.1c-5.1-8.3-14.6-25.6-17.6-44.2c-2.2-13.7-6-22.9-9.2-28.5
				c-1.2-0.1-2.4,0.1-3.7,0.5c-15.4,4.9-5.6,32.8-2.3,45.3c3.2,12.4,0.3,24.4,0,39s16.7,45.6,25.3,63.1c5.5,11.2,9.3,23.4,11.5,31.2
				l35.2-6C1813.3,585.9,1800.9,528.8,1803.9,509.4z"/>
			<path id="XMLID_248_" class="st12" d="M1774.1,485.6c-3-8.6-6.1-25.7-8.4-34.1c-2.9-10.7-6.1-37.7-18.4-38.5
				c3.1,5.6,7,14.8,9.2,28.5C1759.5,460,1769,477.3,1774.1,485.6z"/>
			<path id="XMLID_249_" class="st12" d="M1813.9,439.9c-2.5-5-7.3-17.8-11-28.2l-0.1,0.1c0,0,7.8,34.5,9.5,38.9
				c1.6,4.5-5.4,39.3-8.4,58.7s9.4,76.5,9.4,76.5l14.1-2.4c-3.5-10.6-9.6-34.8-9.6-69.4C1817.7,463.1,1822.5,456.8,1813.9,439.9z"/>
			<polygon id="XMLID_144_" class="st13" points="1807,587 1770,593.3 1777.3,636.4 1819.6,622.6 1819.7,622.8 			"/>
			<polygon id="XMLID_247_" class="st14" points="1837,581.8 1807,587 1819.7,622.8 1819.6,622.7 1842.7,615 			"/>
			<polygon id="XMLID_115_" class="st15" points="1890.8,778.2 1855.9,610.7 1819.3,622.6 1819.3,622.7 1808.5,626.2 1841.2,786.6 
							"/>
			<polygon id="XMLID_246_" class="st16" points="1819.3,622.7 1819.3,622.6 1755.1,643.6 1783.6,796.3 1841.2,786.6 1808.5,626.2 
							"/>
		</g>
		<g id="XMLID_106_">
			<path id="XMLID_138_" class="st3" d="M506.5,478.7l58.5-11.6c0,0,22.6-16,28-4.3c2.9,6.2-2,8.5-7.3,13c-7.2,6.1-12.7,4.2-16,5.7
				c-14.8,6.7-25.9,11.6-25.9,11.6l20.9,11.6c0,0,8-1.4,11.1,0.2c3.1,1.6,7.7,5.7,12.8,6.6c11.4,2.1,14.1,22.1-12.4,13.9
				c-26.5-8.2-44.2-15.6-44.2-15.6l28.4,26.5c0,0,8.5,5.7,12.4,5.9c11,0.8,14.2,14.7-5.1,13.6c-19.3-1.1-18.1-5.3-18.1-5.3l-17.3-3
				l-37.8,0.9l-9.8-68.2L506.5,478.7z"/>
			<path id="XMLID_137_" class="st4" d="M525.9,372.5l54.2,9.3c6,1,10,6.3,9,12.3L566.2,528c-0.3,1.5-0.8,2.9-1.6,4.1l-47.9-157.2
				C519.1,372.7,522.4,371.9,525.9,372.5z"/>
			<path id="XMLID_136_" class="st5" d="M564.6,532.4c-2.3,3.6-6.6,5.8-11.1,5.1l-54.2-9.3c-6-1-10.1-7.1-9-13.1L513.1,381
				c0.4-2.5,1.7-4.6,3.5-6.2L564.6,532.4z"/>
			<g id="XMLID_131_" class="st6">
				<circle id="XMLID_135_" class="st7" cx="562.9" cy="384.5" r="1.3"/>
				<circle id="XMLID_134_" class="st7" cx="556.4" cy="383.4" r="1.3"/>
				<circle id="XMLID_133_" class="st7" cx="549.9" cy="382.3" r="1.3"/>
				<circle id="XMLID_132_" class="st7" cx="543.4" cy="381.2" r="1.3"/>
			</g>
			<path id="XMLID_130_" class="st8" d="M520.7,382.7l61.8,10.6c2.3,0.4,3.8,2.6,3.4,5l-20,117.1c-0.4,2.4-2.6,4-4.9,3.6l-0.4-0.1
				l-41.5-136.2C519.7,382.7,520.2,382.6,520.7,382.7z"/>
			<path id="XMLID_129_" class="st9" d="M519.2,382.8L560.6,519l-61.4-10.5c-2.3-0.4-3.8-2.6-3.4-5l20-117.1
				C516.1,384.5,517.5,383.1,519.2,382.8z"/>
			<g id="XMLID_116_">
				<path id="XMLID_117_" class="st10" d="M586.1,396.6c0.5,0.1,1.1-0.3,1.2-0.8c1.1-6.7-3.4-13.1-10.1-14.2
					c-0.5-0.1-1.1,0.3-1.2,0.8s0.3,1.1,0.8,1.2c5.6,1,9.4,6.3,8.4,11.9C585.2,396,585.6,396.5,586.1,396.6z"/>
			</g>
			<path id="XMLID_114_" class="st11" d="M473.7,561.4c-3-19.4-10-54.1-8.4-58.6c1.6-4.5,9.5-39,9.5-39l-0.1-0.1
				c2.5-7.1,4.6-13,5-14.3c1.1-3.2,25.4-14.6,25.4-14.6s-2.3,4.7-2.5,11c-0.3,8.3-0.6,18.7-1,22.5c-0.6,6.6-7.4,16.4-7.4,16.4
				s3.1,8.5,4.7,18.9c1.6,10.3-2.6,38.1,1.1,39.3c1.1,0.3,2.2-1.7,3.4-5.1c5.1-8.3,14.6-25.6,17.6-44.2c2.2-13.7,6-22.9,9.2-28.5
				c1.2-0.1,2.4,0.1,3.7,0.5c15.4,4.9,5.6,32.8,2.3,45.3c-3.2,12.4-0.3,24.4,0,39c0.3,14.6-16.7,45.6-25.3,63.1
				c-5.5,11.2-9.3,23.4-11.5,31.2l-35.2-6C464.3,637.9,476.7,580.8,473.7,561.4z"/>
			<path id="XMLID_113_" class="st12" d="M503.4,537.6c3-8.6,6.1-25.7,8.4-34.1c2.9-10.7,6.1-37.7,18.4-38.5
				c-3.1,5.6-7,14.8-9.2,28.5C518.1,512,508.6,529.3,503.4,537.6z"/>
			<path id="XMLID_111_" class="st12" d="M463.7,491.9c2.5-5,7.3-17.8,11-28.2l0.1,0.1c0,0-7.8,34.5-9.5,38.9
				c-1.6,4.5,5.4,39.3,8.4,58.7s-9.4,76.5-9.4,76.5l-14.1-2.4c3.5-10.6,9.6-34.8,9.6-69.4C459.8,515.1,455.1,508.8,463.7,491.9z"/>
			<polygon id="XMLID_110_" class="st13" points="470.6,639 507.6,645.3 500.2,688.4 457.9,674.6 457.9,674.8 			"/>
			<polygon id="XMLID_109_" class="st14" points="440.6,633.8 470.6,639 457.9,674.8 457.9,674.7 434.9,667 			"/>
			<polygon id="XMLID_108_" class="st15" points="386.8,830.2 421.7,662.7 458.2,674.6 458.2,674.7 469.1,678.2 436.4,838.6 			"/>
			<polygon id="XMLID_107_" class="st16" points="458.2,674.7 458.2,674.6 522.5,695.6 494,848.3 436.4,838.6 469.1,678.2 			"/>
		</g>
		<g id="XMLID_183_">
			<path id="XMLID_234_" class="st17" d="M1476.3,433.2c0-6.5,5.2-11.7,11.7-11.7"/>
			<path id="XMLID_233_" class="st17" d="M1476.3,432.2c0-6.5,5.2-11.7,11.7-11.7"/>
			<circle id="XMLID_230_" class="st18" cx="1545.6" cy="610.2" r="5.5"/>
			<path id="XMLID_229_" class="st19" d="M1612,436.5v152c0,5-4,9-9,9h-113.2l-13.9,19.9c1.1,0.7,2.5,1.1,3.9,1.1h131.5
				c4.3,0,7.7-3.5,7.7-7.7V425.2c0-2.9-1.6-5.5-4-6.8l-7.3,10.4C1610.3,430.4,1612,433.3,1612,436.5z"/>
			<path id="XMLID_228_" class="st20" d="M1479.8,417.5c-4.3,0-7.7,3.5-7.7,7.7v185.5c0,2.8,1.5,5.3,3.8,6.7l13.9-19.9h-0.8
				c-5,0-9-4-9-9v-152c0-5,4-9,9-9h114c1.7,0,3.3,0.5,4.7,1.3l7.3-10.4c-1.1-0.6-2.4-0.9-3.7-0.9H1479.8z"/>
			<path id="XMLID_227_" class="st9" d="M1612,588.5v-152c0-3.2-1.7-6.1-4.3-7.7l-117.9,168.7H1603
				C1608,597.5,1612,593.5,1612,588.5z"/>
			<path id="XMLID_226_" class="st8" d="M1603,427.5h-114c-5,0-9,4-9,9v152c0,5,4,9,9,9h0.8l117.9-168.7
				C1606.4,428,1604.8,427.5,1603,427.5z"/>
			<path id="XMLID_225_" class="st3" d="M1550.3,570.5c0,0,7.6-27,11.7-28.4c4-1.3,4-4,4.9,11.7c0.9,15.8-0.4,31.5-0.4,31.5
				L1550.3,570.5z"/>
			<path id="XMLID_224_" class="st11" d="M1488.4,647.1c7.3-18.7,8.7-27.6,8.7-34.2c0-6.7-3.3-20.4-2.3-31.5
				c0.5-5.3,0.2-12-0.3-17.6c-0.4-0.1-0.8-0.2-1.3-0.3c-10.2-1.4-9.1,18.6-9.8,26.3c-0.7,7.7-0.7,26.3-3.2,25.9
				c-2.5-0.3-2.8-18.2-4.9-24.5s-5-11.3-5-11.3s3.2-6.9,2.9-11.1c-0.2-2.4-0.1-9-0.8-14.2c-0.5-4-0.6-7.2-0.6-7.2s-14,9.8-14.4,11.9
				c-0.3,2.1-3.7,22.6-5.5,28.4c-3.6,11.6,0.1,14.5,5.5,46.4c3.4,20.2,2.6,34.9,1.6,42.5h29.2
				C1486.4,672.7,1482.5,661.9,1488.4,647.1z"/>
			<path id="XMLID_223_" class="st12" d="M1494.5,657.8c3.5-11.9,10.9-32.8,9.1-41.9c-1.8-9.1-4.9-16.2-4.2-24.4
				c0.7-7.8,3.6-25-5-27.8c0.5,5.6,0.8,12.3,0.3,17.6c-1,11.2,2.3,24.8,2.3,31.5s-1.3,15.6-8.7,34.2c-5.8,14.8-2,25.6-0.2,29.4h2.6
				C1491.4,671.7,1492.5,664.6,1494.5,657.8z"/>
			<path id="XMLID_222_" class="st13" d="M1483.7,678.5h5.3c0,0-0.3-1-0.8-2H1451v19.4l36.8,0.4l2.7-0.3L1483.7,678.5z"/>
			<path id="XMLID_221_" class="st14" d="M1502,676.5h-13.8c0.5,1,0.8,2,0.8,2h-5.3l6.8,17.5l-2.7,0.5h14.2V676.5z"/>
			<path id="XMLID_220_" class="st21" d="M1505,836.2l-14-2.7l14.7-3.3l-13.3-5.3c0,0,7.3-48.6,8-68.6S1485,697,1485,697l2.8-0.6
				l-41.7-0.5c0,0-0.3,151.8,5.4,157.9c5.6,6,5.6,29.8,5.6,29.8h34.6l-4.6-42.7L1505,836.2z"/>
			<path id="XMLID_219_" class="st22" d="M1524.3,838.9c0,0-0.8-5.8,0.7-17.2c1.6-11.4-1.5-125-1.5-125l-35.8-0.4l-2.8,0.6
				c0,0,16,39.3,15.3,59.3s-8,68.6-8,68.6l13.3,5.3l-14.7,3.3l14,2.7l-18,4.7l4.6,42.7h43.2L1524.3,838.9z"/>
			<path id="XMLID_218_" class="st12" d="M1615.6,620.4c1.3-5.8,0.9-33.3,2.2-39.6c1.3-6.3,0.5-11.9-1.8-13.8c-2.2-1.9-5-2.2-5-2.2
				s0.5-2-1.8-4.2s-6.1-2.3-6.1-2.3s-0.3-4.8-3.4-6.5c-1-0.6-3.1-1.3-5.4-2.1l0,0c2.2,3.4,4.6,7.3,4.8,8.8c0.5,2.9,1.3,6.4,1.3,6.4
				s3.8-1.5,7.8,2.5s3.3,10,3.3,10s0.9,17.1-0.2,24.6c-1.1,7.4-7.8,26.1-7.8,26.1l-6.1,10.1l19.5-5.2
				C1615.9,629.1,1614.8,623.7,1615.6,620.4z"/>
			<polygon id="XMLID_217_" class="st13" points="1629.1,665.8 1628.9,664.9 1628.9,665.8 1628.9,665.8 			"/>
			<path id="XMLID_216_" class="st14" d="M1625.6,652.7l-5.4-20.4l-22.6,6l-1.2,2l12.7,22.9l-2.7,5.1l0.5,1.6
				C1612.6,667.2,1621.6,657.3,1625.6,652.7z"/>
			<path id="XMLID_215_" class="st13" d="M1609,663.1l-12.7-22.9l1.2-2l-28.2,7.5l8.5,32c8.1-2.4,22.2-6.6,27.1-7.3
				c0.6-0.1,1.2-0.3,1.9-0.6l-0.5-1.6L1609,663.1z"/>
			<path id="XMLID_214_" class="st22" d="M1629,738.8c0,0,34,6.7,25-29.6s-26.3-59-26.3-59s-13.2,16.1-20.8,19.6L1629,738.8
				L1629,738.8z"/>
			<path id="XMLID_189_" class="st21" d="M1629,738.8l-22.1-69c-0.7,0.3-1.3,0.5-1.9,0.6c-7,1-32.9,9.1-32.9,9.1s15.3,22.4,19,48
				s38,108,38,108v-56.2L1629,738.8L1629,738.8z"/>
			<path id="XMLID_188_" class="st11" d="M1611.7,577.5c0,0,0.7-6-3.3-10s-7.8-2.5-7.8-2.5s-0.8-3.5-1.3-6.4
				c-0.2-1.5-2.6-5.5-4.8-8.8l0,0c-4.5-1.6-9.9-3.1-9.9-3.1s-4.1-9.4-4.1-13.9s-2.1-8.4-3.6-16.2c-1.5-8.1-2.1-18.1-2.2-22.4
				c0-2.7-1-2.2-2.8-2.9c-2.7-1.1-7,2.7-8.4,10c-1.3,7.3,0.1,13.2,0.1,13.2s-0.6,8.8,0.3,16.5s2.2,13.4,2.2,13.4s-1,12.2-1.4,19
				s0.5,12.2-2.5,12.4c-2.5,0.2-5.2-4.6-6.8-8.8l0,0c-4.2-5.6-9.3-12.6-11.9-17.1c-2.8-4.9-8-8.9-11.8-11.4c-4,0.4-4.9,4.6-1.7,8.8
				c4.5,5.8,12.3,28.1,12.9,32.5s2.6,11.7,12.2,26.5s10.9,21.1,15.4,26.9s6.3,9.9,6.3,9.9l0.3,0.8l20.4-5.4l6.1-10.1
				c0,0,6.7-18.7,7.8-26.1C1612.6,594.6,1611.7,577.5,1611.7,577.5z"/>
			<path id="XMLID_187_" class="st12" d="M1543.6,549.7c2.5,4.5,7.6,11.5,11.9,17.1l0,0c-0.3-0.8-0.6-1.6-0.8-2.3
				c-1.2-4.5-7.5-20.2-16.5-24.7c-2.6-1.3-4.7-1.7-6.4-1.6C1535.7,540.8,1540.9,544.8,1543.6,549.7z"/>
			<g id="XMLID_185_" class="st6">
				<path id="XMLID_186_" class="st10" d="M1476.3,435.2c-1.1,0-2-0.9-2-2c0-7.5,6.1-13.7,13.7-13.7c1.1,0,2,0.9,2,2
					c0,1.1-0.9,2-2,2c-5.3,0-9.7,4.3-9.7,9.7C1478.3,434.3,1477.4,435.2,1476.3,435.2z"/>
			</g>
		</g>
		<g id="XMLID_85_">
			<path id="XMLID_363_" class="st12" d="M642.8,620.6l8.9,15.6l-8.3,5.7l4.3,10.6c0,0,9.1,4.2,12.7,7.7c3.5,3.5,12,24.6,12,24.6
				l-21,4.2l-24.7-44.3v-9.8L642.8,620.6z"/>
			<path id="XMLID_362_" class="st4" d="M932.8,616.3c0,15.5-12.6,28.1-28.1,28.1H664.9c-15.5,0-28.1-12.6-28.1-28.1V471.5
				c0-15.5,12.6-28.1,28.1-28.1h239.8c15.5,0,28.1,12.6,28.1,28.1V616.3z"/>
			<path id="XMLID_361_" class="st23" d="M925.8,552.4c0,5.5-4.5,10-10,10h-259c-5.5,0-10-4.5-10-10v-86c0-5.5,4.5-10,10-10h259
				c5.5,0,10,4.5,10,10V552.4z"/>
			<path id="XMLID_360_" class="st24" d="M908.8,461.4h9.7c1.1,0,2.3,1.1,2.3,2.2v7.1c0,1.1-1.3,1.8-2.3,1.8H909
				c-1.1,0-2.2-0.7-2.2-1.8v-7.1c0-1.1,1.1-2.2,2.2-2.2"/>
			<path id="XMLID_359_" class="st24" d="M909.8,475.4h8.2c1.3,0,2.8,0.7,2.8,2.1v9.6c0,1.3-1.5,2.4-2.8,2.4h-8.6
				c-1.3,0-2.6-1.1-2.6-2.4v-9.6c0-1.3,1.3-2.1,2.6-2.1"/>
			<path id="XMLID_358_" class="st24" d="M909.8,491.4h8.2c1.3,0,2.8,1.6,2.8,2.9v9.6c0,1.3-1.5,2.6-2.8,2.6h-8.6
				c-1.3,0-2.6-1.2-2.6-2.6v-9.6c0-1.3,1.3-2.9,2.6-2.9"/>
			<path id="XMLID_357_" class="st24" d="M909.8,508.4h8.2c1.3,0,2.8,1.4,2.8,2.7v9.6c0,1.3-1.5,2.7-2.8,2.7h-8.6
				c-1.3,0-2.6-1.4-2.6-2.7v-9.6c0-1.3,1.3-2.7,2.6-2.7"/>
			<path id="XMLID_356_" class="st24" d="M909.8,525.4h8.2c1.3,0,2.8,1.2,2.8,2.5v9.6c0,1.3-1.5,1.9-2.8,1.9h-8.6
				c-1.3,0-2.6-0.6-2.6-1.9v-9.6c0-1.3,1.3-2.5,2.6-2.5"/>
			<path id="XMLID_355_" class="st24" d="M909.8,542.4h8.2c1.3,0,2.8,1.1,2.8,2.4v9.6c0,1.3-1.5,2.1-2.8,2.1h-8.6
				c-1.3,0-2.6-0.8-2.6-2.1v-9.6c0-1.3,1.3-2.4,2.6-2.4"/>
			<path id="XMLID_354_" class="st24" d="M891.8,461.4h9.9c1.1,0,2.1,1.1,2.1,2.2v7.1c0,1.1-1,1.8-2.1,1.8h-9.5
				c-1.1,0-2.4-0.7-2.4-1.8v-7.1c0-1.1,1.3-2.2,2.4-2.2"/>
			<path id="XMLID_353_" class="st24" d="M877.8,475.4h23.3c1.4,0,2.7,0.8,2.7,2.2v9.2c0,1.4-1.3,2.5-2.7,2.5h-23.8
				c-1.4,0-2.5-1.1-2.5-2.5v-9.2c0-1.4,1.1-2.2,2.5-2.2"/>
			<path id="XMLID_352_" class="st24" d="M887.8,491.4h13.3c1.4,0,2.7,1.7,2.7,3.1v9.2c0,1.4-1.3,2.7-2.7,2.7h-12.9
				c-1.4,0-2.4-1.3-2.4-2.7v-9.2c0-1.4,1-3.1,2.4-3.1"/>
			<path id="XMLID_351_" class="st24" d="M875.8,508.4h25.3c1.4,0,2.7,1.5,2.7,2.9v9.2c0,1.4-1.3,2.9-2.7,2.9h-25.7
				c-1.4,0-2.6-1.5-2.6-2.9v-9.2c0-1.4,1.2-2.9,2.6-2.9"/>
			<path id="XMLID_350_" class="st24" d="M892.8,525.4h8.4c1.3,0,2.6,1.2,2.6,2.5v9.6c0,1.3-1.2,1.9-2.6,1.9h-8.6
				c-1.3,0-2.8-0.6-2.8-1.9v-9.6c0-1.3,1.5-2.5,2.8-2.5"/>
			<path id="XMLID_349_" class="st24" d="M892.8,542.4h8.4c1.3,0,2.6,1.1,2.6,2.4v9.6c0,1.3-1.2,2.1-2.6,2.1h-8.6
				c-1.3,0-2.8-0.8-2.8-2.1v-9.6c0-1.3,1.5-2.4,2.8-2.4"/>
			<path id="XMLID_348_" class="st24" d="M876.8,461.4h8.1c1.1,0,1.9,1.1,1.9,2.2v7.1c0,1.1-0.8,1.8-1.9,1.8h-8.2
				c-1.1,0-1.9-0.7-1.9-1.8v-7.1C874.8,462.5,875.6,461.4,876.8,461.4"/>
			<path id="XMLID_347_" class="st24" d="M860.8,461.4h8.4c1.1,0,1.6,1.1,1.6,2.2v7.1c0,1.1-0.5,1.8-1.6,1.8H861
				c-1.1,0-2.2-0.7-2.2-1.8v-7.1c0-1.1,1.1-2.2,2.2-2.2"/>
			<path id="XMLID_346_" class="st24" d="M844.8,461.4h8.6c1.1,0,2.4,1.1,2.4,2.2v7.1c0,1.1-1.3,1.8-2.4,1.8h-8.2
				c-1.1,0-2.4-0.7-2.4-1.8v-7.1c0-1.1,1.3-2.2,2.4-2.2"/>
			<path id="XMLID_345_" class="st24" d="M829.8,461.4h7.9c1.1,0,2.1,1.1,2.1,2.2v7.1c0,1.1-1,1.8-2.1,1.8h-8.2
				c-1.1,0-1.7-0.7-1.7-1.8v-7.1c0-1.1,0.6-2.2,1.7-2.2"/>
			<path id="XMLID_344_" class="st24" d="M813.8,461.4h8.2c1.1,0,1.8,1.1,1.8,2.2v7.1c0,1.1-0.8,1.8-1.8,1.8h-8.2
				c-1.1,0-1.9-0.7-1.9-1.8v-7.1C811.8,462.5,812.7,461.4,813.8,461.4"/>
			<path id="XMLID_343_" class="st24" d="M797.8,461.4h8.4c1.1,0,1.6,1.1,1.6,2.2v7.1c0,1.1-0.5,1.8-1.6,1.8H798
				c-1.1,0-2.2-0.7-2.2-1.8v-7.1c0-1.1,1.1-2.2,2.2-2.2"/>
			<path id="XMLID_342_" class="st24" d="M781.8,461.4h8.7c1.1,0,2.3,1.1,2.3,2.2v7.1c0,1.1-1.2,1.8-2.3,1.8h-8.2
				c-1.1,0-1.5-0.7-1.5-1.8v-7.1c0-1.1,0.4-2.2,1.5-2.2"/>
			<path id="XMLID_341_" class="st24" d="M766.8,461.4h7.9c1.1,0,2.1,1.1,2.1,2.2v7.1c0,1.1-1,1.8-2.1,1.8h-8.2
				c-1.1,0-1.7-0.7-1.7-1.8v-7.1c0-1.1,0.6-2.2,1.7-2.2"/>
			<path id="XMLID_340_" class="st24" d="M750.8,461.4h8.2c1.1,0,1.8,1.1,1.8,2.2v7.1c0,1.1-0.7,1.8-1.8,1.8h-8.2
				c-1.1,0-2-0.7-2-1.8v-7.1C748.8,462.5,749.7,461.4,750.8,461.4"/>
			<path id="XMLID_339_" class="st24" d="M734.8,461.4h8.5c1.1,0,1.5,1.1,1.5,2.2v7.1c0,1.1-0.5,1.8-1.5,1.8h-8.2
				c-1.1,0-2.2-0.7-2.2-1.8v-7.1c0-1.1,1.2-2.2,2.2-2.2"/>
			<path id="XMLID_338_" class="st24" d="M719.8,461.4h7.7c1.1,0,2.3,1.1,2.3,2.2v7.1c0,1.1-1.2,1.8-2.3,1.8h-8.2
				c-1.1,0-1.5-0.7-1.5-1.8v-7.1c0-1.1,0.4-2.2,1.5-2.2"/>
			<path id="XMLID_337_" class="st24" d="M703.8,461.4h8c1.1,0,2,1.1,2,2.2v7.1c0,1.1-0.9,1.8-2,1.8h-8.2c-1.1,0-1.8-0.7-1.8-1.8
				v-7.1c0-1.1,0.7-2.2,1.8-2.2"/>
			<path id="XMLID_336_" class="st24" d="M687.8,461.4h8.2c1.1,0,1.8,1.1,1.8,2.2v7.1c0,1.1-0.7,1.8-1.8,1.8h-8.2
				c-1.1,0-2-0.7-2-1.8v-7.1C685.8,462.5,686.8,461.4,687.8,461.4"/>
			<path id="XMLID_335_" class="st24" d="M671.8,461.4h8.5c1.1,0,1.5,1.1,1.5,2.2v7.1c0,1.1-0.4,1.8-1.5,1.8h-8.2
				c-1.1,0-2.3-0.7-2.3-1.8v-7.1c0-1.1,1.2-2.2,2.3-2.2"/>
			<path id="XMLID_334_" class="st24" d="M654.8,461.4h9.1c1.1,0,1.9,1.1,1.9,2.2v7.1c0,1.1-0.8,1.8-1.9,1.8h-9.5
				c-1.1,0-1.6-0.7-1.6-1.8v-7.1c0-1.1,0.5-2.2,1.6-2.2"/>
			<path id="XMLID_333_" class="st24" d="M860.8,475.4h8c1.3,0,2,0.7,2,2v9.6c0,1.3-0.7,2.3-2,2.3h-8.5c-1.3,0-2.5-1-2.5-2.3v-9.6
				c0-1.3,1.2-2,2.5-2"/>
			<path id="XMLID_332_" class="st24" d="M842.8,475.4h8.9c1.3,0,2.1,0.7,2.1,2v9.6c0,1.3-0.8,2.3-2.1,2.3h-8.5
				c-1.3,0-2.4-1-2.4-2.3v-9.6c0-1.3,1.2-2,2.4-2"/>
			<path id="XMLID_331_" class="st24" d="M825.8,475.4h8.8c1.3,0,2.2,0.7,2.2,2v9.6c0,1.3-0.9,2.3-2.2,2.3h-8.5
				c-1.3,0-2.4-1-2.4-2.3v-9.6c0-1.3,1.1-2,2.4-2"/>
			<path id="XMLID_330_" class="st24" d="M808.8,475.4h8.8c1.3,0,2.2,0.7,2.2,2v9.6c0,1.3-1,2.3-2.2,2.3h-8.5c-1.3,0-2.3-1-2.3-2.3
				v-9.6c0-1.3,1-2,2.3-2"/>
			<path id="XMLID_329_" class="st24" d="M791.8,475.4h8.7c1.3,0,2.3,0.7,2.3,2v9.6c0,1.3-1,2.3-2.3,2.3H792c-1.3,0-2.2-1-2.2-2.3
				v-9.6c0-1.3,0.9-2,2.2-2"/>
			<path id="XMLID_328_" class="st24" d="M774.8,475.4h8.6c1.3,0,2.4,0.7,2.4,2v9.6c0,1.3-1.1,2.3-2.4,2.3h-8.5
				c-1.3,0-2.1-1-2.1-2.3v-9.6C772.8,476.1,773.6,475.4,774.8,475.4"/>
			<path id="XMLID_327_" class="st24" d="M757.8,475.4h8.5c1.3,0,2.5,0.7,2.5,2v9.6c0,1.3-1.2,2.3-2.5,2.3h-8.5
				c-1.3,0-2.1-1-2.1-2.3v-9.6C755.8,476.1,756.6,475.4,757.8,475.4"/>
			<path id="XMLID_326_" class="st24" d="M740.8,475.4h8.4c1.3,0,2.6,0.7,2.6,2v9.6c0,1.3-1.3,2.3-2.6,2.3h-8.5c-1.3,0-2-1-2-2.3
				v-9.6C738.8,476.1,739.5,475.4,740.8,475.4"/>
			<path id="XMLID_325_" class="st24" d="M723.8,475.4h8.4c1.3,0,2.6,0.7,2.6,2v9.6c0,1.3-1.3,2.3-2.6,2.3h-8.5
				c-1.3,0-1.9-1-1.9-2.3v-9.6C721.8,476.1,722.4,475.4,723.8,475.4"/>
			<path id="XMLID_324_" class="st24" d="M706.8,475.4h8.3c1.3,0,2.7,0.7,2.7,2v9.6c0,1.3-1.4,2.3-2.7,2.3h-8.5
				c-1.3,0-2.8-1-2.8-2.3v-9.6c0-1.3,1.5-2,2.8-2"/>
			<path id="XMLID_323_" class="st24" d="M689.8,475.4h8.2c1.3,0,2.8,0.7,2.8,2v9.6c0,1.3-1.5,2.3-2.8,2.3h-8.5
				c-1.3,0-2.8-1-2.8-2.3v-9.6c0-1.3,1.5-2,2.8-2"/>
			<path id="XMLID_322_" class="st24" d="M672.8,475.4h8.1c1.3,0,1.9,0.7,1.9,2v9.6c0,1.3-0.6,2.3-1.9,2.3h-8.5
				c-1.3,0-2.7-1-2.7-2.3v-9.6c0-1.3,1.4-2,2.7-2"/>
			<path id="XMLID_321_" class="st24" d="M654.8,475.4h8.7c1.3,0,2.3,0.7,2.3,2.1v9.6c0,1.3-1,2.4-2.3,2.4h-8.6c-1.3,0-2-1.1-2-2.4
				v-9.6C652.8,476.1,653.5,475.4,654.8,475.4"/>
			<path id="XMLID_320_" class="st24" d="M654.8,491.4h17.9c1.4,0,3.1,1.7,3.1,3.1v9.2c0,1.4-1.6,2.7-3.1,2.7H655
				c-1.4,0-2.2-1.3-2.2-2.7v-9.2c0-1.4,0.8-3.1,2.2-3.1"/>
			<path id="XMLID_319_" class="st24" d="M654.8,508.4h21.3c1.4,0,2.7,1.5,2.7,2.9v9.2c0,1.4-1.3,2.9-2.7,2.9H655
				c-1.4,0-2.2-1.5-2.2-2.9v-9.2c0-1.4,0.8-2.9,2.2-2.9"/>
			<path id="XMLID_318_" class="st24" d="M654.8,525.4h30.4c1.4,0,2.6,1.3,2.6,2.7v9.2c0,1.4-1.1,2.1-2.6,2.1H655
				c-1.4,0-2.2-0.7-2.2-2.1v-9.2c0-1.4,0.8-2.7,2.2-2.7"/>
			<path id="XMLID_317_" class="st24" d="M654.8,542.4h12.8c1.4,0,2.2,1.1,2.2,2.5v9.2c0,1.4-0.8,2.2-2.2,2.2H655
				c-1.4,0-2.2-0.8-2.2-2.2v-9.2c0-1.4,0.8-2.5,2.2-2.5"/>
			<path id="XMLID_316_" class="st24" d="M679.8,491.4h9.2c1.4,0,2.8,1.6,2.8,3v9.3c0,1.4-1.4,2.7-2.8,2.7h-9
				c-1.4,0-2.2-1.3-2.2-2.7v-9.3c0-1.4,0.8-3,2.2-3"/>
			<path id="XMLID_315_" class="st24" d="M697.8,491.4h8.6c1.4,0,2.4,1.6,2.4,3v9.3c0,1.4-1,2.7-2.4,2.7h-9.1
				c-1.4,0-2.6-1.3-2.6-2.7v-9.3c0-1.4,1.2-3,2.6-3"/>
			<path id="XMLID_314_" class="st24" d="M714.8,491.4h9c1.4,0,3,1.6,3,3v9.3c0,1.4-1.6,2.7-3,2.7h-9.1c-1.4,0-3-1.3-3-2.7v-9.3
				C711.8,493,713.4,491.4,714.8,491.4"/>
			<path id="XMLID_313_" class="st24" d="M731.8,491.4h9.4c1.4,0,2.6,1.6,2.6,3v9.3c0,1.4-1.2,2.7-2.6,2.7h-9.1
				c-1.4,0-2.4-1.3-2.4-2.7v-9.3c0-1.4,1-3,2.4-3"/>
			<path id="XMLID_312_" class="st24" d="M749.8,491.4h8.8c1.4,0,2.2,1.6,2.2,3v9.3c0,1.4-0.8,2.7-2.2,2.7h-9.1
				c-1.4,0-2.8-1.3-2.8-2.7v-9.3c0-1.4,1.4-3,2.8-3"/>
			<path id="XMLID_311_" class="st24" d="M766.8,491.4h9.2c1.4,0,2.8,1.6,2.8,3v9.3c0,1.4-1.4,2.7-2.8,2.7h-9
				c-1.4,0-2.2-1.3-2.2-2.7v-9.3c0-1.4,0.8-3,2.2-3"/>
			<path id="XMLID_310_" class="st24" d="M784.8,491.4h8.6c1.4,0,2.4,1.6,2.4,3v9.3c0,1.4-1,2.7-2.4,2.7h-9.1
				c-1.4,0-2.5-1.3-2.5-2.7v-9.3c0-1.4,1.2-3,2.5-3"/>
			<path id="XMLID_309_" class="st24" d="M801.8,491.4h9c1.4,0,3,1.6,3,3v9.3c0,1.4-1.6,2.7-3,2.7h-9.1c-1.4,0-2.9-1.3-2.9-2.7v-9.3
				C798.8,493,800.4,491.4,801.8,491.4"/>
			<path id="XMLID_308_" class="st24" d="M818.8,491.4h9.4c1.4,0,2.6,1.6,2.6,3v9.3c0,1.4-1.2,2.7-2.6,2.7h-9.1
				c-1.4,0-2.3-1.3-2.3-2.7v-9.3c0-1.4,1-3,2.3-3"/>
			<path id="XMLID_307_" class="st24" d="M836.8,491.4h8.8c1.4,0,2.2,1.6,2.2,3v9.3c0,1.4-0.8,2.7-2.2,2.7h-9.1
				c-1.4,0-2.7-1.3-2.7-2.7v-9.3c0-1.4,1.4-3,2.7-3"/>
			<path id="XMLID_306_" class="st24" d="M853.8,491.4h9.2c1.4,0,2.8,1.6,2.8,3v9.3c0,1.4-1.4,2.7-2.8,2.7h-9.1
				c-1.4,0-2.1-1.3-2.1-2.7v-9.3c0-1.4,0.8-3,2.1-3"/>
			<path id="XMLID_305_" class="st24" d="M871.8,491.4h8.6c1.4,0,2.4,1.6,2.4,3v9.3c0,1.4-1,2.7-2.4,2.7h-9.1
				c-1.4,0-2.5-1.3-2.5-2.7v-9.3c0-1.4,1.2-3,2.5-3"/>
			<path id="XMLID_304_" class="st24" d="M684.8,508.4h9.1c1.4,0,2.9,1.5,2.9,2.8v9.3c0,1.4-1.6,2.8-2.9,2.8h-9.1
				c-1.4,0-3-1.5-3-2.8v-9.3C681.8,509.8,683.4,508.4,684.8,508.4"/>
			<path id="XMLID_303_" class="st24" d="M701.8,508.4h9.5c1.4,0,2.5,1.5,2.5,2.8v9.3c0,1.4-1.2,2.8-2.5,2.8h-9.1
				c-1.4,0-2.4-1.5-2.4-2.8v-9.3c0-1.4,1-2.8,2.4-2.8"/>
			<path id="XMLID_302_" class="st24" d="M719.8,508.4h8.9c1.4,0,2.1,1.5,2.1,2.8v9.3c0,1.4-0.8,2.8-2.1,2.8h-9.1
				c-1.4,0-2.8-1.5-2.8-2.8v-9.3c0-1.4,1.4-2.8,2.8-2.8"/>
			<path id="XMLID_301_" class="st24" d="M736.8,508.4h9.3c1.4,0,2.7,1.5,2.7,2.8v9.3c0,1.4-1.4,2.8-2.7,2.8H737
				c-1.4,0-2.2-1.5-2.2-2.8v-9.3c0-1.4,0.8-2.8,2.2-2.8"/>
			<path id="XMLID_300_" class="st24" d="M754.8,508.4h8.7c1.4,0,2.3,1.5,2.3,2.8v9.3c0,1.4-1,2.8-2.3,2.8h-9.1
				c-1.4,0-2.6-1.5-2.6-2.8v-9.3c0-1.4,1.2-2.8,2.6-2.8"/>
			<path id="XMLID_299_" class="st24" d="M771.8,508.4h9.1c1.4,0,2.9,1.5,2.9,2.8v9.3c0,1.4-1.6,2.8-2.9,2.8h-9.1
				c-1.4,0-3-1.5-3-2.8v-9.3C768.8,509.8,770.4,508.4,771.8,508.4"/>
			<path id="XMLID_298_" class="st24" d="M788.8,508.4h9.4c1.4,0,2.6,1.5,2.6,2.8v9.3c0,1.4-1.2,2.5-2.5,2.5h-9
				c-1.4,0-2.5-1.1-2.5-2.5v-9.3c0-1.4,1-2.8,2.4-2.8"/>
			<path id="XMLID_297_" class="st24" d="M806.8,508.4h8.8c1.4,0,2.2,1.5,2.2,2.8v9.3c0,1.4-0.8,2.8-2.2,2.8h-9.1
				c-1.4,0-2.8-1.5-2.8-2.8v-9.3c0-1.4,1.4-2.8,2.8-2.8"/>
			<path id="XMLID_296_" class="st24" d="M823.8,508.4h9.2c1.4,0,2.8,1.5,2.8,2.8v9.3c0,1.4-1.4,2.8-2.8,2.8h-9
				c-1.4,0-2.2-1.5-2.2-2.8v-9.3c0-1.4,0.8-2.8,2.2-2.8"/>
			<path id="XMLID_295_" class="st24" d="M841.8,508.4h8.6c1.4,0,2.4,1.5,2.4,2.8v9.3c0,1.4-1,2.8-2.4,2.8h-9.1
				c-1.4,0-2.6-1.5-2.6-2.8v-9.3c0-1.4,1.2-2.8,2.6-2.8"/>
			<path id="XMLID_294_" class="st24" d="M858.8,508.4h9c1.4,0,3,1.5,3,2.8v9.3c0,1.4-1.6,2.8-3,2.8h-9.1c-1.4,0-3-1.5-3-2.8v-9.3
				C855.8,509.8,857.4,508.4,858.8,508.4"/>
			<path id="XMLID_293_" class="st24" d="M693.8,525.4h9.2c1.4,0,2.8,1.3,2.8,2.7v9.3c0,1.4-1.4,2-2.8,2h-9.1c-1.4,0-2.1-0.6-2.1-2
				v-9.3c0-1.4,0.7-2.7,2.1-2.7"/>
			<path id="XMLID_292_" class="st24" d="M711.8,525.4h8.6c1.4,0,2.4,1.3,2.4,2.7v9.3c0,1.4-1,2-2.4,2h-9.1c-1.4,0-2.5-0.6-2.5-2
				v-9.3c0-1.4,1.1-2.7,2.5-2.7"/>
			<path id="XMLID_291_" class="st24" d="M728.8,525.4h9c1.4,0,2,1.3,2,2.7v9.3c0,1.4-0.6,2-2,2h-9.1c-1.4,0-2.9-0.6-2.9-2v-9.3
				C725.8,526.7,727.3,525.4,728.8,525.4"/>
			<path id="XMLID_290_" class="st24" d="M745.8,525.4h9.4c1.4,0,2.6,1.3,2.6,2.7v9.3c0,1.4-1.3,2-2.6,2h-9.1c-1.4,0-2.3-0.6-2.3-2
				v-9.3c0-1.4,0.9-2.7,2.3-2.7"/>
			<path id="XMLID_289_" class="st24" d="M763.8,525.4h8.8c1.4,0,2.2,1.3,2.2,2.7v9.3c0,1.4-0.9,2-2.2,2h-9.1c-1.4,0-2.7-0.6-2.7-2
				v-9.3c0-1.4,1.3-2.7,2.7-2.7"/>
			<path id="XMLID_288_" class="st24" d="M780.8,525.4h9.2c1.4,0,2.8,1.3,2.8,2.7v9.3c0,1.4-1.5,2-2.8,2h-9.1c-1.4,0-2.1-0.6-2.1-2
				v-9.3C778.8,526.7,779.5,525.4,780.8,525.4"/>
			<path id="XMLID_287_" class="st24" d="M797.8,525.4h9.6c1.4,0,2.4,1.3,2.4,2.7v9.3c0,1.4-1.1,2-2.4,2h-9.1c-1.4,0-2.5-0.6-2.5-2
				v-9.3c0-1.4,1.1-2.7,2.5-2.7"/>
			<path id="XMLID_286_" class="st24" d="M815.8,525.4h9c1.4,0,2,1.3,2,2.7v9.3c0,1.4-0.7,2-2,2h-9.1c-1.4,0-2.9-0.6-2.9-2v-9.3
				C812.8,526.7,814.3,525.4,815.8,525.4"/>
			<path id="XMLID_285_" class="st24" d="M832.8,525.4h9.3c1.4,0,2.7,1.3,2.7,2.7v9.3c0,1.4-1.3,2-2.7,2H833c-1.4,0-2.3-0.6-2.3-2
				v-9.3c0-1.4,0.9-2.7,2.3-2.7"/>
			<path id="XMLID_284_" class="st24" d="M850.8,525.4h8.8c1.4,0,2.2,1.3,2.2,2.7v9.3c0,1.4-0.9,2-2.2,2h-9.1c-1.4,0-2.7-0.6-2.7-2
				v-9.3c0-1.4,1.3-2.7,2.7-2.7"/>
			<path id="XMLID_283_" class="st24" d="M867.8,525.4h16.5c1.4,0,2.5,1.3,2.5,2.7v9.2c0,1.4-1.1,2.1-2.5,2.1h-16.4
				c-1.4,0-2.1-0.7-2.1-2.1v-9.2C865.8,526.7,866.5,525.4,867.8,525.4"/>
			<path id="XMLID_282_" class="st24" d="M675.8,542.4h9.5c1.4,0,2.5,1.1,2.5,2.5v9.3c0,1.4-1.1,2.2-2.5,2.2h-9.1
				c-1.4,0-2.4-0.8-2.4-2.2v-9.3c0-1.4,1-2.5,2.4-2.5"/>
			<path id="XMLID_281_" class="st24" d="M693.8,542.4h8.9c1.4,0,2.1,1.1,2.1,2.5v9.3c0,1.4-0.7,2.2-2.1,2.2h-9.1
				c-1.4,0-2.8-0.8-2.8-2.2v-9.3c0-1.4,1.4-2.5,2.8-2.5"/>
			<path id="XMLID_280_" class="st24" d="M710.8,542.4h9.3c1.4,0,2.7,1.1,2.7,2.5v9.3c0,1.4-1.3,2.2-2.7,2.2H711
				c-1.4,0-2.2-0.8-2.2-2.2v-9.3c0-1.4,0.8-2.5,2.2-2.5"/>
			<path id="XMLID_279_" class="st24" d="M728.8,542.4h78.1c1.4,0,2.9,1.1,2.9,2.5v9.3c0,1.4-1.5,2.2-2.9,2.2h-78.5
				c-1.4,0-2.6-0.8-2.6-2.2v-9.3c0-1.4,1.2-2.5,2.6-2.5"/>
			<path id="XMLID_278_" class="st24" d="M815.8,542.4h8.7c1.4,0,2.3,1.1,2.3,2.5v9.3c0,1.4-0.9,2.2-2.3,2.2h-9.1
				c-1.4,0-2.6-0.8-2.6-2.2v-9.3c0-1.4,1.2-2.5,2.6-2.5"/>
			<path id="XMLID_277_" class="st24" d="M832.8,542.4h9.1c1.4,0,2.9,1.1,2.9,2.5v9.3c0,1.4-1.5,2.2-2.9,2.2h-9.1
				c-1.4,0-3-0.8-3-2.2v-9.3C829.8,543.5,831.4,542.4,832.8,542.4"/>
			<path id="XMLID_276_" class="st24" d="M849.8,542.4h16.8c1.4,0,2.2,1.1,2.2,2.5v9.2c0,1.4-0.8,2.2-2.2,2.2h-16.4
				c-1.4,0-2.4-0.8-2.4-2.2v-9.2c0-1.4,1-2.5,2.4-2.5"/>
			<path id="XMLID_275_" class="st24" d="M875.8,542.4h8.7c1.3,0,2.3,1.1,2.3,2.4v9.6c0,1.3-1,2.1-2.3,2.1h-8.6
				c-1.3,0-2.1-0.8-2.1-2.1v-9.6C873.8,543.4,874.6,542.4,875.8,542.4"/>
			<path id="XMLID_274_" class="st25" d="M744.8,569.4h80.3c1.2,0,1.7,0.6,1.7,1.8v38.4c0,1.2-0.5,1.8-1.7,1.8h-79.9
				c-1.2,0-2.3-0.6-2.3-1.8v-38.4c0-1.2,1.1-1.8,2.3-1.8"/>
			<path id="XMLID_273_" class="st25" d="M743.8,614.4h39.3c0.3,0,0.7,0.5,0.7,0.8v8c0,0.3-0.4,0.3-0.7,0.3h-39.8
				c-0.3,0-0.6,0-0.6-0.3v-8c0-0.3,0.3-0.8,0.6-0.8"/>
			<path id="XMLID_272_" class="st25" d="M786.8,614.4h40c0.3,0,0,0.5,0,0.8v8c0,0.3,0.3,0.3,0,0.3H787c-0.3,0-0.3,0-0.3-0.3v-8
				c0-0.3,0-0.8,0.3-0.8"/>
			<g id="XMLID_271_">
				<path id="XMLID_104_" class="st10" d="M641.3,473.9c-1.1,0-2-0.9-2-2c0-13.7,11.2-24.9,24.9-24.9c1.1,0,2,0.9,2,2s-0.9,2-2,2
					c-11.5,0-20.8,9.3-20.8,20.8C643.3,473,642.4,473.9,641.3,473.9z"/>
			</g>
			<rect id="XMLID_261_" x="681.8" y="436.3" class="st24" width="215" height="10"/>
			<rect id="XMLID_103_" x="681.8" y="435.3" class="st24" width="215" height="10"/>
			<path id="XMLID_102_" class="st4" d="M929,373.6v53.8c0,5.8-11.1,11.6-26.3,11.6H667.3c-8.3,0-16.1-1.8-21.5-4.2l-3.4,0.8
				c-0.1,0-0.2,0.2-0.2,0.2c5.3,3,13.9,5.2,23.3,5.2h239.8c15.5,0,26.8-6.1,26.8-12.2v-56.6c0-2.7-2.2-5.2-6.3-7l-4.7,1.1
				C926.1,368.1,929,370.7,929,373.6z"/>
			<path id="XMLID_101_" class="st4" d="M665.4,362c-15.5,0-29.4,4.1-29.4,10.2v56.6c0,2.4,2.4,4.8,5.9,6.7c0.1,0,0.3-0.1,0.4-0.1
				l3.2-0.9c-4.5-2-7.5-4.6-7.5-7.2v-53.8c0-5.8,14.1-9.6,29.3-9.6h235.4c7.4,0,13.9,0.8,18.7,2.5l4.6-1c-4.9-2.2-12.3-3.5-20.8-3.5
				H665.4V362z"/>
			<path id="XMLID_100_" class="st26" d="M650,423.5v-43.4c0-4.6,13-8.1,27.2-8.1h218.2c1.4,0,2.8-0.1,4.2-0.1l21.9-5.3
				c-4.8-1.7-11.3-2.6-18.7-2.6H667.3c-15.2,0-29.3,3.9-29.3,9.6v53.8c0,2.6,3.1,5.2,7.5,7.2l15.5-3.9
				C654.5,429,650,426.3,650,423.5z"/>
			<path id="XMLID_99_" class="st24" d="M902.7,439c15.2,0,26.3-5.8,26.3-11.6v-53.8c0-3-2.8-5.5-7.8-7.3l-22,5.4
				c12.1,0.7,20.9,4.2,20.9,8.4v43.4c0,4.6-10.6,9.5-24.7,9.5H677.2c-5.7,0-11.2-0.9-15.7-2.1l-15.7,4c5.4,2.4,13.2,4.1,21.5,4.1
				L902.7,439L902.7,439z"/>
			<path id="XMLID_98_" class="st8" d="M677.2,372c-14.1,0-27.2,3.5-27.2,8.1v43.4c0,2.8,4.7,5.5,11.2,7.2l238.2-58.8
				c-1.4-0.1-2.6,0.1-4.1,0.1L677.2,372L677.2,372z"/>
			<path id="XMLID_97_" class="st9" d="M677.2,433h218.2c14.1,0,24.7-4.8,24.7-9.5v-43.4c0-4.2-8.7-7.7-20.7-8.4l-237.9,59.1
				C665.8,432.1,671.4,433,677.2,433z"/>
			<path id="XMLID_96_" class="st27" d="M705.5,830.9c1.4-27.3-13.9-61.8-14.1-62.1l0,0c-37.9,5.9-38.4,19.5-31.3,43.6
				c7.1,24.1,6.8,50.3,6.8,50.3h29.5l0,0C700.4,855.7,704.8,845.1,705.5,830.9z"/>
			<path id="XMLID_95_" class="st28" d="M746.2,819.3c-12.6-63.1-16.9-56.5-54.8-50.6c0.2,0.4,15.5,34.8,14.1,62.1
				c-0.7,14.2-5.1,24.9-9.1,31.8l0,0h62.2C758.7,862.7,751.6,846.2,746.2,819.3z"/>
			<path id="XMLID_94_" class="st13" d="M684.7,735.4L684.7,735.4l-28.8,7.6l9,34.3c5.4-3.8,13.9-6.6,26.5-8.6l0,0l0,0L684.7,735.4z
				"/>
			<path id="XMLID_93_" class="st14" d="M718.6,765.2l-9.5-36.1l-24.4,6.4l0,0l6.7,33.3l0,0C703.4,766.9,712,765,718.6,765.2z"/>
			<path id="XMLID_92_" class="st11" d="M684.7,689c-1.9-16.6-2.6-38.6-7.2-50.6c-1.6-4.1-4.5-13.3-6.7-22.2c-0.6,0-1.2,0.1-1.8,0.4
				c-9.8,4.2-6.3,25.9-2.8,31.8c3.5,5.8,2.8,27.5,2.8,27.5h-11.2c0,0-2.8-12.1-7-15.6s-11.3-9.2-11.3-9.2s-1.4-13.4-2.8-15.5
				s-4.2-7.8-4.2-7.8s4.2-12.7,4.9-16.9c0.7-4.2-2.8-26.7-8.4-19.7s-17.6,37.2-16.9,42.2c0.7,4.9,5.2,19.7,7.2,26.7
				s0.6,17.6,4.1,21.8s19.7,22,26.7,33.5c4.2,6.8,10.4,17.5,14.8,25.1l19.9-5.2C684.7,735.4,686.5,705.7,684.7,689z"/>
			<path id="XMLID_91_" class="st12" d="M697.9,691.9c0.7-6.3-14.1-39.1-14.1-43.8c0-4.4-4.4-31.9-13-31.8
				c2.2,8.8,5.1,18.1,6.7,22.2c4.6,12,5.4,34,7.2,50.6c1.9,16.6,0,46.4,0,46.4l13.1-3.4C697.6,718.4,697.4,696.2,697.9,691.9z"/>
			<line id="XMLID_242_" class="st29" x1="888" y1="560.2" x2="890" y2="539.5"/>
			<line id="XMLID_239_" class="st29" x1="902.6" y1="554.4" x2="905.6" y2="531.7"/>
			<path id="XMLID_245_" class="st30" d="M920.9,560.9c-0.7-2-2.9-6.5-2.9-6.5v3.5V576c0,0,0.5-6.6,2.1-7.9c1.5-1.3,2.8-4.4,2.8-4.4
				S921.6,562.9,920.9,560.9z"/>
			<g id="XMLID_235_">
				<path id="XMLID_238_" class="st28" d="M943.9,751.6c-8.5-59.3-16.9-75.9-57-73.9c-1.1,0.1-2.2,0.1-3.3,0.2l-0.1,1
					c0,0,7.3,22.6,11.1,33.7c3.9,11.2,20.1,73.8,25.8,95.6c5.5,21.2,4,53,3.9,54.6l0,0l39.3-0.1
					C963.6,862.7,952.3,810.9,943.9,751.6z"/>
				<path id="XMLID_252_" class="st27" d="M920.4,808.2c-5.6-21.8-21.9-84.5-25.8-95.6c-3.9-11.2-11.1-33.7-11.1-33.7l0.1-1
					c-56.4,3.5-35.7,22.9-35.7,28.5s6.8,52.7,6,61.3s13.7,95.3,13.7,95.3l56.8-0.1l0,0C924.4,861.1,925.9,829.4,920.4,808.2z"/>
				<path id="XMLID_389_" class="st14" d="M886.3,677.6c9.7-0.5,17.7,0.1,23.7,2.2V645h-24.3l-2.2,33
					C884.5,677.9,885.3,677.7,886.3,677.6z"/>
				<path id="XMLID_390_" class="st13" d="M854,682.7c7-2.3,15.6-3.9,29.3-4.8l2.3-33H854V682.7z"/>
				<path id="XMLID_251_" class="st12" d="M911.8,598.4c-6.7,22.7-26.1,46.2-26.1,46.2v0.4h19.1c1.9-16,15.1-27.5,15.1-33.9
					c0-6.5,10.3-36.3,12.5-41.5c1.8-4.2-1.8-13.3-5.6-19.2c0.5,5,1,11,1,15C927.8,573.4,918.5,575.7,911.8,598.4z"/>
				<path id="XMLID_388_" class="st11" d="M918.9,540.2c-0.4-3.1,0.9-3.5,0-5.9c-0.6-1.7-9-13.8-13.4-20c-6.8-9.6-3.9,5.2-3.9,5.2
					s-0.1,0-5.9-13.9c-1.6-3.7-1.8-4.6-2.8-4.5c-3.6,0.4-4.2,8.6-4.2,12.4c0,3.3,1.3,9.8,1.3,9.8s0,4.3,0,9.2c0,1.8,0,7.2,0,7.2
					s-1.2-7.8-3.1-12.1c-1.6-3.9-3.5-15.3-6.5-21.2c-0.3-0.6-2.3,0.5-2.9,0.9c-2.9,2.6-2.3,7.8-1.9,11.7c0.4,3.9,1.9,10,1.9,10
					s-0.2,2.3-0.6,6.2c-0.2,1.8,0.6,8.8,0.6,8.8s-0.4,1.7-3.1,8.6c-2.2,5.6-4.8,21.1-5.3,24.5c0.4-3.8-4.5-10.1-7.6-25.3
					c-3.1-15.5-15.9-20.8-19.2-19.3c-1.4,0.6,5.3,24.7,5.3,24.7s5.9,30.8,5.9,42.9c0,12.1,7.5,30.2,7.5,30.2V645h24.7v-0.4
					c0,0,19.4-23.4,26.1-46.1c6.7-22.7,16-25,16-33c0-4-0.5-10.1-1-15.1c-0.9-1.4-1.8-2.7-2.7-3.6
					C919.8,542.1,919.7,545.7,918.9,540.2z M920.1,568.1c-1.5,1.3-2.1,7.9-2.1,7.9v-18.1v-3.5c0,0,2.3,4.5,2.9,6.5
					c0.6,2,1.9,2.7,1.9,2.7S921.6,566.8,920.1,568.1z"/>
			</g>
			<rect id="XMLID_86_" x="681.8" y="436.3" class="st24" width="215" height="10"/>
		</g>
		<path id="XMLID_82_" class="st2" d="M2160,807.5c-43.8,0-76.3,23.6-97.8,58.3c-13.8-16.4-34.6-26.8-57.7-26.8
			c-9,0-17.7,1.6-25.7,4.5c-16.6-26.9-43.8-46.6-75.8-53.1c0-0.6,0-1.2,0-1.9c0-36.2-29.3-65.5-65.5-65.5
			c-17.9,0-34.1,7.2-45.9,18.8c-26.3-24.7-61.7-39.8-100.6-39.8c-68,0-125.3,46.2-142,109c-11.6-5.8-24.6-9-38.5-9
			c-33.9,0-63.3,19.5-77.5,47.9c-24.1-29.3-60.7-47.9-101.5-47.9c-29.6,0-56.9,9.8-78.8,26.2c-12-15.9-31.2-26.2-52.7-26.2
			c-27.7,0-51.4,17-61.2,41.2c-23.6-0.2-40.5,7.6-52.5,20.1c-6.7-29.4-33-51.3-64.4-51.3c-14.5,0-28,4.7-38.9,12.6
			c-22.1-23.2-53.3-37.6-88-37.6c-43.8,0-82.3,23.1-103.8,57.8c-13.8-16.4-34.6-26.8-57.7-26.8c-9,0-17.7,1.6-25.7,4.5
			c-16.6-26.9-43.8-46.6-75.8-53.1c0-0.6,0-1.2,0-1.9c0-36.2-29.3-65.5-65.5-65.5c-17.9,0-34.1,7.2-45.9,18.8
			C494.3,696.1,458.9,681,420,681c-55.5,0-103.9,30.8-128.9,76.2C275.6,750,258.3,746,240,746v244h1920V807.5z"/>
	</g>
</g>
</svg>
