<?xml version="1.0" encoding="utf-8"?>
<!-- Generator: Adobe Illustrator 19.0.0, SVG Export Plug-In . SVG Version: 6.00 Build 0)  -->
<svg version="1.1" id="图层_1" xmlns="http://www.w3.org/2000/svg" xmlns:xlink="http://www.w3.org/1999/xlink" x="0px" y="0px"
	 viewBox="-1920 929.2 128 128" style="enable-background:new -1920 929.2 128 128;" xml:space="preserve">
<style type="text/css">
	.st0{fill:#FF8700;}
	.st1{fill:#FFFFFF;}
</style>
<title>head</title>
<desc>Created with Sketch.</desc>
<g id="icon">
	<g id="head">
		<g id="Group">
			<rect id="Rectangle" x="-1920" y="929.2" class="st0" width="128" height="128"/>
			<g>
				<path class="st1" d="M-1841,961.9h17.7l-2.7,3.9l-21.4,0c-1.7,0-3,1.3-3,3v1.2v6.1v4.2v4.5v1.2c0,1.5,1.5,3,3,3l5.4,0h28.7
					l1.5-4.2h-28.7c-0.7,0-1.4-0.7-1.4-1.4v-3.1h18.5l1.3-4.2h-5.3V970l4.7,0c0.7,0,1.4,0.6,1.5,1.3v4.7v4.2h8.4V970v-2.1v-0.7
					c0-0.8-0.6-1.4-1.4-1.4l-1.7,0l2.4-3.7c0.1-0.2,0.2-0.4,0.2-0.6V959c0-0.7-0.5-1.3-1.2-1.4h-23.2c0.2-0.7,0.4-1.5,0.4-2.3
					c0,0,0,0,0,0h-8.4c-0.8,3.6-2.8,6.4-5.5,7.4v2.6c0.1,0,0.2,0,0.3,0C-1847.1,965.3-1843.4,963.9-1841,961.9z M-1835.9,976.1h-6.1
					v-4.6c0-0.7,0.7-1.4,1.4-1.4h4.7V976.1z"/>
				<polygon class="st1" points="-1868.6,1017.8 -1861.8,1017.8 -1860.3,1013.5 -1868.6,1013.5 -1868.6,1006.9 -1876.9,1006.9 
					-1876.9,1013.5 -1885.6,1013.5 -1885.6,1017.8 -1876.9,1017.8 -1876.9,1026.6 -1885.6,1026.6 -1885.6,1030.9 -1859.1,1030.9 
					-1859.1,1026.6 -1868.6,1026.6 				"/>
				<path class="st1" d="M-1881.4,1004.6h22.2v-4.3h-19.8c0.4-1,0.6-2,0.8-3h-9.9c-0.3,1-0.6,2.1-1.1,3h-9.9v4.3h7
					c-2.1,2.3-4.7,4.3-7.9,5.7v4.7c1.5-0.2,2.9-0.5,4.2-0.9v16.9h8.4v-20.7C-1885,1008.7-1882.9,1006.8-1881.4,1004.6z"/>
				<path class="st1" d="M-1899.6,968.3v4.7c1.5-0.2,2.9-0.5,4.3-0.9v17.1h8.7v-5.7h14.5l1.5-4.1h-16v-3.4h16.9v3.4v5.4
					c0,0.8-0.6,1.4-1.4,1.4h-1.4v2.9h2.7h4.3h1.3c1.5,0,3-1.5,3-3v-10.1V972v-3.4v-1.1c0-1.7-1.3-3-3-3h-18.5
					c0.8-0.9,1.5-1.8,2.1-2.7h21.3v-4.1h-19.4c0.3-0.8,0.5-1.7,0.7-2.6h-9.9c-0.2,0.9-0.5,1.7-0.9,2.6h-11.3v4.1h8.9
					C-1893.2,964.5-1896.2,966.8-1899.6,968.3z M-1886.6,970.1c0-0.8,0.6-1.4,1.4-1.4h14.2c0.7,0.1,1.3,0.7,1.3,1.4v1.9h-16.9V970.1
					z"/>
				<polygon class="st1" points="-1851.5,1030.5 -1837.8,1029 -1836.8,1024.4 -1851.5,1025.8 				"/>
				<path class="st1" d="M-1812.4,1027.3c-0.8,0-1.3-0.5-1.5-1.1l0,0l0.1,0.2l-1.3-3.5c1.2-0.5,2.6-1,4.4-1.7l-0.1-5.5
					c0,0-2.6,1-6.1,2.3l-1.2-3.1l7.3-0.4v-4.6l-9,0.5l-1.3-3.5l9.7-0.6v-4.2l-1.9,0.1v-3.1h-6.1v3.5l-3.2,0.2l-2-5.6h-7.3l2.2,6
					l-5,0.3v4.2l6.6-0.4l1.3,3.5l-8.1,0.5v4.6l9.8-0.6l1.8,4.9c-4.2,1.3-8.5,2.5-11.6,2.9v4.3c6.9-1.1,10.7-1.8,13.4-2.4l1.8,4.8
					c0.2,0.6,0.8,1,1.5,1h6.1h0.6l1.4-3.4H-1812.4z"/>
				<path class="st1" d="M-1843,1009.8h-2.1c4.4-4.8,6.3-12.6,6.3-12.6h-7.7c-0.6,4.5-3.4,9.7-4.6,11.7l0-0.1
					c-0.3,0.6-0.5,0.9-0.6,1.2v3.8h5.8c-2.2,2.9-4.4,4.8-5.3,5.6c-0.3,0.3-0.5,0.6-0.5,0.9v3.5l13.7-1.4l1-4.1l-6.2,0.6
					c5.5-4.7,7.1-10.6,7.1-10.6h-6.3C-1842.4,1008.9-1842.7,1009.4-1843,1009.8z"/>
			</g>
		</g>
	</g>
</g>
</svg>
