<?xml version="1.0" encoding="utf-8"?>
<!-- Generator: Adobe Illustrator 19.0.0, SVG Export Plug-In . SVG Version: 6.00 Build 0)  -->
<svg version="1.0" id="图层_1" xmlns="http://www.w3.org/2000/svg" xmlns:xlink="http://www.w3.org/1999/xlink" x="0px" y="0px"
	 viewBox="0 0 100 66" style="enable-background:new 0 0 100 66;" xml:space="preserve">
<style type="text/css">
	.st0{fill:#FFFFFF;}
	.st1{fill:url(#XMLID_3_);}
	.st2{fill:url(#XMLID_4_);}
	.st3{fill:#FF8700;}
</style>
<rect id="XMLID_1_" class="st0" width="100" height="66"/>
<linearGradient id="XMLID_3_" gradientUnits="userSpaceOnUse" x1="44.5049" y1="61" x2="44.5049" y2="12.335">
	<stop  offset="0" style="stop-color:#1E80D3"/>
	<stop  offset="1" style="stop-color:#00A0E9"/>
</linearGradient>
<path id="XMLID_76_" class="st1" d="M81.4,61H8.6c-0.7,0-1.3-0.4-1.7-1c-1.5-2.4-2.2-6.7-2.2-9.6c0-6.7,3.8-13.2,9.2-16
	c-0.4-1.5-0.7-3.1-0.7-4.8c0-9.5,7.7-17.2,17.2-17.2c4.5,0,8.7,1.7,11.9,4.8c1.9-1.1,4.2-1.8,6.4-1.8c5.9,0,10.9,4.1,12.2,9.7
	c1.2-0.4,2.4-0.5,3.8-0.5c6.9,0,12.6,5.7,12.6,12.8c0,1.3-0.2,2.6-0.5,3.9c4.4,2.1,7.5,6.9,7.5,12.2c0,1-0.2,5-1.2,6.7
	C82.8,60.6,82.2,61,81.4,61z M9.8,57H80c0.2-1,0.4-2.6,0.4-3.7c0-4.2-2.9-8.2-6.6-9c-0.6-0.1-1.1-0.5-1.3-1.1
	c-0.3-0.6-0.2-1.2,0-1.7c0.6-1.1,0.9-2.7,0.9-4.2c0-4.8-3.9-8.8-8.6-8.8c-1.7,0-3.1,0.4-4.4,1.1c-0.6,0.4-1.4,0.4-2,0
	c-0.6-0.4-1-1-1-1.7c0-4.7-3.9-8.6-8.6-8.6c-2,0-3.9,0.7-5.4,1.9c-0.8,0.7-2.1,0.6-2.8-0.3c-2.5-3-6.2-4.7-10.1-4.7
	c-7.3,0-13.2,5.9-13.2,13.2c0,1.8,0.3,3.5,1,5.1c0.2,0.5,0.2,1.1,0,1.6c-0.2,0.5-0.7,0.9-1.2,1.1c-4.6,1.6-8.3,7.4-8.3,13.1
	C8.7,52.4,9.1,55,9.8,57z"/>
<linearGradient id="XMLID_4_" gradientUnits="userSpaceOnUse" x1="77.1597" y1="23.8481" x2="77.1597" y2="1.6816">
	<stop  offset="0" style="stop-color:#1E80D3"/>
	<stop  offset="1" style="stop-color:#00A0E9"/>
</linearGradient>
<path id="XMLID_151_" class="st2" d="M96.3,11.9C92,5.5,84.9,1.7,77.2,1.7c-7.7,0-14.9,3.8-19.2,10.2c-0.3,0.5-0.3,1.2,0,1.7
	c4.3,6.4,11.5,10.2,19.2,10.2S92,20,96.3,13.6C96.7,13.1,96.7,12.4,96.3,11.9z M81.6,9.1c0,2.5-2,4.5-4.5,4.5s-4.5-2-4.5-4.5
	s2-4.5,4.5-4.5S81.6,6.7,81.6,9.1z M77.2,20.8c-6.4,0-12.3-3-16.1-8.1c2.4-3.2,5.7-5.6,9.4-6.9c-0.5,1-0.8,2.1-0.8,3.3
	c0,4.1,3.3,7.5,7.5,7.5s7.5-3.3,7.5-7.5c0-1.2-0.3-2.3-0.8-3.3c3.7,1.3,7,3.7,9.4,6.9C89.5,17.8,83.5,20.8,77.2,20.8z"/>
<path id="XMLID_130_" class="st3" d="M68.6,36.2c-1.1,0-2,0.9-2,2c0,0.1,0,0.2,0,0.4l-4.4,3.8c-0.2-0.1-0.4-0.1-0.7-0.1
	c0,0-0.1,0-0.1,0l-5.1-8.1c0.1-0.3,0.2-0.6,0.2-0.9c0-1.1-0.9-2-2-2s-2,0.9-2,2c0,0.4,0.1,0.8,0.4,1.2l-5.3,12l-5.6-16.9
	c0.3-0.4,0.5-0.8,0.5-1.3c0-1.1-0.9-2-2-2s-2,0.9-2,2c0,0.5,0.2,1,0.5,1.3l-5.6,16.7l-5.4-13.8c0.3-0.3,0.4-0.8,0.4-1.2
	c0-1.1-0.9-2-2-2s-2,0.9-2,2c0,0.4,0.1,0.6,0.3,0.9L19.6,41c0,0,0,0,0,0c-1.1,0-2,1-2,2.1c0,1.1,0.9,2.1,2,2.1s2-0.9,2-2
	c0-0.4-0.1-0.7-0.3-1l5.1-8.8L32.1,48c-0.3,0.3-0.5,0.8-0.5,1.3c0,1.1,0.9,2,2,2s2-0.9,2-2c0-0.5-0.2-1-0.5-1.4l5.5-16.5l5.5,16.5
	c-0.3,0.4-0.5,0.8-0.5,1.3c0,1.1,0.9,2,2,2s2-0.9,2-2c0-0.4-0.1-0.8-0.4-1.2l5.6-12.7l5.1,8c-0.1,0.3-0.2,0.6-0.2,0.9
	c0,1.1,0.9,2,2,2s2-0.9,2-2c0-0.1,0-0.2,0-0.4l4.4-3.8c0.2,0.1,0.4,0.1,0.7,0.1c1.1,0,2-0.9,2-2C70.6,37.1,69.7,36.2,68.6,36.2z"/>
</svg>
