<?xml version="1.0" encoding="utf-8"?>
<!-- Generator: Adobe Illustrator 19.0.0, SVG Export Plug-In . SVG Version: 6.00 Build 0)  -->
<svg version="1.0" id="图层_1" xmlns="http://www.w3.org/2000/svg" xmlns:xlink="http://www.w3.org/1999/xlink" x="0px" y="0px"
	 viewBox="0 0 100 66" style="enable-background:new 0 0 100 66;" xml:space="preserve">
<style type="text/css">
	.st0{fill:#FFFFFF;}
	.st1{fill:url(#XMLID_3_);}
	.st2{fill:url(#XMLID_4_);}
	.st3{fill:url(#XMLID_5_);}
	.st4{fill:url(#XMLID_6_);}
	.st5{fill:url(#XMLID_7_);}
	.st6{fill:url(#XMLID_8_);}
	.st7{fill:url(#XMLID_9_);}
</style>
<rect id="XMLID_1_" class="st0" width="100" height="66"/>
<linearGradient id="XMLID_3_" gradientUnits="userSpaceOnUse" x1="59.125" y1="58" x2="59.125" y2="2">
	<stop  offset="0" style="stop-color:#1E80D3"/>
	<stop  offset="1" style="stop-color:#00A0E9"/>
</linearGradient>
<path id="XMLID_37_" class="st1" d="M90.1,2H28.2c-2.2,0-4,1.8-4,4V46c0,2.2,1.8,4,4,4h26.9c0,0,0,0,0,0V54c0,0,0,0,0,0l-9.5,0
	c-1,0-2,0.7-2.1,1.7c-0.2,1.2,0.8,2.3,2,2.3l27.5,0c1,0,2-0.7,2.1-1.7c0.2-1.2-0.8-2.3-2-2.3h-9.8c0,0,0,0,0,0V50c0,0,0,0,0,0h26.9
	c2.2,0,4-1.8,4-4V6C94.1,3.8,92.3,2,90.1,2z M90.1,44c0,1.1-0.9,2-2,2h-58c-1.1,0-2-0.9-2-2V8c0-1.1,0.9-2,2-2h57.9c1.1,0,2,0.9,2,2
	V44z"/>
<linearGradient id="XMLID_4_" gradientUnits="userSpaceOnUse" x1="39.25" y1="39.3146" x2="39.25" y2="22.75">
	<stop  offset="0" style="stop-color:#FF8700"/>
	<stop  offset="1" style="stop-color:#FFA655"/>
</linearGradient>
<path id="XMLID_26_" class="st2" d="M39.2,39.3L39.2,39.3c-1.1,0-2-0.9-2-2V24.7c0-1.1,0.9-2,2-2h0c1.1,0,2,0.9,2,2v12.6
	C41.2,38.4,40.4,39.3,39.2,39.3z"/>
<linearGradient id="XMLID_5_" gradientUnits="userSpaceOnUse" x1="49.1875" y1="39.3146" x2="49.1875" y2="16.25">
	<stop  offset="0" style="stop-color:#FF8700"/>
	<stop  offset="1" style="stop-color:#FFA655"/>
</linearGradient>
<path id="XMLID_28_" class="st3" d="M49.2,39.3L49.2,39.3c-1.1,0-2-0.9-2-2V18.2c0-1.1,0.9-2,2-2h0c1.1,0,2,0.9,2,2v19.1
	C51.2,38.4,50.3,39.3,49.2,39.3z"/>
<linearGradient id="XMLID_6_" gradientUnits="userSpaceOnUse" x1="59.125" y1="39.3146" x2="59.125" y2="19.3652">
	<stop  offset="0" style="stop-color:#FF8700"/>
	<stop  offset="1" style="stop-color:#FFA655"/>
</linearGradient>
<path id="XMLID_29_" class="st4" d="M59.1,39.3L59.1,39.3c-1.1,0-2-0.9-2-2V21.4c0-1.1,0.9-2,2-2h0c1.1,0,2,0.9,2,2v15.9
	C61.1,38.4,60.2,39.3,59.1,39.3z"/>
<linearGradient id="XMLID_7_" gradientUnits="userSpaceOnUse" x1="69.0625" y1="39.3146" x2="69.0625" y2="11.625">
	<stop  offset="0" style="stop-color:#FF8700"/>
	<stop  offset="1" style="stop-color:#FFA655"/>
</linearGradient>
<path id="XMLID_30_" class="st5" d="M69.1,39.3L69.1,39.3c-1.1,0-2-0.9-2-2V13.6c0-1.1,0.9-2,2-2l0,0c1.1,0,2,0.9,2,2v23.7
	C71.1,38.4,70.2,39.3,69.1,39.3z"/>
<linearGradient id="XMLID_8_" gradientUnits="userSpaceOnUse" x1="79" y1="39.3146" x2="79" y2="26.5171">
	<stop  offset="0" style="stop-color:#FF8700"/>
	<stop  offset="1" style="stop-color:#FFA655"/>
</linearGradient>
<path id="XMLID_31_" class="st6" d="M79,39.3L79,39.3c-1.1,0-2-0.9-2-2v-8.8c0-1.1,0.9-2,2-2l0,0c1.1,0,2,0.9,2,2v8.8
	C81,38.4,80.1,39.3,79,39.3z"/>
<linearGradient id="XMLID_9_" gradientUnits="userSpaceOnUse" x1="18.8894" y1="63.25" x2="18.8894" y2="29">
	<stop  offset="0" style="stop-color:#FF8700"/>
	<stop  offset="1" style="stop-color:#FFA655"/>
</linearGradient>
<path id="XMLID_32_" class="st7" d="M28.5,63.2c2,0,3.6-1.6,3.6-3.6V32.6c0-2-1.6-3.6-3.6-3.6H9.3c-2,0-3.6,1.6-3.6,3.6v27.1
	c0,2,1.6,3.6,3.6,3.6H28.5z"/>
<path id="XMLID_33_" class="st0" d="M9.3,36.8L9.3,36.8c0-0.8,0.7-1.5,1.5-1.5H27c0.8,0,1.5,0.7,1.5,1.5v0c0,0.8-0.7,1.5-1.5,1.5
	H10.8C9.9,38.3,9.3,37.6,9.3,36.8z"/>
<path id="XMLID_36_" class="st0" d="M9.3,46.9L9.3,46.9c0-0.8,0.7-1.5,1.5-1.5h9.4c0.8,0,1.5,0.7,1.5,1.5v0c0,0.8-0.7,1.5-1.5,1.5
	h-9.4C9.9,48.4,9.3,47.7,9.3,46.9z"/>
</svg>
