<?xml version="1.0" encoding="utf-8"?>
<!-- Generator: Adobe Illustrator 19.0.0, SVG Export Plug-In . SVG Version: 6.00 Build 0)  -->
<svg version="1.0" id="图层_1" xmlns="http://www.w3.org/2000/svg" xmlns:xlink="http://www.w3.org/1999/xlink" x="0px" y="0px"
	 viewBox="-784 426 350 230" style="enable-background:new -784 426 350 230;" xml:space="preserve">
<style type="text/css">
	.st0{clip-path:url(#XMLID_2_);}
	.st1{fill:#ECF7FD;}
	.st2{fill:#D6EEFA;}
	.st3{fill:#C2E6F7;}
	.st4{fill:#B1DFF4;}
	.st5{fill:#61B9DC;}
	.st6{fill:#FFFFFF;}
	.st7{fill:#CAE9F6;}
</style>
<g id="XMLID_473_">
	<defs>
		<rect id="XMLID_804_" x="-784" y="425.8" width="350" height="198.5"/>
	</defs>
	<clipPath id="XMLID_2_">
		<use xlink:href="#XMLID_804_"  style="overflow:visible;"/>
	</clipPath>
	<g id="XMLID_478_" class="st0">
		<circle id="XMLID_812_" class="st1" cx="-609" cy="594.8" r="147.5"/>
	</g>
	<g id="XMLID_477_" class="st0">
		<circle id="XMLID_810_" class="st2" cx="-609" cy="594.8" r="118"/>
	</g>
	<g id="XMLID_476_" class="st0">
		<circle id="XMLID_808_" class="st3" cx="-609" cy="594.8" r="82.6"/>
	</g>
	<g id="XMLID_475_" class="st0">
		<circle id="XMLID_806_" class="st4" cx="-609" cy="594.8" r="49.6"/>
	</g>
</g>
<g id="XMLID_467_">
	<g id="XMLID_472_">
		<path id="XMLID_727_" class="st5" d="M-745.6,626.4h-16.8c-1.1,0-2-0.9-2-2s0.9-2,2-2h16.8c1.1,0,2,0.9,2,2
			S-744.5,626.4-745.6,626.4z"/>
	</g>
	<g id="XMLID_471_">
		<path id="XMLID_726_" class="st5" d="M-613.8,626.4h-124.8c-1.1,0-2-0.9-2-2s0.9-2,2-2h124.8c1.1,0,2,0.9,2,2
			S-612.7,626.4-613.8,626.4z"/>
	</g>
	<g id="XMLID_470_">
		<path id="XMLID_725_" class="st5" d="M-565,626.4h-35.3c-1.1,0-2-0.9-2-2s0.9-2,2-2h35.3c1.1,0,2,0.9,2,2S-563.9,626.4-565,626.4z
			"/>
	</g>
	<g id="XMLID_469_">
		<path id="XMLID_724_" class="st5" d="M-467.7,626.4h-90c-1.1,0-2-0.9-2-2s0.9-2,2-2h90c1.1,0,2,0.9,2,2S-466.6,626.4-467.7,626.4z
			"/>
	</g>
	<g id="XMLID_468_">
		<path id="XMLID_723_" class="st5" d="M-455.6,626.4h-4.2c-1.1,0-2-0.9-2-2s0.9-2,2-2h4.2c1.1,0,2,0.9,2,2
			S-454.5,626.4-455.6,626.4z"/>
	</g>
</g>
<g id="XMLID_456_">
	<g id="XMLID_466_">
		<path id="XMLID_790_" class="st6" d="M-576.1,603.1h-116.2c-6.6,0-12-5.4-12-12v-71.6c0-6.6,5.4-12,12-12h116.2
			c6.6,0,12,5.4,12,12v71.6C-564.1,597.7-569.5,603.1-576.1,603.1z"/>
	</g>
	<g id="XMLID_465_">
		<path id="XMLID_788_" class="st7" d="M-572.2,607.7h-116.2c-6.6,0-12-5.4-12-12v-71.6c0-6.6,5.4-12,12-12h116.2
			c6.6,0,12,5.4,12,12v71.6C-560.2,602.3-565.6,607.7-572.2,607.7z"/>
	</g>
	<g id="XMLID_464_">
		<path id="XMLID_720_" class="st5" d="M-576.1,605.1h-116.2c-7.7,0-14-6.3-14-14v-71.6c0-7.7,6.3-14,14-14h116.2
			c7.7,0,14,6.3,14,14v71.6C-562.1,598.8-568.4,605.1-576.1,605.1z M-692.4,509.5c-5.5,0-10,4.5-10,10v71.6c0,5.5,4.5,10,10,10
			h116.2c5.5,0,10-4.5,10-10v-71.6c0-5.5-4.5-10-10-10H-692.4z"/>
	</g>
	<g id="XMLID_463_">
		<path id="XMLID_719_" class="st5" d="M-667.5,529.8h-24.1c-1.1,0-2-0.9-2-2s0.9-2,2-2h24.1c1.1,0,2,0.9,2,2
			S-666.4,529.8-667.5,529.8z"/>
	</g>
	<g id="XMLID_462_">
		<path id="XMLID_718_" class="st5" d="M-651.2,589.5h-40.4c-1.1,0-2-0.9-2-2s0.9-2,2-2h40.4c1.1,0,2,0.9,2,2
			S-650.1,589.5-651.2,589.5z"/>
	</g>
	<g id="XMLID_461_">
		<path id="XMLID_717_" class="st5" d="M-624.5,589.5h-14.8c-1.1,0-2-0.9-2-2s0.9-2,2-2h14.8c1.1,0,2,0.9,2,2
			S-623.4,589.5-624.5,589.5z"/>
	</g>
	<g id="XMLID_460_">
		<path id="XMLID_711_" class="st5" d="M-677.8,570h-13.9c-1.1,0-2-0.9-2-2s0.9-2,2-2h13.9c1.1,0,2,0.9,2,2S-676.7,570-677.8,570z"
			/>
	</g>
	<g id="XMLID_459_">
		<path id="XMLID_710_" class="st5" d="M-639.3,570h-30.3c-1.1,0-2-0.9-2-2s0.9-2,2-2h30.3c1.1,0,2,0.9,2,2S-638.2,570-639.3,570z"
			/>
	</g>
	<g id="XMLID_458_">
		<path id="XMLID_703_" class="st5" d="M-654.4,548.2h-25.8c-1.1,0-2-0.9-2-2s0.9-2,2-2h25.8c1.1,0,2,0.9,2,2
			S-653.3,548.2-654.4,548.2z"/>
	</g>
	<g id="XMLID_457_">
		<path id="XMLID_446_" class="st5" d="M-687.2,548.2h-4.4c-1.1,0-2-0.9-2-2s0.9-2,2-2h4.4c1.1,0,2,0.9,2,2
			S-686.1,548.2-687.2,548.2z"/>
	</g>
</g>
<g id="XMLID_437_">
	<g id="XMLID_452_">
		<g id="XMLID_453_">
			<path id="XMLID_765_" class="st6" d="M-592.5,584.4c-30,0-54.5-24.4-54.5-54.5c0-30,24.4-54.5,54.5-54.5
				c30,0,54.5,24.4,54.5,54.5C-538,559.9-562.5,584.4-592.5,584.4z M-592.5,487.1c-23.6,0-42.8,19.2-42.8,42.8
				c0,23.6,19.2,42.8,42.8,42.8s42.8-19.2,42.8-42.8C-549.7,506.3-568.9,487.1-592.5,487.1z"/>
		</g>
	</g>
	<g id="XMLID_448_">
		<g id="XMLID_449_">
			<path id="XMLID_760_" class="st7" d="M-587.8,587.5c-30,0-54.5-24.4-54.5-54.5c0-30,24.4-54.5,54.5-54.5
				c30,0,54.5,24.4,54.5,54.5C-533.4,563-557.8,587.5-587.8,587.5z M-587.8,490.2c-23.6,0-42.8,19.2-42.8,42.8
				c0,23.6,19.2,42.8,42.8,42.8S-545,556.6-545,533C-545,509.4-564.2,490.2-587.8,490.2z"/>
		</g>
	</g>
	<g id="XMLID_447_">
		<path id="XMLID_757_" class="st6" d="M-592.5,487.1c-23.6,0-42.8,19.2-42.8,42.8c0,23.6,19.2,42.8,42.8,42.8s42.8-19.2,42.8-42.8
			C-549.7,506.3-568.9,487.1-592.5,487.1z"/>
	</g>
	<g id="XMLID_443_">
		<g id="XMLID_444_">
			<path id="XMLID_712_" class="st5" d="M-592.5,586.4c-31.1,0-56.5-25.3-56.5-56.5s25.3-56.5,56.5-56.5s56.5,25.3,56.5,56.5
				S-561.4,586.4-592.5,586.4z M-592.5,477.4c-28.9,0-52.5,23.5-52.5,52.5c0,28.9,23.5,52.5,52.5,52.5c28.9,0,52.5-23.5,52.5-52.5
				C-540,501-563.6,477.4-592.5,477.4z M-592.5,574.7c-24.7,0-44.8-20.1-44.8-44.8c0-24.7,20.1-44.8,44.8-44.8s44.8,20.1,44.8,44.8
				C-547.7,554.6-567.8,574.7-592.5,574.7z M-592.5,489.1c-22.5,0-40.8,18.3-40.8,40.8c0,22.5,18.3,40.8,40.8,40.8
				s40.8-18.3,40.8-40.8C-551.7,507.4-570,489.1-592.5,489.1z"/>
		</g>
	</g>
	<g id="XMLID_441_">
		<g id="XMLID_442_">
			<path id="XMLID_707_" class="st5" d="M-564.8,526c-3.2,0-6-1.9-7.2-4.8c-1.1-2.7-2.7-5-4.8-7.1c-2.1-2-4.4-3.7-7.1-4.8
				c-4-1.7-5.8-6.3-4.2-10.3c0.8-1.9,2.3-3.4,4.3-4.2c1.9-0.8,4.1-0.8,6,0c4.5,1.9,8.6,4.6,12.1,8.1c3.5,3.5,6.2,7.5,8.1,12.1
				c0.8,1.9,0.8,4.1,0,6c-0.8,1.9-2.3,3.5-4.2,4.3C-562.7,525.8-563.7,526-564.8,526z M-580.8,498.3c-0.5,0-1,0.1-1.4,0.3
				c-0.9,0.4-1.7,1.1-2.1,2.1c-0.8,1.9,0.1,4.2,2,5c3.1,1.3,5.9,3.2,8.4,5.6c2.4,2.4,4.3,5.2,5.6,8.4c0.6,1.4,2,2.3,3.5,2.3
				c0.5,0,1-0.1,1.5-0.3c0.9-0.4,1.7-1.1,2.1-2.1c0.4-0.9,0.4-2,0-2.9c-1.7-4-4.2-7.7-7.3-10.8c-3.1-3.1-6.7-5.6-10.8-7.3
				C-579.8,498.4-580.3,498.3-580.8,498.3z"/>
		</g>
	</g>
	<g id="XMLID_440_">
		<path id="XMLID_743_" class="st6" d="M-524.3,583.2l-23-23c-4.4,6.5-10.1,12-16.8,16.1l23.3,23.3c4.5,4.5,11.9,4.5,16.5,0
			C-519.8,595.2-519.8,587.7-524.3,583.2z"/>
	</g>
	<g id="XMLID_439_">
		<path id="XMLID_741_" class="st7" d="M-519.6,583.2l-23-23c-4.4,6.5-10.1,12-16.8,16.1l23.3,23.3c4.5,4.5,11.9,4.5,16.5,0
			C-515.1,595.2-515.1,587.7-519.6,583.2z"/>
	</g>
	<g id="XMLID_438_">
		<path id="XMLID_704_" class="st5" d="M-532.5,605.1c-3.5,0-7-1.3-9.6-4l-23.3-23.3c-0.4-0.4-0.6-1-0.6-1.6
			c0.1-0.6,0.4-1.2,0.9-1.5c6.4-3.9,12-9.3,16.2-15.5c0.3-0.5,0.9-0.8,1.5-0.9c0.6-0.1,1.2,0.2,1.6,0.6l23,23l0,0
			c5.3,5.3,5.3,14,0,19.3C-525.6,603.8-529,605.1-532.5,605.1z M-560.9,576.7l21.6,21.6c3.8,3.8,9.9,3.8,13.6,0
			c3.8-3.8,3.8-9.9,0-13.6l-21.3-21.3C-550.9,568.5-555.6,573.1-560.9,576.7z"/>
	</g>
</g>
</svg>
