<?xml version="1.0" encoding="utf-8"?>
<!-- Generator: Adobe Illustrator 19.0.0, SVG Export Plug-In . SVG Version: 6.00 Build 0)  -->
<svg version="1.0" id="图层_1" xmlns="http://www.w3.org/2000/svg" xmlns:xlink="http://www.w3.org/1999/xlink" x="0px" y="0px"
	 viewBox="-809 441 300 200" style="enable-background:new -809 441 300 200;" xml:space="preserve">
<style type="text/css">
	.st0{clip-path:url(#XMLID_2_);fill:#ECF7FD;}
	.st1{clip-path:url(#XMLID_2_);fill:#D6EEFA;}
	.st2{clip-path:url(#XMLID_2_);fill:#C2E6F7;}
	.st3{clip-path:url(#XMLID_2_);fill:#B1DFF4;}
	.st4{fill:none;stroke:#61B9DC;stroke-width:4;stroke-linecap:round;stroke-linejoin:round;stroke-miterlimit:10;}
	.st5{fill:#FFFFFF;}
	.st6{fill:#CAE9F6;}
	.st7{display:none;fill:#CAE9F6;}
	.st8{fill:#61B9DC;}
</style>
<g id="XMLID_542_">
	<defs>
		<rect id="XMLID_543_" x="-809.2" y="440.5" width="300" height="170.2"/>
	</defs>
	<clipPath id="XMLID_2_">
		<use xlink:href="#XMLID_543_"  style="overflow:visible;"/>
	</clipPath>
	<circle id="XMLID_547_" class="st0" cx="-659.2" cy="585.3" r="126.4"/>
	<circle id="XMLID_546_" class="st1" cx="-659.2" cy="585.3" r="101.1"/>
	<circle id="XMLID_545_" class="st2" cx="-659.2" cy="585.3" r="70.8"/>
	<circle id="XMLID_544_" class="st3" cx="-659.2" cy="585.3" r="42.5"/>
</g>
<g id="XMLID_536_">
	<line id="XMLID_541_" class="st4" x1="-790.6" y1="610.6" x2="-776.2" y2="610.6"/>
	<line id="XMLID_540_" class="st4" x1="-770.3" y1="610.6" x2="-663.3" y2="610.6"/>
	<line id="XMLID_539_" class="st4" x1="-651.7" y1="610.6" x2="-621.5" y2="610.6"/>
	<line id="XMLID_538_" class="st4" x1="-615.1" y1="610.6" x2="-538" y2="610.6"/>
	<line id="XMLID_537_" class="st4" x1="-531.3" y1="610.6" x2="-527.7" y2="610.6"/>
</g>
<g id="XMLID_532_">
	<path id="XMLID_535_" class="st5" d="M-628.7,604l-81.5-12.5c-3.3-0.5-5.5-3.6-5-6.8l17.9-116.6c0.5-3.3,3.6-5.5,6.8-5l81.5,12.5
		c3.3,0.5,5.5,3.6,5,6.8L-621.8,599C-622.3,602.3-625.4,604.5-628.7,604z"/>
	<path id="XMLID_534_" class="st6" d="M-625.2,607.6l-81.5-12.5c-3.3-0.5-5.5-3.6-5-6.8l17.9-116.6c0.5-3.3,3.6-5.5,6.8-5l81.5,12.5
		c3.3,0.5,5.5,3.6,5,6.8l-17.9,116.6C-618.8,605.8-621.9,608.1-625.2,607.6z"/>
	<path id="XMLID_533_" class="st4" d="M-628.7,604l-81.5-12.5c-3.3-0.5-5.5-3.6-5-6.8l17.9-116.6c0.5-3.3,3.6-5.5,6.8-5l81.5,12.5
		c3.3,0.5,5.5,3.6,5,6.8L-621.8,599C-622.3,602.3-625.4,604.5-628.7,604z"/>
</g>
<g id="XMLID_528_">
	<path id="XMLID_531_" class="st5" d="M-624,600.3h-82.5c-3.3,0-6-2.7-6-6v-118c0-3.3,2.7-6,6-6h82.5c3.3,0,6,2.7,6,6v118
		C-618,597.6-620.7,600.3-624,600.3z"/>
	<g id="XMLID_530_">
		<path id="XMLID_761_" class="st7" d="M-620,603.3h-82.5c-3.3,0-6-2.7-6-6v-118c0-3.3,2.7-6,6-6h82.5c3.3,0,6,2.7,6,6v118
			C-614,600.6-616.7,603.3-620,603.3z"/>
	</g>
	<g id="XMLID_529_">
		<path id="XMLID_732_" class="st8" d="M-624,602.3h-82.5c-4.4,0-8-3.6-8-8v-118c0-4.4,3.6-8,8-8h82.5c4.4,0,8,3.6,8,8v118
			C-616,598.7-619.6,602.3-624,602.3z M-706.5,472.3c-2.2,0-4,1.8-4,4v118c0,2.2,1.8,4,4,4h82.5c2.2,0,4-1.8,4-4v-118
			c0-2.2-1.8-4-4-4H-706.5z"/>
	</g>
</g>
<g id="XMLID_523_">
	<g id="XMLID_527_">
		<path id="XMLID_754_" class="st6" d="M-630.5,507.4h-69.3c-0.9,0-1.7-0.8-1.7-1.7v-12.3c0-0.9,0.8-1.7,1.7-1.7h69.3
			c0.9,0,1.7,0.8,1.7,1.7v12.3C-628.8,506.6-629.6,507.4-630.5,507.4z"/>
	</g>
	<g id="XMLID_526_">
		<path id="XMLID_752_" class="st6" d="M-630.5,531.2h-69.3c-0.9,0-1.7-0.8-1.7-1.7v-12.3c0-0.9,0.8-1.7,1.7-1.7h69.3
			c0.9,0,1.7,0.8,1.7,1.7v12.3C-628.8,530.4-629.6,531.2-630.5,531.2z"/>
	</g>
	<g id="XMLID_525_">
		<path id="XMLID_750_" class="st6" d="M-630.5,555h-69.3c-0.9,0-1.7-0.8-1.7-1.7v-12.3c0-0.9,0.8-1.7,1.7-1.7h69.3
			c0.9,0,1.7,0.8,1.7,1.7v12.3C-628.8,554.3-629.6,555-630.5,555z"/>
	</g>
	<g id="XMLID_524_">
		<path id="XMLID_748_" class="st6" d="M-630.5,578.8h-69.3c-0.9,0-1.7-0.8-1.7-1.7v-12.3c0-0.9,0.8-1.7,1.7-1.7h69.3
			c0.9,0,1.7,0.8,1.7,1.7v12.3C-628.8,578.1-629.6,578.8-630.5,578.8z"/>
	</g>
</g>
<g id="XMLID_518_">
	<g id="XMLID_522_">
		<path id="XMLID_745_" class="st5" d="M-643.6,582.6l3.3-26.8l50.3-50.3c0,0,5.8-5.8,17.6,5.9c11.7,11.7,5.9,17.6,5.9,17.6
			l-50.3,50.3L-643.6,582.6z"/>
	</g>
	<g id="XMLID_521_">
		<path id="XMLID_743_" class="st6" d="M-642.8,586.6l3.3-26.8l50.3-50.3c0,0,5.8-5.8,17.6,5.9c11.7,11.7,5.9,17.6,5.9,17.6
			l-50.3,50.3L-642.8,586.6z"/>
	</g>
	<g id="XMLID_520_">
		<path id="XMLID_729_" class="st8" d="M-643.6,584.6c-0.5,0-1-0.2-1.4-0.6c-0.4-0.4-0.6-1-0.6-1.7l3.3-26.8
			c0.1-0.4,0.3-0.9,0.6-1.2l50.3-50.3c0.3-0.3,7.4-7.1,20.4,5.9c13,13,6.2,20.1,5.9,20.4l-50.3,50.3c-0.3,0.3-0.7,0.5-1.2,0.6
			l-26.8,3.3C-643.4,584.6-643.5,584.6-643.6,584.6z M-638.3,556.7l-2.9,23.6l23.6-2.9l49.8-49.8c1.4-1.6,2.1-6.7-5.9-14.7
			c-5.6-5.6-9.5-6.8-11.8-6.8c-1.9,0-2.9,0.8-3,0.9L-638.3,556.7z"/>
	</g>
	<g id="XMLID_519_">
		<path id="XMLID_728_" class="st8" d="M-621,574.9c-0.1,0-0.1,0-0.2,0c-0.5,0-4.7-0.6-9.4-5.3c-4.8-4.8-5.4-9.2-5.4-9.4
			c-0.1-1.1,0.7-2.1,1.7-2.2c1.1-0.1,2.1,0.6,2.2,1.7c0,0.1,0.6,3.4,4.2,7.1c3.7,3.7,6.8,4.1,7,4.1c1.1,0.1,1.9,1.1,1.8,2.2
			C-619.1,574.1-620,574.9-621,574.9z"/>
	</g>
</g>
</svg>
