<?xml version="1.0" encoding="utf-8"?>
<!-- Generator: Adobe Illustrator 19.0.0, SVG Export Plug-In . SVG Version: 6.00 Build 0)  -->
<svg version="1.1" id="图层_1" xmlns="http://www.w3.org/2000/svg" xmlns:xlink="http://www.w3.org/1999/xlink" x="0px" y="0px"
	 viewBox="-1872 952.2 200 80" style="enable-background:new -1872 952.2 200 80;" xml:space="preserve">
<style type="text/css">
	.st0{fill:#00A0E9;}
	.st1{fill:#FFFFFF;}
</style>
<title>Group 2</title>
<desc>Created with Sketch.</desc>
<g id="Symbols">
	<g id="后台nav" transform="translate(6.000000, 5.000000)">
		<g id="Group-3">
			<g id="Group-2">
				<rect id="path-1_1_" x="-1878" y="947.2" class="st0" width="200" height="80"/>
				<g>
					<path class="st1" d="M-1833.9,1009.6c-0.1-0.1-0.3-0.1-0.4,0l-0.3,0.3h-0.7v-3.6h1.8c0.1,0,0.1,0,0.2-0.1c0,0,0-0.1,0-0.2
						l-0.5-1.1c0-0.1,0-0.1-0.1-0.1c-0.1,0-0.1,0-0.1,0l-0.4,0.4h-0.8v-2.2l0.5-0.2l-1.7-0.4v7.4h-0.6v-0.2l0.4-0.3l-1.7-0.3v8
						l1.2-0.4v-0.5h2.3v0.8l1.2-0.4v-6l0.2-0.3c0.1-0.1,0.1-0.1,0.1-0.2c0-0.1,0-0.1-0.1-0.2L-1833.9,1009.6z M-1834.8,1015.2h-2.3
						v-4.3h2.3V1015.2z"/>
					<path class="st1" d="M-1807,1013.1l-1.5-1c-0.6,1.6-1.2,3.1-1.9,4.6c1.4-0.9,2.5-2.6,3-3.5L-1807,1013.1z"/>
					<path class="st1" d="M-1804.4,1012.2c0.5,1,1.1,2.4,1.6,3.6c0.2,0.7,0.8,0.8,1.2,0.5c0.3-0.2,0.3-0.8-0.1-1.3
						C-1802.2,1014.1-1803.3,1013-1804.4,1012.2z"/>
					<path class="st1" d="M-1828.7,1009.7h1.6c0.1,0,0.1,0,0.2-0.1c0-0.1,0-0.1,0-0.2l-0.6-1.1c0,0,0,0-0.1-0.1c0,0-0.1,0-0.1,0
						l-0.4,0.4h-3.6l0.3,1h1.6v4.9l-1.9,0.5l0.6,1.7l0.1-0.5l5.2-2.7l-2.7,0.7V1009.7z"/>
					<path class="st1" d="M-1812.5,1007.7c0.1,0,0.1,0,0.2-0.1c0-0.1,0-0.1,0-0.2l-0.5-1.1c0,0-0.1-0.1-0.1-0.1c0,0-0.1,0-0.1,0
						l-0.4,0.4h-2.6c0-0.5,0-1,0-1.5v-2.2l0.5-0.2l-1.7-0.3v1.9c0,0.8,0,1.6-0.1,2.3h-3.5l0.3,1h3.2c-0.4,4.1-1.7,6.9-3.9,9.5
						c2.5-1.3,4.4-4.2,5-8.7c0.4,3.2,1.6,6.6,3.2,8.7c0.3-0.7,0.5-1,1.1-1.2c-1.7-1.9-3.1-4.9-3.9-8.2H-1812.5z"/>
					<path class="st1" d="M-1822.8,1013.6l-0.1,0l-0.7,1.9c0,0.1-0.1,0.1-0.2,0c-0.6-1.8-1.1-5.1-1.3-8.4h2.3c0.1,0,0.1,0,0.2-0.1
						c0-0.1,0-0.1,0-0.2l-0.5-1.1c0,0-0.1-0.1-0.1-0.1c0,0-0.1,0-0.1,0l-0.4,0.4h-1.4c-0.1-1-0.1-2-0.1-3l0.3-0.2l-1.6-0.4
						c0,1.1,0.1,2.3,0.2,3.5h-5.5l0.3,1h5.3c0.3,3.7,0.8,7.3,1.3,8.7c0.7,1.9,2.2,2,2.5,0
						C-1822.9,1015.3-1823.2,1014.7-1822.8,1013.6z"/>
					<path class="st1" d="M-1708.2,1003l-1.6-0.4v1.4h-2.3c0-0.3,0-0.5,0-0.8l-1.7,2.3l1.1,1.1c0.2-0.4,0.3-1,0.4-1.5h5.9l-0.2,1.5
						c0.7-0.6,1.4-1.6,1.8-2.6l-1.3-0.6l-0.1,0.7h-2.4v-0.9L-1708.2,1003z"/>
					<path class="st1" d="M-1739.4,1006.8c0.3,0.2,0.9,0.6,0.9,1.2c0,0.8,1.3,0.5,1.3-0.2v-3.4l0.2-0.2c0.1,0,0.1-0.2,0.1-0.2
						c0-0.1,0-0.1-0.1-0.2l-0.5-0.4c-0.1-0.1-0.3-0.1-0.4,0l-0.3,0.3h-3.3l0.3,0.9h0.7c-0.1,1.2-0.4,2.9-1,4c1.2-0.7,2-2.2,2.2-4
						h0.9v2.5L-1739.4,1006.8z"/>
					<path class="st1" d="M-1735.2,1003.6c0,0,0.4,1.4,0.6,2.6c0.1,1.2,1.7,1,1.2-0.4C-1733.7,1005-1734.4,1004.2-1735.2,1003.6z"/>
					<path class="st1" d="M-1786.1,1003.3l0.5-0.2l-1.7-0.2v6.5l1.2-0.3v-0.4h3.1v0.7l1.2-0.4v-4.7l0.2-0.3c0.1,0,0.1-0.1,0.1-0.2
						c0-0.1,0-0.1-0.1-0.2l-0.5-0.4c-0.1-0.1-0.3-0.1-0.4,0l-0.3,0.3h-3.3V1003.3z M-1783,1004.5v3.1h-3.1v-3.1H-1783z"/>
					<path class="st1" d="M-1801.7,1009.6c0,0,0-0.1-0.1-0.1c0,0-0.1,0-0.1,0l-0.4,0.4h-7.8l0.3,1h3.5v4.5l-1.4-0.5
						c0.4,0.3,1.2,1,1.2,1.6c0,0.9,1.3,0.5,1.3-0.3v-5.3h3.8c0.1,0,0.1,0,0.2-0.1c0-0.1,0-0.1,0-0.2L-1801.7,1009.6z"/>
					<path class="st1" d="M-1705.1,1007.8c0.1,0,0.1,0,0.2-0.1c0-0.1,0-0.1,0-0.2l-0.5-1.1c0,0-0.1-0.1-0.1-0.1c0,0-0.1,0-0.1,0
						l-0.4,0.4h-3.6l0.4-0.8l0.5-0.1l-1.4-0.7l-0.7,1.5h-2.6l0.3,1h1.9l-0.7,1.5c0.7,0.2,1.5,0.4,2.2,0.7c-1.1,0.9-2.4,1.5-3.9,1.9
						c2.1-0.1,3.7-0.7,4.9-1.5c1,0.4,1.9,0.8,2.5,1.2c1,0.6,1.7-0.4,0.7-1c-0.6-0.3-1.5-0.6-2.4-0.9c0.6-0.6,1.1-1.2,1.5-1.9
						H-1705.1z M-1709.4,1009.4l-1.5-0.4l0.6-1.2h2.1C-1708.4,1008.4-1708.9,1008.9-1709.4,1009.4z"/>
					<path class="st1" d="M-1844.6,1008.1c0,0-0.1,0-0.1,0l-0.4,0.4h-8.3l0.3,1h9c0.1,0,0.1,0,0.2-0.1c0-0.1,0-0.1,0-0.2l-0.5-1.1
						C-1844.5,1008.1-1844.6,1008.1-1844.6,1008.1z"/>
					<path class="st1" d="M-1840.1,1007c-0.2,2.4-0.2,4.9-0.4,7c0.8-1.7,1.4-4.3,1.7-6.3l0.4-0.2L-1840.1,1007z"/>
					<path class="st1" d="M-1824.8,1002.9c0,0,0.4,0.9,0.5,1.8c0.1,0.5,0.7,0.7,1,0.4c0.1-0.2,0.3-0.4,0-0.8
						C-1823.5,1003.8-1823.9,1003.4-1824.8,1002.9z"/>
					<path class="st1" d="M-1840.9,1012.2c-0.1-1.7-0.7-3.5-1.4-4.7c0.1,1.3,0.2,3.2,0.2,4.8
						C-1842.1,1013.8-1840.8,1013.4-1840.9,1012.2z"/>
					<path class="st1" d="M-1839.2,1004.8l-0.4,0.4h-0.3v-2.2l0.5-0.2l-1.6-0.2v2.6h-1.5l0.2,1h3.7c0.1,0,0.1,0,0.2-0.1
						c0,0,0-0.1,0-0.2l-0.5-1.1C-1839,1004.8-1839.2,1004.8-1839.2,1004.8z"/>
					<polygon class="st1" points="-1841.9,1016.8 -1841.8,1016.2 -1838.5,1013.5 -1842.8,1015.1 					"/>
					<path class="st1" d="M-1780.7,1010.3c-0.1-0.1-0.3-0.1-0.4,0l-0.3,0.3h-1.6v-0.2l0.5-0.2l-1.7-0.2v7.3l1.2-0.3v-0.4h1.4v0.7
						l1.2-0.4v-5.5l0.2-0.3c0.1-0.1,0.1-0.1,0.1-0.2c0-0.1,0-0.1-0.1-0.2L-1780.7,1010.3z M-1781.6,1015.5h-1.4v-3.8h1.4V1015.5z"/>
					<path class="st1" d="M-1803,1008.3c0,0,0-0.1,0-0.2l-0.5-1.1c0,0-0.1-0.1-0.1-0.1c0,0-0.1,0-0.1,0l-0.4,0.4h-4.6l0.3,1h5.3
						C-1803.1,1008.4-1803,1008.4-1803,1008.3z"/>
					<path class="st1" d="M-1716.2,1004.1c0,0-0.1,0-0.1,0l-0.4,0.4h-2.7v-1.4l0.4-0.2l-1.6-0.4v1.9h-4l0.3,1h2.2v2
						c0,3.5-0.9,7.3-2.2,9.6c1.8-1.3,3-4,3.3-8h2.8v6.3l-1.7-0.5c0.6,0.4,1.6,1,1.6,1.6c0.1,0.9,1.3,0.6,1.3-0.3v-7.4l0.2-0.2
						c0,0,0.1-0.1,0.1-0.2c0-0.1,0-0.1-0.1-0.2l-0.5-0.5c-0.1-0.1-0.3-0.1-0.4,0l-0.4,0.3h-2.9c0-0.4,0-0.7,0-1.1v-1.4h5.2
						c0.1,0,0.1,0,0.2-0.1c0-0.1,0-0.1,0-0.2l-0.5-1.1C-1716.1,1004.1-1716.1,1004.1-1716.2,1004.1z"/>
					<path class="st1" d="M-1758.8,1009.2c0,0-0.1,0-0.1,0l-0.4,0.4h-1.1c0-0.7,0.1-1.5,0.1-2.3v-0.5h1.7c0.1,0,0.1,0,0.2-0.1
						c0.1-0.1,0.1-0.1,0-0.2l-0.5-1.1c0,0-0.1-0.1-0.1-0.1c0,0-0.1,0-0.1,0l-0.4,0.4h-1c0.6-0.7,1.3-1.7,1.6-2.4l0.4-0.1l-1.6-0.7
						c-0.2,1-0.5,2.1-0.8,3.3h-2.4l0.3,1h1.5v1c0,0.6,0,1.2,0,1.8h-1.9l0.3,1h1.5c-0.2,2.5-0.8,4.9-1.9,6.6c1.7-1.1,2.6-2.9,3-5.6
						c0.2,2.2,0.8,4.3,1.7,5.6c0-0.8,0.5-1.2,0.8-1.4c-1-1.3-1.8-3.2-2.2-5.1h2c0.1,0,0.1,0,0.2-0.1c0-0.1,0-0.1,0-0.2
						L-1758.8,1009.2C-1758.7,1009.2-1758.8,1009.2-1758.8,1009.2z"/>
					<path class="st1" d="M-1763.9,1012.7v-8.3h0.6c0.1,0,0.1,0,0.2-0.1c0-0.1,0-0.1,0-0.2l-0.5-1.1c0,0-0.1-0.1-0.1-0.1
						c0,0-0.1,0-0.1,0l-0.4,0.4h-3.3l0.3,1h0.3v9.4l-0.6,0.2l0.8,1.7l0-0.4l1.7-1.3v3.3l1.2-0.3v-3.9l0.8-0.6L-1763.9,1012.7z
						 M-1765.1,1013.1l-0.8,0.3v-2.6h0.8V1013.1z M-1765.1,1009.7h-0.8v-2.1h0.8V1009.7z M-1765.1,1006.4h-0.8v-2.1h0.8V1006.4z"/>
					<path class="st1" d="M-1741.4,1007c0-0.1-0.1-0.1-0.1-0.2l-0.5-0.4c-0.1-0.1-0.3-0.1-0.3,0l-0.3,0.2h-0.8l1.5-2.5l-1.3-0.5
						l-0.1,0.4h-1c0.1-0.3,0.2-0.6,0.3-0.9l0.4-0.1l-1.7-0.5c-0.1,1.2-0.5,3.8-0.9,5.3c0.1-0.2,0.3-0.4,0.5-0.6v4.1
						c0,3.1-0.1,4.7-0.5,5.9c1.1-1,1.4-2.5,1.5-4.1h0.4v2.2l1.1-0.2v-2h0.4v2.7l-1-0.3c0.6,0.4,0.8,0.9,0.9,1.1
						c0,0.9,1.2,0.5,1.2-0.3v-8.8l0.2-0.2C-1741.4,1007.2-1741.4,1007.1-1741.4,1007z M-1744.3,1012h-0.4c0-0.2,0-0.4,0-0.6v-1h0.4
						V1012z M-1744.3,1009.3h-0.4v-1.7h0.4V1009.3z M-1744,1006.6h-0.7v-0.1l0.4-0.3l-1-0.1c0.1-0.3,0.3-0.7,0.5-1h1.1L-1744,1006.6
						z M-1742.8,1012h-0.4v-1.7h0.4V1012z M-1742.8,1009.3h-0.4v-1.7h0.4V1009.3z"/>
					<path class="st1" d="M-1726.6,1009.4c0,0-0.1,0-0.1,0l-0.4,0.4h-0.1v-3.8l0.2-0.2c0-0.1,0.1-0.1,0.1-0.2c0-0.1,0-0.1-0.1-0.2
						l-0.5-0.5c-0.1-0.1-0.3-0.1-0.4,0l-0.3,0.2h-1.6v-2.2l0.5-0.2l-1.7-0.3v2.7h-1.9l0.3,1h1.6v1.8c0,0.7,0,1.3-0.1,1.8h-2l0.3,1
						h1.6c-0.4,2.5-1.3,4.2-3,6.3c2-0.9,3.7-2.9,4.2-6.3h0.4c0.5,2.7,1.5,5.2,2.7,6.4c0.1-0.7,0.3-1.1,0.9-1.4c-1.5-1.3-2.4-3-3.1-5
						h3c0.1,0,0.1,0,0.2-0.1c0-0.1,0-0.1,0-0.2L-1726.6,1009.4C-1726.5,1009.5-1726.6,1009.5-1726.6,1009.4z M-1728.4,1009.9h-1.5
						c0-0.4,0.1-0.9,0.1-1.4v-2.3h1.4V1009.9z"/>
					<path class="st1" d="M-1737.2,1013.2c0,0-0.1-0.1-0.1-0.1c0,0-0.1,0-0.1,0l-0.4,0.4h-0.5v-2.2h1.4c0.1,0,0.1,0,0.2-0.1
						c0,0,0-0.1,0-0.2l-0.5-1c0,0,0-0.1-0.1-0.1c0,0-0.1,0-0.1,0l-0.4,0.4h-0.4v-1.3l0.4-0.2l-1.6-0.3v1.9h-0.6
						c0.1-0.4,0.2-0.8,0.2-1.1l0.3-0.2l-1.4-0.3c0,1.4-0.2,2.9-0.4,4.3c0.4-0.5,0.7-1.1,0.9-1.7h0.9v2.2h-1.9l0.3,1h1.6v2.7l1.1-0.3
						v-2.4h1.6c0.1,0,0.1,0,0.2-0.1c0-0.1,0-0.1,0-0.2L-1737.2,1013.2z"/>
					<path class="st1" d="M-1763.2,1002.5c0,0,0.5,1.2,0.7,2.2c0.2,1.1,1.6,0.6,1.1-0.6C-1761.6,1003.7-1762.4,1002.9-1763.2,1002.5
						z"/>
					<path class="st1" d="M-1748.6,1003c-0.1-0.1-0.3-0.1-0.4,0l-0.3,0.2h-6v-0.2l0.4-0.2l-1.6-0.4v14.6l1.2-0.3v-2.1
						c0.6-0.8,1.1-1.9,1.5-3.2c0.1,0.3,0.1,0.6,0.2,0.9c0.3,1.6,1.4,0.9,1.2-0.2c-0.1-0.6-0.4-1.6-0.8-2.6c0.3-1.3,0.6-2.6,0.8-3.6
						l0.4-0.1l-1.6-0.8c-0.1,1-0.3,1.9-0.4,2.7c-0.4-1-0.8-1.8-1.2-2.3c0.3,1.1,0.6,2.5,0.9,3.9c-0.3,1.7-0.7,3.2-1.1,4.7v-9.9h5.8
						v1.7l-1.5-0.8c-0.1,1.1-0.3,2.1-0.4,3c-0.3-0.8-0.7-1.5-1-1.8c0.2,0.9,0.5,2,0.7,3.2c-0.4,2-0.8,3.8-1.3,5.5
						c0.7-0.8,1.2-2.1,1.7-3.5l0.3,1.6c0.3,1.6,1.4,0.9,1.2-0.2c-0.1-0.7-0.5-1.9-1-3.1c0.4-1.3,0.7-2.7,0.9-3.8l0.3,0v9.5l-1-0.3
						c0.4,0.3,0.9,0.8,0.9,1.4c0.1,0.9,1.3,0.6,1.3-0.2v-12.2l0.2-0.2c0.1-0.1,0.1-0.1,0.1-0.2c0-0.1,0-0.1-0.1-0.2L-1748.6,1003z"
						/>
					<path class="st1" d="M-1735.5,1014.1l1.1,1.3c0.7-2.4,1.1-5.1,1.2-7.9C-1733.9,1010.1-1734.7,1012.6-1735.5,1014.1z"/>
					<path class="st1" d="M-1802.6,1004.5h-2.6v-1.4l0.4-0.2l-1.6-0.3v1.9h-2.4c0-0.3,0-0.6,0-0.9l-1.8,3.2l1.4,0.6
						c0.1-0.6,0.2-1.3,0.3-1.9h6.2l-0.2,2.2c0.7-1,1.3-2.1,1.7-3.3l-1.5-0.6L-1802.6,1004.5z"/>
					<path class="st1" d="M-1791.3,1003.3c0,0-0.1,0-0.1,0l-0.4,0.4h-2.7v-0.8l0.4-0.2l-1.6-0.3v1.4h-3.9l0.3,1h1.8
						c0.2,0.4,0.5,1,0.6,1.6c0.3,1.1,1.7,0.7,1-0.5c-0.2-0.3-0.6-0.7-1.1-1.1h3.2c-0.3,0.8-0.6,1.6-0.9,2.4h-3.1v-0.1l0.4-0.2
						l-1.6-0.3v10.6l1.2-0.3v-5.4c0.9-0.6,1.9-1.8,2.2-2.2h0.3l-1.3-0.9c-0.3,0.9-0.8,2-1.3,2.8v-3h5.1v7.3l-1-0.3
						c0.4,0.3,0.9,0.8,0.9,1.4c0.1,0.9,1.3,0.6,1.3-0.2v-8.4l0.2-0.2c0,0,0.1-0.1,0.1-0.2c0-0.1,0-0.1-0.1-0.2l-0.5-0.5
						c-0.1-0.1-0.3-0.1-0.4,0l-0.3,0.3h-1.7c0.5-0.5,1-1.1,1.5-1.7l0.4,0l-1-0.6h2.4c0.1,0,0.1,0,0.2-0.1c0-0.1,0-0.1,0-0.2
						l-0.5-1.1C-1791.2,1003.4-1791.2,1003.4-1791.3,1003.3z"/>
					<path class="st1" d="M-1785.2,1010.3c-0.1-0.1-0.3-0.1-0.4,0l-0.3,0.3h-1.6v-0.2l0.5-0.2l-1.7-0.2v7.3l1.2-0.3v-0.4h1.4v0.7
						l1.2-0.4v-5.5l0.2-0.3c0.1-0.1,0.1-0.1,0.1-0.2c0-0.1,0-0.1-0.1-0.2L-1785.2,1010.3z M-1786.1,1015.5h-1.4v-3.8h1.4V1015.5z"/>
					<path class="st1" d="M-1793,1010c-0.3-0.4-1.1-1-2-1.2c0,0,0.7,0.9,1.1,1.8C-1793.4,1011.6-1792.2,1011.1-1793,1010z"/>
					<path class="st1" d="M-1775.7,1010.6v-3.4h1c0.1,0,0.1,0,0.2-0.1c0-0.1,0-0.1,0-0.2l-0.5-1.1c0,0-0.1-0.1-0.1-0.1
						c-0.1,0-0.1,0-0.1,0.1l-0.4,0.3v-3.1l0.4-0.2l-1.6-0.2v1.3l-1.2-0.3c-0.1,2.3-0.1,4.3-0.3,6.4c0.4-0.8,0.7-1.8,0.9-2.9h0.6v4
						l-1.5,0.7l0.8,1.6l0-0.6l0.6-0.6v5l1.2-0.2v-5.8l1.1-1.1L-1775.7,1010.6z M-1776.9,1006.1h-0.4c0.1-0.7,0.2-1.4,0.3-2l0.2-0.1
						V1006.1z"/>
					<path class="st1" d="M-1793.5,1015.1v-2.8l0.2-0.2c0-0.1,0.1-0.1,0.1-0.2c0-0.1,0-0.1-0.1-0.2l-0.4-0.4c-0.1-0.1-0.2-0.1-0.3,0
						l-0.2,0.2h-1.4v-0.2l0.4-0.2l-1.5-0.2v4.3l1.1-0.2v-0.4h1.2v0.6L-1793.5,1015.1z M-1795.7,1013.8v-1.3h1.2v1.3H-1795.7z"/>
					<path class="st1" d="M-1705.2,1012c0,0-0.1,0-0.1,0l-0.4,0.4h-2.9v-0.7l0.4-0.2l-1.6-0.3v1.3h-4.2l0.3,1h2.9
						c-0.9,1.4-2.2,3-3.3,3.6c1.3-0.1,3.1-1.5,4.2-3v3l1.2-0.3v-3c0.8,1.3,2.3,2.6,3.5,3.2c0-0.6,0.1-1.1,0.5-1.3
						c-1.3-0.4-2.7-1.3-3.7-2.3h3.5c0.1,0,0.1,0,0.2-0.1c0-0.1,0-0.1,0-0.2L-1705.2,1012C-1705.2,1012.1-1705.2,1012.1-1705.2,1012z
						"/>
					<path class="st1" d="M-1769.5,1004.7c-0.1-0.1-0.3-0.1-0.4,0l-0.2,0.2h-3.1c0.1-0.7,0.3-1.3,0.4-1.8l0.4-0.1l-1.6-0.5
						c-0.2,2.5-0.4,5.2-0.8,7c0.5-0.9,0.9-2.2,1.3-3.5h0.3c-0.3,3.4-0.8,6.1-1.6,8.9c1.6-2.3,2.3-5.1,2.8-8.9h0.3
						c-0.3,4.7-1.1,8.2-2,11c2-2.4,2.7-5.8,3.1-11h0.2v9.6l-1.2-0.4c0.4,0.3,1,0.8,1.1,1.5c0.1,0.9,1.3,0.6,1.3-0.3v-10.6l0.2-0.2
						c0.1-0.1,0.1-0.1,0.1-0.2c0-0.1,0-0.1-0.1-0.2L-1769.5,1004.7z"/>
					<path class="st1" d="M-1795.4,983.8v5.3c0,1.1,0.4,2,1.1,2.6c0.7,0.6,1.7,0.9,3.1,0.9c1.3,0,2.3-0.3,3.1-0.9
						c0.7-0.6,1.1-1.4,1.1-2.6v-5.3h-1.6v5.3c0,0.7-0.2,1.3-0.6,1.6c-0.4,0.4-1,0.5-1.9,0.5c-0.9,0-1.5-0.2-1.9-0.5
						c-0.4-0.4-0.6-0.9-0.6-1.6v-5.3H-1795.4z"/>
					<path class="st1" d="M-1772.8,991c-0.4,0.2-1,0.3-1.7,0.3c-0.8,0-1.4-0.1-1.8-0.4c-0.4-0.3-0.7-0.7-0.8-1.4h-1.6
						c0.1,1.1,0.5,1.9,1.4,2.4c0.7,0.4,1.7,0.6,2.9,0.6c1.3,0,2.3-0.2,3-0.7c0.7-0.4,1-1.1,1-1.8c0-0.8-0.4-1.4-1.3-1.8
						c-0.4-0.2-1.3-0.5-2.6-0.8c-0.9-0.2-1.5-0.4-1.7-0.5c-0.5-0.2-0.7-0.5-0.7-0.9c0-0.4,0.2-0.7,0.6-0.9c0.3-0.2,0.8-0.2,1.4-0.2
						c0.7,0,1.3,0.1,1.7,0.3c0.4,0.2,0.6,0.6,0.8,1.1h1.6c-0.1-0.9-0.5-1.6-1.2-2.1c-0.7-0.4-1.6-0.6-2.8-0.6c-1.1,0-2,0.2-2.7,0.6
						c-0.7,0.4-1.1,1-1.1,1.8c0,0.8,0.4,1.3,1.1,1.7c0.3,0.1,1.1,0.4,2.3,0.7c1.1,0.3,1.7,0.5,1.9,0.6c0.6,0.3,0.9,0.6,0.9,1.1
						C-1772.2,990.4-1772.4,990.7-1772.8,991z"/>
					<path class="st1" d="M-1764.4,992.5c1,0,1.8-0.2,2.4-0.7c0.5-0.4,0.8-0.9,1-1.5h-1.6c-0.2,0.4-0.4,0.6-0.6,0.8
						c-0.3,0.2-0.7,0.3-1.2,0.3c-0.6,0-1-0.2-1.3-0.5c-0.3-0.3-0.5-0.7-0.5-1.3h5.4c0-1.1-0.3-2-0.9-2.6c-0.6-0.7-1.5-1-2.7-1
						c-1.1,0-1.9,0.3-2.5,0.9c-0.6,0.6-1,1.4-1,2.3c0,1,0.3,1.8,1,2.4C-1766.4,992.2-1765.5,992.5-1764.4,992.5z M-1765.7,987.5
						c0.3-0.3,0.7-0.4,1.2-0.4c1.1,0,1.7,0.5,1.9,1.5h-3.7C-1766.2,988.1-1766,987.7-1765.7,987.5z"/>
					<path class="st1" d="M-1752.4,984.9c-0.8,0.8-1.2,1.9-1.2,3.2c0,1.3,0.4,2.4,1.2,3.2c0.9,0.8,2.1,1.3,3.6,1.3
						c1.5,0,2.7-0.4,3.6-1.3c0.8-0.8,1.3-1.9,1.3-3.2c0-1.3-0.4-2.4-1.3-3.2c-0.9-0.8-2.1-1.3-3.6-1.3
						C-1750.4,983.6-1751.6,984-1752.4,984.9z M-1745.6,988.1c0,1-0.3,1.8-0.8,2.4c-0.6,0.6-1.4,0.9-2.4,0.9c-1,0-1.8-0.3-2.4-0.9
						c-0.5-0.6-0.8-1.3-0.8-2.3c0-1,0.3-1.8,0.8-2.3c0.6-0.6,1.4-0.9,2.4-0.9c1,0,1.8,0.3,2.4,0.9
						C-1745.9,986.3-1745.6,987.1-1745.6,988.1z"/>
					<path class="st1" d="M-1735.3,992.3v-3.8c0-1.7-0.9-2.5-2.7-2.5c-0.4,0-0.8,0.1-1.2,0.2c-0.3,0.1-0.7,0.4-1,0.7v-0.7h-1.6v6.2
						h1.6v-3.7c0.1-0.5,0.3-0.9,0.6-1.1c0.3-0.2,0.6-0.4,1-0.4c1.1,0,1.6,0.5,1.6,1.5v3.7H-1735.3z"/>
					<polygon class="st1" points="-1723,991.1 -1728.5,991.1 -1728.5,983.8 -1730.1,983.8 -1730.1,992.3 -1723,992.3 					"/>
					<rect x="-1721.6" y="986.1" class="st1" width="1.6" height="6.2"/>
					<path class="st1" d="M-1721.6,983.8c-0.2,0.2-0.3,0.4-0.3,0.6c0,0.3,0.1,0.5,0.3,0.7c0.2,0.2,0.5,0.3,0.8,0.3
						c0.3,0,0.6-0.1,0.8-0.3c0.2-0.2,0.3-0.4,0.3-0.7c0-0.3-0.1-0.5-0.3-0.6c-0.2-0.2-0.5-0.3-0.8-0.3
						C-1721.2,983.6-1721.4,983.7-1721.6,983.8z"/>
					<path class="st1" d="M-1713.2,988.6v3.7h1.6v-3.8c0-1.7-0.9-2.5-2.7-2.5c-0.4,0-0.8,0.1-1.2,0.2c-0.3,0.1-0.7,0.4-1,0.7v-0.7
						h-1.6v6.2h1.6v-3.7c0.1-0.5,0.3-0.9,0.6-1.1c0.3-0.2,0.6-0.4,1-0.4C-1713.8,987.1-1713.2,987.6-1713.2,988.6z"/>
					<path class="st1" d="M-1705.6,991.1c-0.3,0.2-0.7,0.3-1.2,0.3c-0.6,0-1-0.2-1.3-0.5c-0.3-0.3-0.5-0.7-0.5-1.3h5.4
						c0-1.1-0.3-2-0.9-2.6c-0.6-0.7-1.5-1-2.7-1c-1.1,0-1.9,0.3-2.5,0.9c-0.6,0.6-1,1.4-1,2.3c0,1,0.3,1.8,1,2.4
						c0.6,0.6,1.5,0.9,2.6,0.9c1,0,1.8-0.2,2.4-0.7c0.5-0.4,0.8-0.9,1-1.5h-1.6C-1705.2,990.7-1705.4,990.9-1705.6,991.1z
						 M-1708.1,987.5c0.3-0.3,0.7-0.4,1.2-0.4c1.1,0,1.7,0.5,1.9,1.5h-3.7C-1708.6,988.1-1708.4,987.7-1708.1,987.5z"/>
					<path class="st1" d="M-1775.2,977.2h15.7l0.8-2.3h-15.7c-0.4,0-0.8-0.4-0.8-0.8v-1.7h10.1l0.7-2.3h-2.9v-3.3l2.5,0
						c0.4,0,0.8,0.4,0.8,0.7v2.6v2.3h4.6v-5.6v-1.2v-0.4c0-0.4-0.4-0.8-0.8-0.8l-0.9,0l1.3-2c0-0.1,0.1-0.2,0.1-0.3v-1.3
						c0-0.4-0.3-0.7-0.7-0.8h-12.6c0.1-0.4,0.2-0.8,0.2-1.2c0,0,0,0,0,0h-4.6c-0.4,2-1.6,3.5-3,4v1.4c0.1,0,0.1,0,0.1,0
						c2.2,0,4.2-0.7,5.6-1.9h9.7l-1.5,2.1l-11.7,0c-0.9,0-1.6,0.7-1.6,1.6v0.7v3.3v2.3v2.4v0.7c0,0.8,0.8,1.6,1.6,1.6L-1775.2,977.2
						z M-1775.2,967.7c0-0.4,0.4-0.8,0.8-0.8h2.6v3.3h-3.4V967.7z"/>
					<polygon class="st1" points="-1732.8,974.8 -1737.9,974.8 -1737.9,970 -1734.3,970 -1733.4,967.7 -1737.9,967.7 -1737.9,964.1 
						-1742.5,964.1 -1742.5,967.7 -1747.2,967.7 -1747.2,970 -1742.5,970 -1742.5,974.8 -1747.2,974.8 -1747.2,977.2 -1732.8,977.2 
											"/>
					<path class="st1" d="M-1752.8,977.2h4.6V966c1.3-0.9,2.4-1.9,3.3-3.1h12.1v-2.4h-10.8c0.2-0.5,0.4-1.1,0.4-1.7h-5.4
						c-0.1,0.6-0.3,1.1-0.6,1.7h-5.4v2.4h3.8c-1.1,1.3-2.6,2.3-4.3,3.1v2.6c0.8-0.1,1.6-0.3,2.3-0.5V977.2z"/>
					<path class="st1" d="M-1806.6,966v2.6c0.8-0.1,1.6-0.3,2.4-0.5v9.3h4.7v-3.1h7.9l0.8-2.2h-8.7v-1.8h9.2v1.8v3
						c0,0.4-0.3,0.8-0.8,0.8h-0.7v1.6h1.5h2.4h0.7c0.8,0,1.6-0.8,1.6-1.6v-5.5V968v-1.8v-0.6c0-0.9-0.7-1.6-1.6-1.6h-10.1
						c0.4-0.5,0.8-1,1.2-1.5h11.6v-2.2h-10.6c0.2-0.5,0.3-0.9,0.4-1.4h-5.4c-0.1,0.5-0.3,0.9-0.5,1.4h-6.2v2.2h4.8
						C-1803.2,963.9-1804.7,965.1-1806.6,966z M-1799.5,966.9c0-0.4,0.4-0.8,0.8-0.8h7.7c0.4,0,0.7,0.4,0.7,0.8v1.1h-9.2V966.9z"/>
					<polygon class="st1" points="-1720.6,973.6 -1728.6,974.4 -1728.6,976.9 -1721.1,976.1 					"/>
					<path class="st1" d="M-1711.4,976.5c0.1,0.3,0.4,0.5,0.8,0.5h3.4h0.3l0.7-1.8h-1.1c-0.4,0-0.7-0.2-0.8-0.6l0,0l0,0.1l-0.7-1.9
						c0.7-0.3,1.4-0.6,2.4-0.9l-0.1-3c0,0-1.4,0.5-3.4,1.2l-0.6-1.7l4-0.2v-2.5l-4.9,0.3l-0.7-1.9l5.3-0.3v-2.3l-1.1,0.1v-1.7h-3.3
						v1.9l-1.8,0.1l-1.1-3h-4l1.2,3.3l-2.7,0.2v2.3l3.6-0.2l0.7,1.9l-4.4,0.3v2.5l5.4-0.3l1,2.7c-2.3,0.7-4.6,1.4-6.4,1.6v2.3
						c3.8-0.6,5.8-1,7.3-1.3L-1711.4,976.5z"/>
					<path class="st1" d="M-1720.6,970.3l-3.4,0.3c3-2.6,3.9-5.8,3.9-5.8h-3.4c-0.1,0.3-0.3,0.5-0.4,0.8h-1.1
						c2.4-2.6,3.4-6.8,3.4-6.8h-4.2c-0.3,2.4-1.9,5.3-2.5,6.4l0,0c-0.2,0.3-0.3,0.5-0.3,0.6v2.1h3.2c-1.2,1.6-2.4,2.6-2.9,3
						c-0.2,0.1-0.3,0.3-0.3,0.5v1.9l7.5-0.8L-1720.6,970.3z"/>
					<path class="st1" d="M-1834.8,971.9c3,1.1,4.7,1.8,4.7,3.6c0,1-0.2,1.7-0.9,2.3c0.5,0.4,1,1.2,1,1.3c0.2-0.1,0.3-0.2,0.4-0.3
						c0.6-0.5,1.2-1,1.9-2.2c0.4-0.7,0.6-1.9,0.6-2.8c0-2.3-1.8-4.4-5.4-5.8c-1.6-0.5-3.3-0.9-4.1-1.5c-0.8-0.6-1.2-1.3-1.2-2.2
						c0-2.1,1.2-3.1,3.5-3.1c0.4,0,0.9,0.1,1.4,0.4c0.5,0.3,1,0.5,1.4,1c0.9,1.1,1.2,2.4,1.3,2.9l2.1,0.1l-0.3-4.2
						c-1.3-0.8-3.6-1.3-5.6-1.3c-0.9,0-1.8,0.1-2.6,0.4c-0.8,0.2-1.5,0.6-2.1,1c-0.6,0.4-1.1,1-1.4,1.6c-0.4,0.6-0.7,1.6-0.7,2.6
						c0,1.1,0.1,2.2,1.2,3.4C-1838.8,970-1837,971.1-1834.8,971.9z"/>
					<path class="st1" d="M-1834.4,980.2c0.8,0,1.5-0.1,2.1-0.2c0-0.3-0.3-0.9-0.6-1.2c-0.4,0.1-0.7,0.1-1.1,0.1
						c-1.2,0-2.4-0.5-3.5-1.5c-1.1-1-1.3-2.5-1.7-4.2l-2.2,0.1l0.5,5.4C-1839.4,979.5-1836.7,980.2-1834.4,980.2z"/>
					<path class="st1" d="M-1838,981.9h8.4c0-0.7-0.2-1.5-0.4-2.1c-0.2-0.6-0.5-1.2-0.9-1.6c-0.4-0.4-1.3-1.3-3.5-1.3
						c-1.1,0-1.9,0.2-2.6,0.5c0.3,0.2,0.7,0.6,1.1,0.8c0.4-0.2,0.9-0.3,1.4-0.3c0.8,0,1.3,0.1,1.7,0.6c0.4,0.4,0.6,0.9,0.7,1.4
						c0.1,0.3,0.1,0.5,0,0.6c0,0.1-0.1,0.2-0.3,0.3c-0.1,0.1-0.3,0.1-0.5,0.1c-0.2,0-0.5,0-0.8,0h-4.3c0.1-0.3,0.1-0.6,0.3-0.8
						c-0.6-0.1-1.6-0.3-2-0.4c-0.4,0.7-1,1.7-1,3.4c0,1.4,0.4,2.6,1.5,3.8c0.6,0.7,1.4,1.1,2,1.4c1.4,0.5,3.6,0.6,5.1-0.2
						c0.6-0.3,1.1-0.8,1.7-1.3c0.5-0.4,0.7-0.8,0.7-0.8l-0.1-1.1c-1,1.3-2.6,2.1-4.4,1.9c-1.9-0.3-3.4-1.7-3.8-3.6
						C-1838,982.8-1838,982.4-1838,981.9C-1838,982-1838,981.9-1838,981.9L-1838,981.9L-1838,981.9z"/>
					<path class="st1" d="M-1850.3,963.6c0,0,0,0.1,0,0.1v16.2c0,8.6,7,15.6,15.6,15.6c8.6,0,15.6-7,15.6-15.6v-15.8
						c0-2.1,0.8-4.4,1.9-4.5c-0.4-1.6,0.5-2.5,1.7-2.3c0.9,0.2,2,1.1,1.7,2.1c-0.4-0.5-1.1,0.1-0.7,0.5c1.1,1,1.8-2-0.8-3
						c-1.7-0.6-3.5,0.1-4.3,1.8h0c-0.1,0.2-0.6,1.3-0.6,4c0,2.1-0.1,12.3-0.1,17.9c0,4.8-3.4,7-3.4,7s2.8-2.5,2.8-7v-21.9h0
						c0-0.2-0.2-0.4-0.4-0.4c-0.2,0-0.4,0.2-0.4,0.4h0v22.2c0,4.4-2.6,6.3-2.6,6.3s2.1-2.1,2.1-6.2c0-5-0.2-15.3-0.2-18.3
						c0-3-0.6-4-0.6-4c-0.3-0.7-0.7-1.1-1.4-1.4c-1.5-0.7-3.4,1-2.3,2.5c0.5-0.5,1.2-0.4,1.5-0.2c0.2,0.1,1.8,0.6,1.8,4.3v16.7
						c0,6.2-5,11.2-11.2,11.2c-6.2,0-11.2-5-11.2-11.2v-16.8c0,0,0-0.1,0-0.1c0-3.1,1.9-4.1,1.9-4.1v-0.8h-8v0.8
						C-1852,959.5-1850.3,960.6-1850.3,963.6z"/>
				</g>
			</g>
		</g>
	</g>
</g>
</svg>
