<?xml version="1.0" encoding="utf-8"?>
<!-- Generator: Adobe Illustrator 19.0.0, SVG Export Plug-In . SVG Version: 6.00 Build 0)  -->
<svg version="1.0" id="图层_1" xmlns="http://www.w3.org/2000/svg" xmlns:xlink="http://www.w3.org/1999/xlink" x="0px" y="0px"
	 viewBox="0 0 1920 1080" style="enable-background:new 0 0 1920 1080;" xml:space="preserve">
<style type="text/css">
	.st0{fill:#C4E4FC;}
	.st1{fill-rule:evenodd;clip-rule:evenodd;fill:#E9F5FF;}
	.st2{fill:#C69481;}
	.st3{fill:#CFF9F7;}
	.st4{fill:#9EDBD7;}
	.st5{opacity:0.4;}
	.st6{fill:#008797;}
	.st7{fill:#39C9BB;}
	.st8{fill:#22B3AA;}
	.st9{fill:#FFFFF8;}
	.st10{fill:#E8BDA7;}
	.st11{fill:#D3A590;}
	.st12{fill:#EDE0DF;}
	.st13{fill:#E0CFCE;}
	.st14{fill:#435771;}
	.st15{fill:#5D7991;}
	.st16{opacity:0.4;fill:none;stroke:#FFFFF8;stroke-width:4;stroke-linecap:round;stroke-miterlimit:10;}
	.st17{opacity:0.2;fill:#F6F0E8;}
	.st18{fill:#143842;}
	.st19{fill:#204C56;}
	.st20{fill:#5B5757;}
	.st21{fill:#474343;}
	.st22{fill:#BFE2D5;}
	.st23{fill-rule:evenodd;clip-rule:evenodd;fill:#424242;}
	.st24{fill-rule:evenodd;clip-rule:evenodd;fill:#A8DDD9;}
	.st25{fill:#424242;}
	.st26{fill:#565656;}
	.st27{fill:#F28E70;}
	.st28{fill:#E2774D;}
	.st29{opacity:0.5;fill:none;stroke:#A57C65;stroke-linecap:round;stroke-miterlimit:10;}
	.st30{fill:none;}
</style>
<g id="XMLID_150_">
	<path id="XMLID_1136_" class="st0" d="M1521.3,459.6l-1.2-1.6c0,0,1.2-0.9,3.1-2.5l1.3,1.5C1522.5,458.7,1521.3,459.6,1521.3,459.6
		z M1526.7,455l-1.3-1.5c0.9-0.8,1.9-1.7,2.9-2.7l1.4,1.4C1528.6,453.3,1527.6,454.2,1526.7,455z M1531.8,450.2l-1.4-1.4
		c0.9-0.9,1.8-1.8,2.8-2.9l1.5,1.4C1533.7,448.3,1532.8,449.3,1531.8,450.2z M1536.7,445.1l-1.5-1.3c0.9-1,1.7-1.9,2.6-3l1.5,1.3
		C1538.5,443.1,1537.6,444.1,1536.7,445.1z M1541.3,439.7l-1.5-1.3c0.8-1,1.6-2,2.5-3.1l1.6,1.2
		C1543,437.6,1542.1,438.7,1541.3,439.7z M1545.6,434.1l-1.6-1.2c0.8-1,1.5-2.1,2.3-3.2l1.6,1.1
		C1547.2,432,1546.4,433.1,1545.6,434.1z M1549.7,428.3l-1.7-1.1c0.7-1.1,1.4-2.2,2.1-3.3l1.7,1
		C1551.1,426.1,1550.4,427.2,1549.7,428.3z M1553.4,422.3l-1.7-1c0.7-1.2,1.3-2.3,1.9-3.5l1.8,0.9
		C1554.7,420,1554.1,421.2,1553.4,422.3z M1556.8,416.1l-1.8-0.9c0.6-1.2,1.2-2.4,1.7-3.6l1.8,0.8
		C1558,413.7,1557.4,415,1556.8,416.1z M1559.8,409.8l-1.8-0.8c0.5-1.2,1-2.5,1.5-3.7l1.9,0.7
		C1560.8,407.3,1560.3,408.5,1559.8,409.8z M1562.4,403.2l-1.9-0.7c0.4-1.3,0.9-2.5,1.3-3.8l1.9,0.6
		C1563.2,400.6,1562.8,401.9,1562.4,403.2z M1564.5,396.4l-1.9-0.5c0.4-1.3,0.7-2.6,1-3.8l1.9,0.5
		C1565.2,393.8,1564.9,395.2,1564.5,396.4z M1566.2,389.6l-2-0.4c0.3-1.3,0.5-2.6,0.7-3.9l2,0.3
		C1566.7,386.9,1566.5,388.3,1566.2,389.6z M1567.4,382.6l-2-0.3c0.2-1.3,0.3-2.6,0.4-3.9l2,0.2
		C1567.7,379.9,1567.5,381.3,1567.4,382.6z M1568,375.6l-2-0.1c0.1-1.3,0.1-2.6,0.1-4l2,0C1568.2,372.9,1568.1,374.2,1568,375.6z
		 M1566.2,368.5c0-1.3-0.1-2.6-0.2-4l2-0.1c0.1,1.3,0.1,2.7,0.2,4L1566.2,368.5z M1565.8,361.6c-0.1-1.3-0.3-2.6-0.4-3.9l2-0.3
		c0.2,1.3,0.3,2.7,0.5,4L1565.8,361.6z M1564.9,354.8c-0.2-1.3-0.5-2.6-0.7-3.9l2-0.4c0.3,1.3,0.5,2.7,0.7,4L1564.9,354.8z
		 M1563.5,348c-0.3-1.3-0.6-2.6-1-3.8l1.9-0.5c0.4,1.3,0.7,2.6,1,3.9L1563.5,348z M1561.7,341.3c-0.4-1.3-0.8-2.5-1.2-3.8l1.9-0.7
		c0.4,1.3,0.9,2.6,1.3,3.8L1561.7,341.3z M1559.5,334.7c-0.5-1.2-1-2.4-1.5-3.6l1.8-0.8c0.6,1.2,1.1,2.5,1.6,3.7L1559.5,334.7z
		 M1556.7,328.4c-0.6-1.2-1.2-2.3-1.9-3.5l1.7-1c0.7,1.2,1.3,2.4,1.9,3.6L1556.7,328.4z M1553.3,322.4c-0.7-1.1-1.4-2.2-2.2-3.3
		l1.6-1.2c0.8,1.1,1.6,2.2,2.3,3.3L1553.3,322.4z M1549.3,316.8c-0.8-1-1.6-2-2.5-3l1.5-1.3c0.9,1,1.8,2.1,2.6,3.1L1549.3,316.8z
		 M1544.8,311.6c-0.9-0.9-1.8-1.9-2.8-2.8l1.4-1.4c1,0.9,1.9,1.9,2.8,2.9L1544.8,311.6z M1539.9,306.7c-1-0.9-2-1.7-3-2.6l1.3-1.5
		c1,0.9,2.1,1.8,3.1,2.6L1539.9,306.7z M1534.6,302.3c-1-0.8-2.1-1.6-3.2-2.4l1.2-1.6c1.1,0.8,2.2,1.6,3.2,2.4L1534.6,302.3z
		 M1529,298.2c-1.1-0.7-2.2-1.5-3.3-2.2l1.1-1.7c1.1,0.7,2.3,1.5,3.4,2.2L1529,298.2z M1523.1,294.5c-1.1-0.7-2.3-1.3-3.4-2l1-1.7
		c1.2,0.7,2.3,1.3,3.5,2L1523.1,294.5z M1517.1,291c-1.2-0.6-2.3-1.2-3.5-1.8l0.9-1.8c1.2,0.6,2.4,1.2,3.6,1.8L1517.1,291z
		 M1510.8,287.9c-1.2-0.6-2.4-1.1-3.6-1.7l0.8-1.8c1.2,0.5,2.5,1.1,3.7,1.7L1510.8,287.9z M1504.5,285.1c-1.2-0.5-2.4-1-3.7-1.5
		l0.7-1.9c1.2,0.5,2.5,1,3.7,1.5L1504.5,285.1z M1498,282.5c-1.2-0.5-2.5-0.9-3.7-1.4l0.7-1.9c1.3,0.4,2.5,0.9,3.8,1.4L1498,282.5z
		 M1491.5,280.2c-1.3-0.4-2.5-0.8-3.8-1.2l0.6-1.9c1.3,0.4,2.6,0.8,3.8,1.3L1491.5,280.2z M1484.8,278.1c-1.3-0.4-2.5-0.8-3.8-1.1
		l0.5-1.9c1.3,0.4,2.6,0.7,3.9,1.1L1484.8,278.1z M1478.1,276.1c-1.3-0.4-2.6-0.7-3.9-1l0.5-1.9c1.3,0.3,2.6,0.7,3.9,1L1478.1,276.1
		z M1471.3,274.4c-1.3-0.3-2.6-0.6-3.9-0.9l0.4-1.9c1.3,0.3,2.6,0.6,3.9,0.9L1471.3,274.4z M1464.5,272.8c-1.3-0.3-2.6-0.6-3.9-0.8
		l0.4-2c1.3,0.3,2.6,0.5,3.9,0.8L1464.5,272.8z M1457.7,271.4c-1.3-0.3-2.6-0.5-3.9-0.7l0.4-2c1.3,0.2,2.6,0.5,3.9,0.7L1457.7,271.4
		z M1450.8,270.1c-1.3-0.2-2.6-0.4-3.9-0.7l0.3-2c1.3,0.2,2.6,0.4,4,0.7L1450.8,270.1z M1443.9,269c-1.3-0.2-2.6-0.4-4-0.6l0.3-2
		c1.3,0.2,2.6,0.4,4,0.6L1443.9,269z M1437,268c-1.3-0.2-2.7-0.3-4-0.5l0.2-2c1.3,0.2,2.6,0.3,4,0.5L1437,268z M1430.1,267.2
		c-1.3-0.2-2.7-0.3-4-0.4l0.2-2c1.3,0.1,2.6,0.3,4,0.4L1430.1,267.2z M1423.1,266.4c-1.4-0.1-2.7-0.3-4-0.4l0.2-2
		c1.3,0.1,2.6,0.2,4,0.4L1423.1,266.4z M1416.2,265.8c-1.4-0.1-2.7-0.2-4-0.3l0.1-2c1.3,0.1,2.6,0.2,4,0.3L1416.2,265.8z
		 M1409.2,265.3c-1.4-0.1-2.7-0.2-4-0.2l0.1-2c1.3,0.1,2.6,0.1,4,0.2L1409.2,265.3z M1402.2,265c-1.4-0.1-2.8-0.1-4-0.1l0.1-2
		c1.3,0,2.6,0.1,4,0.2L1402.2,265z M1395.2,264.7c-1.5,0-2.9-0.1-4-0.1l0-2c1.1,0,2.5,0,4,0.1L1395.2,264.7z M1387.3,264.7l0-2
		c0,0,0.3,0,0.9,0l0,2C1387.6,264.7,1387.3,264.7,1387.3,264.7z"/>
</g>
<g id="XMLID_149_">
	<path id="XMLID_1086_" class="st0" d="M1318.6,591l-1.9-0.7c0,0,0.5-1.3,1.4-3.7l1.9,0.7C1319.1,589.6,1318.6,591,1318.6,591z
		 M1321,584.3l-1.9-0.7c0.4-1.1,0.8-2.4,1.3-3.8l1.9,0.6C1321.9,581.9,1321.4,583.2,1321,584.3z M1323.3,577.7l-1.9-0.6
		c0.4-1.2,0.8-2.5,1.3-3.8l1.9,0.6C1324.2,575.2,1323.7,576.5,1323.3,577.7z M1325.5,571l-1.9-0.6c0.4-1.2,0.8-2.5,1.2-3.8l1.9,0.6
		C1326.3,568.5,1325.9,569.8,1325.5,571z M1327.6,564.3l-1.9-0.6c0.4-1.2,0.8-2.5,1.1-3.8l1.9,0.6
		C1328.3,561.8,1328,563,1327.6,564.3z M1329.6,557.5l-1.9-0.5c0.4-1.3,0.7-2.5,1.1-3.8l1.9,0.5
		C1330.3,555,1329.9,556.3,1329.6,557.5z M1331.4,550.8l-1.9-0.5c0.3-1.3,0.7-2.6,1-3.9l1.9,0.5
		C1332.1,548.2,1331.8,549.5,1331.4,550.8z M1333.2,544l-1.9-0.5c0.3-1.3,0.6-2.6,1-3.9l1.9,0.5
		C1333.9,541.4,1333.5,542.7,1333.2,544z M1334.9,537.2l-1.9-0.5c0.3-1.3,0.6-2.6,0.9-3.9l2,0.4
		C1335.5,534.6,1335.2,535.9,1334.9,537.2z M1336.4,530.3l-2-0.4c0.3-1.3,0.6-2.6,0.8-3.9l2,0.4C1337,527.7,1336.7,529,1336.4,530.3
		z M1337.9,523.4l-2-0.4c0.3-1.3,0.5-2.6,0.8-3.9l2,0.4C1338.4,520.8,1338.1,522.1,1337.9,523.4z M1339.2,516.5l-2-0.4
		c0.2-1.3,0.5-2.6,0.7-3.9l2,0.3C1339.6,513.9,1339.4,515.2,1339.2,516.5z M1340.4,509.6l-2-0.3c0.2-1.3,0.4-2.6,0.6-3.9l2,0.3
		C1340.8,507,1340.6,508.3,1340.4,509.6z M1341.4,502.7l-2-0.3c0.2-1.3,0.4-2.6,0.5-3.9l2,0.2C1341.8,500,1341.6,501.4,1341.4,502.7
		z M1342.3,495.7l-2-0.2c0.2-1.3,0.3-2.6,0.4-4l2,0.2C1342.6,493.1,1342.4,494.4,1342.3,495.7z M1343,488.7l-2-0.2
		c0.1-1.3,0.2-2.6,0.3-4l2,0.1C1343.2,486.1,1343.1,487.4,1343,488.7z M1343.5,481.7l-2-0.1c0.1-1.3,0.2-2.7,0.2-4l2,0.1
		C1343.7,479,1343.6,480.4,1343.5,481.7z M1343.9,474.7l-2-0.1c0-1.3,0.1-2.7,0.1-4l2,0C1344,472,1343.9,473.3,1343.9,474.7z
		 M1344,467.6h-2l0-0.3c0-1.2,0-2.4,0-3.6l2,0c0,1.2,0,2.5,0,3.7L1344,467.6z M1341.9,460.7c0-1.3-0.1-2.7-0.2-4l2-0.1
		c0.1,1.3,0.1,2.7,0.2,4L1341.9,460.7z M1341.5,453.7c-0.1-1.3-0.2-2.6-0.3-4l2-0.2c0.1,1.3,0.2,2.7,0.3,4L1341.5,453.7z
		 M1340.9,446.8c-0.2-1.3-0.3-2.6-0.5-3.9l2-0.3c0.2,1.3,0.4,2.7,0.5,4L1340.9,446.8z M1339.9,439.9c-0.2-1.3-0.5-2.6-0.7-3.9l2-0.4
		c0.3,1.3,0.5,2.6,0.7,4L1339.9,439.9z M1338.5,433.1c-0.3-1.3-0.6-2.6-1-3.8l1.9-0.5c0.3,1.3,0.7,2.6,1,3.9L1338.5,433.1z
		 M1336.7,426.4c-0.4-1.3-0.8-2.5-1.2-3.8l1.9-0.7c0.4,1.2,0.8,2.5,1.2,3.8L1336.7,426.4z M1334.5,419.8c-0.5-1.2-1-2.5-1.5-3.7
		l1.8-0.8c0.5,1.2,1,2.5,1.5,3.7L1334.5,419.8z M1331.8,413.5c-0.6-1.2-1.2-2.4-1.8-3.5l1.8-1c0.6,1.2,1.3,2.4,1.8,3.6L1331.8,413.5
		z M1328.5,407.4c-0.7-1.1-1.4-2.3-2.1-3.3l1.7-1.1c0.7,1.1,1.5,2.3,2.2,3.4L1328.5,407.4z M1324.7,401.6c-0.8-1.1-1.5-2.2-2.2-3.3
		l1.7-1.1c0.7,1.1,1.5,2.2,2.2,3.3L1324.7,401.6z M1320.8,395.7c-0.7-1.1-1.5-2.3-2.2-3.4l1.7-1.1c0.7,1.1,1.4,2.3,2.2,3.4
		L1320.8,395.7z M1317.1,389.8c-0.7-1.1-1.4-2.3-2.1-3.4l1.7-1c0.7,1.1,1.4,2.3,2.1,3.4L1317.1,389.8z M1313.4,383.8
		c-0.7-1.1-1.4-2.3-2.1-3.4l1.7-1c0.7,1.1,1.4,2.3,2,3.4L1313.4,383.8z M1309.8,377.7c-0.7-1.2-1.3-2.3-2-3.5l1.7-1
		c0.7,1.2,1.3,2.3,2,3.5L1309.8,377.7z M1306.3,371.6c-0.7-1.2-1.3-2.3-2-3.5l1.8-1c0.6,1.2,1.3,2.3,1.9,3.5L1306.3,371.6z
		 M1302.9,365.5c-0.6-1.2-1.3-2.4-1.9-3.5l1.8-0.9c0.6,1.2,1.3,2.3,1.9,3.5L1302.9,365.5z M1299.6,359.3c-0.6-1.2-1.2-2.4-1.9-3.6
		l1.8-0.9c0.6,1.2,1.2,2.4,1.9,3.5L1299.6,359.3z M1296.4,353.1c-0.6-1.2-1.2-2.4-1.8-3.6l1.8-0.9c0.6,1.2,1.2,2.4,1.8,3.6
		L1296.4,353.1z M1293.2,346.8c-0.6-1.2-1.2-2.4-1.8-3.6l1.8-0.9c0.6,1.2,1.2,2.4,1.8,3.6L1293.2,346.8z M1290.1,340.5
		c-0.6-1.2-1.2-2.4-1.7-3.6l1.8-0.9c0.6,1.2,1.1,2.4,1.7,3.6L1290.1,340.5z M1287.1,334.2c-0.6-1.2-1.1-2.4-1.7-3.6l1.8-0.8
		c0.6,1.2,1.1,2.4,1.7,3.6L1287.1,334.2z M1284.2,327.8c-0.6-1.2-1.1-2.4-1.6-3.7l1.8-0.8c0.5,1.2,1.1,2.4,1.6,3.6L1284.2,327.8z
		 M1281.3,321.4c-0.5-1.2-1.1-2.5-1.6-3.7l1.8-0.8c0.5,1.2,1.1,2.4,1.6,3.7L1281.3,321.4z M1278.5,315c-0.5-1.2-1.1-2.5-1.6-3.7
		l1.8-0.8c0.5,1.2,1,2.4,1.6,3.7L1278.5,315z M1275.8,308.5c-0.5-1.3-1-2.5-1.5-3.7l1.9-0.8c0.5,1.2,1,2.4,1.5,3.7L1275.8,308.5z
		 M1273.1,302c-0.5-1.3-1-2.5-1.5-3.7l1.9-0.7c0.5,1.2,1,2.4,1.5,3.7L1273.1,302z M1270.5,295.5c-0.5-1.3-1-2.5-1.4-3.7l1.9-0.7
		c0.5,1.2,0.9,2.4,1.4,3.7L1270.5,295.5z M1268,289c-0.5-1.3-1-2.6-1.4-3.8l1.9-0.7c0.4,1.2,0.9,2.4,1.4,3.7L1268,289z
		 M1265.6,282.4c-0.5-1.4-1-2.7-1.4-3.8l1.9-0.7c0.4,1.1,0.8,2.4,1.3,3.8L1265.6,282.4z M1263.2,275.7c-0.6-1.8-0.9-2.8-0.9-2.8
		l1.9-0.6c0,0,0.3,1,0.9,2.7L1263.2,275.7z"/>
</g>
<g id="XMLID_148_">
	<path id="XMLID_1029_" class="st0" d="M307.7,480.9c0-0.1-0.5-1.5-0.9-4.1l2-0.3c0.4,2.4,0.8,3.7,0.8,3.7L307.7,480.9z
		 M306.5,473.8c-0.1-1.3-0.2-2.7-0.2-4.1l2,0c0,1.3,0.1,2.7,0.2,3.9L306.5,473.8z M308.3,466.7l-2-0.1c0-1.3,0.1-2.7,0.3-4l2,0.2
		C308.5,464.1,308.4,465.5,308.3,466.7z M308.9,459.9l-2-0.3c0.2-1.3,0.4-2.7,0.6-4l2,0.4C309.3,457.3,309.1,458.6,308.9,459.9z
		 M310.1,453l-2-0.4c0.3-1.3,0.6-2.6,0.9-3.9l1.9,0.5C310.7,450.5,310.3,451.8,310.1,453z M311.8,446.3l-1.9-0.6
		c0.4-1.3,0.8-2.6,1.2-3.9l1.9,0.6C312.5,443.8,312.1,445.1,311.8,446.3z M313.9,439.7l-1.9-0.7c0.5-1.2,0.9-2.5,1.4-3.8l1.9,0.7
		C314.8,437.3,314.4,438.5,313.9,439.7z M316.5,433.3l-1.8-0.8c0.5-1.2,1.1-2.4,1.6-3.7l1.8,0.8C317.5,430.9,317,432.1,316.5,433.3z
		 M319.4,427l-1.8-0.9c0.6-1.2,1.2-2.4,1.8-3.6l1.8,0.9C320.5,424.6,319.9,425.8,319.4,427z M322.6,420.8l-1.8-1
		c0.6-1.2,1.3-2.3,2-3.5l1.7,1C323.9,418.5,323.2,419.7,322.6,420.8z M326.1,414.8l-1.7-1c0.7-1.1,1.4-2.3,2.1-3.4l1.7,1.1
		C327.4,412.6,326.7,413.7,326.1,414.8z M329.8,408.9l-1.7-1.1c0.7-1.1,1.5-2.2,2.3-3.3l1.6,1.1
		C331.2,406.7,330.5,407.8,329.8,408.9z M333.7,403.2l-1.6-1.2c0.8-1.1,1.6-2.2,2.4-3.2l1.6,1.2C335.3,401,334.5,402.1,333.7,403.2z
		 M337.9,397.6l-1.6-1.2c0.8-1,1.6-2.1,2.5-3.2l1.6,1.2C339.5,395.5,338.7,396.5,337.9,397.6z M342.2,392.1l-1.5-1.3
		c0.8-1,1.7-2.1,2.6-3.1l1.5,1.3C343.9,390.1,343,391.1,342.2,392.1z M346.7,386.8l-1.5-1.3c0.9-1,1.7-2,2.6-3l1.5,1.3
		C348.4,384.8,347.5,385.8,346.7,386.8z M351.3,381.6l-1.5-1.3c0.9-1,1.8-2,2.7-2.9l1.5,1.4C353.1,379.6,352.2,380.6,351.3,381.6z
		 M356.1,376.5l-1.4-1.4c0.9-1,1.9-1.9,2.9-2.8l1.4,1.5C357.9,374.6,357,375.5,356.1,376.5z M361.1,371.7l-1.3-1.5
		c1-0.9,2-1.8,3.1-2.6l1.3,1.6C363.1,370,362,370.8,361.1,371.7z M366.4,367.3l-1.2-1.6c1.1-0.8,2.1-1.6,3.2-2.4l1.2,1.6
		C368.5,365.7,367.5,366.5,366.4,367.3z M598.8,364.1c-0.1-1.3-0.3-2.5-0.6-3.7l1.9-0.5c0.3,1.3,0.5,2.7,0.6,4.1L598.8,364.1z
		 M372.1,363.2l-1.1-1.7c1.1-0.7,2.2-1.5,3.4-2.2l1.1,1.7C374.3,361.8,373.1,362.5,372.1,363.2z M377.9,359.5l-1-1.7
		c1.1-0.7,2.3-1.4,3.5-2l1,1.7C380.2,358.2,379,358.8,377.9,359.5z M597.4,357.6c-0.5-1.2-1.1-2.3-1.7-3.4l1.7-1.1
		c0.8,1.2,1.4,2.4,1.9,3.7L597.4,357.6z M384,356.1l-0.9-1.8c1.2-0.6,2.4-1.3,3.6-1.9l0.9,1.8C386.3,354.8,385.1,355.4,384,356.1z
		 M390.2,352.9l-0.9-1.8c1.2-0.6,2.4-1.2,3.6-1.7l0.8,1.8C392.5,351.8,391.3,352.3,390.2,352.9z M594,351.9c-0.8-1-1.7-1.9-2.6-2.8
		l1.4-1.4c1,1,2,2,2.8,3L594,351.9z M396.5,350l-0.8-1.8c1.2-0.5,2.5-1.1,3.7-1.6l0.8,1.8C398.9,348.9,397.7,349.5,396.5,350z
		 M402.9,347.3l-0.7-1.9c1.2-0.5,2.5-1,3.8-1.4l0.7,1.9C405.4,346.3,404.1,346.8,402.9,347.3z M589.2,347.1c-1-0.8-2-1.6-3.1-2.3
		l1.1-1.7c1.2,0.8,2.3,1.6,3.3,2.4L589.2,347.1z M409.4,344.8l-0.7-1.9c1.3-0.5,2.5-0.9,3.8-1.3l0.6,1.9
		C411.9,344,410.7,344.4,409.4,344.8z M583.6,343.2c-1.1-0.6-2.2-1.3-3.4-1.9l0.9-1.8c1.2,0.6,2.4,1.3,3.6,2L583.6,343.2z
		 M416,342.6l-0.6-1.9c1.3-0.4,2.5-0.8,3.8-1.2l0.6,1.9C418.5,341.8,417.3,342.2,416,342.6z M422.7,340.5l-0.6-1.9
		c1.3-0.4,2.6-0.7,3.9-1.1l0.5,1.9C425.2,339.8,424,340.2,422.7,340.5z M577.5,340c-1.2-0.5-2.4-1.1-3.6-1.5l0.7-1.9
		c1.3,0.5,2.5,1,3.7,1.6L577.5,340z M429.4,338.6l-0.5-1.9c1.3-0.3,2.6-0.7,3.9-1l0.5,1.9C432,338,430.7,338.3,429.4,338.6z
		 M571,337.4c-1.2-0.4-2.5-0.9-3.8-1.3l0.6-1.9c1.3,0.4,2.6,0.9,3.8,1.3L571,337.4z M436.2,336.9l-0.5-1.9c1.3-0.3,2.6-0.6,3.9-0.9
		l0.4,2C438.7,336.3,437.4,336.6,436.2,336.9z M442.9,335.4l-0.4-2c1.3-0.3,2.6-0.5,3.9-0.8l0.4,2
		C445.5,334.9,444.2,335.1,442.9,335.4z M564.4,335.3c-1.3-0.4-2.5-0.7-3.8-1l0.5-1.9c1.3,0.3,2.6,0.7,3.9,1.1L564.4,335.3z
		 M449.8,334l-0.4-2c1.3-0.2,2.6-0.5,3.9-0.7l0.3,2C452.4,333.5,451.1,333.8,449.8,334z M557.7,333.5c-1.3-0.3-2.6-0.6-3.9-0.9
		l0.4-2c1.3,0.3,2.6,0.6,3.9,0.9L557.7,333.5z M456.6,332.8l-0.3-2c1.3-0.2,2.6-0.4,4-0.6l0.3,2C459.3,332.4,458,332.6,456.6,332.8z
		 M550.9,332.1c-1.3-0.2-2.6-0.5-3.9-0.7l0.3-2c1.3,0.2,2.7,0.5,4,0.7L550.9,332.1z M463.6,331.7l-0.3-2c1.3-0.2,2.7-0.4,4-0.5
		l0.3,2C466.2,331.4,464.9,331.6,463.6,331.7z M544,331c-1.3-0.2-2.6-0.4-3.9-0.5l0.3-2c1.3,0.2,2.7,0.4,4,0.5L544,331z
		 M470.5,330.8l-0.2-2c1.3-0.2,2.7-0.3,4-0.5l0.2,2C473.1,330.5,471.8,330.7,470.5,330.8z M537.1,330.1c-1.3-0.1-2.6-0.3-4-0.4
		l0.2-2c1.3,0.1,2.7,0.3,4,0.4L537.1,330.1z M477.4,330.1l-0.2-2c1.3-0.1,2.7-0.3,4-0.4l0.2,2C480.1,329.8,478.8,329.9,477.4,330.1z
		 M484.4,329.4l-0.2-2c1.3-0.1,2.7-0.2,4-0.3l0.1,2C487.1,329.2,485.7,329.3,484.4,329.4z M530.2,329.4c-1.3-0.1-2.6-0.2-4-0.3
		l0.1-2c1.3,0.1,2.7,0.2,4,0.3L530.2,329.4z M491.4,329l-0.1-2c1.3-0.1,2.7-0.1,4-0.2l0.1,2C494,328.8,492.7,328.9,491.4,329z
		 M523.2,328.9c-1.3-0.1-2.6-0.1-4-0.2l0.1-2c1.3,0.1,2.7,0.1,4,0.2L523.2,328.9z M498.3,328.7l-0.1-2c1.3,0,2.7-0.1,4-0.1l0,2
		C501,328.6,499.7,328.6,498.3,328.7z M516.3,328.6c-1.3,0-2.7-0.1-4-0.1l0-2c1.3,0,2.7,0,4,0.1L516.3,328.6z M505.3,328.5l0-2
		c1,0,2,0,3,0l1.1,0l0,2l-1.1,0C507.3,328.5,506.3,328.5,505.3,328.5z"/>
</g>
<g id="XMLID_147_">
	<path id="XMLID_947_" class="st0" d="M592.2,512.8l-1.8-0.9l0.4-0.7l1.8,0.9L592.2,512.8z M593.9,509.3l-1.8-0.8
		c0.6-1.2,1.1-2.4,1.6-3.6l1.8,0.8C595,506.9,594.4,508.1,593.9,509.3z M596.6,502.8l-1.9-0.7c0.5-1.3,0.9-2.5,1.3-3.7l1.9,0.6
		C597.5,500.2,597.1,501.5,596.6,502.8z M598.8,496.1l-1.9-0.5c0.3-1.3,0.6-2.6,0.9-3.8l2,0.4C599.5,493.4,599.1,494.7,598.8,496.1z
		 M600.2,489.1l-2-0.3c0.2-1.3,0.3-2.6,0.4-3.9l2,0.1C600.5,486.3,600.4,487.7,600.2,489.1z M598.6,482c0-1.3-0.1-2.6-0.3-3.9l2-0.3
		c0.2,1.3,0.3,2.7,0.3,4.1L598.6,482z M597.7,475.3c-0.3-1.3-0.7-2.5-1.1-3.7l1.9-0.7c0.5,1.3,0.9,2.6,1.2,3.9L597.7,475.3z
		 M595.5,469c-0.5-1.1-1.2-2.3-1.9-3.4l1.7-1.1c0.7,1.2,1.4,2.4,2,3.6L595.5,469z M592,463.2c-0.8-1-1.6-2-2.5-2.9l1.4-1.4
		c1,1,1.8,2,2.7,3.1L592,463.2z M587.3,458.3c-0.9-0.8-1.9-1.7-3-2.5l1.2-1.6c1.1,0.8,2.2,1.7,3.1,2.6L587.3,458.3z M582,454.1
		c-1.1-0.7-2.2-1.4-3.3-2.1l1-1.7c1.2,0.7,2.3,1.4,3.4,2.2L582,454.1z M576.1,450.5c-1.1-0.6-2.3-1.2-3.5-1.8l0.8-1.8
		c1.3,0.6,2.5,1.2,3.6,1.8L576.1,450.5z M569.8,447.6c-1.2-0.5-2.4-1-3.7-1.5l0.7-1.9c1.3,0.5,2.5,1,3.7,1.5L569.8,447.6z
		 M563.4,445c-1.2-0.4-2.5-0.9-3.8-1.3l0.6-1.9c1.3,0.4,2.6,0.8,3.8,1.3L563.4,445z M556.7,442.9c-1.3-0.4-2.5-0.7-3.8-1.1l0.5-1.9
		c1.3,0.4,2.6,0.7,3.9,1.1L556.7,442.9z M550,441.1c-1.3-0.3-2.6-0.6-3.9-0.9l0.5-1.9c1.3,0.3,2.6,0.6,3.9,1L550,441.1z
		 M543.2,439.5c-1.3-0.3-2.6-0.6-3.9-0.8l0.4-2c1.3,0.3,2.6,0.5,3.9,0.8L543.2,439.5z M536.4,438.1c-1.3-0.2-2.6-0.5-3.9-0.7l0.3-2
		c1.3,0.2,2.6,0.5,4,0.7L536.4,438.1z M529.5,436.8c-1.3-0.2-2.6-0.4-3.9-0.6l0.3-2c1.3,0.2,2.6,0.4,4,0.6L529.5,436.8z
		 M522.6,435.7c-1.3-0.2-2.6-0.4-4-0.6l0.3-2c1.3,0.2,2.7,0.4,4,0.6L522.6,435.7z M515.7,434.7c-1.3-0.2-2.6-0.4-4-0.5l0.3-2
		c1.3,0.2,2.7,0.3,4,0.5L515.7,434.7z M508.7,433.8c-1.3-0.2-2.7-0.3-4-0.5l0.2-2c1.3,0.2,2.7,0.3,4,0.5L508.7,433.8z M501.8,433
		c-1.3-0.2-2.7-0.3-4-0.5l0.2-2c1.3,0.1,2.7,0.3,4,0.5L501.8,433z M494.8,432.2l-4-0.4l0.2-2l4,0.4L494.8,432.2z M487.9,431.5
		l-4-0.4l0.2-2l4,0.4L487.9,431.5z M480.9,430.7l-4-0.4l0.2-2l4,0.4L480.9,430.7z M473.9,430c-1.3-0.2-2.7-0.3-4-0.5l0.2-2
		c1.3,0.2,2.6,0.3,4,0.5L473.9,430z M467,429.2c-1.3-0.2-2.7-0.3-4-0.5l0.3-2c1.3,0.2,2.6,0.3,4,0.5L467,429.2z M460,428.3
		c-1.4-0.2-2.7-0.4-4-0.6l0.3-2c1.3,0.2,2.6,0.4,4,0.6L460,428.3z M453,427.3c-1.4-0.2-2.7-0.4-4-0.7l0.4-2c1.3,0.2,2.6,0.4,3.9,0.7
		L453,427.3z M446.1,426c-1.4-0.3-2.7-0.5-4-0.8l0.4-2c1.3,0.3,2.6,0.6,3.9,0.8L446.1,426z M439.2,424.5c-1.4-0.4-2.7-0.7-3.9-1.1
		l0.6-1.9c1.2,0.4,2.5,0.7,3.8,1.1L439.2,424.5z M432.4,422.4c-1.4-0.5-2.6-1.1-3.8-1.6l0.9-1.8c1.1,0.5,2.3,1,3.6,1.5L432.4,422.4z
		 M425.9,419.2c-1.3-0.8-2.4-1.8-3.2-2.7l1.5-1.3c0.7,0.8,1.7,1.6,2.8,2.4L425.9,419.2z M421,413.8c-0.5-1.1-0.8-2.4-0.8-3.7
		c0-0.2,0-0.4,0-0.5l2,0.1c0,0.1,0,0.3,0,0.4c0,1,0.2,2,0.6,2.9L421,413.8z M422.7,406.9l-2-0.4c0.3-1.3,0.5-2.6,0.8-3.9l2,0.4
		C423.2,404.3,423,405.6,422.7,406.9z M424.1,400l-2-0.4l0.8-3.9l2,0.4L424.1,400z M425.5,393.2l-2-0.4c0.3-1.3,0.5-2.6,0.8-3.9
		l2,0.4C426,390.6,425.8,391.9,425.5,393.2z M427,386.3l-2-0.4c0.3-1.3,0.6-2.6,0.9-3.9l1.9,0.5C427.5,383.7,427.2,385,427,386.3z
		 M428.5,379.5l-1.9-0.5c0.3-1.3,0.6-2.6,1-3.9l1.9,0.5C429.2,377,428.8,378.2,428.5,379.5z M430.2,372.8l-1.9-0.5
		c0.3-1.3,0.7-2.6,1.1-3.9l1.9,0.5C430.9,370.2,430.6,371.5,430.2,372.8z M432.1,366l-1.9-0.6c0.4-1.3,0.8-2.6,1.2-3.8l1.9,0.6
		C432.9,363.5,432.5,364.8,432.1,366z M434.2,359.4l-1.9-0.6c0.4-1.3,0.9-2.5,1.3-3.8l1.9,0.7C435,356.9,434.6,358.1,434.2,359.4z
		 M436.5,352.8l-1.9-0.7c0.5-1.3,0.9-2.5,1.4-3.8l1.9,0.7C437.4,350.3,436.9,351.6,436.5,352.8z M439,346.3l-1.8-0.8
		c0.5-1.2,1-2.5,1.6-3.7l1.8,0.8C440.1,343.9,439.5,345.1,439,346.3z M441.8,340l-1.8-0.8c0.6-1.2,1.1-2.4,1.7-3.6l1.8,0.9
		C443,337.6,442.4,338.8,441.8,340z M628.5,338.3c0,0-0.7-1.3-2.1-3.4l1.7-1.1c1.4,2.2,2.1,3.4,2.2,3.5L628.5,338.3z M444.9,333.7
		l-1.8-0.9c0.6-1.2,1.3-2.4,1.9-3.5l1.7,1C446.2,331.4,445.5,332.6,444.9,333.7z M624.8,332.4c-0.7-1-1.4-2.1-2.2-3.3l1.6-1.1
		c0.8,1.2,1.6,2.3,2.3,3.3L624.8,332.4z M448.3,327.7l-1.7-1c0.7-1.2,1.4-2.3,2.1-3.4l1.7,1.1C449.6,325.4,448.9,326.5,448.3,327.7z
		 M620.8,326.6c-0.7-1-1.5-2.1-2.3-3.2l1.6-1.2c0.8,1.1,1.6,2.2,2.4,3.3L620.8,326.6z M451.9,321.7l-1.7-1.1
		c0.7-1.1,1.5-2.2,2.2-3.3l1.6,1.1C453.4,319.5,452.7,320.6,451.9,321.7z M616.6,321c-0.8-1-1.6-2.1-2.4-3.2l1.6-1.2
		c0.9,1.1,1.7,2.1,2.5,3.2L616.6,321z M455.9,316l-1.6-1.2c0.8-1.1,1.6-2.2,2.4-3.2l1.6,1.2C457.4,313.9,456.6,315,455.9,316z
		 M612.3,315.5c-0.8-1-1.7-2-2.5-3.1l1.5-1.3c0.9,1,1.7,2.1,2.6,3.1L612.3,315.5z M460.1,310.5l-1.6-1.3c0.8-1,1.7-2.1,2.6-3.1
		l1.5,1.3C461.8,308.5,460.9,309.5,460.1,310.5z M607.9,310.1c-0.9-1-1.7-2-2.6-3l1.5-1.3c0.9,1,1.8,2,2.7,3L607.9,310.1z
		 M464.6,305.2l-1.5-1.3c0.9-1,1.8-2,2.7-3l1.5,1.4C466.4,303.3,465.5,304.2,464.6,305.2z M603.2,304.9c-0.9-1-1.8-1.9-2.7-2.9
		l1.4-1.4c0.9,1,1.9,2,2.8,2.9L603.2,304.9z M469.4,300.2l-1.4-1.4c0.9-0.9,1.9-1.9,2.9-2.8l1.4,1.4
		C471.2,298.3,470.3,299.2,469.4,300.2z M598.4,299.9c-0.9-0.9-1.9-1.9-2.8-2.8l1.4-1.4c1,0.9,1.9,1.9,2.9,2.8L598.4,299.9z
		 M474.4,295.3l-1.3-1.5c1-0.9,2-1.8,3-2.7l1.3,1.5C476.3,293.6,475.3,294.5,474.4,295.3z M593.4,295c-1-0.9-1.9-1.8-2.9-2.7
		l1.3-1.5c1,0.9,2,1.8,3,2.7L593.4,295z M479.6,290.8l-1.3-1.5c1-0.8,2.1-1.7,3.1-2.5l1.2,1.6C481.6,289.1,480.6,289.9,479.6,290.8z
		 M588.3,290.4c-1-0.9-2-1.7-3-2.6l1.3-1.6c1,0.9,2.1,1.7,3.1,2.6L588.3,290.4z M485,286.5l-1.2-1.6c1.1-0.8,2.1-1.6,3.2-2.4
		l1.2,1.6C487.2,284.9,486.1,285.7,485,286.5z M582.9,286c-1-0.8-2.1-1.6-3.2-2.4l1.2-1.6c1.1,0.8,2.2,1.6,3.2,2.4L582.9,286z
		 M490.7,282.4l-1.1-1.6c1.1-0.8,2.2-1.5,3.3-2.2l1.1,1.7C492.9,280.9,491.8,281.7,490.7,282.4z M577.3,281.8
		c-1.1-0.8-2.2-1.5-3.3-2.2l1.1-1.7c1.1,0.7,2.2,1.5,3.4,2.3L577.3,281.8z M496.5,278.6l-1.1-1.7c1.1-0.7,2.3-1.4,3.4-2.1l1,1.7
		C498.7,277.2,497.6,277.9,496.5,278.6z M571.5,278c-1.1-0.7-2.3-1.4-3.4-2l1-1.7c1.2,0.6,2.3,1.3,3.5,2L571.5,278z M502.5,275
		l-1-1.7c0.6-0.3,1.2-0.7,1.8-1c0.6-0.3,1.2-0.6,1.8-0.9l0.9,1.8c-0.6,0.3-1.1,0.6-1.7,0.9C503.6,274.4,503.1,274.7,502.5,275z
		 M565.4,274.6c-1.2-0.6-2.4-1.2-3.6-1.7l0.8-1.8c1.2,0.6,2.4,1.2,3.6,1.8L565.4,274.6z M508.6,271.8l-0.8-1.8
		c1.2-0.6,2.5-1.1,3.7-1.6l0.7,1.9C511,270.7,509.8,271.2,508.6,271.8z M559.1,271.7c-1.2-0.5-2.5-1-3.7-1.4l0.7-1.9
		c1.3,0.5,2.5,1,3.8,1.5L559.1,271.7z M552.6,269.3c-1.3-0.4-2.5-0.8-3.8-1.1l0.5-1.9c1.3,0.3,2.6,0.7,3.9,1.1L552.6,269.3z
		 M515,269.2l-0.6-1.9c1.3-0.4,2.6-0.8,3.9-1.2l0.5,1.9C517.5,268.4,516.2,268.8,515,269.2z M546,267.5c-1.3-0.3-2.6-0.5-3.9-0.7
		l0.3-2c1.3,0.2,2.7,0.4,4,0.7L546,267.5z M521.6,267.4l-0.4-2c1.3-0.3,2.7-0.5,4-0.7l0.3,2C524.2,266.9,522.9,267.1,521.6,267.4z
		 M539.2,266.4c-1.3-0.1-2.6-0.2-3.9-0.3l0.1-2c1.3,0,2.7,0.1,4.1,0.3L539.2,266.4z M528.4,266.4l-0.2-2c1.3-0.1,2.7-0.2,4.1-0.2
		l0,2C531,266.2,529.7,266.3,528.4,266.4z"/>
</g>
<path id="XMLID_142_" class="st1" d="M1385.2,224.5c-4.3,0-8.3,0.9-12.1,2.5c-6.4-21-24.8-36.3-46.6-36.3c-22.8,0-41.9,16.6-47.4,39
	c-6.2-5.4-14.1-8.7-22.7-8.7c-17.9,0-32.8,14-35.4,32.4c-3.3-2.3-7.3-3.7-11.6-3.7c-11.7,0-21.1,10.1-21.1,22.5
	c0,11.9,8.2,21.7,19.2,22.4l180.1,1.1c17.9-2,30.7-17.2,30.7-35.7C1418.3,240.4,1403.6,224.5,1385.2,224.5z"/>
<path id="XMLID_139_" class="st1" d="M703.2,329.5c-4.3,0-8.3,0.9-12.1,2.5c-6.4-21-24.8-36.3-46.6-36.3c-22.8,0-41.9,16.6-47.4,39
	c-6.2-5.4-14.1-8.7-22.7-8.7c-17.9,0-32.8,14-35.4,32.4c-3.3-2.3-7.3-3.7-11.6-3.7c-11.7,0-21.1,10.1-21.1,22.5
	c0,11.9,8.2,21.7,19.2,22.4l180.1,1.1c17.9-2,30.7-17.2,30.7-35.7C736.3,345.4,721.6,329.5,703.2,329.5z"/>
<g id="XMLID_83_">
	<path id="XMLID_81_" class="st0" d="M1862.5,959.2l-2-2.3l1.4-1.2l-1.4-0.9c0.7-1.1,1.3-2.1,2-3.2l3.4,2.2c-0.7,1-1.3,2-2,3.1
		L1862.5,959.2z M885.2,957.4l-0.8-3.6c-0.2-1.1-0.5-2.2-0.8-3.3l3.8-1.1c0.3,1.1,0.6,2.3,0.9,3.5l-1.3,0.3l1.2,1.2L885.2,957.4z
		 M1858.6,954.7c-0.9-1-1.8-1.9-2.7-2.8l2.8-2.9c1,0.9,1.9,1.9,2.9,2.9L1858.6,954.7z M890.2,952.3l-2.7-2.9c1-0.9,2-1.9,3.1-2.7
		l2.5,3.1C892.2,950.6,891.2,951.4,890.2,952.3z M1867.5,951.3l-3.3-2.2c0.8-1.1,1.5-2.2,2.3-3.3l3.3,2.3
		C1869,949.1,1868.2,950.2,1867.5,951.3z M1853.7,949.9c-1-0.9-2-1.7-3-2.5l2.5-3.1c1.1,0.9,2.1,1.8,3.1,2.7L1853.7,949.9z
		 M895.4,948l-2.4-3.2c1.1-0.8,2.2-1.6,3.4-2.4l2.2,3.4C897.5,946.4,896.5,947.2,895.4,948z M882.7,947.7c-0.4-1.2-0.9-2.4-1.3-3.6
		l3.7-1.5c0.5,1.3,1,2.6,1.4,3.9L882.7,947.7z M1871.5,945.6l-3.2-2.3c0.8-1.1,1.6-2.2,2.4-3.3l3.2,2.4
		C1873,943.5,1872.2,944.5,1871.5,945.6z M1848.5,945.6c-1-0.8-2.1-1.5-3.2-2.2l2.2-3.3c1.1,0.8,2.3,1.6,3.4,2.4L1848.5,945.6z
		 M901.1,944.2l-2-3.5c1.2-0.7,2.4-1.3,3.6-2l1.8,3.6C903.3,943,902.2,943.6,901.1,944.2z M1233.5,943.6l-2-2.4
		c-0.5-0.6-0.9-1.1-1.4-1.7l1.6-1.4c0.1-0.2,0.3-0.5,0.4-0.7l0.3,0.2l0.8-0.6c0.5,0.6,1,1.1,1.4,1.7l-0.1,0l1.1,0.6
		c-0.3,0.5-0.5,1-0.8,1.6L1233.5,943.6z M1842.8,941.8c-1.1-0.7-2.2-1.3-3.4-1.9l1.9-3.5c1.2,0.6,2.4,1.3,3.6,2L1842.8,941.8z
		 M880.2,941.4c-0.5-1.2-1.1-2.3-1.7-3.5l3.5-1.9c0.6,1.2,1.3,2.5,1.8,3.7L880.2,941.4z M907.1,941.1l-1.6-3.7
		c1.2-0.5,2.5-1.1,3.8-1.5l1.4,3.8C909.5,940.1,908.3,940.6,907.1,941.1z M1875.6,940.1l-3.2-2.5c0.8-1.1,1.7-2.1,2.5-3.2l3.1,2.5
		C1877.3,938,1876.4,939,1875.6,940.1z M913.5,938.7l-1.2-3.8c1.3-0.4,2.6-0.8,4-1.1l1,3.9C915.9,938,914.7,938.4,913.5,938.7z
		 M1836.9,938.5c-1.2-0.6-2.3-1.1-3.5-1.6l1.6-3.7c1.3,0.5,2.5,1.1,3.7,1.7L1836.9,938.5z M591.5,938.2l-2-2.4l1.4-1.2l-1.3-0.8
		c0.6-1,1.3-2.1,2-3.1l3.3,2.2c-0.6,1-1.3,2-1.9,3L591.5,938.2z M1228.2,937.3c-0.9-1-1.8-1.9-2.7-2.9l2.9-2.8c0.9,1,1.8,2,2.8,3
		L1228.2,937.3z M920,937l-0.8-3.9c1.3-0.3,2.7-0.5,4-0.8l0.6,3.9C922.6,936.5,921.3,936.7,920,937z M1237,936.7l-3.5-2
		c0.7-1.2,1.4-2.4,2.1-3.5l3.4,2.1C1238.4,934.5,1237.7,935.6,1237,936.7z M926.8,935.8l-0.5-4c1.3-0.2,2.7-0.3,4.1-0.4l0.3,4
		C929.3,935.6,928,935.7,926.8,935.8z M1830.6,935.8c-1.2-0.5-2.4-0.9-3.7-1.3l1.2-3.8c1.3,0.4,2.6,0.9,3.9,1.4L1830.6,935.8z
		 M877.1,935.4c-0.7-1.1-1.4-2.2-2.1-3.3l3.3-2.2c0.8,1.1,1.5,2.3,2.2,3.5L877.1,935.4z M933.6,935.3l-0.2-4
		c1.3-0.1,2.7-0.1,4.1-0.1l0,4C936.2,935.2,934.8,935.2,933.6,935.3z M1780.1,935.2l-1.3-3.8c1.3-0.4,2.6-0.9,3.9-1.3l1.1,3.8
		C1782.5,934.3,1781.3,934.7,1780.1,935.2z M1880,934.7l-3.1-2.6c0.9-1,1.8-2.1,2.6-3.1l3,2.6C1881.7,932.7,1880.8,933.7,1880,934.7
		z M1824.1,933.7c-1.2-0.3-2.5-0.7-3.8-0.9l0.9-3.9c1.3,0.3,2.7,0.6,4,1L1824.1,933.7z M587.5,933.6c-0.9-0.9-1.8-1.9-2.7-2.8
		l2.8-2.9c1,1,1.9,1.9,2.9,2.9L587.5,933.6z M1786.6,933.2l-1-3.9c1.3-0.3,2.7-0.6,4-0.9l0.8,3.9
		C1789.1,932.6,1787.8,932.9,1786.6,933.2z M1775.8,932.6c-0.7-1.1-1.4-2.2-2.2-3.3l3.3-2.3c0.8,1.1,1.5,2.2,2.3,3.4L1775.8,932.6z
		 M941.3,932.5l-3.7-1.6c0.5-1.3,1.1-2.5,1.8-3.7l3.6,1.8C942.4,930.1,941.8,931.3,941.3,932.5z M1223.4,932.3
		c-0.9-0.9-1.9-1.9-2.8-2.8l2.8-2.9c1,0.9,2,1.9,2.9,2.8L1223.4,932.3z M1817.5,932.1c-1.3-0.2-2.6-0.4-3.8-0.6l0.5-4
		c1.4,0.2,2.7,0.4,4.1,0.6L1817.5,932.1z M1793.3,931.9l-0.6-4c1.3-0.2,2.7-0.4,4.1-0.5l0.4,4
		C1795.8,931.5,1794.5,931.7,1793.3,931.9z M1810.7,931.3c-1.3-0.1-2.6-0.2-3.9-0.2l0.1-4c1.4,0,2.7,0.1,4.1,0.2L1810.7,931.3z
		 M1800,931.1l-0.2-4c1.4-0.1,2.7-0.1,4.1-0.1l0,4C1802.6,931,1801.3,931.1,1800,931.1z M1240.7,930.9l-3.3-2.3
		c0.8-1.1,1.6-2.2,2.4-3.3l3.2,2.4C1242.2,928.8,1241.4,929.9,1240.7,930.9z M596.5,930.5l-3.3-2.3c0.8-1.1,1.6-2.2,2.4-3.3l3.2,2.4
		C598,928.3,597.2,929.4,596.5,930.5z M873.3,929.7c-0.8-1-1.6-2-2.4-3l3.1-2.6c0.9,1.1,1.7,2.1,2.6,3.2L873.3,929.7z M1884.5,929.5
		l-3-2.7c0.9-1,1.9-2,2.8-3l2.9,2.8C1886.4,927.6,1885.5,928.5,1884.5,929.5z M582.6,928.8c-1-0.9-1.9-1.7-3-2.5l2.5-3.1
		c1.1,0.9,2.1,1.8,3.1,2.7L582.6,928.8z M1218.5,927.5c-1-0.9-2-1.7-3-2.6l2.6-3c1,0.9,2,1.8,3,2.7L1218.5,927.5z M1772,926.9
		c-0.8-1.1-1.6-2.1-2.4-3.1l3.1-2.5c0.8,1.1,1.7,2.1,2.5,3.2L1772,926.9z M944.3,926.4l-3.5-2c0.7-1.2,1.4-2.4,2.1-3.5l3.4,2.2
		C945.6,924.2,945,925.3,944.3,926.4z M1244.7,925.4l-3.1-2.5c0.9-1.1,1.7-2.1,2.6-3.1l3,2.7
		C1246.4,923.4,1245.5,924.4,1244.7,925.4z M600.6,924.9l-3.1-2.5c0.8-1,1.7-2.1,2.6-3.2l3.1,2.6
		C602.2,922.9,601.4,923.9,600.6,924.9z M869,924.5c-0.9-0.9-1.8-1.9-2.7-2.8l2.8-2.9c1,0.9,2,1.9,2.9,2.9L869,924.5z M577.4,924.5
		c-1-0.8-2.1-1.5-3.2-2.2l2.2-3.3c1.1,0.8,2.3,1.5,3.4,2.4L577.4,924.5z M1889.3,924.5l-2.8-2.8c1-1,1.9-1.9,2.9-2.8l2.8,2.9
		C1891.2,922.6,1890.3,923.6,1889.3,924.5z M1213.2,923c-1-0.8-2-1.6-3.1-2.4l2.4-3.2c1.1,0.8,2.1,1.7,3.2,2.5L1213.2,923z
		 M1767.7,921.5c-0.8-1-1.7-2-2.6-3l3-2.7c0.9,1,1.8,2,2.7,3.1L1767.7,921.5z M571.7,920.7c-1.1-0.7-2.2-1.3-3.4-1.9l1.9-3.5
		c1.2,0.7,2.4,1.3,3.6,2L571.7,920.7z M948,920.7l-3.2-2.3c0.8-1.1,1.6-2.2,2.5-3.3l3.1,2.5C949.5,918.6,948.7,919.6,948,920.7z
		 M1249.2,920.3l-2.9-2.8c0.9-1,1.9-2,2.9-2.9l2.8,2.9C1251.1,918.4,1250.1,919.4,1249.2,920.3z M864.1,919.8c-1-0.8-2-1.7-3-2.5
		l2.4-3.2c1.1,0.8,2.2,1.7,3.2,2.6L864.1,919.8z M1894.3,919.7l-2.7-3c1-0.9,2-1.8,3-2.7l2.6,3
		C1896.3,918,1895.3,918.8,1894.3,919.7z M605,919.6l-3-2.6c0.9-1,1.8-2,2.7-3l2.9,2.7C606.7,917.7,605.8,918.7,605,919.6z
		 M1050.7,919c-0.8-1-1.6-2-2.5-3l3-2.6c0.9,1,1.8,2.1,2.6,3.2L1050.7,919z M1207.8,918.8c-1.1-0.8-2.1-1.5-3.2-2.3l2.3-3.3
		c1.1,0.8,2.2,1.5,3.3,2.3L1207.8,918.8z M1055.8,918.4l-2.3-3.2c1.1-0.8,2.2-1.6,3.3-2.3l2.2,3.3
		C1057.9,916.9,1056.8,917.7,1055.8,918.4z M565.8,917.4c-1.2-0.6-2.3-1.1-3.5-1.6l1.6-3.7c1.3,0.5,2.5,1.1,3.7,1.7L565.8,917.4z
		 M1763.2,916.3c-0.9-1-1.8-1.9-2.7-2.8l2.8-2.8c0.9,0.9,1.9,1.9,2.8,2.9L1763.2,916.3z M785.1,915.7l-2.3-3.3
		c1.1-0.8,2.3-1.6,3.4-2.3l2.1,3.4C787.2,914.2,786.1,915,785.1,915.7z M858.8,915.6c-1.1-0.7-2.1-1.5-3.2-2.1l2.1-3.4
		c1.2,0.7,2.3,1.5,3.4,2.3L858.8,915.6z M1254.1,915.5l-2.7-3c1-0.9,2.1-1.8,3.1-2.7l2.5,3.1
		C1256.1,913.8,1255.1,914.7,1254.1,915.5z M952.2,915.4l-3-2.7c0.9-1,1.9-2,2.8-3l2.8,2.8C954,913.5,953.1,914.4,952.2,915.4z
		 M1899.5,915.2l-2.5-3.1c1.1-0.9,2.2-1.7,3.2-2.5l2.4,3.2C1901.6,913.6,1900.6,914.4,1899.5,915.2z M1202.1,914.9
		c-1.1-0.7-2.2-1.4-3.3-2.1l2.1-3.4c1.2,0.7,2.3,1.4,3.4,2.2L1202.1,914.9z M559.5,914.7c-1.2-0.5-2.4-0.9-3.7-1.3l1.2-3.8
		c1.3,0.4,2.6,0.9,3.9,1.4L559.5,914.7z M609.7,914.6l-2.8-2.8c1-1,1.9-1.9,2.9-2.8l2.8,2.9C611.5,912.8,610.6,913.7,609.7,914.6z
		 M780.3,914.6c-0.9-0.9-1.9-1.8-2.8-2.8l2.8-2.9c1,0.9,2,1.9,2.9,2.8L780.3,914.6z M1061.5,914.5l-2.2-3.4c1.1-0.7,2.3-1.4,3.4-2.1
		l2.1,3.4C1063.7,913.1,1062.6,913.8,1061.5,914.5z M509,914.2l-1.3-3.8c1.3-0.5,2.6-0.9,3.9-1.3l1.1,3.8
		C511.4,913.4,510.2,913.8,509,914.2z M1046.3,913.8c-0.9-0.9-1.8-1.9-2.8-2.7l2.7-2.9c1,0.9,2,1.9,2.9,2.9L1046.3,913.8z
		 M553,912.6c-1.2-0.3-2.5-0.7-3.8-0.9l0.9-3.9c1.3,0.3,2.7,0.6,4,1L553,912.6z M515.5,912.2l-1-3.9c1.3-0.3,2.7-0.6,4-0.9l0.8,3.9
		C518,911.6,516.7,911.9,515.5,912.2z M790.8,912.1l-2-3.5c1.2-0.7,2.4-1.3,3.7-1.9l1.7,3.6C793.1,910.9,792,911.5,790.8,912.1z
		 M853,912c-1.1-0.6-2.3-1.2-3.4-1.8l1.7-3.6c1.2,0.6,2.5,1.2,3.7,1.9L853,912z M504.8,911.5c-0.7-1.1-1.4-2.2-2.2-3.3l3.3-2.3
		c0.8,1.1,1.5,2.2,2.3,3.4L504.8,911.5z M1758.3,911.5c-1-0.9-1.9-1.8-2.9-2.7l2.7-3c1,0.9,2,1.8,3,2.8L1758.3,911.5z M1196.2,911.3
		c-1.1-0.7-2.3-1.3-3.4-1.9l1.9-3.5c1.2,0.6,2.4,1.3,3.5,2L1196.2,911.3z M1259.4,911.2l-2.4-3.2c1.1-0.8,2.2-1.6,3.3-2.4l2.3,3.3
		C1261.5,909.6,1260.4,910.4,1259.4,911.2z M546.4,911.1c-1.3-0.2-2.6-0.4-3.9-0.6l0.5-4c1.4,0.2,2.7,0.4,4.1,0.6L546.4,911.1z
		 M1905,911.1l-2.3-3.3c1.2-0.8,2.3-1.6,3.4-2.3l2.1,3.4C1907.2,909.6,1906.1,910.3,1905,911.1z M1067.4,911l-2-3.5
		c1.2-0.7,2.4-1.3,3.6-2l1.9,3.5C1069.7,909.7,1068.5,910.3,1067.4,911z M522.2,910.9l-0.6-4c1.3-0.2,2.7-0.4,4.1-0.5l0.4,4
		C524.7,910.5,523.4,910.7,522.2,910.9z M957,910.6l-2.7-3c1-0.9,2.1-1.8,3.1-2.7l2.5,3.1C959,908.9,958,909.7,957,910.6z
		 M539.6,910.3c-1.3-0.1-2.6-0.2-3.9-0.2l0.1-4c1.4,0,2.7,0.1,4.1,0.2L539.6,910.3z M528.9,910.1l-0.2-4c1.4-0.1,2.7-0.1,4.1-0.1
		l0,4C531.5,910,530.2,910.1,528.9,910.1z M614.7,909.9l-2.7-3c1-0.9,2-1.8,3.1-2.7l2.6,3.1C616.6,908.1,615.6,909,614.7,909.9z
		 M775.3,909.9c-1-0.9-2-1.7-3-2.6l2.6-3.1c1,0.9,2.1,1.8,3.1,2.7L775.3,909.9z M1041.4,909.2c-1-0.8-2-1.6-3-2.4l2.4-3.2
		c1.1,0.8,2.2,1.7,3.2,2.6L1041.4,909.2z M796.9,909.1l-1.6-3.7c1.3-0.5,2.5-1,3.8-1.5l1.3,3.8C799.3,908.1,798.1,908.6,796.9,909.1
		z M846.9,909c-1.2-0.5-2.4-1-3.6-1.4l1.3-3.8c1.3,0.5,2.6,1,3.8,1.5L846.9,909z M1190.2,908c-1.2-0.6-2.3-1.2-3.5-1.7l1.7-3.6
		c1.2,0.6,2.4,1.2,3.6,1.8L1190.2,908z M1073.4,907.7l-1.8-3.6c1.2-0.6,2.4-1.2,3.7-1.8l1.7,3.6
		C1075.8,906.6,1074.6,907.1,1073.4,907.7z M1910.7,907.4l-2-3.5c1.3-0.7,2.5-1.4,3.7-1.9l1.7,3.6
		C1913.1,906.2,1911.9,906.7,1910.7,907.4z M1265,907.3l-2.2-3.4c1.2-0.7,2.3-1.5,3.5-2.1l2,3.5
		C1267.2,905.9,1266.1,906.6,1265,907.3z M1753.2,906.9c-1-0.8-2-1.7-3.1-2.5l2.5-3.1c1.1,0.8,2.1,1.7,3.2,2.6L1753.2,906.9z
		 M803.3,906.8l-1.2-3.8c1.3-0.4,2.6-0.8,4-1.1l0.9,3.9C805.8,906.1,804.5,906.4,803.3,906.8z M840.6,906.7c-1.2-0.4-2.5-0.7-3.7-1
		l0.9-3.9c1.3,0.3,2.7,0.7,4,1.1L840.6,906.7z M962.3,906.3l-2.4-3.2c1.1-0.8,2.2-1.6,3.4-2.3l2.2,3.4
		C964.4,904.8,963.3,905.5,962.3,906.3z M500.9,905.9c-0.8-1-1.6-2.1-2.4-3.1l3.1-2.5c0.8,1.1,1.7,2.2,2.5,3.2L500.9,905.9z
		 M619.9,905.4l-2.5-3.1c1.1-0.8,2.1-1.7,3.2-2.5l2.4,3.2C622,903.8,620.9,904.6,619.9,905.4z M770.1,905.4c-1-0.8-2.1-1.6-3.1-2.4
		l2.4-3.2c1.1,0.8,2.2,1.6,3.2,2.5L770.1,905.4z M809.9,905.1l-0.8-3.9c1.3-0.3,2.7-0.5,4.1-0.7l0.5,4
		C812.4,904.7,811.1,904.9,809.9,905.1z M834,905.1c-1.3-0.2-2.6-0.4-3.8-0.6l0.5-4c1.4,0.2,2.7,0.4,4.1,0.6L834,905.1z M1184,905.1
		c-1.2-0.5-2.4-1-3.6-1.5l1.5-3.7c1.3,0.5,2.5,1,3.7,1.6L1184,905.1z M1036,905.1c-1.1-0.7-2.2-1.4-3.3-2.1l2-3.4
		c1.2,0.7,2.3,1.4,3.5,2.2L1036,905.1z M1079.7,904.8l-1.6-3.7c1.2-0.5,2.5-1.1,3.7-1.6l1.5,3.7
		C1082.1,903.8,1080.9,904.3,1079.7,904.8z M1916.7,904.6l-1.3-3.8c1.7-0.6,3.2-0.9,4.5-0.9v4C1919.1,904,1918,904.2,1916.7,904.6z
		 M816.6,904.2l-0.3-4c1.4-0.1,2.7-0.2,4.1-0.2l0.1,4C819.2,904,817.9,904.1,816.6,904.2z M827.3,904.2c-1.3-0.1-2.6-0.2-3.9-0.2
		l0.1-4c1.4,0,2.8,0.1,4.1,0.2L827.3,904.2z M1270.9,903.8l-1.9-3.5c1.2-0.6,2.4-1.3,3.7-1.8l1.7,3.6
		C1273.3,902.6,1272.1,903.2,1270.9,903.8z M1747.8,902.6c-1-0.8-2.1-1.5-3.2-2.3l2.3-3.3c1.1,0.8,2.2,1.6,3.3,2.4L1747.8,902.6z
		 M968,902.6l-2-3.5c1.2-0.7,2.4-1.3,3.6-2l1.8,3.6C970.2,901.3,969.1,901.9,968,902.6z M1177.6,902.4c-1.2-0.5-2.5-0.9-3.7-1.3
		l1.3-3.8c1.3,0.4,2.6,0.9,3.8,1.4L1177.6,902.4z M1347.2,902.4c-1.2-0.6-2.4-1.1-3.6-1.6l1.6-3.7c0.8,0.4,1.6,0.7,2.5,1.1
		c0.3-1.2,0.7-2.4,1-3.5l3.8,1.2c-0.4,1.3-0.8,2.5-1.1,3.8l-2.5-0.7L1347.2,902.4z M1086.1,902.2l-1.4-3.7c1.3-0.5,2.5-0.9,3.8-1.4
		l1.3,3.8C1088.5,901.3,1087.3,901.7,1086.1,902.2z M1030.2,901.5c-1.1-0.6-2.3-1.2-3.5-1.7l1.7-3.6c1.2,0.6,2.5,1.2,3.7,1.8
		L1030.2,901.5z M625.4,901.2l-2.3-3.3c1.1-0.8,2.2-1.6,3.3-2.3l2.2,3.3C627.5,899.7,626.5,900.5,625.4,901.2z M764.6,901.2
		c-1.1-0.8-2.1-1.5-3.2-2.2l2.2-3.3c1.1,0.8,2.2,1.5,3.3,2.3L764.6,901.2z M1277.1,900.9l-1.6-3.7c1.3-0.5,2.5-1.1,3.8-1.5l1.4,3.7
		C1279.5,899.8,1278.3,900.3,1277.1,900.9z M496.7,900.4c-0.8-1-1.7-2-2.6-3l3-2.7c0.9,1,1.8,2,2.7,3.1L496.7,900.4z M1171.1,900.2
		c-1.2-0.4-2.5-0.8-3.8-1.1l1.1-3.8c1.3,0.4,2.6,0.8,3.9,1.2L1171.1,900.2z M1092.6,899.9l-1.2-3.8c1.3-0.4,2.6-0.8,3.9-1.2l1.1,3.9
		C1095.1,899.2,1093.8,899.6,1092.6,899.9z M1340.9,899.6c-1.2-0.5-2.4-0.9-3.7-1.3l1.3-3.8c1.3,0.4,2.6,0.9,3.8,1.4L1340.9,899.6z
		 M974,899.5l-1.6-3.7c1.2-0.6,2.5-1.1,3.8-1.6l1.4,3.7C976.4,898.5,975.2,899,974,899.5z M1742.2,898.7c-1.1-0.7-2.2-1.4-3.3-2.1
		l2.1-3.4c1.1,0.7,2.3,1.4,3.4,2.2L1742.2,898.7z M1024,898.7c-1.2-0.5-2.4-0.9-3.6-1.3l1.3-3.8c1.3,0.4,2.6,0.9,3.9,1.4L1024,898.7
		z M1283.5,898.4l-1.3-3.8c1.3-0.4,2.6-0.8,3.9-1.2l1.1,3.8C1286,897.6,1284.7,898,1283.5,898.4z M1164.5,898.2
		c-1.3-0.3-2.5-0.6-3.8-0.9l0.9-3.9c1.3,0.3,2.6,0.6,3.9,1L1164.5,898.2z M1099.2,898.1l-1-3.9c1.3-0.3,2.6-0.7,4-1l0.9,3.9
		C1101.8,897.4,1100.5,897.7,1099.2,898.1z M1334.5,897.4c-1.2-0.4-2.5-0.7-3.8-1l1-3.9c1.3,0.3,2.6,0.7,3.9,1.1L1334.5,897.4z
		 M631.1,897.4L629,894c1.1-0.7,2.3-1.4,3.5-2.1l2,3.5C633.3,896,632.2,896.7,631.1,897.4z M758.9,897.4c-1.1-0.7-2.2-1.4-3.4-2
		l2-3.5c1.2,0.7,2.3,1.4,3.5,2.1L758.9,897.4z M980.4,897.1l-1.2-3.8c1.3-0.4,2.6-0.8,4-1.1l1,3.9
		C982.8,896.3,981.6,896.7,980.4,897.1z M1157.8,896.7c-1.3-0.3-2.6-0.5-3.9-0.7l0.7-3.9c1.3,0.2,2.7,0.5,4,0.8L1157.8,896.7z
		 M1105.9,896.5l-0.8-3.9c1.3-0.3,2.7-0.5,4-0.7l0.7,3.9C1108.5,896,1107.2,896.3,1105.9,896.5z M1290.1,896.5l-1-3.9
		c1.3-0.3,2.7-0.6,4-0.9l0.8,3.9C1292.6,895.9,1291.3,896.2,1290.1,896.5z M1017.6,896.5c-1.2-0.4-2.5-0.7-3.8-1l0.9-3.9
		c1.3,0.3,2.7,0.6,4,1L1017.6,896.5z M1327.8,895.8c-1.3-0.3-2.6-0.5-3.8-0.7l0.6-3.9c1.3,0.2,2.7,0.5,4,0.7L1327.8,895.8z
		 M1151,895.5c-1.3-0.2-2.6-0.4-3.9-0.5l0.5-4c1.3,0.2,2.7,0.3,4,0.5L1151,895.5z M1112.7,895.3l-0.6-4c1.3-0.2,2.7-0.4,4-0.5l0.5,4
		C1115.3,895,1114,895.2,1112.7,895.3z M986.9,895.3l-0.8-3.9c1.3-0.3,2.7-0.5,4.1-0.7l0.6,4C989.4,894.9,988.2,895.1,986.9,895.3z
		 M492.1,895.3c-0.9-1-1.8-1.9-2.7-2.8l2.8-2.8c1,1,1.9,1.9,2.8,2.9L492.1,895.3z M1296.8,895.1l-0.6-3.9c1.3-0.2,2.7-0.4,4.1-0.6
		l0.5,4C1299.3,894.7,1298,894.9,1296.8,895.1z M1736.3,895.1c-1.1-0.6-2.3-1.3-3.4-1.9l1.9-3.5c1.2,0.6,2.4,1.3,3.6,2L1736.3,895.1
		z M1011,894.9c-1.3-0.2-2.6-0.4-3.8-0.5l0.4-4c1.4,0.2,2.7,0.3,4.1,0.6L1011,894.9z M1321.1,894.7c-1.3-0.2-2.6-0.3-3.9-0.4l0.3-4
		c1.4,0.1,2.7,0.2,4.1,0.4L1321.1,894.7z M1144.2,894.6c-1.3-0.1-2.6-0.2-3.9-0.3l0.3-4c1.4,0.1,2.7,0.2,4,0.3L1144.2,894.6z
		 M1119.6,894.5l-0.4-4c1.3-0.1,2.7-0.2,4.1-0.3l0.2,4C1122.2,894.3,1120.9,894.4,1119.6,894.5z M993.6,894.3l-0.4-4
		c1.4-0.1,2.7-0.2,4.1-0.3l0.2,4C996.2,894.1,994.9,894.2,993.6,894.3z M1303.5,894.3l-0.3-4c1.4-0.1,2.7-0.2,4.1-0.2l0.1,4
		C1306.2,894.1,1304.8,894.2,1303.5,894.3z M1004.3,894.1c-1.3-0.1-2.6-0.1-3.9-0.1l0-4c1.4,0,2.8,0.1,4.1,0.1L1004.3,894.1z
		 M1137.3,894.1c-1.3-0.1-2.6-0.1-3.9-0.1l0.1-4c1.4,0,2.7,0.1,4.1,0.1L1137.3,894.1z M1126.5,894.1l-0.2-4c1.3-0.1,2.7-0.1,4.1-0.1
		l0,4C1129.1,894,1127.8,894,1126.5,894.1z M1314.3,894.1c-1.2-0.1-2.5-0.1-3.8-0.1h-0.1v-4h0.1c1.3,0,2.7,0,4,0.1L1314.3,894.1z
		 M753,893.9c-1.1-0.6-2.3-1.2-3.5-1.8l1.8-3.6c1.2,0.6,2.4,1.3,3.6,1.9L753,893.9z M637,893.9l-1.9-3.5c1.2-0.7,2.4-1.3,3.6-1.9
		l1.8,3.6C639.3,892.6,638.2,893.3,637,893.9z M1353.4,893l-3.8-1.3c0.4-1.3,0.9-2.6,1.3-3.8l3.8,1.4
		C1354.3,890.5,1353.9,891.8,1353.4,893z M1730.3,891.8c-1.2-0.6-2.4-1.1-3.5-1.7l1.7-3.6c1.2,0.6,2.5,1.1,3.7,1.7L1730.3,891.8z
		 M746.8,890.7c-1.2-0.6-2.4-1.1-3.6-1.6l1.6-3.7c1.2,0.5,2.5,1.1,3.7,1.7L746.8,890.7z M643.2,890.7l-1.7-3.6
		c1.2-0.6,2.5-1.2,3.7-1.7l1.6,3.7C645.5,889.6,644.3,890.2,643.2,890.7z M487.3,890.4c-0.9-0.9-1.9-1.8-2.9-2.7l2.7-3
		c1,0.9,2,1.8,3,2.7L487.3,890.4z M1724,889c-1.2-0.5-2.4-1-3.6-1.5l1.4-3.7c1.3,0.5,2.5,1,3.8,1.5L1724,889z M740.6,888
		c-1.2-0.5-2.4-1-3.7-1.4l1.4-3.7c1.3,0.5,2.5,1,3.8,1.5L740.6,888z M649.5,887.9l-1.5-3.7c1.3-0.5,2.5-1,3.8-1.5l1.4,3.7
		C651.9,887,650.7,887.4,649.5,887.9z M1355.8,886.5l-3.7-1.4c0.5-1.3,1-2.5,1.5-3.7l3.7,1.5
		C1356.7,884.1,1356.3,885.3,1355.8,886.5z M1717.6,886.5c-1.2-0.4-2.5-0.9-3.7-1.2l1.2-3.8c1.3,0.4,2.6,0.8,3.9,1.3L1717.6,886.5z
		 M482.1,885.8c-1-0.8-2-1.7-3.1-2.5l2.5-3.1c1.1,0.8,2.1,1.7,3.2,2.6L482.1,885.8z M734.1,885.5c-1.2-0.4-2.5-0.8-3.7-1.2l1.2-3.8
		c1.3,0.4,2.6,0.8,3.9,1.3L734.1,885.5z M655.9,885.5l-1.3-3.8c1.3-0.4,2.6-0.9,3.9-1.3l1.2,3.8
		C658.4,884.7,657.1,885.1,655.9,885.5z M1711.1,884.4c-1.2-0.4-2.5-0.7-3.8-1l1-3.9c1.3,0.3,2.6,0.7,3.9,1.1L1711.1,884.4z
		 M727.6,883.5c-1.3-0.4-2.5-0.7-3.8-1l1-3.9c1.3,0.3,2.6,0.7,3.9,1L727.6,883.5z M662.5,883.5l-1.1-3.9c1.3-0.4,2.6-0.7,3.9-1
		l1,3.9C665,882.8,663.8,883.1,662.5,883.5z M1704.4,882.7c-0.6-0.1-1.2-0.3-1.8-0.4l-1.6-0.3l0-1.7c0-0.6,0-1.2,0-1.8v-0.2h4v0.2
		c0,0.1,0,0.2,0,0.3c0.1,0,0.2,0,0.3,0.1l-0.3,1.3c0,0.1,0,0.2,0,0.3l-0.1,0L1704.4,882.7z M720.9,881.8c-1.3-0.3-2.6-0.5-3.9-0.8
		l0.7-3.9c1.3,0.2,2.7,0.5,4,0.8L720.9,881.8z M669.2,881.8l-0.9-3.9c1.3-0.3,2.7-0.6,4-0.8l0.7,3.9
		C671.8,881.2,670.5,881.5,669.2,881.8z M476.7,881.5c-1-0.8-2.1-1.5-3.2-2.3l2.3-3.3c1.1,0.8,2.2,1.6,3.3,2.4L476.7,881.5z
		 M714.2,880.5c-1.3-0.2-2.6-0.4-3.9-0.6l0.5-4c1.3,0.2,2.7,0.4,4,0.6L714.2,880.5z M676,880.5l-0.6-4c1.3-0.2,2.7-0.4,4-0.6l0.5,4
		C678.6,880.1,677.3,880.3,676,880.5z M1358.4,880.2l-3.7-1.6c0.5-1.2,1.1-2.5,1.7-3.7l3.6,1.7C1359.5,877.8,1359,879,1358.4,880.2z
		 M707.3,879.6c-1.3-0.1-2.6-0.2-3.9-0.3l0.3-4c1.4,0.1,2.7,0.2,4,0.3L707.3,879.6z M682.8,879.6l-0.4-4c1.3-0.1,2.7-0.2,4.1-0.3
		l0.3,4C685.4,879.4,684.1,879.5,682.8,879.6z M700.5,879.1c-1.3-0.1-2.6-0.1-3.9-0.1l0.1-4c1.4,0,2.7,0.1,4.1,0.1L700.5,879.1z
		 M689.7,879.1l-0.2-4c1.3-0.1,2.7-0.1,4.1-0.1l0,4C692.3,879,691,879.1,689.7,879.1z M471.1,877.6c-1.1-0.7-2.2-1.4-3.3-2.1
		l2.1-3.4c1.2,0.7,2.3,1.4,3.4,2.2L471.1,877.6z M1700.9,875.4c-0.1-1.3-0.2-2.6-0.3-3.9l4-0.4c0.1,1.4,0.3,2.7,0.3,4.1
		L1700.9,875.4z M465.2,874c-1.1-0.6-2.3-1.3-3.4-1.9l1.9-3.5c1.2,0.6,2.4,1.3,3.6,2L465.2,874z M1361.4,874l-3.6-1.8
		c0.6-1.2,1.2-2.4,1.9-3.6l3.5,1.9C1362.6,871.6,1362,872.8,1361.4,874z M459.2,870.8c-1.2-0.6-2.4-1.1-3.6-1.7l1.6-3.6
		c1.2,0.6,2.5,1.1,3.7,1.7L459.2,870.8z M1700.2,868.6c-0.2-1.3-0.4-2.6-0.7-3.8l3.9-0.9c0.3,1.3,0.5,2.7,0.8,4L1700.2,868.6z
		 M452.9,867.9c-1.2-0.5-2.4-1-3.6-1.5l1.4-3.7c1.3,0.5,2.5,1,3.8,1.5L452.9,867.9z M1364.6,867.9l-3.5-2c0.7-1.2,1.3-2.3,2-3.5
		l3.4,2.1C1365.9,865.6,1365.3,866.7,1364.6,867.9z M446.5,865.5c-1.2-0.4-2.5-0.8-3.7-1.2l1.2-3.8c1.3,0.4,2.6,0.8,3.9,1.3
		L446.5,865.5z M440,863.4c-1.2-0.4-2.5-0.7-3.8-1l1-3.9c1.3,0.3,2.6,0.7,3.9,1L440,863.4z M1698.8,862c-0.3-1.2-0.7-2.5-1.1-3.7
		l3.8-1.3c0.4,1.3,0.8,2.6,1.2,3.9L1698.8,862z M1368.1,862l-3.4-2.1c0.7-1.1,1.5-2.3,2.2-3.4l3.3,2.2
		C1369.5,859.7,1368.8,860.9,1368.1,862z M433.3,861.7c-0.6-0.1-1.1-0.2-1.7-0.4l-1.6-0.3l0-1.7c0-0.6,0-1.2,0-1.8l0-0.3l4,0l0,0.3
		c0,0.1,0,0.2,0,0.2c0.1,0,0.1,0,0.2,0l-0.2,0.8c0,0.3,0,0.6,0,0.9l-0.2,0L433.3,861.7z M1371.9,856.2l-3.3-2.3
		c0.8-1.1,1.6-2.2,2.4-3.3l3.2,2.4C1373.5,854.1,1372.7,855.1,1371.9,856.2z M1696.7,855.5c-0.5-1.2-1-2.4-1.5-3.6l3.6-1.7
		c0.6,1.2,1.1,2.5,1.6,3.8L1696.7,855.5z M429.9,854.3c-0.1-1.3-0.2-2.6-0.3-3.9l4-0.4c0.2,1.4,0.3,2.7,0.3,4.1L429.9,854.3z
		 M1376,850.7l-3.2-2.4c0.8-1.1,1.7-2.1,2.5-3.2l3.1,2.5C1377.6,848.6,1376.8,849.6,1376,850.7z M1693.9,849.3
		c-0.6-1.1-1.2-2.3-1.9-3.4l3.4-2.1c0.7,1.2,1.4,2.4,2,3.6L1693.9,849.3z M88.9,848.4c-1.1-0.4-2.3-0.9-3.6-1.4l1.4-3.8
		c1.4,0.5,2.6,1,3.7,1.4c0.6-1,1.2-2.1,1.8-3.1l3.4,2.1c-0.7,1.1-1.3,2.3-2,3.4l-3.3-1.9L88.9,848.4z M429.2,847.5
		c-0.2-1.3-0.4-2.5-0.7-3.8l3.9-0.9c0.3,1.3,0.6,2.7,0.8,4L429.2,847.5z M82.4,846c-1.2-0.4-2.5-0.8-3.8-1.2l1.2-3.8
		c1.4,0.4,2.6,0.8,3.9,1.2L82.4,846z M1380.4,845.3l-3.1-2.6c0.9-1,1.8-2,2.7-3.1l3,2.7C1382.1,843.3,1381.2,844.3,1380.4,845.3z
		 M75.8,843.9c-1.2-0.4-2.5-0.7-3.8-1.1l1.1-3.8c1.3,0.4,2.6,0.8,3.9,1.1L75.8,843.9z M1690.5,843.5c-0.7-1.1-1.5-2.1-2.2-3.2
		l3.2-2.4c0.8,1.1,1.6,2.2,2.4,3.4L1690.5,843.5z M69.1,842c-1.3-0.3-2.5-0.7-3.8-1l1-3.9c1.3,0.3,2.6,0.7,3.9,1L69.1,842z
		 M97.1,841.1l-3.4-2.1c0.7-1.1,1.5-2.3,2.2-3.4l3.3,2.2C98.5,838.8,97.8,839.9,97.1,841.1z M427.8,840.9c-0.3-1.2-0.7-2.5-1.1-3.7
		l3.8-1.3c0.4,1.3,0.8,2.6,1.2,3.9L427.8,840.9z M62.3,840.2c-1.3-0.3-2.6-0.7-3.9-1l1-3.9c1.3,0.3,2.6,0.7,3.9,1L62.3,840.2z
		 M1384.9,840.1l-2.9-2.7c0.9-1,1.9-2,2.8-2.9l2.8,2.8C1386.7,838.2,1385.8,839.2,1384.9,840.1z M55.6,838.5
		c-1.3-0.3-2.6-0.6-3.9-0.9l0.9-3.9c1.3,0.3,2.6,0.6,3.9,0.9L55.6,838.5z M1686.4,838c-0.8-1-1.7-2-2.6-2.9l2.9-2.7
		c0.9,1,1.8,2,2.7,3.1L1686.4,838z M48.8,836.9c-1.3-0.3-2.6-0.6-3.9-0.9l0.9-3.9c1.3,0.3,2.6,0.6,3.9,0.9L48.8,836.9z M42,835.4
		c-1.3-0.3-2.6-0.6-3.9-0.8l0.8-3.9c1.3,0.3,2.6,0.6,3.9,0.8L42,835.4z M100.9,835.3l-3.3-2.3c0.8-1.1,1.6-2.2,2.4-3.3l3.2,2.4
		C102.4,833.2,101.6,834.2,100.9,835.3z M1389.8,835.2l-2.8-2.9c1-0.9,1.9-1.9,2.9-2.8l2.7,2.9
		C1391.7,833.4,1390.7,834.3,1389.8,835.2z M1591.6,834.6l-1.7-1.6l1.4-1.5l-1.1-1.1c0.9-0.9,1.8-1.7,2.7-2.5l2.6,3
		c-0.9,0.8-1.7,1.6-2.5,2.4L1591.6,834.6z M425.7,834.4c-0.5-1.2-1-2.4-1.5-3.6l3.6-1.7c0.6,1.2,1.1,2.5,1.6,3.8L425.7,834.4z
		 M35.1,834c-1.3-0.3-2.6-0.5-3.9-0.8l0.8-3.9c1.3,0.3,2.6,0.5,3.9,0.8L35.1,834z M1681.9,833.1c-0.9-0.9-1.9-1.8-2.9-2.6l2.6-3
		c1,0.9,2,1.8,3,2.8L1681.9,833.1z M28.3,832.6c-1.3-0.2-2.6-0.5-3.9-0.7l0.7-3.9c1.3,0.2,2.6,0.5,4,0.7L28.3,832.6z M21.4,831.4
		c-1.3-0.2-2.7-0.4-3.9-0.6l0.6-4c1.3,0.2,2.6,0.4,4,0.7L21.4,831.4z M1587.7,831c-1-0.9-2-1.7-3-2.6l2.6-3.1c1,0.9,2,1.8,3.1,2.7
		L1587.7,831z M1394.8,830.5l-2.7-3c1-0.9,2-1.8,3.1-2.7l2.6,3.1C1396.8,828.8,1395.8,829.6,1394.8,830.5z M14.5,830.3
		c-1.4-0.2-2.7-0.4-3.9-0.5l0.5-4c1.3,0.2,2.6,0.3,4,0.5L14.5,830.3z M104.9,829.7l-3.2-2.4c0.8-1.1,1.7-2.1,2.5-3.2l3.1,2.5
		C106.6,827.7,105.7,828.7,104.9,829.7z M7.6,829.4c-1.4-0.1-2.7-0.3-3.9-0.3l0.3-4c1.2,0.1,2.6,0.2,4.1,0.4L7.6,829.4z M1597.7,829
		l-2.5-3.1c1.1-0.9,2.2-1.7,3.3-2.5l2.3,3.3C1599.8,827.4,1598.7,828.2,1597.7,829z M1676.8,828.6c-1-0.8-2.1-1.6-3.1-2.3l2.3-3.3
		c1.1,0.8,2.2,1.6,3.3,2.4L1676.8,828.6z M422.9,828.3c-0.6-1.1-1.2-2.3-1.9-3.4l3.4-2.1c0.7,1.2,1.4,2.4,2,3.6L422.9,828.3z
		 M1582.5,826.5c-1-0.8-2-1.6-3.1-2.4l2.4-3.2c1.1,0.8,2.1,1.7,3.2,2.5L1582.5,826.5z M1400.1,826l-2.5-3.1c1.1-0.8,2.1-1.7,3.2-2.5
		l2.4,3.2C1402.2,824.4,1401.1,825.2,1400.1,826z M1603.2,825l-2.2-3.4c1.2-0.7,2.3-1.5,3.5-2.1l2,3.5
		C1605.5,823.7,1604.3,824.3,1603.2,825z M1671.2,824.7c-1.1-0.7-2.2-1.3-3.3-2l1.9-3.5c1.2,0.7,2.4,1.4,3.6,2.1L1671.2,824.7z
		 M109.3,824.4l-3.1-2.6c0.9-1,1.8-2.1,2.7-3.1l3,2.7C111,822.4,110.1,823.4,109.3,824.4z M419.4,822.4c-0.7-1.1-1.5-2.1-2.2-3.2
		l3.2-2.4c0.8,1.1,1.6,2.2,2.4,3.4L419.4,822.4z M1577,822.3c-1.1-0.8-2.1-1.5-3.2-2.3l2.3-3.3c1.1,0.8,2.2,1.6,3.3,2.4L1577,822.3z
		 M1405.6,821.8l-2.4-3.2c1.1-0.8,2.2-1.6,3.3-2.3l2.3,3.3C1407.7,820.3,1406.6,821,1405.6,821.8z M1609.1,821.7l-1.8-3.6
		c1.2-0.6,2.5-1.2,3.7-1.7l1.6,3.7C1611.5,820.5,1610.3,821.1,1609.1,821.7z M1665.3,821.4c-1.2-0.6-2.3-1.1-3.5-1.6l1.5-3.7
		c1.3,0.5,2.5,1.1,3.8,1.7L1665.3,821.4z M113.9,819.2l-2.9-2.7c0.9-1,1.9-2,2.8-2.9l2.9,2.8C115.7,817.3,114.8,818.2,113.9,819.2z
		 M1615.4,819l-1.4-3.8c1.3-0.5,2.6-0.9,3.9-1.3l1.2,3.8C1617.8,818.1,1616.6,818.5,1615.4,819z M1659.1,818.8
		c-1.2-0.4-2.4-0.8-3.7-1.2l1.1-3.8c1.3,0.4,2.6,0.8,3.9,1.3L1659.1,818.8z M1571.4,818.3c-1.1-0.7-2.2-1.4-3.3-2.1l2.1-3.4
		c1.1,0.7,2.3,1.5,3.4,2.2L1571.4,818.3z M1411.2,817.9l-2.2-3.3c1.1-0.7,2.3-1.5,3.4-2.2l2.1,3.4
		C1413.5,816.5,1412.3,817.2,1411.2,817.9z M415.4,817c-0.8-1-1.7-2-2.6-2.9l2.9-2.7c0.9,1,1.9,2,2.7,3.1L415.4,817z M1621.8,816.9
		l-1-3.9c1.3-0.3,2.7-0.6,4-0.9l0.7,3.9C1624.4,816.3,1623.1,816.6,1621.8,816.9z M1652.6,816.8c-1.2-0.3-2.5-0.6-3.8-0.8l0.7-3.9
		c1.4,0.2,2.7,0.5,4,0.9L1652.6,816.8z M1628.5,815.6l-0.6-4c1.4-0.2,2.7-0.3,4.1-0.5l0.3,4C1631.1,815.3,1629.8,815.5,1628.5,815.6
		z M1645.9,815.5c-1.3-0.2-2.6-0.3-3.9-0.4l0.3-4c1.4,0.1,2.7,0.2,4.1,0.4L1645.9,815.5z M1635.3,815l-0.1-4c1.4,0,2.8-0.1,4.1,0
		l-0.1,4C1637.8,815,1636.5,815,1635.3,815z M1565.5,814.6c-1.1-0.7-2.3-1.3-3.4-2l2-3.5c1.2,0.7,2.3,1.3,3.5,2L1565.5,814.6z
		 M118.7,814.3l-2.8-2.9c1-0.9,1.9-1.9,2.9-2.8l2.7,2.9C120.6,812.4,119.6,813.3,118.7,814.3z M1417.1,814.2l-2-3.4
		c1.2-0.7,2.3-1.4,3.5-2l1.9,3.5C1419.4,812.9,1418.2,813.5,1417.1,814.2z M320.6,813.6l-1.8-1.7l1.4-1.5l-1-1.1
		c0.9-0.8,1.7-1.7,2.6-2.4l2.6,3c-0.8,0.7-1.7,1.5-2.5,2.3L320.6,813.6z M410.8,812c-0.9-0.9-1.9-1.8-2.9-2.6l2.6-3
		c1,0.9,2.1,1.8,3,2.8L410.8,812z M1559.5,811.2c-1.2-0.6-2.3-1.2-3.5-1.8l1.8-3.6c1.2,0.6,2.4,1.2,3.6,1.9L1559.5,811.2z
		 M1423.1,810.8l-1.9-3.5c1.2-0.6,2.4-1.3,3.6-1.9l1.8,3.6C1425.5,809.6,1424.3,810.2,1423.1,810.8z M316.6,809.9
		c-1-0.9-2-1.7-3-2.6l2.6-3.1c1,0.9,2.1,1.8,3.1,2.7L316.6,809.9z M123.7,809.6l-2.7-3c1-0.9,2-1.8,3.1-2.7l2.6,3.1
		C125.7,807.8,124.7,808.7,123.7,809.6z M1553.4,808.1c-1.2-0.6-2.4-1.1-3.6-1.6l1.6-3.7c1.2,0.5,2.5,1.1,3.7,1.7L1553.4,808.1z
		 M326.7,808l-2.5-3.1c1.1-0.9,2.2-1.7,3.3-2.5l2.3,3.3C328.7,806.4,327.7,807.2,326.7,808z M1429.3,807.7l-1.7-3.6
		c1.2-0.6,2.5-1.1,3.7-1.7l1.6,3.7C1431.7,806.6,1430.5,807.2,1429.3,807.7z M405.7,807.5c-1-0.8-2.1-1.6-3.1-2.3l2.3-3.3
		c1.1,0.8,2.2,1.6,3.3,2.4L405.7,807.5z M311.4,805.4c-1-0.8-2.1-1.6-3.1-2.4l2.4-3.2c1.1,0.8,2.1,1.7,3.2,2.5L311.4,805.4z
		 M1547.1,805.3c-1.2-0.5-2.4-1-3.7-1.5l1.4-3.7c1.3,0.5,2.5,1,3.8,1.5L1547.1,805.3z M129,805.1l-2.5-3.1c1.1-0.8,2.1-1.7,3.2-2.5
		l2.4,3.2C131.1,803.5,130,804.3,129,805.1z M1435.6,804.9l-1.5-3.7c1.2-0.5,2.5-1,3.8-1.5l1.4,3.7
		C1438.1,804,1436.9,804.4,1435.6,804.9z M332.2,804.1l-2.2-3.4c1.1-0.7,2.3-1.5,3.5-2.1l2,3.5C334.4,802.7,333.2,803.4,332.2,804.1
		z M400.1,803.6c-1.1-0.7-2.2-1.3-3.3-2l1.9-3.5c1.2,0.7,2.4,1.4,3.6,2.1L400.1,803.6z M1540.7,802.7c-1.2-0.5-2.5-0.9-3.7-1.3
		l1.3-3.8c1.3,0.4,2.6,0.9,3.8,1.3L1540.7,802.7z M1442.1,802.5l-1.3-3.8c1.3-0.5,2.6-0.9,3.8-1.3l1.2,3.8
		C1444.6,801.6,1443.3,802,1442.1,802.5z M305.9,801.2c-1.1-0.8-2.1-1.5-3.2-2.3l2.3-3.3c1.1,0.8,2.2,1.6,3.3,2.4L305.9,801.2z
		 M134.5,800.9l-2.4-3.2c1.1-0.8,2.2-1.6,3.3-2.4l2.3,3.3C136.6,799.3,135.5,800.1,134.5,800.9z M338.1,800.7l-1.8-3.6
		c1.2-0.6,2.5-1.2,3.7-1.7l1.6,3.7C340.4,799.6,339.2,800.1,338.1,800.7z M1534.1,800.5c-1.3-0.4-2.5-0.8-3.8-1.1l1.1-3.8
		c1.3,0.4,2.6,0.8,3.9,1.2L1534.1,800.5z M394.2,800.3c-1.2-0.6-2.3-1.1-3.5-1.6l1.5-3.7c1.3,0.5,2.5,1.1,3.8,1.7L394.2,800.3z
		 M1448.7,800.3l-1.2-3.8c1.3-0.4,2.6-0.8,3.9-1.1l1.1,3.9C1451.2,799.5,1449.9,799.9,1448.7,800.3z M1527.5,798.6
		c-1.3-0.3-2.5-0.6-3.8-0.9l0.9-3.9c1.3,0.3,2.6,0.6,3.9,1L1527.5,798.6z M1455.3,798.4l-1-3.9c1.3-0.3,2.6-0.6,3.9-0.9l0.9,3.9
		C1457.9,797.8,1456.6,798.1,1455.3,798.4z M344.3,798l-1.4-3.7c1.3-0.5,2.6-0.9,3.9-1.3l1.2,3.8C346.7,797.1,345.5,797.5,344.3,798
		z M388,797.7c-1.2-0.4-2.5-0.8-3.7-1.2l1.1-3.8c1.3,0.4,2.6,0.8,3.9,1.3L388,797.7z M300.3,797.2c-1.1-0.7-2.2-1.4-3.3-2.1l2.1-3.4
		c1.1,0.7,2.3,1.5,3.4,2.2L300.3,797.2z M1520.8,797.1c-1.3-0.3-2.6-0.5-3.9-0.8l0.7-3.9c1.3,0.2,2.7,0.5,4,0.8L1520.8,797.1z
		 M140.2,796.9l-2.2-3.3c1.1-0.7,2.3-1.5,3.4-2.2l2.1,3.4C142.4,795.5,141.3,796.2,140.2,796.9z M1462.1,796.9l-0.8-3.9
		c1.3-0.3,2.6-0.5,4-0.8l0.7,3.9C1464.7,796.4,1463.4,796.6,1462.1,796.9z M350.7,796l-1-3.9c1.3-0.3,2.7-0.6,4-0.9l0.7,3.9
		C353.3,795.4,352,795.7,350.7,796z M1514,795.8c-1.3-0.2-2.6-0.4-3.9-0.6l0.5-4c1.3,0.2,2.7,0.4,4,0.6L1514,795.8z M381.5,795.8
		c-1.2-0.3-2.5-0.6-3.8-0.8l0.7-3.9c1.3,0.2,2.7,0.5,4,0.8L381.5,795.8z M1468.9,795.7l-0.6-4c1.3-0.2,2.7-0.4,4-0.6l0.5,4
		C1471.5,795.3,1470.2,795.5,1468.9,795.7z M1507.2,794.9c-1.3-0.1-2.6-0.3-3.9-0.4l0.3-4c1.3,0.1,2.7,0.2,4,0.4L1507.2,794.9z
		 M1475.7,794.8l-0.4-4c1.3-0.1,2.7-0.3,4-0.4l0.3,4C1478.3,794.5,1477,794.7,1475.7,794.8z M357.4,794.6l-0.6-4
		c1.4-0.2,2.7-0.3,4.1-0.5l0.3,4C360,794.3,358.7,794.5,357.4,794.6z M374.8,794.5c-1.3-0.2-2.6-0.3-3.9-0.4l0.3-4
		c1.4,0.1,2.7,0.2,4.1,0.4L374.8,794.5z M1500.3,794.3c-1.3-0.1-2.6-0.1-3.9-0.2l0.1-4c1.4,0.1,2.7,0.1,4,0.2L1500.3,794.3z
		 M1482.6,794.2l-0.2-4c1.3-0.1,2.7-0.1,4-0.2l0.1,4C1485.2,794.1,1483.9,794.2,1482.6,794.2z M364.2,794l-0.1-4
		c1.4,0,2.8-0.1,4.1,0l-0.1,4C366.7,794,365.4,794,364.2,794z M1493.4,794c-0.8,0-1.6,0-2.4,0c-0.5,0-1,0-1.5,0l0-4
		c0.6,0,1.1,0,1.7,0c0.8,0,1.6,0,2.4,0L1493.4,794z M294.5,793.5c-1.1-0.7-2.3-1.3-3.4-2l2-3.5c1.2,0.7,2.3,1.3,3.5,2L294.5,793.5z
		 M146,793.3l-2-3.4c1.2-0.7,2.3-1.4,3.5-2l2,3.5C148.3,791.9,147.1,792.6,146,793.3z M288.5,790.1c-1.2-0.6-2.3-1.2-3.5-1.8
		l1.8-3.6c1.2,0.6,2.4,1.2,3.6,1.9L288.5,790.1z M152,789.9l-1.9-3.5c1.2-0.6,2.4-1.3,3.6-1.9l1.8,3.6
		C154.4,788.7,153.2,789.3,152,789.9z M282.3,787c-1.2-0.6-2.4-1.1-3.6-1.6l1.6-3.7c1.2,0.5,2.5,1.1,3.7,1.7L282.3,787z
		 M158.2,786.8l-1.7-3.6c1.2-0.6,2.5-1.1,3.7-1.7l1.6,3.7C160.6,785.7,159.4,786.2,158.2,786.8z M276,784.2c-1.2-0.5-2.4-1-3.7-1.5
		l1.4-3.7c1.3,0.5,2.5,1,3.8,1.5L276,784.2z M164.5,784l-1.5-3.7c1.2-0.5,2.5-1,3.8-1.5l1.4,3.7C167,783,165.7,783.5,164.5,784z
		 M269.6,781.7c-1.2-0.4-2.5-0.9-3.7-1.3l1.3-3.8c1.3,0.4,2.6,0.9,3.8,1.3L269.6,781.7z M171,781.5l-1.4-3.8
		c1.3-0.5,2.6-0.9,3.8-1.3l1.2,3.8C173.5,780.6,172.2,781,171,781.5z M263,779.5c-1.3-0.4-2.5-0.8-3.8-1.1l1.1-3.9
		c1.3,0.4,2.6,0.7,3.9,1.1L263,779.5z M177.5,779.3l-1.2-3.8c1.3-0.4,2.6-0.8,3.9-1.1l1.1,3.9C180.1,778.6,178.8,778.9,177.5,779.3z
		 M256.4,777.6c-1.3-0.3-2.5-0.6-3.8-0.9l0.9-3.9c1.3,0.3,2.6,0.6,3.9,1L256.4,777.6z M184.2,777.5l-1-3.9c1.3-0.3,2.6-0.6,4-0.9
		l0.9,3.9C186.8,776.8,185.5,777.1,184.2,777.5z M249.7,776c-1.3-0.3-2.6-0.5-3.9-0.8l0.7-3.9c1.3,0.2,2.7,0.5,4,0.8L249.7,776z
		 M191,775.9l-0.8-3.9c1.3-0.3,2.7-0.5,4-0.8l0.7,3.9C193.5,775.4,192.3,775.6,191,775.9z M242.9,774.8c-1.3-0.2-2.6-0.4-3.9-0.6
		l0.5-4c1.3,0.2,2.7,0.4,4,0.6L242.9,774.8z M197.8,774.7l-0.6-4c1.3-0.2,2.7-0.4,4-0.6l0.5,4C200.4,774.3,199.1,774.5,197.8,774.7z
		 M236.1,773.9c-1.3-0.1-2.6-0.3-3.9-0.4l0.3-4c1.3,0.1,2.7,0.2,4,0.4L236.1,773.9z M204.6,773.8l-0.4-4c1.3-0.1,2.7-0.3,4-0.4
		l0.3,4C207.2,773.5,205.9,773.7,204.6,773.8z M229.2,773.3c-1.3-0.1-2.6-0.1-3.9-0.2l0.1-4c1.4,0,2.7,0.1,4,0.2L229.2,773.3z
		 M211.5,773.2l-0.2-4c1.3-0.1,2.7-0.1,4-0.2l0.1,4C214.1,773.1,212.8,773.2,211.5,773.2z M222.3,773c-1.3,0-2.6,0-3.9,0l0-4
		c1.4,0,2.7,0,4.1,0L222.3,773z"/>
</g>
<g id="XMLID_112_">
	<path id="XMLID_145_" class="st2" d="M1531.1,516.7l-58.5-11.6c0,0-22.6-16-28-4.3c-2.9,6.2,2,8.5,7.3,13c7.2,6.1,12.7,4.2,16,5.7
		c14.8,6.7,25.9,11.6,25.9,11.6l-20.9,11.6c0,0-8-1.4-11.1,0.2c-3.1,1.6-7.7,5.7-12.8,6.6c-11.4,2.1-14.1,22.1,12.4,13.9
		c26.5-8.2,44.2-15.6,44.2-15.6l-28.4,26.5c0,0-8.5,5.7-12.4,5.9c-11,0.8-14.2,14.7,5.1,13.6c19.3-1.1,18.1-5.3,18.1-5.3l17.3-3
		l37.8,0.9l9.8-68.2L1531.1,516.7z"/>
	<path id="XMLID_120_" class="st3" d="M1511.7,410.5l-54.2,9.3c-6,1-10,6.3-9,12.3l22.9,134.1c0.3,1.5,0.8,2.9,1.6,4.1l47.9-157.2
		C1518.5,410.7,1515.2,409.9,1511.7,410.5z"/>
	<path id="XMLID_143_" class="st4" d="M1473,570.4c2.3,3.6,6.6,5.8,11.1,5.1l54.2-9.3c6-1,10.1-7.1,9-13.1L1524.4,419
		c-0.4-2.5-1.7-4.6-3.5-6.2L1473,570.4z"/>
	<g id="XMLID_124_" class="st5">
		<circle id="XMLID_128_" class="st6" cx="1474.7" cy="422.5" r="1.3"/>
		<circle id="XMLID_127_" class="st6" cx="1481.2" cy="421.4" r="1.3"/>
		<circle id="XMLID_126_" class="st6" cx="1487.7" cy="420.3" r="1.3"/>
		<circle id="XMLID_125_" class="st6" cx="1494.2" cy="419.2" r="1.3"/>
	</g>
	<path id="XMLID_121_" class="st7" d="M1516.9,420.7l-61.8,10.6c-2.3,0.4-3.8,2.6-3.4,5l20,117.1c0.4,2.4,2.6,4,4.9,3.6l0.4-0.1
		l41.5-136.2C1517.9,420.7,1517.4,420.6,1516.9,420.7z"/>
	<path id="XMLID_118_" class="st8" d="M1518.4,420.8L1476.9,557l61.4-10.5c2.3-0.4,3.8-2.6,3.4-5l-20-117.1
		C1521.4,422.5,1520.1,421.1,1518.4,420.8z"/>
	<g id="XMLID_119_">
		<path id="XMLID_122_" class="st9" d="M1451.5,434.6c-0.5,0.1-1.1-0.3-1.2-0.8c-1.1-6.7,3.4-13.1,10.1-14.2
			c0.5-0.1,1.1,0.3,1.2,0.8s-0.3,1.1-0.8,1.2c-5.6,1-9.4,6.3-8.4,11.9C1452.4,434,1452,434.5,1451.5,434.6z"/>
	</g>
	<path id="XMLID_123_" class="st10" d="M1563.9,599.4c3-19.4,10-54.1,8.4-58.6c-1.6-4.5-9.5-39-9.5-39l0.1-0.1
		c-2.5-7.1-4.6-13-5-14.3c-1.1-3.2-25.4-14.6-25.4-14.6s2.3,4.7,2.5,11c0.3,8.3,0.6,18.7,1,22.5c0.6,6.6,7.4,16.4,7.4,16.4
		s-3.1,8.5-4.7,18.9c-1.6,10.3,2.6,38.1-1.1,39.3c-1.1,0.3-2.2-1.7-3.4-5.1c-5.1-8.3-14.6-25.6-17.6-44.2c-2.2-13.7-6-22.9-9.2-28.5
		c-1.2-0.1-2.4,0.1-3.7,0.5c-15.4,4.9-5.6,32.8-2.3,45.3c3.2,12.4,0.3,24.4,0,39c-0.3,14.6,16.7,45.6,25.3,63.1
		c5.5,11.2,9.3,23.4,11.5,31.2l35.2-6C1573.3,675.9,1560.9,618.8,1563.9,599.4z"/>
	<path id="XMLID_248_" class="st11" d="M1534.1,575.6c-3-8.6-6.1-25.7-8.4-34.1c-2.9-10.7-6.1-37.7-18.4-38.5
		c3.1,5.6,7,14.8,9.2,28.5C1519.5,550,1529,567.3,1534.1,575.6z"/>
	<path id="XMLID_249_" class="st11" d="M1573.9,529.9c-2.5-5-7.3-17.8-11-28.2l-0.1,0.1c0,0,7.8,34.5,9.5,38.9
		c1.6,4.5-5.4,39.3-8.4,58.7c-3,19.4,9.4,76.5,9.4,76.5l14.1-2.4c-3.5-10.6-9.6-34.8-9.6-69.4
		C1577.7,553.1,1582.5,546.8,1573.9,529.9z"/>
	<polygon id="XMLID_144_" class="st12" points="1567,677 1530,683.3 1537.3,726.4 1579.6,712.6 1579.7,712.8 	"/>
	<polygon id="XMLID_247_" class="st13" points="1597,671.8 1567,677 1579.7,712.8 1579.6,712.7 1602.7,705 	"/>
	<polygon id="XMLID_115_" class="st14" points="1650.8,868.2 1615.9,700.7 1579.3,712.6 1579.3,712.7 1568.5,716.2 1601.2,876.6 	
		"/>
	<polygon id="XMLID_246_" class="st15" points="1579.3,712.7 1579.3,712.6 1515.1,733.6 1543.6,886.3 1601.2,876.6 1568.5,716.2 	
		"/>
</g>
<g id="XMLID_106_">
	<path id="XMLID_138_" class="st2" d="M266.5,568.7l58.5-11.6c0,0,22.6-16,28-4.3c2.9,6.2-2,8.5-7.3,13c-7.2,6.1-12.7,4.2-16,5.7
		c-14.8,6.7-25.9,11.6-25.9,11.6l20.9,11.6c0,0,8-1.4,11.1,0.2c3.1,1.6,7.7,5.7,12.8,6.6c11.4,2.1,14.1,22.1-12.4,13.9
		c-26.5-8.2-44.2-15.6-44.2-15.6l28.4,26.5c0,0,8.5,5.7,12.4,5.9c11,0.8,14.2,14.7-5.1,13.6c-19.3-1.1-18.1-5.3-18.1-5.3l-17.3-3
		l-37.8,0.9l-9.8-68.2L266.5,568.7z"/>
	<path id="XMLID_137_" class="st3" d="M285.9,462.5l54.2,9.3c6,1,10,6.3,9,12.3L326.2,618c-0.3,1.5-0.8,2.9-1.6,4.1l-47.9-157.2
		C279.1,462.7,282.4,461.9,285.9,462.5z"/>
	<path id="XMLID_136_" class="st4" d="M324.6,622.4c-2.3,3.6-6.6,5.8-11.1,5.1l-54.2-9.3c-6-1-10.1-7.1-9-13.1L273.1,471
		c0.4-2.5,1.7-4.6,3.5-6.2L324.6,622.4z"/>
	<g id="XMLID_131_" class="st5">
		<circle id="XMLID_135_" class="st6" cx="322.9" cy="474.5" r="1.3"/>
		<circle id="XMLID_134_" class="st6" cx="316.4" cy="473.4" r="1.3"/>
		<circle id="XMLID_133_" class="st6" cx="309.9" cy="472.3" r="1.3"/>
		<circle id="XMLID_132_" class="st6" cx="303.4" cy="471.2" r="1.3"/>
	</g>
	<path id="XMLID_130_" class="st7" d="M280.7,472.7l61.8,10.6c2.3,0.4,3.8,2.6,3.4,5l-20,117.1c-0.4,2.4-2.6,4-4.9,3.6l-0.4-0.1
		l-41.5-136.2C279.7,472.7,280.2,472.6,280.7,472.7z"/>
	<path id="XMLID_129_" class="st8" d="M279.2,472.8L320.6,609l-61.4-10.5c-2.3-0.4-3.8-2.6-3.4-5l20-117.1
		C276.1,474.5,277.5,473.1,279.2,472.8z"/>
	<g id="XMLID_116_">
		<path id="XMLID_117_" class="st9" d="M346.1,486.6c0.5,0.1,1.1-0.3,1.2-0.8c1.1-6.7-3.4-13.1-10.1-14.2c-0.5-0.1-1.1,0.3-1.2,0.8
			s0.3,1.1,0.8,1.2c5.6,1,9.4,6.3,8.4,11.9C345.2,486,345.6,486.5,346.1,486.6z"/>
	</g>
	<path id="XMLID_114_" class="st10" d="M233.7,651.4c-3-19.4-10-54.1-8.4-58.6c1.6-4.5,9.5-39,9.5-39l-0.1-0.1
		c2.5-7.1,4.6-13,5-14.3c1.1-3.2,25.4-14.6,25.4-14.6s-2.3,4.7-2.5,11c-0.3,8.3-0.6,18.7-1,22.5c-0.6,6.6-7.4,16.4-7.4,16.4
		s3.1,8.5,4.7,18.9c1.6,10.3-2.6,38.1,1.1,39.3c1.1,0.3,2.2-1.7,3.4-5.1c5.1-8.3,14.6-25.6,17.6-44.2c2.2-13.7,6-22.9,9.2-28.5
		c1.2-0.1,2.4,0.1,3.7,0.5c15.4,4.9,5.6,32.8,2.3,45.3c-3.2,12.4-0.3,24.4,0,39c0.3,14.6-16.7,45.6-25.3,63.1
		c-5.5,11.2-9.3,23.4-11.5,31.2l-35.2-6C224.3,727.9,236.7,670.8,233.7,651.4z"/>
	<path id="XMLID_113_" class="st11" d="M263.4,627.6c3-8.6,6.1-25.7,8.4-34.1c2.9-10.7,6.1-37.7,18.4-38.5c-3.1,5.6-7,14.8-9.2,28.5
		C278.1,602,268.6,619.3,263.4,627.6z"/>
	<path id="XMLID_111_" class="st11" d="M223.7,581.9c2.5-5,7.3-17.8,11-28.2l0.1,0.1c0,0-7.8,34.5-9.5,38.9
		c-1.6,4.5,5.4,39.3,8.4,58.7c3,19.4-9.4,76.5-9.4,76.5l-14.1-2.4c3.5-10.6,9.6-34.8,9.6-69.4C219.8,605.1,215.1,598.8,223.7,581.9z
		"/>
	<polygon id="XMLID_110_" class="st12" points="230.6,729 267.6,735.3 260.2,778.4 217.9,764.6 217.9,764.8 	"/>
	<polygon id="XMLID_109_" class="st13" points="200.6,723.8 230.6,729 217.9,764.8 217.9,764.7 194.9,757 	"/>
	<polygon id="XMLID_108_" class="st14" points="146.8,920.2 181.7,752.7 218.2,764.6 218.2,764.7 229.1,768.2 196.4,928.6 	"/>
	<polygon id="XMLID_107_" class="st15" points="218.2,764.7 218.2,764.6 282.5,785.6 254,938.3 196.4,928.6 229.1,768.2 	"/>
</g>
<g id="XMLID_183_">
	<path id="XMLID_234_" class="st16" d="M1236.3,523.2c0-6.5,5.2-11.7,11.7-11.7"/>
	<path id="XMLID_233_" class="st16" d="M1236.3,522.2c0-6.5,5.2-11.7,11.7-11.7"/>
	<circle id="XMLID_230_" class="st17" cx="1305.6" cy="700.2" r="5.5"/>
	<path id="XMLID_229_" class="st18" d="M1372,526.5v152c0,5-4,9-9,9h-113.2l-13.9,19.9c1.1,0.7,2.5,1.1,3.9,1.1h131.5
		c4.3,0,7.7-3.5,7.7-7.7V515.2c0-2.9-1.6-5.5-4-6.8l-7.3,10.4C1370.3,520.4,1372,523.3,1372,526.5z"/>
	<path id="XMLID_228_" class="st19" d="M1239.8,507.5c-4.3,0-7.7,3.5-7.7,7.7v185.5c0,2.8,1.5,5.3,3.8,6.7l13.9-19.9h-0.8
		c-5,0-9-4-9-9v-152c0-5,4-9,9-9h114c1.7,0,3.3,0.5,4.7,1.3l7.3-10.4c-1.1-0.6-2.4-0.9-3.7-0.9H1239.8z"/>
	<path id="XMLID_227_" class="st8" d="M1372,678.5v-152c0-3.2-1.7-6.1-4.3-7.7l-117.9,168.7H1363C1368,687.5,1372,683.5,1372,678.5z
		"/>
	<path id="XMLID_226_" class="st7" d="M1363,517.5h-114c-5,0-9,4-9,9v152c0,5,4,9,9,9h0.8l117.9-168.7
		C1366.4,518,1364.8,517.5,1363,517.5z"/>
	<path id="XMLID_225_" class="st2" d="M1310.3,660.5c0,0,7.6-27,11.7-28.4c4-1.3,4-4,4.9,11.7c0.9,15.8-0.4,31.5-0.4,31.5
		L1310.3,660.5z"/>
	<path id="XMLID_224_" class="st10" d="M1248.4,737.1c7.3-18.7,8.7-27.6,8.7-34.2c0-6.7-3.3-20.4-2.3-31.5c0.5-5.3,0.2-12-0.3-17.6
		c-0.4-0.1-0.8-0.2-1.3-0.3c-10.2-1.4-9.1,18.6-9.8,26.3c-0.7,7.7-0.7,26.3-3.2,25.9c-2.5-0.3-2.8-18.2-4.9-24.5
		c-2.1-6.3-5-11.3-5-11.3s3.2-6.9,2.9-11.1c-0.2-2.4-0.1-9-0.8-14.2c-0.5-4-0.6-7.2-0.6-7.2s-14,9.8-14.4,11.9
		c-0.3,2.1-3.7,22.6-5.5,28.4c-3.6,11.6,0.1,14.5,5.5,46.4c3.4,20.2,2.6,34.9,1.6,42.5h29.2C1246.4,762.7,1242.5,751.9,1248.4,737.1
		z"/>
	<path id="XMLID_223_" class="st11" d="M1254.5,747.8c3.5-11.9,10.9-32.8,9.1-41.9c-1.8-9.1-4.9-16.2-4.2-24.4
		c0.7-7.8,3.6-25-5-27.8c0.5,5.6,0.8,12.3,0.3,17.6c-1,11.2,2.3,24.8,2.3,31.5c0,6.7-1.3,15.6-8.7,34.2c-5.8,14.8-2,25.6-0.2,29.4
		h2.6C1251.4,761.7,1252.5,754.6,1254.5,747.8z"/>
	<path id="XMLID_222_" class="st12" d="M1243.7,768.5h5.3c0,0-0.3-1-0.8-2H1211v19.4l36.8,0.4l2.7-0.3L1243.7,768.5z"/>
	<path id="XMLID_221_" class="st13" d="M1262,766.5h-13.8c0.5,1,0.8,2,0.8,2h-5.3l6.8,17.5l-2.7,0.5l14.2,0V766.5z"/>
	<path id="XMLID_220_" class="st20" d="M1265,926.2l-14-2.7l14.7-3.3l-13.3-5.3c0,0,7.3-48.6,8-68.6S1245,787,1245,787l2.8-0.6
		l-41.7-0.5c0,0-0.3,151.8,5.4,157.9c5.6,6,5.6,29.8,5.6,29.8h34.6l-4.6-42.7L1265,926.2z"/>
	<path id="XMLID_219_" class="st21" d="M1284.3,928.9c0,0-0.8-5.8,0.7-17.2c1.6-11.4-1.5-125-1.5-125l-35.8-0.4l-2.8,0.6
		c0,0,16,39.3,15.3,59.3s-8,68.6-8,68.6l13.3,5.3l-14.7,3.3l14,2.7l-18,4.7l4.6,42.7h43.2L1284.3,928.9z"/>
	<path id="XMLID_218_" class="st11" d="M1375.6,710.4c1.3-5.8,0.9-33.3,2.2-39.6c1.3-6.3,0.5-11.9-1.8-13.8c-2.2-1.9-5-2.2-5-2.2
		s0.5-2-1.8-4.2s-6.1-2.3-6.1-2.3s-0.3-4.8-3.4-6.5c-1-0.6-3.1-1.3-5.4-2.1v0c2.2,3.4,4.6,7.3,4.8,8.8c0.5,2.9,1.3,6.4,1.3,6.4
		s3.8-1.5,7.8,2.5s3.3,10,3.3,10s0.9,17.1-0.2,24.6c-1.1,7.4-7.8,26.1-7.8,26.1l-6.1,10.1l19.5-5.2
		C1375.9,719.1,1374.8,713.7,1375.6,710.4z"/>
	<polygon id="XMLID_217_" class="st12" points="1389.1,755.8 1388.9,754.9 1388.9,755.8 1388.9,755.8 	"/>
	<path id="XMLID_216_" class="st13" d="M1385.6,742.7l-5.4-20.4l-22.6,6l-1.2,2l12.7,22.9l-2.7,5.1l0.5,1.6
		C1372.6,757.2,1381.6,747.3,1385.6,742.7z"/>
	<path id="XMLID_215_" class="st12" d="M1369,753.1l-12.7-22.9l1.2-2l-28.2,7.5l8.5,32c8.1-2.4,22.2-6.6,27.1-7.3
		c0.6-0.1,1.2-0.3,1.9-0.6l-0.5-1.6L1369,753.1z"/>
	<path id="XMLID_214_" class="st21" d="M1389,828.8c0,0,34,6.7,25-29.6c-9-36.3-26.3-59-26.3-59s-13.2,16.1-20.8,19.6L1389,828.8
		L1389,828.8z"/>
	<path id="XMLID_189_" class="st20" d="M1389,828.8l-22.1-69c-0.7,0.3-1.3,0.5-1.9,0.6c-7,1-32.9,9.1-32.9,9.1s15.3,22.4,19,48
		s38,108,38,108v-56.2L1389,828.8L1389,828.8z"/>
	<path id="XMLID_188_" class="st10" d="M1371.7,667.5c0,0,0.7-6-3.3-10s-7.8-2.5-7.8-2.5s-0.8-3.5-1.3-6.4c-0.2-1.5-2.6-5.5-4.8-8.8
		v0c-4.5-1.6-9.9-3.1-9.9-3.1s-4.1-9.4-4.1-13.9s-2.1-8.4-3.6-16.2c-1.5-8.1-2.1-18.1-2.2-22.4c0-2.7-1-2.2-2.8-2.9
		c-2.7-1.1-7,2.7-8.4,10c-1.3,7.3,0.1,13.2,0.1,13.2s-0.6,8.8,0.3,16.5c0.9,7.7,2.2,13.4,2.2,13.4s-1,12.2-1.4,19
		c-0.4,6.8,0.5,12.2-2.5,12.4c-2.5,0.2-5.2-4.6-6.8-8.8h0c-4.2-5.6-9.3-12.6-11.9-17.1c-2.8-4.9-8-8.9-11.8-11.4
		c-4,0.4-4.9,4.6-1.7,8.8c4.5,5.8,12.3,28.1,12.9,32.5c0.6,4.4,2.6,11.7,12.2,26.5c9.6,14.8,10.9,21.1,15.4,26.9s6.3,9.9,6.3,9.9
		l0.3,0.8l20.4-5.4l6.1-10.1c0,0,6.7-18.7,7.8-26.1C1372.6,684.6,1371.7,667.5,1371.7,667.5z"/>
	<path id="XMLID_187_" class="st11" d="M1303.6,639.7c2.5,4.5,7.6,11.5,11.9,17.1h0c-0.3-0.8-0.6-1.6-0.8-2.3
		c-1.2-4.5-7.5-20.2-16.5-24.7c-2.6-1.3-4.7-1.7-6.4-1.6C1295.7,630.8,1300.9,634.8,1303.6,639.7z"/>
	<g id="XMLID_185_" class="st5">
		<path id="XMLID_186_" class="st9" d="M1236.3,525.2c-1.1,0-2-0.9-2-2c0-7.5,6.1-13.7,13.7-13.7c1.1,0,2,0.9,2,2s-0.9,2-2,2
			c-5.3,0-9.7,4.3-9.7,9.7C1238.3,524.3,1237.4,525.2,1236.3,525.2z"/>
	</g>
</g>
<g id="XMLID_85_">
	<path id="XMLID_363_" class="st11" d="M402.8,710.6l8.9,15.6l-8.3,5.7l4.3,10.6c0,0,9.1,4.2,12.7,7.7c3.5,3.5,12,24.6,12,24.6
		l-21,4.2l-24.7-44.3v-9.8L402.8,710.6z"/>
	<path id="XMLID_362_" class="st3" d="M692.8,706.3c0,15.5-12.6,28.1-28.1,28.1H424.9c-15.5,0-28.1-12.6-28.1-28.1V561.5
		c0-15.5,12.6-28.1,28.1-28.1h239.8c15.5,0,28.1,12.6,28.1,28.1V706.3z"/>
	<path id="XMLID_361_" class="st22" d="M685.8,642.4c0,5.5-4.5,10-10,10h-259c-5.5,0-10-4.5-10-10v-86c0-5.5,4.5-10,10-10h259
		c5.5,0,10,4.5,10,10V642.4z"/>
	<path id="XMLID_360_" class="st23" d="M668.8,551.4h9.7c1.1,0,2.3,1.1,2.3,2.2v7.1c0,1.1-1.3,1.8-2.3,1.8H669
		c-1.1,0-2.2-0.7-2.2-1.8v-7.1c0-1.1,1.1-2.2,2.2-2.2"/>
	<path id="XMLID_359_" class="st23" d="M669.8,565.4h8.2c1.3,0,2.8,0.7,2.8,2.1v9.6c0,1.3-1.5,2.4-2.8,2.4h-8.6
		c-1.3,0-2.6-1.1-2.6-2.4v-9.6c0-1.3,1.3-2.1,2.6-2.1"/>
	<path id="XMLID_358_" class="st23" d="M669.8,581.4h8.2c1.3,0,2.8,1.6,2.8,2.9v9.6c0,1.3-1.5,2.6-2.8,2.6h-8.6
		c-1.3,0-2.6-1.2-2.6-2.6v-9.6c0-1.3,1.3-2.9,2.6-2.9"/>
	<path id="XMLID_357_" class="st23" d="M669.8,598.4h8.2c1.3,0,2.8,1.4,2.8,2.7v9.6c0,1.3-1.5,2.7-2.8,2.7h-8.6
		c-1.3,0-2.6-1.4-2.6-2.7v-9.6c0-1.3,1.3-2.7,2.6-2.7"/>
	<path id="XMLID_356_" class="st23" d="M669.8,615.4h8.2c1.3,0,2.8,1.2,2.8,2.5v9.6c0,1.3-1.5,1.9-2.8,1.9h-8.6
		c-1.3,0-2.6-0.6-2.6-1.9v-9.6c0-1.3,1.3-2.5,2.6-2.5"/>
	<path id="XMLID_355_" class="st23" d="M669.8,632.4h8.2c1.3,0,2.8,1.1,2.8,2.4v9.6c0,1.3-1.5,2.1-2.8,2.1h-8.6
		c-1.3,0-2.6-0.8-2.6-2.1v-9.6c0-1.3,1.3-2.4,2.6-2.4"/>
	<path id="XMLID_354_" class="st23" d="M651.8,551.4h9.9c1.1,0,2.1,1.1,2.1,2.2v7.1c0,1.1-1,1.8-2.1,1.8h-9.5
		c-1.1,0-2.4-0.7-2.4-1.8v-7.1c0-1.1,1.3-2.2,2.4-2.2"/>
	<path id="XMLID_353_" class="st23" d="M637.8,565.4h23.3c1.4,0,2.7,0.8,2.7,2.2v9.2c0,1.4-1.3,2.5-2.7,2.5h-23.8
		c-1.4,0-2.5-1.1-2.5-2.5v-9.2c0-1.4,1.1-2.2,2.5-2.2"/>
	<path id="XMLID_352_" class="st23" d="M647.8,581.4h13.3c1.4,0,2.7,1.7,2.7,3.1v9.2c0,1.4-1.3,2.7-2.7,2.7h-12.9
		c-1.4,0-2.4-1.3-2.4-2.7v-9.2c0-1.4,1-3.1,2.4-3.1"/>
	<path id="XMLID_351_" class="st23" d="M635.8,598.4h25.3c1.4,0,2.7,1.5,2.7,2.9v9.2c0,1.4-1.3,2.9-2.7,2.9h-25.7
		c-1.4,0-2.6-1.5-2.6-2.9v-9.2c0-1.4,1.2-2.9,2.6-2.9"/>
	<path id="XMLID_350_" class="st23" d="M652.8,615.4h8.4c1.3,0,2.6,1.2,2.6,2.5v9.6c0,1.3-1.2,1.9-2.6,1.9h-8.6
		c-1.3,0-2.8-0.6-2.8-1.9v-9.6c0-1.3,1.5-2.5,2.8-2.5"/>
	<path id="XMLID_349_" class="st23" d="M652.8,632.4h8.4c1.3,0,2.6,1.1,2.6,2.4v9.6c0,1.3-1.2,2.1-2.6,2.1h-8.6
		c-1.3,0-2.8-0.8-2.8-2.1v-9.6c0-1.3,1.5-2.4,2.8-2.4"/>
	<path id="XMLID_348_" class="st23" d="M636.8,551.4h8.1c1.1,0,1.9,1.1,1.9,2.2v7.1c0,1.1-0.8,1.8-1.9,1.8h-8.2
		c-1.1,0-1.9-0.7-1.9-1.8v-7.1C634.8,552.5,635.6,551.4,636.8,551.4"/>
	<path id="XMLID_347_" class="st23" d="M620.8,551.4h8.4c1.1,0,1.6,1.1,1.6,2.2v7.1c0,1.1-0.5,1.8-1.6,1.8H621
		c-1.1,0-2.2-0.7-2.2-1.8v-7.1c0-1.1,1.1-2.2,2.2-2.2"/>
	<path id="XMLID_346_" class="st23" d="M604.8,551.4h8.6c1.1,0,2.4,1.1,2.4,2.2v7.1c0,1.1-1.3,1.8-2.4,1.8h-8.2
		c-1.1,0-2.4-0.7-2.4-1.8v-7.1c0-1.1,1.3-2.2,2.4-2.2"/>
	<path id="XMLID_345_" class="st23" d="M589.8,551.4h7.9c1.1,0,2.1,1.1,2.1,2.2v7.1c0,1.1-1,1.8-2.1,1.8h-8.2
		c-1.1,0-1.7-0.7-1.7-1.8v-7.1c0-1.1,0.6-2.2,1.7-2.2"/>
	<path id="XMLID_344_" class="st23" d="M573.8,551.4h8.2c1.1,0,1.8,1.1,1.8,2.2v7.1c0,1.1-0.8,1.8-1.8,1.8h-8.2
		c-1.1,0-1.9-0.7-1.9-1.8v-7.1C571.8,552.5,572.7,551.4,573.8,551.4"/>
	<path id="XMLID_343_" class="st23" d="M557.8,551.4h8.4c1.1,0,1.6,1.1,1.6,2.2v7.1c0,1.1-0.5,1.8-1.6,1.8H558
		c-1.1,0-2.2-0.7-2.2-1.8v-7.1c0-1.1,1.1-2.2,2.2-2.2"/>
	<path id="XMLID_342_" class="st23" d="M541.8,551.4h8.7c1.1,0,2.3,1.1,2.3,2.2v7.1c0,1.1-1.2,1.8-2.3,1.8h-8.2
		c-1.1,0-1.5-0.7-1.5-1.8v-7.1c0-1.1,0.4-2.2,1.5-2.2"/>
	<path id="XMLID_341_" class="st23" d="M526.8,551.4h7.9c1.1,0,2.1,1.1,2.1,2.2v7.1c0,1.1-1,1.8-2.1,1.8h-8.2
		c-1.1,0-1.7-0.7-1.7-1.8v-7.1c0-1.1,0.6-2.2,1.7-2.2"/>
	<path id="XMLID_340_" class="st23" d="M510.8,551.4h8.2c1.1,0,1.8,1.1,1.8,2.2v7.1c0,1.1-0.7,1.8-1.8,1.8h-8.2c-1.1,0-2-0.7-2-1.8
		v-7.1C508.8,552.5,509.7,551.4,510.8,551.4"/>
	<path id="XMLID_339_" class="st23" d="M494.8,551.4h8.5c1.1,0,1.5,1.1,1.5,2.2v7.1c0,1.1-0.5,1.8-1.5,1.8h-8.2
		c-1.1,0-2.2-0.7-2.2-1.8v-7.1c0-1.1,1.2-2.2,2.2-2.2"/>
	<path id="XMLID_338_" class="st23" d="M479.8,551.4h7.7c1.1,0,2.3,1.1,2.3,2.2v7.1c0,1.1-1.2,1.8-2.3,1.8h-8.2
		c-1.1,0-1.5-0.7-1.5-1.8v-7.1c0-1.1,0.4-2.2,1.5-2.2"/>
	<path id="XMLID_337_" class="st23" d="M463.8,551.4h8c1.1,0,2,1.1,2,2.2v7.1c0,1.1-0.9,1.8-2,1.8h-8.2c-1.1,0-1.8-0.7-1.8-1.8v-7.1
		c0-1.1,0.7-2.2,1.8-2.2"/>
	<path id="XMLID_336_" class="st23" d="M447.8,551.4h8.2c1.1,0,1.8,1.1,1.8,2.2v7.1c0,1.1-0.7,1.8-1.8,1.8h-8.2c-1.1,0-2-0.7-2-1.8
		v-7.1C445.8,552.5,446.8,551.4,447.8,551.4"/>
	<path id="XMLID_335_" class="st23" d="M431.8,551.4h8.5c1.1,0,1.5,1.1,1.5,2.2v7.1c0,1.1-0.4,1.8-1.5,1.8h-8.2
		c-1.1,0-2.3-0.7-2.3-1.8v-7.1c0-1.1,1.2-2.2,2.3-2.2"/>
	<path id="XMLID_334_" class="st23" d="M414.8,551.4h9.1c1.1,0,1.9,1.1,1.9,2.2v7.1c0,1.1-0.8,1.8-1.9,1.8h-9.5
		c-1.1,0-1.6-0.7-1.6-1.8v-7.1c0-1.1,0.5-2.2,1.6-2.2"/>
	<path id="XMLID_333_" class="st23" d="M620.8,565.4h8c1.3,0,2,0.7,2,2v9.6c0,1.3-0.7,2.3-2,2.3h-8.5c-1.3,0-2.5-1-2.5-2.3v-9.6
		c0-1.3,1.2-2,2.5-2"/>
	<path id="XMLID_332_" class="st23" d="M602.8,565.4h8.9c1.3,0,2.1,0.7,2.1,2v9.6c0,1.3-0.8,2.3-2.1,2.3h-8.5c-1.3,0-2.4-1-2.4-2.3
		v-9.6c0-1.3,1.2-2,2.4-2"/>
	<path id="XMLID_331_" class="st23" d="M585.8,565.4h8.8c1.3,0,2.2,0.7,2.2,2v9.6c0,1.3-0.9,2.3-2.2,2.3h-8.5c-1.3,0-2.4-1-2.4-2.3
		v-9.6c0-1.3,1.1-2,2.4-2"/>
	<path id="XMLID_330_" class="st23" d="M568.8,565.4h8.8c1.3,0,2.2,0.7,2.2,2v9.6c0,1.3-1,2.3-2.2,2.3h-8.5c-1.3,0-2.3-1-2.3-2.3
		v-9.6c0-1.3,1-2,2.3-2"/>
	<path id="XMLID_329_" class="st23" d="M551.8,565.4h8.7c1.3,0,2.3,0.7,2.3,2v9.6c0,1.3-1,2.3-2.3,2.3H552c-1.3,0-2.2-1-2.2-2.3
		v-9.6c0-1.3,0.9-2,2.2-2"/>
	<path id="XMLID_328_" class="st23" d="M534.8,565.4h8.6c1.3,0,2.4,0.7,2.4,2v9.6c0,1.3-1.1,2.3-2.4,2.3h-8.5c-1.3,0-2.1-1-2.1-2.3
		v-9.6c0-1.3,0.8-2,2.1-2"/>
	<path id="XMLID_327_" class="st23" d="M517.8,565.4h8.5c1.3,0,2.5,0.7,2.5,2v9.6c0,1.3-1.2,2.3-2.5,2.3h-8.5c-1.3,0-2.1-1-2.1-2.3
		v-9.6C515.8,566.1,516.6,565.4,517.8,565.4"/>
	<path id="XMLID_326_" class="st23" d="M500.8,565.4h8.4c1.3,0,2.6,0.7,2.6,2v9.6c0,1.3-1.3,2.3-2.6,2.3h-8.5c-1.3,0-2-1-2-2.3v-9.6
		C498.8,566.1,499.5,565.4,500.8,565.4"/>
	<path id="XMLID_325_" class="st23" d="M483.8,565.4h8.4c1.3,0,2.6,0.7,2.6,2v9.6c0,1.3-1.3,2.3-2.6,2.3h-8.5c-1.3,0-1.9-1-1.9-2.3
		v-9.6C481.8,566.1,482.4,565.4,483.8,565.4"/>
	<path id="XMLID_324_" class="st23" d="M466.8,565.4h8.3c1.3,0,2.7,0.7,2.7,2v9.6c0,1.3-1.4,2.3-2.7,2.3h-8.5c-1.3,0-2.8-1-2.8-2.3
		v-9.6c0-1.3,1.5-2,2.8-2"/>
	<path id="XMLID_323_" class="st23" d="M449.8,565.4h8.2c1.3,0,2.8,0.7,2.8,2v9.6c0,1.3-1.5,2.3-2.8,2.3h-8.5c-1.3,0-2.8-1-2.8-2.3
		v-9.6c0-1.3,1.5-2,2.8-2"/>
	<path id="XMLID_322_" class="st23" d="M432.8,565.4h8.1c1.3,0,1.9,0.7,1.9,2v9.6c0,1.3-0.6,2.3-1.9,2.3h-8.5c-1.3,0-2.7-1-2.7-2.3
		v-9.6c0-1.3,1.4-2,2.7-2"/>
	<path id="XMLID_321_" class="st23" d="M414.8,565.4h8.7c1.3,0,2.3,0.7,2.3,2.1v9.6c0,1.3-1,2.4-2.3,2.4h-8.6c-1.3,0-2-1.1-2-2.4
		v-9.6C412.8,566.1,413.5,565.4,414.8,565.4"/>
	<path id="XMLID_320_" class="st23" d="M414.8,581.4h17.9c1.4,0,3.1,1.7,3.1,3.1v9.2c0,1.4-1.6,2.7-3.1,2.7H415
		c-1.4,0-2.2-1.3-2.2-2.7v-9.2c0-1.4,0.8-3.1,2.2-3.1"/>
	<path id="XMLID_319_" class="st23" d="M414.8,598.4h21.3c1.4,0,2.7,1.5,2.7,2.9v9.2c0,1.4-1.3,2.9-2.7,2.9H415
		c-1.4,0-2.2-1.5-2.2-2.9v-9.2c0-1.4,0.8-2.9,2.2-2.9"/>
	<path id="XMLID_318_" class="st23" d="M414.8,615.4h30.4c1.4,0,2.6,1.3,2.6,2.7v9.2c0,1.4-1.1,2.1-2.6,2.1H415
		c-1.4,0-2.2-0.7-2.2-2.1v-9.2c0-1.4,0.8-2.7,2.2-2.7"/>
	<path id="XMLID_317_" class="st23" d="M414.8,632.4h12.8c1.4,0,2.2,1.1,2.2,2.5v9.2c0,1.4-0.8,2.2-2.2,2.2H415
		c-1.4,0-2.2-0.8-2.2-2.2v-9.2c0-1.4,0.8-2.5,2.2-2.5"/>
	<path id="XMLID_316_" class="st23" d="M439.8,581.4h9.2c1.4,0,2.8,1.6,2.8,3v9.3c0,1.4-1.4,2.7-2.8,2.7H440c-1.4,0-2.2-1.3-2.2-2.7
		v-9.3c0-1.4,0.8-3,2.2-3"/>
	<path id="XMLID_315_" class="st23" d="M457.8,581.4h8.6c1.4,0,2.4,1.6,2.4,3v9.3c0,1.4-1,2.7-2.4,2.7h-9.1c-1.4,0-2.6-1.3-2.6-2.7
		v-9.3c0-1.4,1.2-3,2.6-3"/>
	<path id="XMLID_314_" class="st23" d="M474.8,581.4h9c1.4,0,3,1.6,3,3v9.3c0,1.4-1.6,2.7-3,2.7h-9.1c-1.4,0-3-1.3-3-2.7v-9.3
		C471.8,583,473.4,581.4,474.8,581.4"/>
	<path id="XMLID_313_" class="st23" d="M491.8,581.4h9.4c1.4,0,2.6,1.6,2.6,3v9.3c0,1.4-1.2,2.7-2.6,2.7h-9.1
		c-1.4,0-2.4-1.3-2.4-2.7v-9.3c0-1.4,1-3,2.4-3"/>
	<path id="XMLID_312_" class="st23" d="M509.8,581.4h8.8c1.4,0,2.2,1.6,2.2,3v9.3c0,1.4-0.8,2.7-2.2,2.7h-9.1
		c-1.4,0-2.8-1.3-2.8-2.7v-9.3c0-1.4,1.4-3,2.8-3"/>
	<path id="XMLID_311_" class="st23" d="M526.8,581.4h9.2c1.4,0,2.8,1.6,2.8,3v9.3c0,1.4-1.4,2.7-2.8,2.7H527c-1.4,0-2.2-1.3-2.2-2.7
		v-9.3c0-1.4,0.8-3,2.2-3"/>
	<path id="XMLID_310_" class="st23" d="M544.8,581.4h8.6c1.4,0,2.4,1.6,2.4,3v9.3c0,1.4-1,2.7-2.4,2.7h-9.1c-1.4,0-2.5-1.3-2.5-2.7
		v-9.3c0-1.4,1.2-3,2.5-3"/>
	<path id="XMLID_309_" class="st23" d="M561.8,581.4h9c1.4,0,3,1.6,3,3v9.3c0,1.4-1.6,2.7-3,2.7h-9.1c-1.4,0-2.9-1.3-2.9-2.7v-9.3
		C558.8,583,560.4,581.4,561.8,581.4"/>
	<path id="XMLID_308_" class="st23" d="M578.8,581.4h9.4c1.4,0,2.6,1.6,2.6,3v9.3c0,1.4-1.2,2.7-2.6,2.7h-9.1
		c-1.4,0-2.3-1.3-2.3-2.7v-9.3c0-1.4,1-3,2.3-3"/>
	<path id="XMLID_307_" class="st23" d="M596.8,581.4h8.8c1.4,0,2.2,1.6,2.2,3v9.3c0,1.4-0.8,2.7-2.2,2.7h-9.1
		c-1.4,0-2.7-1.3-2.7-2.7v-9.3c0-1.4,1.4-3,2.7-3"/>
	<path id="XMLID_306_" class="st23" d="M613.8,581.4h9.2c1.4,0,2.8,1.6,2.8,3v9.3c0,1.4-1.4,2.7-2.8,2.7h-9.1
		c-1.4,0-2.1-1.3-2.1-2.7v-9.3c0-1.4,0.8-3,2.1-3"/>
	<path id="XMLID_305_" class="st23" d="M631.8,581.4h8.6c1.4,0,2.4,1.6,2.4,3v9.3c0,1.4-1,2.7-2.4,2.7h-9.1c-1.4,0-2.5-1.3-2.5-2.7
		v-9.3c0-1.4,1.2-3,2.5-3"/>
	<path id="XMLID_304_" class="st23" d="M444.8,598.4h9.1c1.4,0,2.9,1.5,2.9,2.8v9.3c0,1.4-1.6,2.8-2.9,2.8h-9.1c-1.4,0-3-1.5-3-2.8
		v-9.3C441.8,599.8,443.4,598.4,444.8,598.4"/>
	<path id="XMLID_303_" class="st23" d="M461.8,598.4h9.5c1.4,0,2.5,1.5,2.5,2.8v9.3c0,1.4-1.2,2.8-2.5,2.8h-9.1
		c-1.4,0-2.4-1.5-2.4-2.8v-9.3c0-1.4,1-2.8,2.4-2.8"/>
	<path id="XMLID_302_" class="st23" d="M479.8,598.4h8.9c1.4,0,2.1,1.5,2.1,2.8v9.3c0,1.4-0.8,2.8-2.1,2.8h-9.1
		c-1.4,0-2.8-1.5-2.8-2.8v-9.3c0-1.4,1.4-2.8,2.8-2.8"/>
	<path id="XMLID_301_" class="st23" d="M496.8,598.4h9.3c1.4,0,2.7,1.5,2.7,2.8v9.3c0,1.4-1.4,2.8-2.7,2.8H497
		c-1.4,0-2.2-1.5-2.2-2.8v-9.3c0-1.4,0.8-2.8,2.2-2.8"/>
	<path id="XMLID_300_" class="st23" d="M514.8,598.4h8.7c1.4,0,2.3,1.5,2.3,2.8v9.3c0,1.4-1,2.8-2.3,2.8h-9.1
		c-1.4,0-2.6-1.5-2.6-2.8v-9.3c0-1.4,1.2-2.8,2.6-2.8"/>
	<path id="XMLID_299_" class="st23" d="M531.8,598.4h9.1c1.4,0,2.9,1.5,2.9,2.8v9.3c0,1.4-1.6,2.8-2.9,2.8h-9.1c-1.4,0-3-1.5-3-2.8
		v-9.3C528.8,599.8,530.4,598.4,531.8,598.4"/>
	<path id="XMLID_298_" class="st23" d="M548.8,598.4h9.4c1.4,0,2.6,1.5,2.6,2.8v9.3c0,1.4-1.2,2.5-2.5,2.5l-9,0
		c-1.4,0-2.5-1.1-2.5-2.5v-9.3c0-1.4,1-2.8,2.4-2.8"/>
	<path id="XMLID_297_" class="st23" d="M566.8,598.4h8.8c1.4,0,2.2,1.5,2.2,2.8v9.3c0,1.4-0.8,2.8-2.2,2.8h-9.1
		c-1.4,0-2.8-1.5-2.8-2.8v-9.3c0-1.4,1.4-2.8,2.8-2.8"/>
	<path id="XMLID_296_" class="st23" d="M583.8,598.4h9.2c1.4,0,2.8,1.5,2.8,2.8v9.3c0,1.4-1.4,2.8-2.8,2.8H584
		c-1.4,0-2.2-1.5-2.2-2.8v-9.3c0-1.4,0.8-2.8,2.2-2.8"/>
	<path id="XMLID_295_" class="st23" d="M601.8,598.4h8.6c1.4,0,2.4,1.5,2.4,2.8v9.3c0,1.4-1,2.8-2.4,2.8h-9.1
		c-1.4,0-2.6-1.5-2.6-2.8v-9.3c0-1.4,1.2-2.8,2.6-2.8"/>
	<path id="XMLID_294_" class="st23" d="M618.8,598.4h9c1.4,0,3,1.5,3,2.8v9.3c0,1.4-1.6,2.8-3,2.8h-9.1c-1.4,0-3-1.5-3-2.8v-9.3
		C615.8,599.8,617.4,598.4,618.8,598.4"/>
	<path id="XMLID_293_" class="st23" d="M453.8,615.4h9.2c1.4,0,2.8,1.3,2.8,2.7v9.3c0,1.4-1.4,2-2.8,2h-9.1c-1.4,0-2.1-0.6-2.1-2
		v-9.3c0-1.4,0.7-2.7,2.1-2.7"/>
	<path id="XMLID_292_" class="st23" d="M471.8,615.4h8.6c1.4,0,2.4,1.3,2.4,2.7v9.3c0,1.4-1,2-2.4,2h-9.1c-1.4,0-2.5-0.6-2.5-2v-9.3
		c0-1.4,1.1-2.7,2.5-2.7"/>
	<path id="XMLID_291_" class="st23" d="M488.8,615.4h9c1.4,0,2,1.3,2,2.7v9.3c0,1.4-0.6,2-2,2h-9.1c-1.4,0-2.9-0.6-2.9-2v-9.3
		C485.8,616.7,487.3,615.4,488.8,615.4"/>
	<path id="XMLID_290_" class="st23" d="M505.8,615.4h9.4c1.4,0,2.6,1.3,2.6,2.7v9.3c0,1.4-1.3,2-2.6,2h-9.1c-1.4,0-2.3-0.6-2.3-2
		v-9.3c0-1.4,0.9-2.7,2.3-2.7"/>
	<path id="XMLID_289_" class="st23" d="M523.8,615.4h8.8c1.4,0,2.2,1.3,2.2,2.7v9.3c0,1.4-0.9,2-2.2,2h-9.1c-1.4,0-2.7-0.6-2.7-2
		v-9.3c0-1.4,1.3-2.7,2.7-2.7"/>
	<path id="XMLID_288_" class="st23" d="M540.8,615.4h9.2c1.4,0,2.8,1.3,2.8,2.7v9.3c0,1.4-1.5,2-2.8,2h-9.1c-1.4,0-2.1-0.6-2.1-2
		v-9.3C538.8,616.7,539.5,615.4,540.8,615.4"/>
	<path id="XMLID_287_" class="st23" d="M557.8,615.4h9.6c1.4,0,2.4,1.3,2.4,2.7v9.3c0,1.4-1.1,2-2.4,2h-9.1c-1.4,0-2.5-0.6-2.5-2
		v-9.3c0-1.4,1.1-2.7,2.5-2.7"/>
	<path id="XMLID_286_" class="st23" d="M575.8,615.4h9c1.4,0,2,1.3,2,2.7v9.3c0,1.4-0.7,2-2,2h-9.1c-1.4,0-2.9-0.6-2.9-2v-9.3
		c0-1.4,1.5-2.7,2.9-2.7"/>
	<path id="XMLID_285_" class="st23" d="M592.8,615.4h9.3c1.4,0,2.7,1.3,2.7,2.7v9.3c0,1.4-1.3,2-2.7,2h-9.1c-1.4,0-2.3-0.6-2.3-2
		v-9.3c0-1.4,0.9-2.7,2.3-2.7"/>
	<path id="XMLID_284_" class="st23" d="M610.8,615.4h8.8c1.4,0,2.2,1.3,2.2,2.7v9.3c0,1.4-0.9,2-2.2,2h-9.1c-1.4,0-2.7-0.6-2.7-2
		v-9.3c0-1.4,1.3-2.7,2.7-2.7"/>
	<path id="XMLID_283_" class="st23" d="M627.8,615.4h16.5c1.4,0,2.5,1.3,2.5,2.7v9.2c0,1.4-1.1,2.1-2.5,2.1h-16.4
		c-1.4,0-2.1-0.7-2.1-2.1v-9.2c0-1.4,0.7-2.7,2.1-2.7"/>
	<path id="XMLID_282_" class="st23" d="M435.8,632.4h9.5c1.4,0,2.5,1.1,2.5,2.5v9.3c0,1.4-1.1,2.2-2.5,2.2h-9.1
		c-1.4,0-2.4-0.8-2.4-2.2v-9.3c0-1.4,1-2.5,2.4-2.5"/>
	<path id="XMLID_281_" class="st23" d="M453.8,632.4h8.9c1.4,0,2.1,1.1,2.1,2.5v9.3c0,1.4-0.7,2.2-2.1,2.2h-9.1
		c-1.4,0-2.8-0.8-2.8-2.2v-9.3c0-1.4,1.4-2.5,2.8-2.5"/>
	<path id="XMLID_280_" class="st23" d="M470.8,632.4h9.3c1.4,0,2.7,1.1,2.7,2.5v9.3c0,1.4-1.3,2.2-2.7,2.2H471
		c-1.4,0-2.2-0.8-2.2-2.2v-9.3c0-1.4,0.8-2.5,2.2-2.5"/>
	<path id="XMLID_279_" class="st23" d="M488.8,632.4h78.1c1.4,0,2.9,1.1,2.9,2.5v9.3c0,1.4-1.5,2.2-2.9,2.2h-78.5
		c-1.4,0-2.6-0.8-2.6-2.2v-9.3c0-1.4,1.2-2.5,2.6-2.5"/>
	<path id="XMLID_278_" class="st23" d="M575.8,632.4h8.7c1.4,0,2.3,1.1,2.3,2.5v9.3c0,1.4-0.9,2.2-2.3,2.2h-9.1
		c-1.4,0-2.6-0.8-2.6-2.2v-9.3c0-1.4,1.2-2.5,2.6-2.5"/>
	<path id="XMLID_277_" class="st23" d="M592.8,632.4h9.1c1.4,0,2.9,1.1,2.9,2.5v9.3c0,1.4-1.5,2.2-2.9,2.2h-9.1c-1.4,0-3-0.8-3-2.2
		v-9.3C589.8,633.5,591.4,632.4,592.8,632.4"/>
	<path id="XMLID_276_" class="st23" d="M609.8,632.4h16.8c1.4,0,2.2,1.1,2.2,2.5v9.2c0,1.4-0.8,2.2-2.2,2.2h-16.4
		c-1.4,0-2.4-0.8-2.4-2.2v-9.2c0-1.4,1-2.5,2.4-2.5"/>
	<path id="XMLID_275_" class="st23" d="M635.8,632.4h8.7c1.3,0,2.3,1.1,2.3,2.4v9.6c0,1.3-1,2.1-2.3,2.1h-8.6
		c-1.3,0-2.1-0.8-2.1-2.1v-9.6C633.8,633.4,634.6,632.4,635.8,632.4"/>
	<path id="XMLID_274_" class="st24" d="M504.8,659.4h80.3c1.2,0,1.7,0.6,1.7,1.8v38.4c0,1.2-0.5,1.8-1.7,1.8h-79.9
		c-1.2,0-2.3-0.6-2.3-1.8v-38.4c0-1.2,1.1-1.8,2.3-1.8"/>
	<path id="XMLID_273_" class="st24" d="M503.8,704.4h39.3c0.3,0,0.7,0.5,0.7,0.8v8c0,0.3-0.4,0.3-0.7,0.3h-39.8
		c-0.3,0-0.6,0-0.6-0.3v-8c0-0.3,0.3-0.8,0.6-0.8"/>
	<path id="XMLID_272_" class="st24" d="M546.8,704.4h40c0.3,0,0,0.5,0,0.8v8c0,0.3,0.3,0.3,0,0.3h-39.8c-0.3,0-0.3,0-0.3-0.3v-8
		c0-0.3,0-0.8,0.3-0.8"/>
	<g id="XMLID_271_">
		<path id="XMLID_104_" class="st9" d="M401.3,563.9c-1.1,0-2-0.9-2-2c0-13.7,11.2-24.9,24.9-24.9c1.1,0,2,0.9,2,2s-0.9,2-2,2
			c-11.5,0-20.8,9.3-20.8,20.8C403.3,563,402.4,563.9,401.3,563.9z"/>
	</g>
	<rect id="XMLID_261_" x="441.8" y="526.3" class="st25" width="215" height="10"/>
	<rect id="XMLID_103_" x="441.8" y="525.3" class="st25" width="215" height="10"/>
	<path id="XMLID_102_" class="st3" d="M689,463.6v53.8c0,5.8-11.1,11.6-26.3,11.6H427.3c-8.3,0-16.1-1.8-21.5-4.2l-3.4,0.8
		c-0.1,0-0.2,0.2-0.2,0.2c5.3,3,13.9,5.2,23.3,5.2h239.8c15.5,0,26.8-6.1,26.8-12.2v-56.6c0-2.7-2.2-5.2-6.3-7l-4.7,1.1
		C686.1,458.1,689,460.7,689,463.6z"/>
	<path id="XMLID_101_" class="st3" d="M425.4,452c-15.5,0-29.4,4.1-29.4,10.2v56.6c0,2.4,2.4,4.8,5.9,6.7c0.1,0,0.3-0.1,0.4-0.1
		l3.2-0.9c-4.5-2-7.5-4.6-7.5-7.2v-53.8c0-5.8,14.1-9.6,29.3-9.6h235.4c7.4,0,13.9,0.8,18.7,2.5l4.6-1c-4.9-2.2-12.3-3.5-20.8-3.5
		H425.4z"/>
	<path id="XMLID_100_" class="st26" d="M410,513.5v-43.4c0-4.6,13-8.1,27.2-8.1h218.2c1.4,0,2.8-0.1,4.2-0.1l21.9-5.3
		c-4.8-1.7-11.3-2.6-18.7-2.6H427.3c-15.2,0-29.3,3.9-29.3,9.6v53.8c0,2.6,3.1,5.2,7.5,7.2l15.5-3.9C414.5,519,410,516.3,410,513.5z
		"/>
	<path id="XMLID_99_" class="st25" d="M662.7,529c15.2,0,26.3-5.8,26.3-11.6v-53.8c0-3-2.8-5.5-7.8-7.3l-22,5.4
		c12.1,0.7,20.9,4.2,20.9,8.4v43.4c0,4.6-10.6,9.5-24.7,9.5H437.2c-5.7,0-11.2-0.9-15.7-2.1l-15.7,4c5.4,2.4,13.2,4.1,21.5,4.1
		H662.7z"/>
	<path id="XMLID_98_" class="st7" d="M437.2,462c-14.1,0-27.2,3.5-27.2,8.1v43.4c0,2.8,4.7,5.5,11.2,7.2l238.2-58.8
		c-1.4-0.1-2.6,0.1-4.1,0.1H437.2z"/>
	<path id="XMLID_97_" class="st8" d="M437.2,523h218.2c14.1,0,24.7-4.8,24.7-9.5v-43.4c0-4.2-8.7-7.7-20.7-8.4l-237.9,59.1
		C425.8,522.1,431.4,523,437.2,523z"/>
	<path id="XMLID_96_" class="st27" d="M465.5,920.9c1.4-27.3-13.9-61.8-14.1-62.1c0,0,0,0,0,0c-37.9,5.9-38.4,19.5-31.3,43.6
		c7.1,24.1,6.8,50.3,6.8,50.3l29.5,0v0C460.4,945.7,464.8,935.1,465.5,920.9z"/>
	<path id="XMLID_95_" class="st28" d="M506.2,909.3c-12.6-63.1-16.9-56.5-54.8-50.6c0.2,0.4,15.5,34.8,14.1,62.1
		c-0.7,14.2-5.1,24.9-9.1,31.8v0l62.2,0C518.7,952.7,511.6,936.2,506.2,909.3z"/>
	<path id="XMLID_94_" class="st12" d="M444.7,825.4L444.7,825.4l-28.8,7.6l9,34.3c5.4-3.8,13.9-6.6,26.5-8.6c0,0,0,0,0,0
		c0,0,0,0,0,0L444.7,825.4z"/>
	<path id="XMLID_93_" class="st13" d="M478.6,855.2l-9.5-36.1l-24.4,6.4v0l6.7,33.3c0,0,0,0,0,0C463.4,856.9,472,855,478.6,855.2z"
		/>
	<path id="XMLID_92_" class="st10" d="M444.7,779c-1.9-16.6-2.6-38.6-7.2-50.6c-1.6-4.1-4.5-13.3-6.7-22.2c-0.6,0-1.2,0.1-1.8,0.4
		c-9.8,4.2-6.3,25.9-2.8,31.8c3.5,5.8,2.8,27.5,2.8,27.5h-11.2c0,0-2.8-12.1-7-15.6c-4.2-3.5-11.3-9.2-11.3-9.2s-1.4-13.4-2.8-15.5
		c-1.4-2.1-4.2-7.8-4.2-7.8s4.2-12.7,4.9-16.9c0.7-4.2-2.8-26.7-8.4-19.7c-5.6,7-17.6,37.2-16.9,42.2c0.7,4.9,5.2,19.7,7.2,26.7
		c2,7,0.6,17.6,4.1,21.8c3.5,4.2,19.7,22,26.7,33.5c4.2,6.8,10.4,17.5,14.8,25.1l19.9-5.2C444.7,825.4,446.5,795.7,444.7,779z"/>
	<path id="XMLID_91_" class="st11" d="M457.9,781.9c0.7-6.3-14.1-39.1-14.1-43.8c0-4.4-4.4-31.9-13-31.8c2.2,8.8,5.1,18.1,6.7,22.2
		c4.6,12,5.4,34,7.2,50.6c1.9,16.6,0,46.4,0,46.4l13.1-3.4C457.6,808.4,457.4,786.2,457.9,781.9z"/>
	<line id="XMLID_242_" class="st29" x1="648" y1="650.2" x2="650" y2="629.5"/>
	<line id="XMLID_239_" class="st29" x1="662.6" y1="644.4" x2="665.6" y2="621.7"/>
	<path id="XMLID_245_" class="st30" d="M680.9,650.9c-0.7-2-2.9-6.5-2.9-6.5v3.5V666c0,0,0.5-6.6,2.1-7.9c1.5-1.3,2.8-4.4,2.8-4.4
		S681.6,652.9,680.9,650.9z"/>
	<g id="XMLID_235_">
		<path id="XMLID_238_" class="st28" d="M703.9,841.6c-8.5-59.3-16.9-75.9-57-73.9c-1.1,0.1-2.2,0.1-3.3,0.2l-0.1,1
			c0,0,7.3,22.6,11.1,33.7c3.9,11.2,20.1,73.8,25.8,95.6c5.5,21.2,4,53,3.9,54.6v0l39.3-0.1C723.6,952.7,712.3,900.9,703.9,841.6z"
			/>
		<path id="XMLID_252_" class="st27" d="M680.4,898.2c-5.6-21.8-21.9-84.5-25.8-95.6c-3.9-11.2-11.1-33.7-11.1-33.7l0.1-1
			c-56.4,3.5-35.7,22.9-35.7,28.5c0,5.6,6.8,52.7,6,61.3c-0.8,8.6,13.7,95.3,13.7,95.3l56.8-0.1v0
			C684.4,951.1,685.9,919.4,680.4,898.2z"/>
		<path id="XMLID_389_" class="st13" d="M646.3,767.6c9.7-0.5,17.7,0.1,23.7,2.2V735h-24.3l-2.2,33
			C644.5,767.9,645.3,767.7,646.3,767.6z"/>
		<path id="XMLID_390_" class="st12" d="M614,772.7c7-2.3,15.6-3.9,29.3-4.8l2.3-33H614V772.7z"/>
		<path id="XMLID_251_" class="st11" d="M671.8,688.4c-6.7,22.7-26.1,46.2-26.1,46.2l0,0.4h19.1c1.9-16,15.1-27.5,15.1-33.9
			c0-6.5,10.3-36.3,12.5-41.5c1.8-4.2-1.8-13.3-5.6-19.2c0.5,5,1,11,1,15C687.8,663.4,678.5,665.7,671.8,688.4z"/>
		<path id="XMLID_388_" class="st10" d="M678.9,630.2c-0.4-3.1,0.9-3.5,0-5.9c-0.6-1.7-9-13.8-13.4-20c-6.8-9.6-3.9,5.2-3.9,5.2
			s-0.1,0-5.9-13.9c-1.6-3.7-1.8-4.6-2.8-4.5c-3.6,0.4-4.2,8.6-4.2,12.4c0,3.3,1.3,9.8,1.3,9.8s0,4.3,0,9.2c0,1.8,0,7.2,0,7.2
			s-1.2-7.8-3.1-12.1c-1.6-3.9-3.5-15.3-6.5-21.2c-0.3-0.6-2.3,0.5-2.9,0.9c-2.9,2.6-2.3,7.8-1.9,11.7c0.4,3.9,1.9,10,1.9,10
			s-0.2,2.3-0.6,6.2c-0.2,1.8,0.6,8.8,0.6,8.8s-0.4,1.7-3.1,8.6c-2.2,5.6-4.8,21.1-5.3,24.5c0.4-3.8-4.5-10.1-7.6-25.3
			c-3.1-15.5-15.9-20.8-19.2-19.3c-1.4,0.6,5.3,24.7,5.3,24.7s5.9,30.8,5.9,42.9c0,12.1,7.5,30.2,7.5,30.2V735h24.7l0-0.4
			c0,0,19.4-23.4,26.1-46.1c6.7-22.7,16-25,16-33c0-4-0.5-10.1-1-15.1c-0.9-1.4-1.8-2.7-2.7-3.6
			C679.8,632.1,679.7,635.7,678.9,630.2z M680.1,658.1c-1.5,1.3-2.1,7.9-2.1,7.9v-18.1v-3.5c0,0,2.3,4.5,2.9,6.5
			c0.6,2,1.9,2.7,1.9,2.7S681.6,656.8,680.1,658.1z"/>
	</g>
	<rect id="XMLID_86_" x="441.8" y="526.3" class="st25" width="215" height="10"/>
</g>
<path id="XMLID_82_" class="st1" d="M1920,897.5c-43.8,0-76.3,23.6-97.8,58.3c-13.8-16.4-34.6-26.8-57.7-26.8
	c-9,0-17.7,1.6-25.7,4.5c-16.6-26.9-43.8-46.6-75.8-53.1c0-0.6,0-1.2,0-1.9c0-36.2-29.3-65.5-65.5-65.5c-17.9,0-34.1,7.2-45.9,18.8
	c-26.3-24.7-61.7-39.8-100.6-39.8c-68,0-125.3,46.2-142,109c-11.6-5.8-24.6-9-38.5-9c-33.9,0-63.3,19.5-77.5,47.9
	c-24.1-29.3-60.7-47.9-101.5-47.9c-29.6,0-56.9,9.8-78.8,26.2c-12-15.9-31.2-26.2-52.7-26.2c-27.7,0-51.4,17-61.2,41.2
	c-23.6-0.2-40.5,7.6-52.5,20.1c-6.7-29.4-33-51.3-64.4-51.3c-14.5,0-28,4.7-38.9,12.6C720.9,891.4,689.7,877,655,877
	c-43.8,0-82.3,23.1-103.8,57.8c-13.8-16.4-34.6-26.8-57.7-26.8c-9,0-17.7,1.6-25.7,4.5c-16.6-26.9-43.8-46.6-75.8-53.1
	c0-0.6,0-1.2,0-1.9c0-36.2-29.3-65.5-65.5-65.5c-17.9,0-34.1,7.2-45.9,18.8C254.3,786.1,218.9,771,180,771
	c-55.5,0-103.9,30.8-128.9,76.2C35.6,840,18.3,836,0,836v244h1920V897.5z"/>
</svg>
