<?xml version="1.0" encoding="utf-8"?>
<!-- Generator: Adobe Illustrator 19.0.0, SVG Export Plug-In . SVG Version: 6.00 Build 0)  -->
<svg version="1.0" id="图层_1" xmlns="http://www.w3.org/2000/svg" xmlns:xlink="http://www.w3.org/1999/xlink" x="0px" y="0px"
	 viewBox="-610 430 218 41" style="enable-background:new -610 430 218 41;" xml:space="preserve">
<style type="text/css">
	.st0{fill:#95CCF5;}
</style>
<title>一站式大宗商品物联网解决方案</title>
<desc>Created with Sketch.</desc>
<g>
	<path class="st0" d="M-393.3,437.6c0.1,0,0.2-0.1,0.3-0.1c0-0.1,0-0.2,0-0.3l-0.8-1.6c0,0-0.1-0.1-0.2-0.1c-0.1,0-0.1,0-0.2,0.1
		l-0.6,0.6l-5.3,0.1l0.5-1.1l0.7-0.1l-2.1-0.9l-1,2.2l-3.8,0.1l0.4,1.5l2.7,0l-1,2.2c1.1,0.3,2.2,0.6,3.2,0.9
		c-1.6,1.3-3.5,2.3-5.6,2.9c3-0.1,5.4-1.1,7.1-2.3c1.5,0.6,2.8,1.2,3.7,1.7c1.4,0.9,2.5-0.7,1-1.5c-0.9-0.5-2.2-0.9-3.5-1.2
		c0.9-0.9,1.6-1.8,2.2-2.8L-393.3,437.6z M-399.5,440l-2.1-0.5l0.9-1.8l3.1-0.1C-398.2,438.5-398.8,439.3-399.5,440z"/>
	<path class="st0" d="M-564.2,461.3l-0.2,0l-0.5,2.9c0,0.2-0.2,0.1-0.3,0c-1.4-2.4-2.9-7-4.2-11.6l3.3-0.6c0.1,0,0.2-0.1,0.3-0.2
		c0-0.1,0-0.2-0.1-0.3l-1-1.4c-0.1,0-0.1-0.1-0.2-0.1c0,0-0.1,0-0.2,0.1l-0.5,0.6l-2,0.4c-0.4-1.4-0.7-2.9-1-4.2l0.4-0.3l-2.4-0.1
		c0.3,1.6,0.8,3.3,1.2,5l-7.9,1.5l0.7,1.4l7.6-1.4c1.4,5.2,3.2,10.2,4.3,12.1c1.5,2.5,3.7,2.3,3.6-0.7
		C-563.9,463.6-564.5,462.9-564.2,461.3z"/>
	<path class="st0" d="M-403.8,433.8l8.5-0.1l-0.3,2.2c1-0.8,2-2.4,2.5-3.9l-1.9-0.9l-0.2,1l-3.5,0.1l0-1.2l0.6-0.3l-2.4-0.5l0,2
		l-3.4,0.1c0-0.4,0-0.8,0-1.2l-2.4,3.4l1.7,1.5C-404.1,435.3-403.9,434.6-403.8,433.8z"/>
	<path class="st0" d="M-545.8,446.4l8.9-1.4l0.3,3.3c0.8-1.6,1.4-3.3,1.7-5.1l-2.2-0.5l0.1,0.9l-3.7,0.6l-0.3-1.9l0.6-0.4l-2.4-0.1
		l0.4,2.7l-3.4,0.5c0-0.4-0.1-0.8-0.1-1.3l-1.9,5.1l2.1,0.6C-545.8,448.4-545.8,447.4-545.8,446.4z"/>
	<path class="st0" d="M-555.5,451.1l4.8-0.8c0.1,0,0.2-0.1,0.3-0.2c0-0.1,0-0.2-0.1-0.3l-1-1.4c-0.1,0-0.1-0.1-0.2-0.1
		c-0.1,0-0.1,0-0.2,0.1l-0.5,0.7l-3.8,0.6c-0.1-0.7-0.2-1.5-0.3-2.2l-0.5-3.1l0.7-0.4l-2.5,0l0.5,2.7c0.2,1.2,0.3,2.3,0.5,3.3
		l-5.1,0.9l0.7,1.4l4.6-0.8c0.4,6-0.8,10.4-3.2,14.5c3.3-2.5,5.3-7.1,5-13.8c1.4,4.4,3.9,9,6.8,11.7c0.2-1,0.5-1.6,1.2-2
		C-550.8,459.7-553.6,455.7-555.5,451.1z"/>
	<path class="st0" d="M-572.4,463.8l-1.2-6.6l2.3-0.4c0.1,0,0.2-0.1,0.2-0.2c0-0.1,0-0.2,0-0.3l-1.1-1.4c0,0-0.1-0.1-0.2-0.1
		c-0.1,0-0.1,0-0.2,0.1l-0.5,0.6l-5.2,1l0.7,1.4l2.2-0.4l1.3,7l-2.6,1.2l1.3,2.3l0-0.7l6.7-5.2L-572.4,463.8z"/>
	<path class="st0" d="M-580.2,459.4c0.1-0.1,0.1-0.2,0.1-0.3c0-0.1-0.1-0.2-0.2-0.3l-0.9-0.4c-0.2-0.1-0.4,0-0.5,0.1l-0.3,0.5
		l-1,0.2l-1-5.1l2.6-0.5c0.1,0,0.2-0.1,0.2-0.2c0-0.1,0-0.2-0.1-0.3l-1.1-1.4c0-0.1-0.1-0.1-0.1-0.1c-0.1,0-0.2,0-0.2,0.1l-0.5,0.7
		l-1.1,0.2l-0.6-3.2l0.6-0.4l-2.5,0l2.2,10.5l-0.9,0.2l0-0.2l0.6-0.5l-2.5,0.1l2.3,11.3l1.7-0.9l-0.1-0.7l3.3-0.7l0.2,1.2l1.6-0.9
		l-1.8-8.6L-580.2,459.4z M-584.3,467.4l-1.3-6.2l3.3-0.7l1.3,6.2L-584.3,467.4z"/>
	<polygon class="st0" points="-592.3,468.8 -590.6,471 -590.7,470.2 -586.7,465.3 	"/>
	<path class="st0" d="M-511.9,446.9l-0.1-0.5l4.4-0.6l0.1,1l1.6-0.8l-0.9-6.7l0.3-0.4c0.1-0.1,0.1-0.2,0.1-0.3
		c0-0.1-0.1-0.2-0.2-0.3l-0.8-0.5c-0.2-0.1-0.4,0-0.6,0.1l-0.4,0.4l-4.8,0.6l0-0.3l0.7-0.4l-2.5-0.1l1.2,9.4L-511.9,446.9z
		 M-508.3,439.8l0.6,4.4l-4.4,0.6l-0.6-4.4L-508.3,439.8z"/>
	<path class="st0" d="M-597.1,459.4c0,0-0.1-0.1-0.2-0.1c-0.1,0-0.1,0-0.2,0.1l-0.4,0.7l-11.8,2.6l0.7,1.4l12.8-2.9
		c0.1,0,0.2-0.1,0.2-0.2c0-0.1,0-0.2-0.1-0.3L-597.1,459.4z"/>
	<path class="st0" d="M-590.6,464.2c-0.7-2.4-2-4.8-3.4-6.3c0.6,1.8,1.3,4.4,1.7,6.8C-591.7,466.8-590.1,465.9-590.6,464.2z"/>
	<path class="st0" d="M-567.3,449.1c0.1-0.3,0.3-0.7-0.2-1.2c-0.4-0.5-1-1-2.6-1.5c0,0,0.8,1.2,1.2,2.4
		C-568.5,449.6-567.6,449.6-567.3,449.1z"/>
	<path class="st0" d="M-590.9,456.6c0.5,3.5,1.1,7,1.4,10.1c0.6-2.6,0.7-6.5,0.5-9.5l0.5-0.4L-590.9,456.6z"/>
	<path class="st0" d="M-538.1,447.3c0,0-0.1,0-0.2,0.1l-0.5,0.7l-6.6,1l0.6,1.4l7.7-1.2c0.1,0,0.2-0.1,0.2-0.2c0.1-0.1,0-0.2,0-0.3
		l-1-1.4C-537.9,447.3-538,447.3-538.1,447.3z"/>
	<path class="st0" d="M-588.8,454.9c0-0.1,0-0.2-0.1-0.3l-1.1-1.4c-0.1-0.1-0.3-0.1-0.3,0l-0.5,0.7l-0.5,0.1l-0.6-3.1l0.6-0.4
		l-2.4,0.2l0.8,3.7l-2.1,0.4l0.7,1.4l5.3-1.1C-588.9,455.1-588.8,455-588.8,454.9z"/>
	<path class="st0" d="M-445.7,434.5c0,1.7-0.3,4.2-1,6c1.7-1.2,2.7-3.4,2.9-6.1l1.2-0.1l0.2,3.7l-1.5-0.3c0.5,0.3,1.3,0.8,1.4,1.7
		c0.1,1.2,1.9,0.6,1.8-0.5l-0.3-4.9l0.2-0.4c0.1-0.1,0.1-0.2,0.1-0.3c0-0.1-0.1-0.2-0.2-0.3l-0.7-0.6c-0.2-0.1-0.4-0.1-0.6,0.1
		l-0.4,0.5l-4.7,0.3l0.5,1.3L-445.7,434.5z"/>
	<path class="st0" d="M-476.6,436.1c-0.4-0.7-1.5-1.7-2.8-2.2c0,0,0.9,1.6,1.3,3.2C-477.6,438.7-475.7,437.7-476.6,436.1z"/>
	<path class="st0" d="M-435,435.7c-0.4-1.1-1.5-2.3-2.8-3c0,0,0.7,2,1,3.7C-436.5,438.2-434.2,437.8-435,435.7z"/>
	<path class="st0" d="M-446.9,438.5c0.1-0.1,0.1-0.2,0.1-0.3c0-0.1-0.1-0.2-0.2-0.3l-0.7-0.6c-0.2-0.1-0.4-0.1-0.5,0.1l-0.4,0.3
		l-1.2,0.1l1.9-3.8l-1.9-0.6l-0.1,0.6l-1.4,0.1c0.1-0.5,0.2-0.9,0.3-1.4l0.6-0.3l-2.5-0.6c0,1.8-0.4,5.6-0.8,7.8
		c0.2-0.3,0.4-0.6,0.6-1l0.4,6c0.3,4.5,0.3,6.8-0.2,8.6c1.4-1.5,1.8-3.8,1.8-6.1l0.6,0l0.2,3.2l1.5-0.5l-0.2-2.9l0.6,0l0.3,3.9
		l-1.4-0.3c0.9,0.6,1.3,1.2,1.4,1.5c0.1,1.3,1.8,0.7,1.7-0.5l-0.8-12.8L-446.9,438.5z M-451.5,439.4l0.6,0l0.2,2.4l-0.6,0
		L-451.5,439.4z M-451.1,445.7c0-0.3,0-0.6,0-0.9l-0.1-1.5l0.6,0l0.2,2.4L-451.1,445.7z M-450.6,437.8l-1,0.1l0-0.2l0.6-0.4
		l-1.4-0.1c0.2-0.5,0.4-1,0.6-1.6l1.6-0.1L-450.6,437.8z M-449.3,439.2l0.6,0l0.2,2.4l-0.6,0L-449.3,439.2z M-448.9,445.6l-0.2-2.4
		l0.6,0l0.2,2.4L-448.9,445.6z"/>
	<path class="st0" d="M-477.8,448.2l-1.2,0.5l-1.2-12l0.9-0.1c0.1,0,0.2-0.1,0.2-0.2c0-0.1,0-0.2,0-0.3l-0.9-1.5
		c-0.1-0.1-0.1-0.1-0.2-0.1c-0.1,0-0.1,0-0.2,0.1l-0.5,0.6l-4.8,0.5l0.6,1.5l0.4,0l1.3,13.6l-0.9,0.4l1.5,2.3l0-0.7l2.3-2.1l0.5,4.7
		l1.7-0.6l-0.5-5.6L-477.8,448.2z M-483,437l1.1-0.1l0.3,3l-1.1,0.1L-483,437z M-482.6,441.6l1.1-0.1l0.3,3.1l-1.1,0.1L-482.6,441.6
		z M-481.8,450l-0.4-3.8l1.1-0.1l0.3,3.4L-481.8,450z"/>
	<path class="st0" d="M-471.3,445c0.1,0,0.2-0.1,0.2-0.2c0-0.1,0-0.2,0-0.3l-0.9-1.5c0-0.1-0.1-0.1-0.2-0.1c-0.1,0-0.1,0-0.2,0
		l-0.5,0.7l-1.6,0.2c0-1.1-0.1-2.2-0.2-3.4l-0.1-0.7l2.5-0.2c0.1,0,0.2-0.1,0.2-0.2c0.1-0.1,0.1-0.2,0-0.3l-0.9-1.5
		c0-0.1-0.1-0.1-0.2-0.1c-0.1,0-0.1,0-0.2,0l-0.5,0.6l-1.5,0.1c0.8-1.1,1.6-2.6,2-3.7l0.6-0.2l-2.4-0.9c-0.2,1.4-0.4,3.1-0.7,4.8
		l-3.4,0.3l0.6,1.5l2.2-0.2l0.1,1.5c0.1,0.9,0.1,1.7,0.2,2.6l-2.7,0.3l0.6,1.5l2.2-0.2c0,3.6-0.5,7.1-1.9,9.8
		c2.3-1.9,3.4-4.6,3.6-8.5c0.6,3.1,1.8,6.1,3.2,7.8c-0.1-1.2,0.5-1.8,1-2.2c-1.6-1.8-3.1-4.3-3.9-7.1L-471.3,445z"/>
	<path class="st0" d="M-457,434.2c0.1-0.1,0.1-0.2,0.1-0.3c0-0.1-0.1-0.2-0.2-0.3l-0.8-0.7c-0.2-0.1-0.4-0.1-0.6,0.1l-0.4,0.4
		l-8.7,0.7l0-0.2l0.6-0.3l-2.4-0.3l1.7,21.2l1.7-0.6l-0.2-3.1c0.7-1.2,1.3-2.9,1.8-4.8c0.1,0.4,0.3,0.9,0.4,1.3
		c0.6,2.3,2.2,1.2,1.7-0.4c-0.3-0.8-0.8-2.2-1.5-3.7c0.4-1.9,0.6-3.8,0.8-5.4l0.6-0.2l-2.3-1c-0.1,1.4-0.2,2.8-0.3,4
		c-0.7-1.4-1.4-2.6-2-3.2c0.6,1.5,1.2,3.5,1.8,5.6c-0.3,2.5-0.6,4.8-1,7l-1.2-14.4l8.4-0.7l0.2,2.4l-2.2-0.9c-0.1,1.6-0.2,3-0.3,4.4
		c-0.6-1.1-1.1-2-1.6-2.6c0.4,1.3,1,2.9,1.5,4.6c-0.3,3-0.7,5.6-1.2,8.2c0.9-1.2,1.6-3.2,2.1-5.2l0.6,2.3c0.6,2.3,2.2,1.2,1.7-0.4
		c-0.3-1-1-2.7-1.8-4.4c0.4-2,0.6-4,0.8-5.7l0.5-0.1l1.1,13.7l-1.5-0.3c0.6,0.4,1.3,1,1.5,2c0.2,1.3,2,0.7,1.9-0.5l-1.4-17.8
		L-457,434.2z"/>
	<path class="st0" d="M-440.2,446.7c-0.1-0.1-0.1-0.1-0.2-0.1c-0.1,0-0.1,0-0.2,0.1l-0.6,0.6l-0.8,0.1l-0.2-3.3l2-0.1
		c0.1,0,0.2-0.1,0.3-0.2c0-0.1,0-0.2,0-0.3l-0.9-1.4c0,0-0.1-0.1-0.1-0.1s-0.1,0-0.2,0.1l-0.6,0.6l-0.6,0l-0.1-1.9l0.6-0.4l-2.3-0.4
		l0.2,2.8l-0.9,0.1c0.1-0.6,0.2-1.2,0.2-1.7l0.5-0.3l-2-0.3c0.1,2,0,4.3-0.2,6.3c0.5-0.7,0.9-1.6,1.2-2.6l1.4-0.1l0.2,3.3l-2.8,0.2
		l0.5,1.4l2.4-0.2l0.2,3.9l1.6-0.5l-0.2-3.4l2.3-0.1c0.1,0,0.2-0.1,0.3-0.2s0.1-0.2,0-0.3L-440.2,446.7z"/>
	<path class="st0" d="M-409.6,432.5c-0.1-0.1-0.1-0.1-0.2-0.1s-0.1,0-0.2,0.1l-0.6,0.6l-3.9,0.1l-0.1-2l0.6-0.3l-2.4-0.4l0.1,2.8
		l-5.8,0.2l0.5,1.5l3.2-0.1l0.1,2.9c0.2,5.1-1,10.7-2.7,14.1c2.5-2,4.1-5.9,4.4-11.7l4.1-0.1l0.3,9.1l-2.6-0.6
		c0.9,0.5,2.3,1.3,2.5,2.3c0.1,1.3,1.9,0.8,1.9-0.4l-0.4-10.8l0.3-0.3c0.1-0.1,0.1-0.2,0.1-0.3c0-0.1-0.1-0.2-0.2-0.3l-0.8-0.7
		c-0.2-0.1-0.4-0.1-0.6,0l-0.5,0.5l-4.1,0.1c0-0.5,0-1.1,0-1.7l-0.1-2.1l7.5-0.2c0.1,0,0.2-0.1,0.3-0.2c0-0.1,0-0.2,0-0.3
		L-409.6,432.5z"/>
	<path class="st0" d="M-397.8,446l5.1-0.1c0.1,0,0.2-0.1,0.3-0.1c0-0.1,0-0.2,0-0.3l-0.8-1.6c0-0.1-0.1-0.1-0.1-0.1
		c-0.1,0-0.1,0-0.2,0.1l-0.6,0.6l-4.2,0.1l0-1.1l0.6-0.3l-2.4-0.5l0,1.9l-6,0.1l0.5,1.5l4.3-0.1c-1.2,2.1-3.1,4.3-4.7,5.4
		c1.9-0.2,4.5-2.3,6-4.4l0.1,4.3l1.7-0.4l-0.1-4.3c1.2,1.9,3.4,3.8,5.2,4.6c0-0.8,0.2-1.6,0.7-1.9
		C-394.3,448.7-396.4,447.4-397.8,446z"/>
	<path class="st0" d="M-428.5,442.9l4.4-0.2c0.1,0,0.2-0.1,0.3-0.1c0-0.1,0-0.2,0-0.3l-0.8-1.5c0-0.1-0.1-0.1-0.1-0.1
		c-0.1,0-0.1,0-0.2,0.1l-0.5,0.6l-0.1,0l-0.3-5.6l0.3-0.3c0.1-0.1,0.1-0.2,0.1-0.3c0-0.1-0.1-0.2-0.2-0.3l-0.8-0.7
		c-0.2-0.1-0.4-0.1-0.6,0.1l-0.4,0.4l-2.3,0.1l-0.2-3.2l0.7-0.3l-2.5-0.3l0.2,3.9l-2.8,0.1l0.5,1.5l2.3-0.1l0.1,2.6
		c0,1,0.1,1.8,0,2.6l-2.9,0.1l0.5,1.5l2.3-0.1c-0.4,3.7-1.6,6.2-3.8,9.3c2.9-1.4,5.1-4.4,5.6-9.4l0.5,0c0.9,3.9,2.6,7.4,4.4,9
		c0.1-1,0.4-1.6,1.2-2C-425.9,448.2-427.3,445.7-428.5,442.9z M-429.6,441.4c0-0.6,0-1.3,0-2l-0.2-3.3l2.1-0.1l0.3,5.3L-429.6,441.4
		z"/>
	<path class="st0" d="M-437.5,448l1.7,1.8c0.8-3.6,1.2-7.5,1.2-11.6C-435.4,442.1-436.5,445.7-437.5,448z"/>
	<path class="st0" d="M-519.8,446c0.1-0.1,0.1-0.2,0.1-0.3c0-0.1-0.1-0.2-0.2-0.3l-0.8-0.6c-0.2-0.1-0.4-0.1-0.5,0.1l-0.4,0.4
		l-2.4,0.3c0.7-0.8,1.3-1.8,1.7-2.7l0.6-0.1l-1.6-0.7l3.4-0.5c0.1,0,0.2-0.1,0.3-0.2c0-0.1,0-0.2,0-0.3l-1-1.5
		c0-0.1-0.1-0.1-0.2-0.1c-0.1,0-0.1,0-0.2,0.1l-0.5,0.7l-3.9,0.6l-0.2-1.2l0.6-0.4l-2.4-0.2l0.3,2l-5.7,0.8l0.6,1.4l2.6-0.4
		c0.3,0.5,0.9,1.3,1.2,2.1c0.7,1.5,2.6,0.7,1.4-0.9c-0.3-0.4-1-0.9-1.8-1.3l4.7-0.7c-0.3,1.2-0.5,2.4-0.8,3.6l-4.4,0.6l0-0.1
		l0.6-0.4l-2.4-0.2l2.2,15.3l1.7-0.7l-1.1-7.7c1.2-1,2.4-3,2.7-3.6l0.5-0.1l-2-1c-0.2,1.4-0.8,3-1.3,4.3l-0.6-4.4l7.3-1l1.5,10.6
		l-1.5-0.2c0.6,0.4,1.4,0.9,1.6,1.9c0.3,1.3,2,0.5,1.8-0.6l-1.7-12.1L-519.8,446z"/>
	<path class="st0" d="M-537.9,454.9c1,1.3,2.1,3.2,3.1,4.8c0.5,0.9,1.3,1,1.8,0.5c0.4-0.4,0.2-1.2-0.4-1.9
		C-534.3,457.3-536.1,455.9-537.9,454.9z"/>
	<path class="st0" d="M-522.1,452.9l0.2-0.3c0.1-0.1,0.1-0.2,0.1-0.3c0-0.1-0.1-0.2-0.2-0.2l-0.7-0.6c-0.2-0.1-0.3,0-0.5,0.1
		l-0.3,0.4l-2,0.3l0-0.3l0.6-0.3l-2.2,0l0.9,6.2l1.5-0.5l-0.1-0.6l1.8-0.2l0.1,0.9l1.5-0.5L-522.1,452.9z M-525.1,455.5l-0.3-1.9
		l1.8-0.2l0.3,1.9L-525.1,455.5z"/>
	<path class="st0" d="M-533.9,452.6c0.1,0,0.2-0.1,0.2-0.2c0.1-0.1,0-0.2,0-0.3l-1-1.4c0-0.1-0.1-0.1-0.2-0.1c0,0-0.1,0-0.2,0.1
		l-0.5,0.7l-11.2,1.8l0.6,1.4l5.1-0.8l1,6.5l-2.1-0.4c0.6,0.3,1.9,1.1,2.1,2c0.3,1.3,2,0.5,1.8-0.7l-1.2-7.7L-533.9,452.6z"/>
	<path class="st0" d="M-521.8,449.5c-0.5-0.5-1.8-1.2-3.1-1.3c0,0,1.1,1.1,1.9,2.4C-522.2,452-520.5,451-521.8,449.5z"/>
	<path class="st0" d="M-496.6,447.4l-0.6-5l1.4-0.2c0.1,0,0.2-0.1,0.2-0.2c0.1-0.1,0.1-0.2,0-0.3l-1-1.5c-0.1,0-0.1-0.1-0.2-0.1
		c-0.1,0-0.2,0-0.2,0.1l-0.5,0.6l-0.5-4.5l0.6-0.3l-2.3-0.1l0.2,1.9l-1.7-0.2c0.3,3.4,0.5,6.2,0.5,9.3c0.4-1.2,0.7-2.7,0.9-4.3
		l0.9-0.1l0.6,5.7l-2,1.2l1.4,2.2l0-0.9l0.8-1l0.8,7.2l1.6-0.5l-0.9-8.4l1.5-1.7L-496.6,447.4z M-499.6,441.1c0.1-1,0.1-2,0.1-2.9
		l0.2-0.1l0.3,3L-499.6,441.1z"/>
	<path class="st0" d="M-503,448.8c0.1-0.1,0.1-0.2,0.1-0.3c0-0.1-0.1-0.2-0.2-0.3l-0.8-0.5c-0.2-0.1-0.4,0-0.5,0.1l-0.4,0.5
		l-2.3,0.3l0-0.4l0.7-0.4l-2.4,0l1.3,10.5l1.7-0.7l-0.1-0.5l2-0.3l0.1,1l1.6-0.8l-1-7.9L-503,448.8z M-506.3,455.6l-0.7-5.5l2-0.3
		l0.7,5.5L-506.3,455.6z"/>
	<path class="st0" d="M-487.6,439.1c0.1-0.1,0.1-0.2,0.1-0.3c0-0.1-0.1-0.2-0.2-0.3l-0.8-0.6c-0.2-0.1-0.4-0.1-0.5,0.1l-0.3,0.3
		l-4.4,0.5c0.1-1,0.2-1.9,0.3-2.7l0.5-0.3l-2.4-0.4c0.1,3.7,0.2,7.6,0,10.3c0.6-1.4,1-3.3,1.3-5.3l0.5-0.1c0.1,5-0.1,9-0.9,13.2
		c2-3.6,2.6-7.7,2.6-13.4l0.4,0c0.3,6.9-0.2,12-1.2,16.2c2.5-3.8,3-8.8,2.8-16.3l0.3,0l1.5,13.8l-1.8-0.4c0.6,0.4,1.6,1,1.8,2
		c0.3,1.3,2,0.6,1.9-0.6l-1.7-15.3L-487.6,439.1z"/>
	<path class="st0" d="M-509.5,449.6c0.1-0.1,0.1-0.2,0.1-0.3c0-0.1-0.1-0.2-0.2-0.3l-0.8-0.5c-0.2-0.1-0.4,0-0.6,0.1l-0.4,0.5
		l-2.3,0.3l0-0.4l0.7-0.4l-2.5,0l1.3,10.5l1.7-0.7l-0.1-0.5l2-0.3l0.1,1l1.6-0.8l-1-7.9L-509.5,449.6z M-512.8,456.4l-0.7-5.5l2-0.3
		l0.7,5.5L-512.8,456.4z"/>
	<path class="st0" d="M-541.4,456.9l-2.3-1.1c-0.5,2.4-1.1,4.7-1.7,7c1.8-1.6,3-4.4,3.5-5.6L-541.4,456.9z"/>
</g>
</svg>
